<svg width="26" height="26" viewBox="0 0 26 26" fill="none" xmlns="http://www.w3.org/2000/svg">
<path d="M25.5212 17.8382L23.8088 14.3454V12.866C23.8088 10.383 22.2957 7.28906 19.357 5.75561C17.9271 2.59107 14.6951 0 10.2236 0C4.73172 0 0.262451 4.24087 0.262451 9.45417C0.262451 12.0619 1.37265 14.5054 3.33904 16.2861L2.02301 21.2043C1.79746 22.0459 2.11498 22.9414 2.82883 23.4858C3.24269 23.8037 3.76604 23.9762 4.30034 23.9762C4.66165 23.9762 5.02734 23.8951 5.35142 23.7393L9.36741 21.8277L8.53093 24.9548C8.44553 25.2728 8.56377 25.6094 8.8353 25.8151C9.10245 26.0208 9.47471 26.0582 9.78127 25.9106L15.3104 23.2759H22.6679C23.2964 23.2759 23.8088 22.7918 23.8088 22.1976V19.2283L25.265 18.5322C25.5365 18.4055 25.6482 18.098 25.5212 17.8382ZM20.176 15.1225L18.7198 15.8186V18.7837C18.7198 19.38 18.2118 19.8662 17.5833 19.8662H10.2236L9.84258 20.047L4.69449 22.4988C4.38355 22.6464 4.01348 22.609 3.74634 22.4012C3.47481 22.1955 3.36094 21.8609 3.44196 21.5451L4.97916 15.7957C2.99963 14.3205 1.72739 12.0307 1.72739 9.45417C1.72739 4.99928 5.53098 1.39007 10.2214 1.39007C13.5038 1.39007 15.8644 2.98585 17.2505 4.99928C18.2227 6.41221 18.7198 8.035 18.7198 9.45417V10.9336L20.4344 14.4244C20.5636 14.6841 20.4475 14.9958 20.176 15.1225Z" fill="#007BFF"/>
<path d="M20.1747 15.1226L18.7185 15.8186V18.7837C18.7185 19.3801 18.2105 19.8663 17.582 19.8663H10.2223L9.84127 20.0471L4.69318 22.4989C4.38223 22.6464 4.01217 22.609 3.74502 22.4012C3.47349 22.1955 3.35962 21.861 3.44064 21.5452L4.97785 15.7958C2.99832 14.3205 1.72607 12.0307 1.72607 9.45423C1.72607 4.99934 5.52966 1.39014 10.2201 1.39014C13.5025 1.39014 15.8631 2.98592 17.2492 4.99934C18.2214 6.41227 18.7185 8.03507 18.7185 9.45423V10.9337L20.4331 14.4244C20.5623 14.6841 20.4462 14.9958 20.1747 15.1226Z" fill="white"/>
</svg>
