<svg width="25" height="31" viewBox="0 0 25 31" fill="none" xmlns="http://www.w3.org/2000/svg">
<path d="M1 9.94434H20.1667" stroke="#007BFF"/>
<path d="M4.19434 20.1667H23.9999" stroke="#007BFF"/>
<path d="M3.55566 7.38892H11.2223" stroke="#007BFF"/>
<path d="M5.47217 2.91675H13.1388" stroke="#007BFF"/>
<path d="M13.8625 6.58065L15.4181 3.46953C15.5875 3.13075 15.9337 2.91675 16.3125 2.91675H19.8264C20.5698 2.91675 21.0533 3.69906 20.7209 4.36396L19.1653 7.47507C18.9959 7.81386 18.6497 8.02786 18.2709 8.02786H14.757C14.0136 8.02786 13.5301 7.24555 13.8625 6.58065Z" stroke="#007BFF"/>
<path d="M4.91794 25.7472L6.4735 22.636C6.64289 22.2973 6.98915 22.0833 7.36793 22.0833H10.8819C11.6252 22.0833 12.1087 22.8656 11.7763 23.5305L10.2207 26.6416C10.0513 26.9804 9.70507 27.1944 9.3263 27.1944H5.81237C5.06899 27.1944 4.58549 26.4121 4.91794 25.7472Z" stroke="#007BFF"/>
<path d="M4.83325 12.5H18.2499" stroke="#007BFF"/>
<path d="M7.38892 17.6111H20.1667" stroke="#007BFF"/>
<path d="M14.4167 22.7222H21.4445" stroke="#007BFF"/>
<path d="M11.8611 26.5557H18.8889" stroke="#007BFF"/>
<path d="M22.4835 1H5.49273C5.0927 1 4.73116 1.2384 4.57358 1.60608L1.16317 9.56372C1.05869 9.80749 1.05534 10.0828 1.15383 10.329L4.68944 19.168C4.78202 19.3995 4.78482 19.6572 4.69729 19.8906L1.50667 28.3989C1.26151 29.0526 1.74479 29.75 2.443 29.75H19.4737C19.8905 29.75 20.2636 29.4914 20.41 29.1011L23.864 19.8906C23.9515 19.6572 23.9487 19.3995 23.8561 19.168L20.3205 10.329C20.222 10.0828 20.2254 9.8075 20.3298 9.56372L23.4026 2.39392C23.6854 1.73405 23.2014 1 22.4835 1Z" stroke="#007BFF"/>
</svg>
