<svg width="21" height="21" viewBox="0 0 21 21" fill="none" xmlns="http://www.w3.org/2000/svg">
<path d="M14.5 2.5C15 5.5 17.8333 6.5 19 7" stroke="#007BFF"/>
<path d="M1 17L4 14" stroke="#007BFF"/>
<path d="M1 20.5L4.5 17" stroke="#007BFF"/>
<path d="M4.5 20.5L7.5 17.5" stroke="#007BFF"/>
<path d="M4.5 12L1.5 10C4 7 6.66667 7.5 8 7.5" stroke="#007BFF"/>
<path d="M8.99972 16.5L11.2614 20.1045C14.0469 18.1432 13.9233 14.6403 13.9996 13.5" stroke="#007BFF"/>
<path d="M4.5 12C6.5 15.2 8.83333 16.8333 9.5 17" stroke="#007BFF"/>
<path d="M4.5 12.5C12.5 2.76566e-05 18 1.50002 20 1.50003C20 11.5 12.5 14 9 17" stroke="#007BFF"/>
</svg>
