<svg width="22" height="22" viewBox="0 0 22 22" fill="none" xmlns="http://www.w3.org/2000/svg">
<path d="M11 1C16.5228 1 21 5.47715 21 11C21 16.5228 16.5228 21 11 21C5.47715 21 1 16.5228 1 11C1 5.47715 5.47715 1 11 1Z" stroke="#007BFF"/>
<path d="M11 1C20 5.5 15 21 11 21" stroke="#007BFF"/>
<path d="M11 1C2.07812 5.5 7.03472 21 11 21" stroke="#007BFF"/>
<path d="M11 1V21" stroke="#007BFF"/>
<path d="M1 11H21" stroke="#007BFF"/>
<path d="M3.5 4.5C7.1 6.1 12.5 7 18.5 4.5" stroke="#007BFF"/>
<path d="M3.5 17.5C8 16 11.5 14.5 18.5 17.5" stroke="#007BFF"/>
</svg>
