<svg width="44" height="59" viewBox="0 0 44 59" fill="none" xmlns="http://www.w3.org/2000/svg">
<path d="M4 1H26.9822C27.7505 1 28.4895 1.29479 29.0469 1.82361L41.9654 14.0796C42.5625 14.6461 42.9007 15.433 42.9007 16.256V55C42.9007 56.6569 41.5575 58 39.9007 58H4C2.34315 58 1 56.6569 1 55V4C1 2.34315 2.34314 1 4 1Z" stroke="#007BFF" stroke-width="2"/>
<path d="M28.1797 1V12.3444C28.1797 14.0012 29.5228 15.3444 31.1797 15.3444H43.279" stroke="#007BFF" stroke-width="2"/>
<path d="M9.30469 26.2915H33.4636" stroke="#007BFF" stroke-width="2"/>
<path d="M9.30469 33.0859H33.4636" stroke="#007BFF" stroke-width="2"/>
<path d="M9.30469 40.6357H33.4636" stroke="#007BFF" stroke-width="2"/>
<path d="M9.30469 47.4307H27.0464" stroke="#007BFF" stroke-width="2"/>
</svg>
