<svg width="50" height="33" viewBox="0 0 50 33" fill="none" xmlns="http://www.w3.org/2000/svg">
<rect x="10" y="5" width="30" height="22" fill="white"/>
<path d="M47.9804 5.12858C47.703 4.13885 47.1625 3.24279 46.4165 2.53567C45.6494 1.8068 44.7093 1.28542 43.6848 1.02075C39.8505 0.0101242 24.489 0.0101244 24.489 0.0101244C18.085 -0.0627373 11.6825 0.257727 5.31776 0.969707C4.29323 1.25393 3.35483 1.78696 2.58601 2.52137C1.83059 3.24821 1.28343 4.1445 0.997593 5.12654C0.310967 8.82552 -0.0226437 12.5814 0.00126008 16.3435C-0.0232399 20.1022 0.309552 23.8568 0.997593 27.5604C1.2773 28.5383 1.82243 29.4305 2.57988 30.1513C3.33734 30.872 4.28059 31.3926 5.31776 31.6682C9.20305 32.6768 24.489 32.6768 24.489 32.6768C30.9012 32.7498 37.3118 32.4293 43.6848 31.7172C44.7093 31.4525 45.6494 30.9312 46.4165 30.2023C47.1623 29.4953 47.7021 28.5991 47.9784 27.6094C48.6829 23.9118 49.0255 20.1544 49.0013 16.3904C49.0542 12.6105 48.7121 8.83536 47.9804 5.12654V5.12858ZM19.6053 23.3341V9.35483L32.3862 16.3455L19.6053 23.3341Z" fill="black" fill-opacity="0.76"/>
</svg>
