<svg width="71" height="93" viewBox="0 0 71 93" fill="none" xmlns="http://www.w3.org/2000/svg">
<path d="M7.58323 2H63.9988C66.7602 2 68.9988 4.23858 68.9988 7V86.3317C68.9988 89.0932 66.7602 91.3317 63.9988 91.3317H7.58323C5.72216 91.3317 2 90.2151 2 85.7485V7.58323C2 5.72216 3.11665 2 7.58323 2Z" stroke="white" stroke-width="3"/>
<path d="M11 23.1258V2.5C11 2.22386 11.2239 2 11.5 2H27.2497C27.5258 2 27.7497 2.22386 27.7497 2.5V23.1258C27.7497 23.5713 27.2111 23.7944 26.8961 23.4794L19.7284 16.3116C19.5331 16.1164 19.2166 16.1164 19.0213 16.3116L11.8536 23.4794C11.5386 23.7944 11 23.5713 11 23.1258Z" fill="white"/>
<path d="M69 80.1653H13.1677C2 80.1653 2.00111 82.9569 2 85.7485" stroke="white" stroke-width="3"/>
<path d="M60.2312 33.0603C60.4441 32.8686 60.4528 32.5376 60.2503 32.3351L55.0397 27.1245L49.81 21.8948C49.6147 21.6996 49.2981 21.6996 49.1029 21.8948L41.0816 29.9161L51.687 40.75L60.2312 33.0603Z" fill="white"/>
<path d="M41.0816 29.9161L49.1029 21.8948C49.2981 21.6996 49.6147 21.6996 49.81 21.8948L55.0397 27.1245L60.2503 32.3351C60.4528 32.5376 60.4441 32.8686 60.2312 33.0603L51.687 40.75M41.0816 29.9161L21.6237 49.374C21.5688 49.4289 21.5275 49.4958 21.5029 49.5694L16.3388 65.062C16.1979 65.4846 16.6383 65.8665 17.0367 65.6673L32.6462 57.8626C32.6864 57.8425 32.7237 57.817 32.7571 57.787L51.687 40.75M41.0816 29.9161L51.687 40.75" stroke="white" stroke-width="3"/>
</svg>
