<svg width="71" height="78" viewBox="0 0 71 78" fill="none" xmlns="http://www.w3.org/2000/svg">
<path d="M70.8534 53.0404L66.0499 42.6547V38.2558C66.0499 30.8728 61.8055 21.6734 53.5623 17.1138C49.5513 7.7043 40.485 0 27.9421 0C12.5368 0 0 12.6098 0 28.1111C0 35.8648 3.11423 43.1305 8.63017 48.4252L4.93854 63.0492C4.30587 65.5514 5.19653 68.2142 7.19897 69.8329C8.3599 70.7782 9.82795 71.291 11.3267 71.291C12.3402 71.291 13.366 71.05 14.2751 70.5867L25.5404 64.9027L23.194 74.201C22.9544 75.1462 23.2861 76.1471 24.0478 76.7588C24.7971 77.3704 25.8414 77.4816 26.7013 77.043L42.211 69.2089H62.8497C64.6126 69.2089 66.0499 67.7694 66.0499 66.0024V57.1737L70.1347 55.1039C70.8963 54.7271 71.2096 53.8127 70.8534 53.0404ZM55.8596 44.9654L51.7749 47.0351V55.8515C51.7749 57.6247 50.3498 59.0704 48.5869 59.0704H27.9421L26.8733 59.6079L12.4324 66.8982C11.5601 67.3369 10.522 67.2257 9.77266 66.6079C9.011 65.9962 8.69159 65.0015 8.91886 64.0624L13.2309 46.9672C7.67808 42.5806 4.10931 35.7722 4.10931 28.1111C4.10931 14.8649 14.7788 4.13326 27.9359 4.13326C37.1435 4.13326 43.7651 8.87817 47.6533 14.8649C50.3805 19.0661 51.7749 23.8913 51.7749 28.1111V32.51L56.5844 42.8895C56.9468 43.6618 56.6213 44.5885 55.8596 44.9654Z" fill="white"/>
<path d="M55.8597 44.9655L51.7749 47.0352V55.8516C51.7749 57.6247 50.3499 59.0704 48.587 59.0704H27.9422L26.8734 59.6079L12.4324 66.8983C11.5602 67.337 10.5221 67.2257 9.77273 66.6079C9.01106 65.9963 8.69166 65.0016 8.91893 64.0625L13.2309 46.9672C7.67815 42.5806 4.10938 35.7722 4.10938 28.1111C4.10938 14.8649 14.7788 4.1333 27.936 4.1333C37.1436 4.1333 43.7651 8.87821 47.6533 14.8649C50.3806 19.0662 51.7749 23.8914 51.7749 28.1111V32.5101L56.5845 42.8896C56.9469 43.6618 56.6213 44.5886 55.8597 44.9655Z" fill="#007BFF"/>
</svg>
