<svg width="71" height="71" viewBox="0 0 71 71" fill="none" xmlns="http://www.w3.org/2000/svg">
<path fill-rule="evenodd" clip-rule="evenodd" d="M52.7411 34.2412H55.9802C56.0579 34.2412 56.121 34.3043 56.121 34.382V49.5916C56.121 49.6694 56.0579 49.7324 55.9802 49.7324H52.7411C52.6633 49.7324 52.6003 49.6694 52.6003 49.5916V48.5321C52.6003 48.4325 52.5008 48.3639 52.4081 48.4005C49.5642 49.5231 44.855 50.4366 42.0381 46.2117C39.2288 41.2957 42.4945 36.9994 43.4392 36.3587C43.4446 36.355 43.4491 36.3513 43.4537 36.3466C45.5662 34.2413 48.9711 34.2646 52.4314 34.9127C52.5188 34.929 52.6003 34.8624 52.6003 34.7736V34.382C52.6003 34.3043 52.6633 34.2412 52.7411 34.2412ZM49.0798 38.4661C50.6354 38.4661 51.8964 39.7271 51.8964 41.2827V42.691C51.8964 44.2465 50.6354 45.5075 49.0798 45.5075H48.3757C46.4312 45.5075 44.855 43.9313 44.855 41.9868C44.855 40.0424 46.4312 38.4661 48.3757 38.4661H49.0798Z" fill="white"/>
<path fill-rule="evenodd" clip-rule="evenodd" d="M13.241 49.5408L25.1027 18.8401C25.1236 18.7858 25.1758 18.75 25.234 18.75H29.2665C29.3243 18.75 29.3763 18.7853 29.3975 18.8391L41.5208 49.5398C41.5573 49.6323 41.4892 49.7324 41.3898 49.7324H37.9049C37.8486 49.7324 37.7977 49.6988 37.7755 49.647L33.6238 39.9597C33.6016 39.9079 33.5507 39.8744 33.4943 39.8744H21.0118C20.9523 39.8744 20.8992 39.9118 20.8792 39.9678L17.4252 49.6389C17.4052 49.695 17.3521 49.7324 17.2926 49.7324H13.3724C13.2735 49.7324 13.2054 49.6331 13.241 49.5408ZM22.4702 36.3536C22.399 36.3536 22.3506 36.2814 22.3777 36.2156L27.1574 24.6077C27.1914 24.5252 27.3084 24.5252 27.3424 24.6077L32.1221 36.2156C32.1492 36.2814 32.1008 36.3536 32.0296 36.3536H22.4702Z" fill="white"/>
<path d="M35.5 2C54.0015 2 69 16.9985 69 35.5C69 54.0015 54.0015 69 35.5 69C16.9985 69 2 54.0015 2 35.5C2 16.9985 16.9985 2 35.5 2Z" stroke="white" stroke-width="4"/>
</svg>
