<svg width="121" height="131" viewBox="0 0 121 131" fill="none" xmlns="http://www.w3.org/2000/svg">
<path d="M101.52 113.8C103.464 113.8 105.04 112.278 105.04 110.4C105.04 108.522 103.464 107 101.52 107C99.576 107 98 108.522 98 110.4C98 112.278 99.576 113.8 101.52 113.8Z" stroke="white" stroke-width="2.5" stroke-miterlimit="10" stroke-linecap="round" stroke-linejoin="round"/>
<path d="M34.52 130.8C36.464 130.8 38.04 129.278 38.04 127.4C38.04 125.522 36.464 124 34.52 124C32.5759 124 31 125.522 31 127.4C31 129.278 32.5759 130.8 34.52 130.8Z" fill="white"/>
<path d="M80.2814 65.3114C80.2814 65.3114 79.2659 75.3888 76.5861 79C76.5861 79 83.3984 73.3977 85.9324 65.3114C91.5506 65.3114 105.5 65.3114 110.427 65.3114C115.354 65.3114 118.034 62.6811 118.471 55.8344C118.903 48.9876 119.975 39.3251 116.821 36.1091C114.188 33.4202 108.396 34.0205 101.057 33.9082C93.718 33.796 67.141 33.1177 60.8928 33.0054C54.6446 32.8932 50.8365 34.4743 50.404 42.4288C49.9714 50.3833 49.9714 53.5993 50.0232 57.4936C50.0796 61.3879 51.6545 65.165 58.3917 65.5603C65.1335 65.9507 80.2814 65.3114 80.2814 65.3114Z" stroke="white" stroke-width="2.5" stroke-miterlimit="10" stroke-linecap="round" stroke-linejoin="round"/>
<path d="M69.9273 49.7181L69.9226 49.717C69.4439 49.5998 69.0699 49.0852 69.3343 48.346C69.6285 47.5333 70.4725 47.1332 71.0707 47.2821L71.0754 47.2832C71.5585 47.4015 71.9302 47.9186 71.6647 48.6517L71.6633 48.6555C71.3743 49.4617 70.5267 49.8673 69.9273 49.7181Z" stroke="white" stroke-width="2.5"/>
<path d="M82.3353 48.3485L82.3358 48.3473C82.6295 47.5337 83.4742 47.1332 84.0727 47.2821L84.0774 47.2832C84.5564 47.4005 84.9305 47.9157 84.6653 48.6555C84.3763 49.4617 83.5286 49.8673 82.9293 49.7181L82.9246 49.717C82.4415 49.5987 82.0698 49.0816 82.3353 48.3485Z" stroke="white" stroke-width="2.5"/>
<path d="M96.3347 48.3447L96.3351 48.3436C96.6236 47.5364 97.4695 47.1325 98.0707 47.2821L98.0754 47.2832C98.5585 47.4015 98.9302 47.9186 98.6647 48.6517L98.6633 48.6555C98.3743 49.4617 97.5267 49.8673 96.9273 49.7181L96.9226 49.717C96.4436 49.5998 96.0695 49.0846 96.3347 48.3447Z" stroke="white" stroke-width="2.5"/>
<path d="M30 18C34.4183 18 38 14.4183 38 10C38 5.58172 34.4183 2 30 2C25.5817 2 22 5.58172 22 10C22 14.4183 25.5817 18 30 18Z" stroke="white" stroke-width="2.5" stroke-miterlimit="10" stroke-linecap="round" stroke-linejoin="round"/>
<path d="M30 13C31.6569 13 33 11.6569 33 10C33 8.34315 31.6569 7 30 7C28.3431 7 27 8.34315 27 10C27 11.6569 28.3431 13 30 13Z" stroke="white" stroke-width="2.5" stroke-miterlimit="10" stroke-linecap="round" stroke-linejoin="round"/>
<path d="M38 10H76.1092L83 33" stroke="white" stroke-width="2.5" stroke-miterlimit="10" stroke-linecap="round" stroke-linejoin="round"/>
<path d="M21.8316 54C29.0883 58.2854 34.1352 66.2663 21.1821 76.2331C9.10989 85.528 2.36829 83.0195 2.00993 78.0324C1.52466 71.343 18.9199 61.8092 33.1796 78.8088C44.4529 92.2472 27.2592 102.319 26.5574 99.2202C25.8556 96.1219 43.0195 85.0203 68.4852 108" stroke="white" stroke-width="2.5" stroke-miterlimit="10" stroke-linecap="round" stroke-linejoin="round"/>
</svg>
