<svg width="28" height="32" viewBox="0 0 28 32" fill="none" xmlns="http://www.w3.org/2000/svg">
<path d="M1 10.3333H22.2121" stroke="#007BFF" stroke-width="1.5"/>
<path d="M4.53516 21H26.4543" stroke="#007BFF" stroke-width="1.5"/>
<path d="M9.85352 5.17392H17.8466" stroke="#007BFF" stroke-width="1.5"/>
<path d="M9.85352 26.0435H17.8466" stroke="#007BFF" stroke-width="1.5"/>
<path d="M9.85352 15.6087H17.8466" stroke="#007BFF" stroke-width="1.5"/>
<path d="M24.9015 1H5.88634C5.49419 1 5.13824 1.2292 4.97597 1.5862L1.18179 9.9334C1.06594 10.1883 1.06223 10.48 1.17157 10.7378L5.08194 19.955C5.18476 20.1974 5.18786 20.4705 5.09056 20.7152L1.54472 29.6304C1.28357 30.287 1.76729 31 2.47392 31H21.5337C21.9433 31 22.3115 30.7502 22.4629 30.3696L26.3027 20.7152C26.4 20.4705 26.3969 20.1974 26.2941 19.955L22.3837 10.7378C22.2744 10.48 22.2781 10.1883 22.3939 9.9334L25.8119 2.4138C26.1129 1.7517 25.6288 1 24.9015 1Z" stroke="#007BFF" stroke-width="1.5"/>
</svg>
