<svg width="29" height="29" viewBox="0 0 29 29" fill="none" xmlns="http://www.w3.org/2000/svg">
<path d="M1 14.6144C1 7.13299 7.24943 1.10592 14.7298 1.23271C22.0319 1.35647 28 7.3132 28 14.6164C28 22.0079 21.8926 28 14.501 28C7.10833 28 1 22.0071 1 14.6144Z" stroke="#007BFF" stroke-width="1.5"/>
<path d="M15.0757 17.4373C15.0757 16.9218 15.1837 16.6546 15.5977 16.3491L16.6957 15.6046C18.1897 14.6309 18.9997 13.6764 18.9997 11.9009C18.9997 9.59092 17.5597 8.21637 15.0217 8.21637C12.5737 8.21637 11.0977 9.72455 11.0977 12.0155V12.7027H13.3297V12.1491C13.3297 11.0609 13.9417 10.2782 15.0217 10.2782C16.0837 10.2782 16.6957 10.9082 16.6957 11.9009C16.6957 12.7409 16.1737 13.2946 15.4717 13.7718L14.2117 14.6309C13.0057 15.4518 12.7717 15.9291 12.7717 17.0936V17.5136H15.0757V17.4373ZM12.5557 21.4231H15.2917V18.9646H12.5557V21.4231Z" fill="#007BFF"/>
</svg>
