<svg width="25" height="25" viewBox="0 0 25 25" fill="none" xmlns="http://www.w3.org/2000/svg">
<path d="M0 12.5C0 5.59644 5.59644 0 12.5 0V0C19.4036 0 25 5.59644 25 12.5V12.5C25 19.4036 19.4036 25 12.5 25V25C5.59644 25 0 19.4036 0 12.5V12.5Z" fill="white"/>
<path d="M8.32195 8.79795C9.12755 8.79795 9.78061 8.14488 9.78061 7.33928C9.78061 6.53368 9.12755 5.88062 8.32195 5.88062C7.51635 5.88062 6.86328 6.53368 6.86328 7.33928C6.86328 8.14488 7.51635 8.79795 8.32195 8.79795Z" fill="#007BFF"/>
<path d="M11.1572 9.90337V17.996H13.6698V13.994C13.6698 12.938 13.8685 11.9154 15.1778 11.9154C16.4692 11.9154 16.4852 13.1227 16.4852 14.0607V17.9967H18.9992V13.5587C18.9992 11.3787 18.5298 9.70337 15.9818 9.70337C14.7585 9.70337 13.9385 10.3747 13.6032 11.01H13.5692V9.90337H11.1572V9.90337ZM7.0625 9.90337H9.57917V17.996H7.0625V9.90337Z" fill="#007BFF"/>
</svg>
