<svg width="25" height="25" viewBox="0 0 25 25" fill="none" xmlns="http://www.w3.org/2000/svg">
<g clip-path="url(#clip0_2_15680)">
<path d="M12.5 0C5.59639 0 0 5.59639 0 12.5C0 19.4036 5.59639 25 12.5 25C19.4036 25 25 19.4036 25 12.5C25 5.59639 19.4036 0 12.5 0Z" fill="white"/>
<path d="M18.5832 7.19032L16.3505 18.4471C16.3505 18.4471 16.0383 19.2277 15.1796 18.853L10.0274 14.903L8.15401 13.9975L5.00029 12.9358C5.00029 12.9358 4.51631 12.7641 4.46943 12.3894C4.42256 12.0147 5.01592 11.8118 5.01592 11.8118L17.5526 6.89384C17.5526 6.89384 18.5831 6.4411 18.5831 7.19052" fill="#007BFF"/>
<path d="M9.62988 18.3205C9.62988 18.3205 9.47949 18.3064 9.29199 17.7131C9.10478 17.1198 8.15234 13.9974 8.15234 13.9974L15.7244 9.18877C15.7244 9.18877 16.1616 8.92334 16.146 9.18877C16.146 9.18877 16.224 9.23564 15.9897 9.4542C15.7557 9.67285 10.0415 14.8093 10.0415 14.8093" fill="#F6F9FF"/>
<path d="M12.0022 16.4174L9.96445 18.2754C9.96445 18.2754 9.80508 18.3963 9.63086 18.3206L10.0211 14.8694" fill="#007BFF"/>
</g>
<defs>
<clipPath id="clip0_2_15680">
<rect width="25" height="25" fill="white"/>
</clipPath>
</defs>
</svg>
