<svg width="25" height="25" viewBox="0 0 25 25" fill="none" xmlns="http://www.w3.org/2000/svg">
<path d="M0 12.5C0 5.59644 5.59644 0 12.5 0V0C19.4036 0 25 5.59644 25 12.5V12.5C25 19.4036 19.4036 25 12.5 25V25C5.59644 25 0 19.4036 0 12.5V12.5Z" fill="white"/>
<path fill-rule="evenodd" clip-rule="evenodd" d="M18.9713 9.23719C19.0721 8.90123 18.9713 8.6543 18.4917 8.6543H16.9059C16.5026 8.6543 16.3169 8.86759 16.2161 9.10285C16.2161 9.10285 15.4096 11.0684 14.2671 12.3452C13.8975 12.7148 13.7296 12.8323 13.5279 12.8323C13.4271 12.8323 13.2812 12.7148 13.2812 12.3789V9.23719C13.2812 8.83394 13.1642 8.6543 12.8281 8.6543H10.3362C10.0843 8.6543 9.93272 8.84142 9.93272 9.0188C9.93272 9.40109 10.5038 9.48921 10.5627 10.5644V12.8997C10.5627 13.4117 10.4703 13.5045 10.2687 13.5045C9.7311 13.5045 8.42351 11.53 7.64783 9.27083C7.49582 8.83168 7.34336 8.6543 6.93808 8.6543H5.35229C4.89921 8.6543 4.80859 8.86759 4.80859 9.10285C4.80859 9.52285 5.34629 11.6061 7.31187 14.3613C8.62241 16.2427 10.4685 17.2629 12.1485 17.2629C13.1566 17.2629 13.2812 17.0363 13.2812 16.6461V15.224C13.2812 14.7709 13.3767 14.6805 13.6958 14.6805C13.9312 14.6805 14.3343 14.7981 15.2752 15.7053C16.3504 16.7803 16.5276 17.2629 17.1324 17.2629H18.7182C19.1713 17.2629 19.3978 17.0363 19.2671 16.5892C19.1242 16.1436 18.6108 15.4973 17.9296 14.7309C17.56 14.294 17.0056 13.8236 16.8377 13.5885C16.6024 13.286 16.6696 13.1517 16.8377 12.883C16.8377 12.883 18.7696 10.1614 18.9713 9.2373V9.23719Z" fill="#007BFF"/>
</svg>
