<svg width="25" height="25" viewBox="0 0 25 25" fill="none" xmlns="http://www.w3.org/2000/svg">
<path d="M0 12.5C0 5.59644 5.59644 0 12.5 0V0C19.4036 0 25 5.59644 25 12.5V12.5C25 19.4036 19.4036 25 12.5 25V25C5.59644 25 0 19.4036 0 12.5V12.5Z" fill="white"/>
<path d="M19.3747 11.0687C19.4056 10.1741 19.2099 9.28619 18.8059 8.48743C18.5318 8.15968 18.1513 7.9385 17.7309 7.86243C15.9919 7.70463 14.2456 7.63996 12.4997 7.66868C10.7601 7.63865 9.02009 7.70124 7.28715 7.85618C6.94454 7.9185 6.62747 8.07921 6.37465 8.31868C5.81215 8.83743 5.74965 9.72493 5.68715 10.4749C5.59647 11.8234 5.59647 13.1765 5.68715 14.5249C5.70523 14.9471 5.76808 15.3661 5.87465 15.7749C5.95001 16.0906 6.10248 16.3826 6.3184 16.6249C6.57294 16.8771 6.89739 17.0469 7.24965 17.1124C8.5971 17.2788 9.95479 17.3477 11.3122 17.3187C13.4997 17.3499 15.4184 17.3187 17.6872 17.1437C18.0481 17.0822 18.3816 16.9121 18.6434 16.6562C18.8184 16.4811 18.9491 16.2669 19.0247 16.0312C19.2482 15.3453 19.358 14.6275 19.3497 13.9062C19.3747 13.5562 19.3747 11.4437 19.3747 11.0687ZM11.0872 14.2812V10.4124L14.7872 12.3562C13.7497 12.9312 12.3809 13.5812 11.0872 14.2812Z" fill="#007BFF"/>
</svg>
