<svg width="47" height="63" viewBox="0 0 47 63" fill="none" xmlns="http://www.w3.org/2000/svg">
<path d="M8.29688 36.625L12.1598 40.0587" stroke="#007BFF" stroke-width="1.5"/>
<path d="M25.0352 36.625L28.8981 40.0587" stroke="#007BFF" stroke-width="1.5"/>
<path d="M14.7344 33.6201V38.7707" stroke="#007BFF" stroke-width="1.5"/>
<path d="M31.4746 33.6201V38.7707" stroke="#007BFF" stroke-width="1.5"/>
<path d="M17.7402 40.9171L21.1739 37.0542" stroke="#007BFF" stroke-width="1.5"/>
<path d="M34.4785 40.9171L37.9122 37.0542" stroke="#007BFF" stroke-width="1.5"/>
<path d="M16.7399 42.2046H13.1602C12.6079 42.2046 12.1602 42.6523 12.1602 43.2046V50.3597C12.1601 64.5237 32.3332 66.2406 33.6209 50.3597V43.2046C33.6209 42.6523 33.1732 42.2046 32.6209 42.2046H29.0411C28.4888 42.2046 28.0411 42.6523 28.0411 43.2046V49.072C27.1827 56.3687 18.5985 56.3687 17.7399 49.072V43.2046C17.7399 42.6523 17.2922 42.2046 16.7399 42.2046Z" stroke="#007BFF" stroke-width="1.5"/>
<path d="M12.1602 46.0674H17.3107" stroke="#007BFF" stroke-width="1.5"/>
<path d="M28.4688 46.4966H33.1901" stroke="#007BFF" stroke-width="1.5"/>
<path d="M5.29297 5.29214C5.29297 2.92166 7.21463 1 9.58511 1C11.9556 1 13.8773 2.92166 13.8773 5.29214C13.8773 7.66263 11.9556 9.58428 9.58511 9.58428C7.21463 9.58428 5.29297 7.66263 5.29297 5.29214Z" stroke="#007BFF" stroke-width="1.5"/>
<path d="M32.7617 5.29214C32.7617 2.92166 34.6834 1 37.0539 1C39.4243 1 41.346 2.92166 41.346 5.29214C41.346 7.66263 39.4243 9.58428 37.0539 9.58428C34.6834 9.58428 32.7617 7.66263 32.7617 5.29214Z" stroke="#007BFF" stroke-width="1.5"/>
<path d="M18.168 8.72574C18.168 6.35525 20.0896 4.43359 22.4601 4.43359C24.8306 4.43359 26.7523 6.35525 26.7523 8.72574C26.7523 11.0962 24.8306 13.0179 22.4601 13.0179C20.0896 13.0179 18.168 11.0962 18.168 8.72574Z" stroke="#007BFF" stroke-width="1.5"/>
<path d="M17.1686 26.7529H2C1.44772 26.7529 1 26.3052 1 25.7529V18.9459C1 18.8009 1.03213 18.6548 1.09549 18.5245C4.86039 10.778 15.2347 11.5904 18.0986 18.5506C18.1456 18.665 18.1686 18.7893 18.1686 18.9129V25.7529C18.1686 26.3052 17.7209 26.7529 17.1686 26.7529Z" stroke="#007BFF" stroke-width="1.5"/>
<path d="M44.6373 26.7529H29.4688C28.9165 26.7529 28.4688 26.3052 28.4688 25.7529V18.9459C28.4688 18.8009 28.5009 18.6548 28.5642 18.5245C32.3291 10.778 42.7034 11.5904 45.5673 18.5506C45.6144 18.665 45.6373 18.7893 45.6373 18.9129V25.7529C45.6373 26.3052 45.1896 26.7529 44.6373 26.7529Z" stroke="#007BFF" stroke-width="1.5"/>
<path d="M30.0455 30.1865H14.877C14.3247 30.1865 13.877 29.7388 13.877 29.1865V22.3795C13.877 22.2345 13.9091 22.0884 13.9724 21.9581C17.7373 14.2116 28.1116 15.024 30.9755 21.9842C31.0226 22.0986 31.0455 22.2229 31.0455 22.3465V29.1865C31.0455 29.7388 30.5978 30.1865 30.0455 30.1865Z" fill="#F6F9FF" stroke="#007BFF" stroke-width="1.5"/>
</svg>
