<svg width="59" height="55" viewBox="0 0 59 55" fill="none" xmlns="http://www.w3.org/2000/svg">
<path d="M16.9512 6.90771C21.2048 8.7982 24.6313 14.3909 25.8128 16.9509" stroke="#007BFF" stroke-width="1.5"/>
<path d="M46.4883 36.4463C52.6323 41.6451 54.5622 44.9141 54.7591 45.8987" stroke="#007BFF" stroke-width="1.5"/>
<path d="M1 47.671C7.20006 56.0856 11.7402 52.5487 14.8693 49.0058C16.4471 47.2194 16.7687 44.1657 14.6843 43.0099C13.1133 42.1387 11.6979 42.4745 10.6294 43.2525C9.58711 44.0113 9.37501 45.4388 9.77996 46.6628C12.9423 56.2215 23.109 53.7754 25.2218 52.3975C27.2037 51.1049 28.6912 50.1224 29.7907 49.3821C32.4118 47.6172 27.9596 46.2088 25.4404 44.3014C16.5422 37.5641 12.3045 29.5167 11.634 28.1757C5.73225 12.9296 11.4308 5.59899 15.4371 2.43468C16.6954 1.44083 18.4278 1.35564 19.8359 2.12274C25.0901 4.98521 27.9184 8.66662 29.0047 10.8299C29.2662 11.3507 29.3808 11.9381 29.2491 12.5058C28.7988 14.4471 27.0374 16.7561 25.7807 18.1358C25.4188 18.5331 25.0855 18.9696 24.8881 19.4694C21.0813 29.106 37.0752 37.5073 41.0974 34.8287C41.652 34.4593 42.0222 33.8561 42.5381 33.4343C44.9201 31.4867 46.2883 30.8491 47.377 30.6404C48.327 30.4582 49.2934 30.8149 50.0851 31.3708C57.0453 36.2584 58.3446 40.5753 57.9309 42.9005C57.6589 44.4289 56.0151 45.4818 54.8797 46.5404C48.9588 52.0606 40.6266 50.3933 37.0373 50.0344" stroke="#007BFF" stroke-width="1.5"/>
</svg>
