<svg width="45" height="62" viewBox="0 0 45 62" fill="none" xmlns="http://www.w3.org/2000/svg">
<path d="M27.5 56.5H4C2.34315 56.5 1 55.1569 1 53.5V16.5" stroke="#007BFF" stroke-width="1.5"/>
<path d="M1 14.5V4C1 2.34315 2.34315 1 4 1H41C42.6569 1 44 2.34315 44 4V54C44 56.5 42 56.5 42 56.5" stroke="#007BFF" stroke-width="1.5"/>
<path d="M30.5 57.382V47.7524C30.5 46.9781 31.3421 46.4976 32.0087 46.8915L40.1772 51.7184C40.7997 52.0862 40.8381 52.9728 40.2498 53.393L38.7651 54.4535C38.3351 54.7606 38.2183 55.3492 38.4983 55.7973L40.0017 58.2027C40.2817 58.6508 40.1649 59.2394 39.7349 59.5465L37.9114 60.849C37.4256 61.196 36.746 61.0428 36.456 60.5209L34.965 57.837C34.705 57.369 34.1225 57.1888 33.6436 57.4282L31.9472 58.2764C31.2823 58.6088 30.5 58.1253 30.5 57.382Z" stroke="#007BFF" stroke-width="1.5"/>
<path d="M13 15.5H32" stroke="#007BFF" stroke-width="1.5"/>
<path d="M1 10H44" stroke="#007BFF" stroke-width="1.5"/>
<path d="M7 3C8.10457 3 9 3.89543 9 5C9 6.10457 8.10457 7 7 7C5.89543 7 5 6.10457 5 5C5 3.89543 5.89543 3 7 3Z" stroke="#007BFF" stroke-width="1.5"/>
<path d="M14 3C15.1046 3 16 3.89543 16 5C16 6.10457 15.1046 7 14 7C12.8954 7 12 6.10457 12 5C12 3.89543 12.8954 3 14 3Z" stroke="#007BFF" stroke-width="1.5"/>
<path d="M21 3C22.1046 3 23 3.89543 23 5C23 6.10457 22.1046 7 21 7C19.8954 7 19 6.10457 19 5C19 3.89543 19.8954 3 21 3Z" stroke="#007BFF" stroke-width="1.5"/>
<path d="M34 28H11C9.61929 28 8.5 26.8807 8.5 25.5C8.5 24.1193 9.61929 23 11 23H34C35.3807 23 36.5 24.1193 36.5 25.5C36.5 26.8807 35.3807 28 34 28Z" stroke="#007BFF" stroke-width="1.5"/>
<path d="M34 38H11C9.61929 38 8.5 36.8807 8.5 35.5C8.5 34.1193 9.61929 33 11 33H34C35.3807 33 36.5 34.1193 36.5 35.5C36.5 36.8807 35.3807 38 34 38Z" stroke="#007BFF" stroke-width="1.5"/>
<path d="M24 49H21C19.6193 49 18.5 47.8807 18.5 46.5C18.5 45.1193 19.6193 44 21 44H24C25.3807 44 26.5 45.1193 26.5 46.5C26.5 47.8807 25.3807 49 24 49Z" stroke="#007BFF" stroke-width="1.5"/>
</svg>
