<svg width="60" height="59" viewBox="0 0 60 59" fill="none" xmlns="http://www.w3.org/2000/svg">
<path d="M28 26.3262C29.1046 26.3262 30 27.2216 30 28.3262C30 29.4307 29.1046 30.3262 28 30.3262C26.8954 30.3262 26 29.4307 26 28.3262C26 27.2216 26.8954 26.3262 28 26.3262Z" stroke="#007BFF" stroke-width="1.5"/>
<path d="M20 26.3262C21.1046 26.3262 22 27.2216 22 28.3262C22 29.4307 21.1046 30.3262 20 30.3262C18.8954 30.3262 18 29.4307 18 28.3262C18 27.2216 18.8954 26.3262 20 26.3262Z" stroke="#007BFF" stroke-width="1.5"/>
<path d="M12 26.3262C13.1046 26.3262 14 27.2216 14 28.3262C14 29.4307 13.1046 30.3262 12 30.3262C10.8954 30.3262 10 29.4307 10 28.3262C10 27.2216 10.8954 26.3262 12 26.3262Z" stroke="#007BFF" stroke-width="1.5"/>
<path d="M13 49.3262L16.1529 43.4144C16.6743 42.4368 17.6921 41.8262 18.8 41.8262H19.5" stroke="#007BFF" stroke-width="1.5"/>
<path d="M13 49.3262L9.86376 43.8378C9.32963 42.903 8.3356 42.3262 7.25903 42.3262H4C2.34315 42.3262 1 40.983 1 39.3262V18.8262C1 17.1693 2.34315 15.8262 4 15.8262H36.0845C37.708 15.8262 39.0369 17.1177 39.0833 18.7405L39.5 33.3262" stroke="#007BFF" stroke-width="1.5"/>
<path d="M56 43.3262C56.8798 43.986 57.5479 44.5249 57.7218 45.3751C58.1012 47.2306 55.8037 48.3262 53.9098 48.3262H47" stroke="#007BFF" stroke-width="1.5"/>
<path d="M48 57.3262H52.6447C52.8813 57.3262 53.1196 57.3133 53.3511 57.2647C56.4294 56.6186 55.4475 53.7912 54 52.8262M54 52.8262H47M54 52.8262C57.5 52.3262 56.5 48.8262 55 48.3262" stroke="#007BFF" stroke-width="1.5"/>
<path d="M31 54.3261C36.5 52.8263 36.8215 57.3258 38 57.3259C41.5 57.3262 43 57.3259 45 57.3259" stroke="#007BFF" stroke-width="1.5"/>
<path d="M29.5 36.3262H22C20.8954 36.3262 20 37.2216 20 38.3262V54.3262C20 55.4307 20.8954 56.3262 22 56.3262H29.5C30.6046 56.3262 31.5 55.4307 31.5 54.3262V38.3262C31.5 37.2216 30.6046 36.3262 29.5 36.3262Z" stroke="#007BFF" stroke-width="1.5"/>
<path d="M26 36.8262V56.8262" stroke="#007BFF" stroke-width="1.5"/>
<path d="M59 12.3262C58 22.3262 50.6667 27.4928 48 29.8262" stroke="#007BFF" stroke-width="1.5"/>
<path d="M31.5 38.8262C37.3092 40.2785 40.4624 31.7316 42.7748 27.7075C42.9202 27.4544 43.1232 27.2346 43.3815 27.0988C45.1277 26.1811 46.5921 27.0907 47.4453 28.0583C47.8427 28.5088 47.8749 29.1515 47.6592 29.7122L45.5 35.3262C44.8025 37.0699 45.828 38.1801 46.6545 38.657C46.8749 38.7841 47.1307 38.8262 47.3852 38.8262H57C59.4176 38.8262 59.454 41.0991 58.9409 42.5049C58.7374 43.0625 58.1568 43.3262 57.5633 43.3262H47" stroke="#007BFF" stroke-width="1.5"/>
<path d="M36.75 4.82617C38.25 7.82617 40.5 7.32617 41.5 4.82617" stroke="#007BFF" stroke-width="1.5"/>
<path d="M37.002 5.32576C33.0027 -3.17438 17.0014 1.32615 20.5005 15.326" stroke="#007BFF" stroke-width="1.5"/>
<path d="M41 5.82615C46.5 -3.17383 58 1.82635 58.5 9.32615" stroke="#007BFF" stroke-width="1.5"/>
</svg>
