<svg width="59" height="59" viewBox="0 0 59 59" fill="none" xmlns="http://www.w3.org/2000/svg">
<path d="M7.5 7.5L15 15" stroke="#007BFF" stroke-width="1.5"/>
<path d="M50.5 7.5L43 15" stroke="#007BFF" stroke-width="1.5"/>
<path d="M51 18.5H49.4142C49.149 18.5 48.8946 18.6054 48.7071 18.7929L44.5 23" stroke="#007BFF" stroke-width="1.5"/>
<path d="M44.5 35.5L48.2071 39.2071C48.3946 39.3946 48.649 39.5 48.9142 39.5H51" stroke="#007BFF" stroke-width="1.5"/>
<path d="M43 43L51 51.5" stroke="#007BFF" stroke-width="1.5"/>
<path d="M35.5 44.5L39.2474 48.7158C39.4101 48.8989 39.5 49.1353 39.5 49.3802V51" stroke="#007BFF" stroke-width="1.5"/>
<path d="M22.5 44.5L18.7929 48.2071C18.6054 48.3946 18.5 48.649 18.5 48.9142V51" stroke="#007BFF" stroke-width="1.5"/>
<path d="M7.5 50.5L15 43" stroke="#007BFF" stroke-width="1.5"/>
<path d="M13.5 35L9.29289 39.2071C9.10536 39.3946 8.851 39.5 8.58579 39.5H6.5" stroke="#007BFF" stroke-width="1.5"/>
<path d="M24 33.5V30L26 25H28L30 30V33.5" stroke="#007BFF" stroke-width="1.5"/>
<path d="M24 30H30" stroke="#007BFF" stroke-width="1.5"/>
<path d="M33 24.5V33.5" stroke="#007BFF" stroke-width="1.5"/>
<path d="M28.5 19C34.299 19 39 23.701 39 29.5C39 35.299 34.299 40 28.5 40C22.701 40 18 35.299 18 29.5C18 23.701 22.701 19 28.5 19Z" stroke="#007BFF" stroke-width="1.5"/>
<path d="M5 1C7.20914 1 9 2.79086 9 5C9 7.20914 7.20914 9 5 9C2.79086 9 1 7.20914 1 5C1 2.79086 2.79086 1 5 1Z" stroke="#007BFF" stroke-width="1.5"/>
<path d="M5 50C7.20914 50 9 51.7909 9 54C9 56.2091 7.20914 58 5 58C2.79086 58 1 56.2091 1 54C1 51.7909 2.79086 50 5 50Z" stroke="#007BFF" stroke-width="1.5"/>
<path d="M54 50C56.2091 50 58 51.7909 58 54C58 56.2091 56.2091 58 54 58C51.7909 58 50 56.2091 50 54C50 51.7909 51.7909 50 54 50Z" stroke="#007BFF" stroke-width="1.5"/>
<path d="M54 1C56.2091 1 58 2.79086 58 5C58 7.20914 56.2091 9 54 9C51.7909 9 50 7.20914 50 5C50 2.79086 51.7909 1 54 1Z" stroke="#007BFF" stroke-width="1.5"/>
<path d="M39 1C40.6569 1 42 2.34315 42 4C42 5.65685 40.6569 7 39 7C37.3431 7 36 5.65685 36 4C36 2.34315 37.3431 1 39 1Z" stroke="#007BFF" stroke-width="1.5"/>
<path d="M18 1C19.6569 1 21 2.34315 21 4C21 5.65685 19.6569 7 18 7C16.3431 7 15 5.65685 15 4C15 2.34315 16.3431 1 18 1Z" stroke="#007BFF" stroke-width="1.5"/>
<path d="M18 51C19.6569 51 21 52.3431 21 54C21 55.6569 19.6569 57 18 57C16.3431 57 15 55.6569 15 54C15 52.3431 16.3431 51 18 51Z" stroke="#007BFF" stroke-width="1.5"/>
<path d="M40 51C41.6569 51 43 52.3431 43 54C43 55.6569 41.6569 57 40 57C38.3431 57 37 55.6569 37 54C37 52.3431 38.3431 51 40 51Z" stroke="#007BFF" stroke-width="1.5"/>
<path d="M54 36C55.6569 36 57 37.3431 57 39C57 40.6569 55.6569 42 54 42C52.3431 42 51 40.6569 51 39C51 37.3431 52.3431 36 54 36Z" stroke="#007BFF" stroke-width="1.5"/>
<path d="M54 16C55.6569 16 57 17.3431 57 19C57 20.6569 55.6569 22 54 22C52.3431 22 51 20.6569 51 19C51 17.3431 52.3431 16 54 16Z" stroke="#007BFF" stroke-width="1.5"/>
<path d="M4 16C5.65685 16 7 17.3431 7 19C7 20.6569 5.65685 22 4 22C2.34315 22 1 20.6569 1 19C1 17.3431 2.34315 16 4 16Z" stroke="#007BFF" stroke-width="1.5"/>
<path d="M4 37C5.65685 37 7 38.3431 7 40C7 41.6569 5.65685 43 4 43C2.34315 43 1 41.6569 1 40C1 38.3431 2.34315 37 4 37Z" stroke="#007BFF" stroke-width="1.5"/>
<path d="M17.6821 44.5453L19.5375 43.3083C19.8251 43.1166 20.1913 43.087 20.506 43.23L25.0013 45.2733C25.312 45.4145 25.5292 45.7044 25.5775 46.0423L25.8773 48.1414C25.9477 48.6341 26.3696 49 26.8673 49H30.6327C31.1304 49 31.5523 48.6341 31.6227 48.1414L31.917 46.0812C31.9682 45.7224 32.2096 45.4194 32.5479 45.2893L37.9644 43.206C38.2961 43.0784 38.6706 43.1365 38.9481 43.3585L40.3011 44.4409C40.699 44.7592 41.2726 44.7274 41.6329 44.3671L44.3671 41.6329C44.7274 41.2726 44.7592 40.699 44.4409 40.3011L43.37 38.9625C43.1419 38.6773 43.0873 38.2904 43.2278 37.9532L45.2789 33.0306C45.4158 32.7021 45.717 32.4711 46.0698 32.424L48.345 32.1207C48.8576 32.0523 49.2335 31.6045 49.212 31.0878L49.0346 26.8307C49.0146 26.3493 48.654 25.9506 48.1769 25.8824L46.0423 25.5775C45.7044 25.5292 45.4145 25.312 45.2733 25.0013L43.23 20.506C43.087 20.1913 43.1166 19.8251 43.3083 19.5375L44.5453 17.6821C44.8097 17.2855 44.7574 16.7574 44.4203 16.4203L41.6329 13.6329C41.2726 13.2726 40.699 13.2408 40.3011 13.5591L38.9481 14.6415C38.6706 14.8635 38.2961 14.9216 37.9644 14.794L32.5479 12.7107C32.2096 12.5806 31.9682 12.2776 31.917 11.9188L31.6227 9.85858C31.5523 9.36593 31.1304 9 30.6327 9H26.8673C26.3696 9 25.9477 9.36593 25.8773 9.85858L25.5804 11.9371C25.5306 12.2861 25.3006 12.5831 24.9751 12.7187L20.0468 14.7722C19.7096 14.9127 19.3227 14.8581 19.0375 14.63L17.6989 13.5591C17.301 13.2408 16.7274 13.2726 16.3671 13.6329L13.6329 16.3671C13.2726 16.7274 13.2408 17.301 13.5591 17.6989L14.6003 19.0004C14.844 19.305 14.8883 19.7234 14.7139 20.0723L12.1852 25.1295C12.0666 25.3667 11.8586 25.5471 11.607 25.631L9.68377 26.2721C9.27543 26.4082 9 26.7903 9 27.2208V31.1327C9 31.6304 9.36593 32.0523 9.85858 32.1227L11.9371 32.4196C12.2861 32.4694 12.5831 32.6994 12.7187 33.0249L14.7722 37.9532C14.9127 38.2904 14.8581 38.6773 14.63 38.9625L13.5591 40.3011C13.2408 40.699 13.2726 41.2726 13.6329 41.6329L16.4203 44.4203C16.7574 44.7574 17.2855 44.8097 17.6821 44.5453Z" stroke="#007BFF" stroke-width="1.5"/>
<path d="M18.5 7V9.08579C18.5 9.351 18.6054 9.60536 18.7929 9.79289L22.5 13.5" stroke="#007BFF" stroke-width="1.5"/>
<path d="M39 7V9.08579C39 9.351 38.8946 9.60536 38.7071 9.79289L35 13.5" stroke="#007BFF" stroke-width="1.5"/>
<path d="M7 19H8.7281C9.00012 19 9.2604 19.1108 9.44893 19.3069L13 23" stroke="#007BFF" stroke-width="1.5"/>
</svg>
