<svg width="63" height="63" viewBox="0 0 63 63" fill="none" xmlns="http://www.w3.org/2000/svg">
<path d="M15.5977 16.6411H40.1019C54.1789 16.6411 55.743 35.4103 42.1874 35.9317H38.0165" stroke="#007BFF" stroke-width="1.5"/>
<path d="M46.8809 56.2651H12.955C-1.74214 56.2651 -3.37516 36.9886 10.7777 36.4532H15.1324" stroke="#007BFF" stroke-width="1.5" stroke-dasharray="2 2"/>
<path d="M33.3675 27.5898H19.2051C18.6528 27.5898 18.2051 28.0376 18.2051 28.5898V43.2736C18.2051 43.8259 18.6528 44.2736 19.2051 44.2736H33.3675C33.9198 44.2736 34.3675 43.8259 34.3675 43.2736V28.5898C34.3675 28.0376 33.9198 27.5898 33.3675 27.5898Z" stroke="#007BFF" stroke-width="1.5"/>
<path d="M14.5556 6.73486C14.3915 8.70344 12.9577 14.3885 8.58764 22.0359C8.22091 22.6777 7.31292 22.6964 6.93087 22.0637C4.5508 18.1215 1 11.1718 1 6.73486" stroke="#007BFF" stroke-width="1.5"/>
<path d="M4.65039 7.25625C6.73586 15.0768 15.0777 6.73488 7.25723 4.64941" stroke="#007BFF" stroke-width="1.5"/>
<path d="M23.418 27.5898V33.3676C23.418 33.9199 23.8657 34.3676 24.418 34.3676H28.153C28.7053 34.3676 29.153 33.9199 29.153 33.3676V27.5898" stroke="#007BFF" stroke-width="1.5"/>
<path d="M57.8298 57.3077L55.4672 60.8516C55.0898 61.4178 54.2685 61.4482 53.869 60.8974C48.8148 53.93 47.429 46.7757 47.9241 44.7949M62.0007 46.359C62.0004 50.0086 59.9153 53.832 59.3939 54.7009" stroke="#007BFF" stroke-width="1.5"/>
<path d="M54.7006 43.752C56.1403 43.752 57.3074 44.9191 57.3074 46.3588C57.3074 47.7985 56.1403 48.9656 54.7006 48.9656C53.2609 48.9656 52.0938 47.7985 52.0938 46.3588C52.0938 44.9191 53.2609 43.752 54.7006 43.752Z" stroke="#007BFF" stroke-width="1.5"/>
<path d="M1 7.25641C2.23232 -0.748469 12.7071 -1.41572 14.5556 7.25641" stroke="#007BFF" stroke-width="1.5"/>
<path d="M47.9238 45.3166C48.4452 36.9747 61.4794 35.9319 62.0008 46.8806" stroke="#007BFF" stroke-width="1.5"/>
</svg>
