<svg width="40" height="50" viewBox="0 0 40 50" fill="none" xmlns="http://www.w3.org/2000/svg">
<path d="M1.52871 45.3994L1.03947 7.7278C1.01775 6.05585 2.36712 4.68884 4.03921 4.68884H14.1407C15.1438 4.68884 16.0535 4.16921 16.6558 3.36706C18.0723 1.48036 20.5066 -0.749417 23.3105 3.15808C23.954 4.05476 24.942 4.68884 26.0456 4.68884H36C37.6569 4.68884 39 6.03199 39 7.68884V45.3605C39 47.0173 37.6569 48.3605 36 48.3605H4.52846C2.8868 48.3605 1.55003 47.041 1.52871 45.3994Z" stroke="#007BFF" stroke-width="1.5"/>
<path d="M10.6426 4.68896V9.62926C10.6426 11.2861 11.9857 12.6293 13.6426 12.6293H26.359C28.0159 12.6293 29.359 11.2861 29.359 9.62926V4.68896" stroke="#007BFF" stroke-width="1.5"/>
<path d="M11.209 29.6438L18.5821 37.5841L31.0597 23.9722" stroke="#007BFF" stroke-width="1.5"/>
</svg>
