<svg width="62" height="63" viewBox="0 0 62 63" fill="none" xmlns="http://www.w3.org/2000/svg">
<path d="M1 59.334V40.334C1 39.7817 1.44772 39.334 2 39.334H9.5C10.0523 39.334 10.5 39.7817 10.5 40.334V59.334C10.5 59.8863 10.0523 60.334 9.5 60.334H2C1.44772 60.334 1 59.8863 1 59.334Z" stroke="#007BFF" stroke-width="1.5"/>
<path d="M11 41.334C17.0746 38.5303 17.4722 29.1763 18.3144 24.699C18.4079 24.202 18.8842 23.8752 19.3787 23.9812C25.738 25.3453 23.2666 31.9706 23.0142 36.3719C22.9834 36.9089 23.4258 37.334 23.9636 37.334H36M31 55.334C39.9547 55.9969 35.05 62.9299 28.1055 61.0298C28.0364 61.0108 27.9639 60.998 27.8923 60.9934L17.6179 60.3415C17.5396 60.3365 17.4621 60.3223 17.3871 60.2992L11 58.334" stroke="#007BFF" stroke-width="1.5"/>
<path d="M36 37.334C41 38.334 38.5 43.334 35.5 43.334" stroke="#007BFF" stroke-width="1.5"/>
<path d="M30.5 43.3334C44.5 41.8337 36.5 51.3337 29.5 48.8334" stroke="#007BFF" stroke-width="1.5"/>
<path d="M31 49.3336C43.5 48.8337 35.5 57.8337 29 54.8337" stroke="#007BFF" stroke-width="1.5"/>
<path d="M14.5 10.834V16.334" stroke="#007BFF" stroke-width="1.5"/>
<path d="M50 46.334V51.834" stroke="#007BFF" stroke-width="1.5"/>
<path d="M11.5 13.834H17.5" stroke="#007BFF" stroke-width="1.5"/>
<path d="M47 49.334H53" stroke="#007BFF" stroke-width="1.5"/>
<path d="M41.8594 5.95822L41.6525 7.61084C41.5735 8.24117 42.0979 8.78113 42.7331 8.77121C47.5391 8.69617 48.7107 10.8391 46.2481 12.6597C46.0894 12.7771 45.8943 12.834 45.6969 12.834H39.4997C37.5495 12.834 34.6497 15.8445 37.7507 18.1582C37.909 18.2763 38.1055 18.334 38.303 18.334H41.8378C41.9453 18.334 42.0561 18.3523 42.1577 18.3875C50.5886 21.3094 48.1988 29.5939 42.7465 31.6037C42.316 31.7624 42.0001 32.1559 42.0001 32.6147V34.334C42.0001 34.8863 41.5524 35.334 41.0001 35.334H39.0001C38.4478 35.334 38.0001 34.8863 38.0001 34.334V32.834C38.0001 32.2817 37.5524 31.834 37.0001 31.834H35.0005C31.4996 31.834 31.5001 27.834 35.0005 27.834H41.7346C41.9086 27.834 42.0815 27.7913 42.2245 27.6922C43.2943 26.9505 44.4887 25.1633 42.3881 22.7492C42.1576 22.4842 41.7914 22.392 41.442 22.4277C40.0111 22.5737 37.7504 22.2091 35.9998 21.334C34.0461 20.3572 28.2776 12.702 37.3288 9.0851C37.7234 8.92742 38.0001 8.54946 38.0001 8.12452V5.83398C38.0001 5.2817 38.4478 4.83398 39.0001 4.83398H40.8671C41.4687 4.83398 41.9341 5.3613 41.8594 5.95822Z" stroke="#007BFF" stroke-width="1.5"/>
<path d="M20 21.8339C21 2.83374 37.5 -0.166123 44 1.33388C59 4.79542 60.5 16.8337 60.5 21.8339C58.5 36.3337 48.5 39.8337 43 41.3339" stroke="#007BFF" stroke-width="1.5"/>
</svg>
