<svg width="28" height="28" viewBox="0 0 28 28" fill="none" xmlns="http://www.w3.org/2000/svg">
<path d="M14 1C21.1797 1 27 6.8203 27 14C27 21.1797 21.1797 27 14 27C6.8203 27 1 21.1797 1 14C1 6.8203 6.8203 1 14 1Z" stroke="#007BFF" stroke-width="1.5"/>
<path d="M14 1C25.7 6.85 19.2 27 14 27" stroke="#007BFF" stroke-width="1.5"/>
<path d="M14 1C2.40156 6.85 8.84514 27 14 27" stroke="#007BFF" stroke-width="1.5"/>
<path d="M14 1V27" stroke="#007BFF" stroke-width="1.5"/>
<path d="M1 14H27" stroke="#007BFF" stroke-width="1.5"/>
<path d="M4.25 5.54999C8.93 7.62999 15.95 8.79999 23.75 5.54999" stroke="#007BFF" stroke-width="1.5"/>
<path d="M4.25 22.45C10.1 20.5 14.65 18.55 23.75 22.45" stroke="#007BFF" stroke-width="1.5"/>
</svg>
