<svg width="30" height="30" viewBox="0 0 30 30" fill="none" xmlns="http://www.w3.org/2000/svg">
<path d="M3.43701 3.23508C7.78819 4.32287 9.89676 7.9889 10.5732 9.45457" stroke="#007BFF" stroke-width="1.5"/>
<path d="M20.2979 19.552C24.649 21.1837 26.2807 26.0282 27.1444 26.0282" stroke="#007BFF" stroke-width="1.5"/>
<path d="M2.45435 15.881C2.88694 16.7461 7.93084 22.2021 15.5103 27.0906C16.1509 27.5037 16.8824 27.7539 17.6348 27.8759L17.6825 27.8837C19.917 28.2463 23.5321 28.833 26.3613 27.0157C27.6675 26.1767 29.2125 24.7937 28.9483 23.264C28.7205 21.9455 27.6952 20.1109 24.9806 18.0812C24.2059 17.5019 23.2083 17.1091 22.313 17.4753C21.8459 17.6663 21.2698 18.0086 20.4851 18.6217C19.96 19.032 19.5706 19.6712 18.9349 19.8711C16.2036 20.7298 8.30852 16.3312 9.92642 11.2231C10.0887 10.7108 10.4327 10.2806 10.7834 9.87346C11.3907 9.16847 12.112 8.17838 12.4329 7.27055C12.6271 6.72111 12.5116 6.12366 12.2205 5.61879C11.5813 4.50993 10.2727 2.9098 8.08961 1.51899C6.73729 0.657444 4.95444 0.738726 3.81413 1.86599C1.6759 3.97976 -0.53622 8.15533 2.45435 15.881Z" stroke="#007BFF" stroke-width="1.5"/>
</svg>
