<svg width="31" height="29" viewBox="0 0 31 29" fill="none" xmlns="http://www.w3.org/2000/svg">
<path d="M10.96 22.4803L13.3536 26.3101C13.3851 26.3605 13.4123 26.4154 13.4362 26.4698C14.4566 28.7924 17.7833 27.3337 16.8183 24.9212L14.3773 20.0393" stroke="#007BFF" stroke-width="1.5"/>
<path d="M22.8028 2.0527L25.6877 7.00076L29.4225 13.6422C29.725 14.1803 29.4727 14.8612 28.8926 15.0722L13.8897 20.5278L7.49517 23.5119C6.98611 23.7494 6.3813 23.5212 6.15613 23.0065L3.49798 16.9307C3.2981 16.4739 3.46535 15.9396 3.89003 15.6783L9.42226 12.2738C9.47129 12.2436 9.51762 12.2093 9.56074 12.1712L21.2763 1.80739C21.7486 1.38954 22.4851 1.5079 22.8028 2.0527Z" stroke="#007BFF" stroke-width="1.5"/>
<path d="M12.8657 20.7761L9.00732 12.7169" stroke="#007BFF" stroke-width="1.5"/>
<path d="M4.12617 18.5753C-0.755984 20.0399 0.219732 25.8982 6.07895 22.4809" stroke="#007BFF" stroke-width="1.5"/>
</svg>
