<svg width="31" height="31" viewBox="0 0 31 31" fill="none" xmlns="http://www.w3.org/2000/svg">
<path d="M9.48 19.984H11.576V22H13.704V19.984H19.368V18.48H13.704V17.296H17.768C20.312 17.296 21.688 16.064 21.688 13.952C21.688 11.856 20.312 10.64 17.768 10.64H11.576V15.792H9.48V17.28H11.576V18.48H9.48V19.984ZM17.656 12.544C18.888 12.544 19.496 13.104 19.496 14.08C19.496 15.04 18.888 15.712 17.656 15.712H13.704V12.544H17.656Z" fill="#007BFF"/>
<path d="M15.5 1C23.5081 1 30 7.49187 30 15.5C30 23.5081 23.5081 30 15.5 30C7.49187 30 1 23.5081 1 15.5C1 7.49187 7.49187 1 15.5 1Z" stroke="#007BFF" stroke-width="1.5"/>
</svg>
