<svg width="31" height="36" viewBox="0 0 31 36" fill="none" xmlns="http://www.w3.org/2000/svg">
<path d="M2.11572 17.3367C2.11572 -6.0866 31.1157 -2.74039 28.8849 17.3368" stroke="#007BFF" stroke-width="1.5"/>
<path d="M1 25.7018V20.1249C1 18.5849 2.24844 17.3365 3.78846 17.3365C5.32848 17.3365 6.57692 18.5849 6.57692 20.1249V25.7018C6.57692 27.2419 5.32848 28.4903 3.78846 28.4903C2.24844 28.4903 1 27.2419 1 25.7018Z" stroke="#007BFF" stroke-width="1.5"/>
<path d="M24.4229 25.7018V20.1249C24.4229 18.5849 25.6713 17.3365 27.2113 17.3365C28.7513 17.3365 29.9998 18.5849 29.9998 20.1249V25.7018C29.9998 27.2419 28.7513 28.4903 27.2113 28.4903C25.6713 28.4903 24.4229 27.2419 24.4229 25.7018Z" stroke="#007BFF" stroke-width="1.5"/>
<path d="M29.9999 23.4711C29.5537 30.6095 30.5576 32.3941 18.8461 32.3941M18.2884 31.5993V31.8364C18.2884 33.3765 17.0399 34.6249 15.4999 34.6249V34.6249C13.9599 34.6249 12.7114 33.3765 12.7114 31.8364V31.5993C12.7114 30.0593 13.9599 28.8108 15.4999 28.8108V28.8108C17.0399 28.8108 18.2884 30.0593 18.2884 31.5993Z" stroke="#007BFF" stroke-width="1.5"/>
</svg>
