<svg width="330" height="82" viewBox="0 0 330 82" fill="none" xmlns="http://www.w3.org/2000/svg">
<path d="M16 47C23.732 47 30 41.1797 30 34C30 26.8203 23.732 21 16 21C8.26801 21 2 26.8203 2 34C2 41.1797 8.26801 47 16 47Z" stroke="white" stroke-opacity="0.6" stroke-width="2.157" stroke-miterlimit="10" stroke-linecap="round" stroke-linejoin="round"/>
<path d="M16 39C18.7614 39 21 36.7614 21 34C21 31.2386 18.7614 29 16 29C13.2386 29 11 31.2386 11 34C11 36.7614 13.2386 39 16 39Z" stroke="white" stroke-opacity="0.6" stroke-width="2.157" stroke-miterlimit="10" stroke-linecap="round" stroke-linejoin="round"/>
<path d="M67 21C68.6569 21 70 19.6569 70 18C70 16.3431 68.6569 15 67 15C65.3432 15 64 16.3431 64 18C64 19.6569 65.3432 21 67 21Z" stroke="white" stroke-opacity="0.6" stroke-width="2.157" stroke-miterlimit="10" stroke-linecap="round" stroke-linejoin="round"/>
<path d="M30 34H74.6995L84 75" stroke="white" stroke-opacity="0.6" stroke-width="2.157" stroke-miterlimit="10" stroke-linecap="round" stroke-linejoin="round"/>
<path d="M131.922 35.7545C132.624 37.8557 128.523 41.0114 122.767 42.8001C117.012 44.5967 111.781 44.3467 111.078 42.2455C110.376 40.1443 114.477 36.9886 120.233 35.1999C125.988 33.4033 131.219 33.6533 131.922 35.7545Z" stroke="white" stroke-opacity="0.6" stroke-width="2.157" stroke-miterlimit="10" stroke-linecap="round" stroke-linejoin="round"/>
<path d="M111 42L111.049 40.7894L111.667 26L112.334 10L122.167 22.6053L131.252 34.2454L132 35.2025" stroke="white" stroke-opacity="0.6" stroke-width="2.157" stroke-miterlimit="10" stroke-linecap="round" stroke-linejoin="round"/>
<path d="M179 37H159V57H179V37Z" stroke="white" stroke-opacity="0.6" stroke-width="2.157" stroke-miterlimit="10" stroke-linecap="round" stroke-linejoin="round"/>
<path d="M172 44H152V64H172V44Z" stroke="white" stroke-opacity="0.6" stroke-width="2.157" stroke-miterlimit="10" stroke-linecap="round" stroke-linejoin="round"/>
<path d="M191.494 -4C198.261 -0.0037416 202.967 7.43877 190.888 16.7332C179.63 25.401 173.343 23.0618 173.009 18.4111C172.557 12.173 188.778 3.28238 202.076 19.1351C212.589 31.667 196.555 41.0589 195.901 38.1696C195.246 35.2803 211.252 24.9276 235 46.357" stroke="white" stroke-opacity="0.6" stroke-width="2.157" stroke-miterlimit="10" stroke-linecap="round" stroke-linejoin="round"/>
<path d="M290.404 67.2042C290.404 67.2042 289.418 76.6243 286.815 80C286.815 80 293.43 74.7631 295.891 67.2042C301.346 67.2042 314.891 67.2042 319.675 67.2042C324.459 67.2042 327.062 64.7454 327.486 58.3452C327.906 51.945 328.947 42.9126 325.884 39.9064C323.327 37.3928 317.703 37.9539 310.577 37.849C303.451 37.7441 277.644 37.11 271.577 37.0051C265.51 36.9001 261.812 38.3782 261.392 45.8139C260.972 53.2496 260.972 56.2558 261.022 59.8962C261.077 63.5365 262.607 67.0673 269.148 67.4368C275.695 67.8018 290.404 67.2042 290.404 67.2042Z" stroke="white" stroke-opacity="0.6" stroke-width="2.157" stroke-miterlimit="10" stroke-linecap="round" stroke-linejoin="round"/>
<path d="M279.746 55.4459L279.744 55.4455C278.776 55.2084 278.234 54.1928 278.629 53.0921C279.038 51.9596 280.238 51.302 281.252 51.5543L281.254 51.5547C282.224 51.7923 282.768 52.809 282.37 53.9071L282.369 53.9086C281.965 55.036 280.76 55.6983 279.746 55.4459Z" stroke="white" stroke-opacity="0.6"/>
<path d="M292.63 53.0931L292.63 53.0926C293.039 51.9598 294.24 51.302 295.254 51.5543L295.256 51.5547C296.225 51.7919 296.766 52.8078 296.371 53.9086C295.967 55.036 294.762 55.6983 293.748 55.4459L293.746 55.4455C292.776 55.2079 292.232 54.1913 292.63 53.0931Z" stroke="white" stroke-opacity="0.6"/>
<path d="M305.629 53.0916L305.629 53.0911C306.033 51.9609 307.237 51.3017 308.252 51.5543L308.254 51.5547C309.224 51.7923 309.768 52.809 309.37 53.9071L309.369 53.9086C308.965 55.036 307.76 55.6983 306.746 55.4459L306.744 55.4455C305.775 55.2083 305.234 54.1925 305.629 53.0916Z" stroke="white" stroke-opacity="0.6"/>
<path d="M238.5 23C243.194 23 247 19.1944 247 14.5C247 9.80558 243.194 6 238.5 6C233.806 6 230 9.80558 230 14.5C230 19.1944 233.806 23 238.5 23Z" stroke="white" stroke-opacity="0.6" stroke-width="2.157" stroke-miterlimit="10" stroke-linecap="round" stroke-linejoin="round"/>
<path d="M238.5 18C240.433 18 242 16.433 242 14.5C242 12.567 240.433 11 238.5 11C236.567 11 235 12.567 235 14.5C235 16.433 236.567 18 238.5 18Z" stroke="white" stroke-opacity="0.6" stroke-width="1.5" stroke-miterlimit="10" stroke-linecap="round" stroke-linejoin="round"/>
<path d="M247 14H285.109L292 38" stroke="white" stroke-opacity="0.6" stroke-width="2.157" stroke-miterlimit="10" stroke-linecap="round" stroke-linejoin="round"/>
</svg>
