<svg width="104" height="259" viewBox="0 0 104 259" fill="none" xmlns="http://www.w3.org/2000/svg">
<path d="M32.5633 185C42.2833 190.74 49.0433 201.43 31.6933 214.78C15.5233 227.23 6.4933 223.87 6.0133 217.19C5.3633 208.23 28.6633 195.46 47.7633 218.23C62.8633 236.23 39.8333 249.72 38.8933 245.57C37.9533 241.42 60.9433 226.55 95.0533 257.33" stroke="white" stroke-opacity="0.6" stroke-width="2.157" stroke-miterlimit="10" stroke-linecap="round" stroke-linejoin="round"/>
<path d="M19.11 46.06C28.5596 46.06 36.22 38.8831 36.22 30.03C36.22 21.1769 28.5596 14 19.11 14C9.66041 14 2 21.1769 2 30.03C2 38.8831 9.66041 46.06 19.11 46.06Z" stroke="white" stroke-opacity="0.6" stroke-width="2.157" stroke-miterlimit="10" stroke-linecap="round" stroke-linejoin="round"/>
<path d="M18.9605 36.2697C22.4952 36.2697 25.3605 33.5073 25.3605 30.0997C25.3605 26.6921 22.4952 23.9297 18.9605 23.9297C15.4259 23.9297 12.5605 26.6921 12.5605 30.0997C12.5605 33.5073 15.4259 36.2697 18.9605 36.2697Z" stroke="white" stroke-opacity="0.6" stroke-width="2.157" stroke-miterlimit="10" stroke-linecap="round" stroke-linejoin="round"/>
<path d="M98.52 8.8C100.464 8.8 102.04 7.27777 102.04 5.4C102.04 3.52223 100.464 2 98.52 2C96.576 2 95 3.52223 95 5.4C95 7.27777 96.576 8.8 98.52 8.8Z" stroke="white" stroke-opacity="0.6" stroke-width="2.157" stroke-miterlimit="10" stroke-linecap="round" stroke-linejoin="round"/>
<path d="M35.8906 29.6396H90.9373L102.391 79.6396" stroke="white" stroke-opacity="0.6" stroke-width="2.157" stroke-miterlimit="10" stroke-linecap="round" stroke-linejoin="round"/>
<path d="M36.3698 121H11.0898V146.28H36.3698V121Z" stroke="white" stroke-opacity="0.6" stroke-width="2.157" stroke-miterlimit="10" stroke-linecap="round" stroke-linejoin="round"/>
<path d="M76.917 85.8096C77.787 88.4996 72.707 92.5396 65.577 94.8296C58.447 97.1296 51.967 96.8096 51.097 94.1196C50.227 91.4296 55.307 87.3896 62.437 85.0996C69.567 82.7996 76.047 83.1196 76.917 85.8096Z" stroke="white" stroke-opacity="0.6" stroke-width="2.157" stroke-miterlimit="10" stroke-linecap="round" stroke-linejoin="round"/>
<path d="M28.28 129.32H3V154.6H28.28V129.32Z" stroke="white" stroke-opacity="0.6" stroke-width="2.157" stroke-miterlimit="10" stroke-linecap="round" stroke-linejoin="round"/>
<path d="M51.0977 94.12L51.1577 92.64L51.9177 74.56L52.7377 55L64.8277 70.41L75.9977 84.64L76.9177 85.81" stroke="white" stroke-opacity="0.6" stroke-width="2.157" stroke-miterlimit="10" stroke-linecap="round" stroke-linejoin="round"/>
</svg>
