<svg width="167" height="306" viewBox="0 0 167 306" fill="none" xmlns="http://www.w3.org/2000/svg">
<path d="M25.37 275L10 294.123" stroke="white" stroke-opacity="0.6" stroke-width="2.157" stroke-miterlimit="10" stroke-linecap="round" stroke-linejoin="round"/>
<path d="M46.1603 297.113L20.8203 304.057" stroke="white" stroke-opacity="0.6" stroke-width="2.157" stroke-miterlimit="10" stroke-linecap="round" stroke-linejoin="round"/>
<path d="M54 226C54 230.421 50.4199 234 46 234C41.5801 234 38 230.421 38 226C38 221.579 41.5801 218 46 218C50.4199 218 54 221.588 54 226Z" stroke="white" stroke-opacity="0.6" stroke-width="2.157" stroke-miterlimit="10" stroke-linecap="round" stroke-linejoin="round"/>
<path d="M46 229C47.6568 229 49 227.657 49 226C49 224.343 47.6568 223 46 223C44.3431 223 43 224.343 43 226C43 227.657 44.3431 229 46 229Z" stroke="white" stroke-opacity="0.6" stroke-width="2.157" stroke-miterlimit="10" stroke-linecap="round" stroke-linejoin="round"/>
<path d="M14 64C15.6569 64 17 62.6569 17 61C17 59.3431 15.6569 58 14 58C12.3432 58 11 59.3431 11 61C11 62.6569 12.3432 64 14 64Z" stroke="white" stroke-opacity="0.6" stroke-width="2.157" stroke-miterlimit="10" stroke-linecap="round" stroke-linejoin="round"/>
<path d="M165.071 10.83C165.071 15.71 160.851 19.66 155.641 19.66C150.431 19.66 146.211 15.71 146.211 10.83C146.211 5.95 150.431 2 155.641 2C160.851 2 165.071 5.96 165.071 10.83Z" stroke="white" stroke-opacity="0.6" stroke-width="2.157" stroke-miterlimit="10" stroke-linecap="round" stroke-linejoin="round"/>
<path d="M155.559 14.2795C157.503 14.2795 159.079 12.7573 159.079 10.8795C159.079 9.00172 157.503 7.47949 155.559 7.47949C153.615 7.47949 152.039 9.00172 152.039 10.8795C152.039 12.7573 153.615 14.2795 155.559 14.2795Z" stroke="white" stroke-opacity="0.6" stroke-width="2.157" stroke-miterlimit="10" stroke-linecap="round" stroke-linejoin="round"/>
<path d="M11.43 172.24C16.638 172.24 20.86 168.287 20.86 163.41C20.86 158.533 16.638 154.58 11.43 154.58C6.22196 154.58 2 158.533 2 163.41C2 168.287 6.22196 172.24 11.43 172.24Z" stroke="white" stroke-opacity="0.6" stroke-width="2.157" stroke-miterlimit="10" stroke-linecap="round" stroke-linejoin="round"/>
<path d="M14.8701 163.46C14.8701 165.34 13.2901 166.86 11.3501 166.86C9.40008 166.86 7.83008 165.34 7.83008 163.46C7.83008 161.58 9.41008 160.06 11.3501 160.06C13.2901 160.06 14.8701 161.58 14.8701 163.46Z" stroke="white" stroke-opacity="0.6" stroke-width="2.157" stroke-miterlimit="10" stroke-linecap="round" stroke-linejoin="round"/>
<path d="M11.4297 154.58L25.0797 82.7699H59.0797L72.5397 10.8799H146.22" stroke="white" stroke-opacity="0.6" stroke-width="2.157" stroke-miterlimit="10" stroke-linecap="round" stroke-linejoin="round"/>
<path d="M58.62 151.92C61.1716 151.92 63.24 149.923 63.24 147.46C63.24 144.997 61.1716 143 58.62 143C56.0684 143 54 144.997 54 147.46C54 149.923 56.0684 151.92 58.62 151.92Z" fill="white" fill-opacity="0.6"/>
</svg>
