<svg width="326" height="94" viewBox="0 0 326 94" fill="none" xmlns="http://www.w3.org/2000/svg">
<path d="M5.00001 43C6.65686 43 8 41.6569 8 40C8 38.3431 6.65686 37 5.00001 37C3.34315 37 2 38.3431 2 40C2 41.6569 3.34315 43 5.00001 43Z" stroke="white" stroke-opacity="0.6" stroke-width="2.157" stroke-miterlimit="10" stroke-linecap="round" stroke-linejoin="round"/>
<path d="M19 81L26.6964 44.5203H45.867L53.4563 8H95" stroke="white" stroke-opacity="0.6" stroke-width="2.157" stroke-miterlimit="10" stroke-linecap="round" stroke-linejoin="round"/>
<path d="M69.5 23C70.8807 23 72 21.8807 72 20.5C72 19.1193 70.8807 18 69.5 18C68.1193 18 67 19.1193 67 20.5C67 21.8807 68.1193 23 69.5 23Z" fill="white" fill-opacity="0.6"/>
<path d="M265.37 19L250 38.1232" stroke="white" stroke-opacity="0.6" stroke-width="2.157" stroke-miterlimit="10" stroke-linecap="round" stroke-linejoin="round"/>
<path d="M286.16 41.1133L260.82 48.0567" stroke="white" stroke-opacity="0.6" stroke-width="2.157" stroke-miterlimit="10" stroke-linecap="round" stroke-linejoin="round"/>
<path d="M291.231 61.0774L265 59.5812" stroke="white" stroke-opacity="0.6" stroke-width="2.157" stroke-miterlimit="10" stroke-linecap="round" stroke-linejoin="round"/>
<path d="M324 19C324 23.4213 320.42 27 316 27C311.58 27 308 23.4213 308 19C308 14.5787 311.58 11 316 11C320.42 11 324 14.5878 324 19Z" stroke="white" stroke-opacity="0.6" stroke-width="2.157" stroke-miterlimit="10" stroke-linecap="round" stroke-linejoin="round"/>
<path d="M23 86.5C23 89.5396 20.5387 92 17.5 92C14.4613 92 12 89.5396 12 86.5C12 83.4604 14.4613 81 17.5 81C20.5387 81 23 83.4666 23 86.5Z" stroke="white" stroke-opacity="0.6" stroke-width="2.157" stroke-miterlimit="10" stroke-linecap="round" stroke-linejoin="round"/>
<path d="M107 7.5C107 10.5396 104.539 13 101.5 13C98.4613 13 96 10.5396 96 7.5C96 4.46036 98.4613 2 101.5 2C104.539 2 107 4.46659 107 7.5Z" stroke="white" stroke-opacity="0.6" stroke-width="2.157" stroke-miterlimit="10" stroke-linecap="round" stroke-linejoin="round"/>
<path d="M316 22C317.657 22 319 20.6568 319 19C319 17.3431 317.657 16 316 16C314.343 16 313 17.3431 313 19C313 20.6568 314.343 22 316 22Z" stroke="white" stroke-opacity="0.6" stroke-width="2.157" stroke-miterlimit="10" stroke-linecap="round" stroke-linejoin="round"/>
<path d="M17.5 88C18.3284 88 19 87.3284 19 86.5C19 85.6716 18.3284 85 17.5 85C16.6716 85 16 85.6716 16 86.5C16 87.3284 16.6716 88 17.5 88Z" stroke="white" stroke-opacity="0.6" stroke-width="1.5" stroke-miterlimit="10" stroke-linecap="round" stroke-linejoin="round"/>
<path d="M101.5 9C102.328 9 103 8.32842 103 7.5C103 6.67157 102.328 6 101.5 6C100.672 6 100 6.67157 100 7.5C100 8.32842 100.672 9 101.5 9Z" stroke="white" stroke-opacity="0.6" stroke-width="1.5" stroke-miterlimit="10" stroke-linecap="round" stroke-linejoin="round"/>
</svg>
