<svg width="352" height="95" viewBox="0 0 352 95" fill="none" xmlns="http://www.w3.org/2000/svg">
<path d="M58.5539 64.8647C58.5539 64.8647 57.559 74.4571 54.9335 77.8946C54.9335 77.8946 61.6077 72.5618 64.0903 64.8647C69.5946 64.8647 83.2607 64.8647 88.0878 64.8647C92.9149 64.8647 95.5404 62.3609 95.9687 55.8436C96.3925 49.3263 97.4427 40.1287 94.352 37.0675C91.7726 34.5079 86.098 35.0793 78.908 34.9724C71.7179 34.8656 45.68 34.2199 39.5586 34.1131C33.4371 34.0062 29.7063 35.5113 29.2825 43.0831C28.8587 50.6548 28.8587 53.716 28.9094 57.423C28.9647 61.1299 30.5077 64.7253 37.1082 65.1016C43.7132 65.4732 58.5539 64.8647 58.5539 64.8647Z" stroke="#007BFF" stroke-opacity="0.6" stroke-width="2.157" stroke-miterlimit="10" stroke-linecap="round" stroke-linejoin="round"/>
<path d="M46.7004 49.2349C46.257 50.6777 46.8587 52.1292 48.0531 52.4703C49.2429 52.8156 50.5729 51.9194 51.0163 50.4766C51.4641 49.0338 50.8579 47.5823 49.6636 47.2413C48.4738 46.8959 47.1483 47.7878 46.7004 49.2349Z" fill="#007BFF" fill-opacity="0.6"/>
<path d="M59.7854 49.2349C59.2629 50.6777 59.9701 52.1292 61.3635 52.4703C62.7516 52.8156 64.3034 51.9194 64.8206 50.4766C65.3378 49.0338 64.6359 47.5823 63.2425 47.2413C61.8544 46.8959 60.3079 47.7878 59.7854 49.2349Z" fill="#007BFF" fill-opacity="0.6"/>
<path d="M72.8195 49.2349C72.3762 50.6777 72.9779 52.1292 74.1722 52.4703C75.362 52.8156 76.6921 51.9194 77.1354 50.4766C77.5833 49.0338 76.9771 47.5823 75.7827 47.2413C74.5929 46.8959 73.2629 47.7878 72.8195 49.2349Z" fill="#007BFF" fill-opacity="0.6"/>
<path d="M311.524 70.5442C311.451 70.9542 311.549 71.3696 311.749 71.4694C311.949 71.5693 312.168 71.3117 312.244 70.9017C312.317 70.4916 312.219 70.0763 312.019 69.9764C311.819 69.8765 311.597 70.1289 311.524 70.5442Z" stroke="#007BFF" stroke-opacity="0.6" stroke-width="2.157" stroke-miterlimit="10" stroke-linecap="round" stroke-linejoin="round"/>
<path d="M312.797 74.8449C312.797 74.8449 313.294 79.7281 314.607 81.4771C314.607 81.4771 311.272 78.7637 310.029 74.8449C307.279 74.8449 300.443 74.8449 298.03 74.8449C295.616 74.8449 294.303 73.5685 294.091 70.2548C293.88 66.941 293.354 62.2563 294.898 60.7011C296.187 59.4011 299.025 59.6895 302.617 59.6375C306.21 59.5807 319.232 59.2546 322.295 59.2026C325.358 59.1458 327.219 59.9116 327.435 63.7643C327.647 67.617 327.647 69.1722 327.62 71.0584C327.592 72.9445 326.823 74.774 323.52 74.9678C320.213 75.1521 312.797 74.8449 312.797 74.8449Z" stroke="#007BFF" stroke-opacity="0.6" stroke-width="2.157" stroke-miterlimit="10" stroke-linecap="round" stroke-linejoin="round"/>
<path d="M94.1829 16.4395L92.6465 28.7305" stroke="#007BFF" stroke-opacity="0.6" stroke-width="2.157" stroke-miterlimit="10" stroke-linecap="round" stroke-linejoin="round"/>
<path d="M107.242 21.8169L99.5605 31.8033" stroke="#007BFF" stroke-opacity="0.6" stroke-width="2.157" stroke-miterlimit="10" stroke-linecap="round" stroke-linejoin="round"/>
<path d="M116.46 32.5713L104.938 37.1804" stroke="#007BFF" stroke-opacity="0.6" stroke-width="2.157" stroke-miterlimit="10" stroke-linecap="round" stroke-linejoin="round"/>
<path d="M350.678 71.491L338.387 69.9546" stroke="#007BFF" stroke-opacity="0.6" stroke-width="2.157" stroke-miterlimit="10" stroke-linecap="round" stroke-linejoin="round"/>
<path d="M345.301 83.7818L335.314 76.8682" stroke="#007BFF" stroke-opacity="0.6" stroke-width="2.157" stroke-miterlimit="10" stroke-linecap="round" stroke-linejoin="round"/>
<path d="M333.778 93.0002L329.938 82.2456" stroke="#007BFF" stroke-opacity="0.6" stroke-width="2.157" stroke-miterlimit="10" stroke-linecap="round" stroke-linejoin="round"/>
<path d="M152.374 35C156.901 37.6214 160.05 42.5033 151.968 48.6001C144.436 54.2858 140.23 52.7514 140.006 49.7007C139.703 45.6088 150.557 39.7769 159.454 50.1757C166.488 58.396 155.76 64.5567 155.322 62.6614C154.884 60.7662 165.593 53.9753 181.482 68.0321" stroke="#007BFF" stroke-opacity="0.6" stroke-width="2.157" stroke-miterlimit="10" stroke-linecap="round" stroke-linejoin="round"/>
<path d="M9.68187 19.5122C13.9245 19.5122 17.3637 16.0729 17.3637 11.8303C17.3637 7.58773 13.9245 4.14844 9.68187 4.14844C5.43929 4.14844 2 7.58773 2 11.8303C2 16.0729 5.43929 19.5122 9.68187 19.5122Z" stroke="#007BFF" stroke-opacity="0.6" stroke-width="2.157" stroke-miterlimit="10" stroke-linecap="round" stroke-linejoin="round"/>
<path d="M9.68212 14.9033C11.3792 14.9033 12.7549 13.5276 12.7549 11.8306C12.7549 10.1335 11.3792 8.75781 9.68212 8.75781C7.98509 8.75781 6.60938 10.1335 6.60938 11.8306C6.60938 13.5276 7.98509 14.9033 9.68212 14.9033Z" stroke="#007BFF" stroke-opacity="0.6" stroke-width="2.157" stroke-miterlimit="10" stroke-linecap="round" stroke-linejoin="round"/>
<path d="M335.815 5.45843C335.815 7.79344 333.925 9.68346 331.59 9.68346C329.256 9.68346 327.365 7.79344 327.365 5.45843C327.365 3.12342 329.256 1.2334 331.59 1.2334C333.925 1.2334 335.815 3.1282 335.815 5.45843Z" stroke="#007BFF" stroke-opacity="0.6" stroke-width="2.157" stroke-miterlimit="10" stroke-linecap="round" stroke-linejoin="round"/>
<path d="M331.59 7.37902C332.651 7.37902 333.511 6.51919 333.511 5.45855C333.511 4.39791 332.651 3.53809 331.59 3.53809C330.53 3.53809 329.67 4.39791 329.67 5.45855C329.67 6.51919 330.53 7.37902 331.59 7.37902Z" stroke="#007BFF" stroke-opacity="0.6" stroke-width="1.5" stroke-miterlimit="10" stroke-linecap="round" stroke-linejoin="round"/>
<path d="M264.756 78.8204C265.817 78.8204 266.677 77.9606 266.677 76.9C266.677 75.8393 265.817 74.9795 264.756 74.9795C263.696 74.9795 262.836 75.8393 262.836 76.9C262.836 77.9606 263.696 78.8204 264.756 78.8204Z" stroke="#007BFF" stroke-opacity="0.6" stroke-width="1.5" stroke-miterlimit="10" stroke-linecap="round" stroke-linejoin="round"/>
<path d="M236.536 75.0727C237.385 75.0727 238.073 74.3849 238.073 73.5364C238.073 72.6879 237.385 72 236.536 72C235.688 72 235 72.6879 235 73.5364C235 74.3849 235.688 75.0727 236.536 75.0727Z" fill="#007BFF" fill-opacity="0.6"/>
<path d="M130.536 13.0727C131.385 13.0727 132.073 12.3849 132.073 11.5364C132.073 10.6879 131.385 10 130.536 10C129.688 10 129 10.6879 129 11.5364C129 12.3849 129.688 13.0727 130.536 13.0727Z" stroke="#007BFF" stroke-opacity="0.6" stroke-width="2.157" stroke-miterlimit="10" stroke-linecap="round" stroke-linejoin="round"/>
<path d="M264.758 81.1249C267.092 81.1249 268.983 79.2332 268.983 76.8998C268.983 74.5664 267.092 72.6748 264.758 72.6748C262.425 72.6748 260.533 74.5664 260.533 76.8998C260.533 79.2332 262.425 81.1249 264.758 81.1249Z" stroke="#007BFF" stroke-opacity="0.6" stroke-width="2.157" stroke-miterlimit="10" stroke-linecap="round" stroke-linejoin="round"/>
<path d="M264.373 72.6751L270.752 39.2775H286.641L292.932 5.84277H327.364" stroke="#007BFF" stroke-opacity="0.6" stroke-width="2.157" stroke-miterlimit="10" stroke-linecap="round" stroke-linejoin="round"/>
<path d="M17.3633 11.8306H54.445L61.15 34.8762" stroke="#007BFF" stroke-opacity="0.6" stroke-width="2.157" stroke-miterlimit="10" stroke-linecap="round" stroke-linejoin="round"/>
<path d="M201.48 23.1373C201.865 24.4286 199.615 26.3679 196.457 27.4672C193.299 28.5713 190.428 28.4176 190.043 27.1264C189.658 25.8351 191.908 23.8957 195.066 22.7965C198.224 21.6924 201.094 21.846 201.48 23.1373Z" stroke="#007BFF" stroke-opacity="0.6" stroke-width="2.157" stroke-miterlimit="10" stroke-linecap="round" stroke-linejoin="round"/>
<path d="M190 27.4365L190.027 26.739L190.366 18.2182L190.732 9L196.127 16.2624L201.112 22.9687L201.523 23.5202" stroke="#007BFF" stroke-opacity="0.6" stroke-width="2.157" stroke-miterlimit="10" stroke-linecap="round" stroke-linejoin="round"/>
<path d="M308.44 64.6223C308.44 64.6223 308.098 62.2725 311.04 62.2725C312.629 62.2725 313.336 63.4033 312.919 64.6223C312.376 66.1982 310.192 66.3385 311.04 67.6498" stroke="#007BFF" stroke-opacity="0.6" stroke-width="2.157" stroke-miterlimit="10" stroke-linecap="round" stroke-linejoin="round"/>
<path d="M330.92 39.8339C330.021 40.733 327.364 39.5282 324.982 37.1501C322.6 34.7675 321.399 32.1106 322.298 31.2115C323.197 30.3124 325.854 31.5172 328.236 33.8953C330.619 36.2779 331.819 38.9348 330.92 39.8339Z" stroke="#007BFF" stroke-opacity="0.6" stroke-width="2.157" stroke-miterlimit="10" stroke-linecap="round" stroke-linejoin="round"/>
<path d="M322 31.0793L322.612 30.8115L330.068 27.5418L338.132 24L334.413 31.684L330.98 38.7806L330.699 39.3637" stroke="#007BFF" stroke-opacity="0.6" stroke-width="2.157" stroke-miterlimit="10" stroke-linecap="round" stroke-linejoin="round"/>
<path d="M251.133 35.3636V23.8408L238.842 23.8408V35.3636H251.133Z" stroke="#007BFF" stroke-opacity="0.6" stroke-width="2.157" stroke-miterlimit="10" stroke-linecap="round" stroke-linejoin="round"/>
<path d="M246.523 31.5228V20L235.001 20V31.5228H246.523Z" stroke="#007BFF" stroke-opacity="0.6" stroke-width="2.157" stroke-miterlimit="10" stroke-linecap="round" stroke-linejoin="round"/>
<path d="M208.536 54.0727C209.385 54.0727 210.073 53.3849 210.073 52.5364C210.073 51.6879 209.385 51 208.536 51C207.688 51 207 51.6879 207 52.5364C207 53.3849 207.688 54.0727 208.536 54.0727Z" stroke="#007BFF" stroke-opacity="0.6" stroke-width="2.157" stroke-miterlimit="10" stroke-linecap="round" stroke-linejoin="round"/>
</svg>
