<svg width="179" height="324" viewBox="0 0 179 324" fill="none" xmlns="http://www.w3.org/2000/svg">
<path d="M77.3803 232.962C77.3803 232.962 78.6754 220.475 82.0931 216C82.0931 216 73.405 222.942 70.1731 232.962C63.0079 232.962 45.2178 232.962 38.934 232.962C32.6502 232.962 29.2325 236.221 28.6749 244.705C28.1233 253.189 26.7562 265.162 30.7795 269.147C34.1372 272.479 41.5243 271.736 50.884 271.875C60.2438 272.014 94.1391 272.854 102.108 272.993C110.076 273.132 114.933 271.173 115.485 261.316C116.036 251.46 116.036 247.475 115.97 242.649C115.899 237.824 113.89 233.143 105.298 232.654C96.6994 232.17 77.3803 232.962 77.3803 232.962Z" stroke="#007BFF" stroke-opacity="0.6" stroke-width="2.157" stroke-miterlimit="10" stroke-linecap="round" stroke-linejoin="round"/>
<path d="M92.8103 253.308C93.3875 251.43 92.6042 249.54 91.0495 249.096C89.5006 248.647 87.7692 249.814 87.1921 251.692C86.609 253.57 87.3982 255.459 88.9529 255.903C90.5018 256.353 92.2273 255.192 92.8103 253.308Z" fill="#007BFF" fill-opacity="0.6"/>
<path d="M75.7759 253.308C76.4561 251.43 75.5355 249.54 73.7216 249.096C71.9146 248.647 69.8946 249.814 69.2213 251.692C68.548 253.57 69.4618 255.459 71.2756 255.903C73.0826 256.353 75.0957 255.192 75.7759 253.308Z" fill="#007BFF" fill-opacity="0.6"/>
<path d="M58.8103 253.308C59.3875 251.43 58.6042 249.54 57.0495 249.096C55.5006 248.647 53.7692 249.814 53.1921 251.692C52.609 253.57 53.3982 255.459 54.9529 255.903C56.5018 256.353 58.2332 255.192 58.8103 253.308Z" fill="#007BFF" fill-opacity="0.6"/>
<path d="M62.9687 107.233C63.0637 106.699 62.9357 106.158 62.6755 106.028C62.4153 105.898 62.1304 106.233 62.0313 106.767C61.9363 107.301 62.0643 107.842 62.3245 107.972C62.5847 108.102 62.8737 107.773 62.9687 107.233Z" stroke="#007BFF" stroke-opacity="0.6" stroke-width="2.157" stroke-miterlimit="10" stroke-linecap="round" stroke-linejoin="round"/>
<path d="M61.312 101.634C61.312 101.634 60.6645 95.2769 58.9556 93C58.9556 93 63.2968 96.5322 64.9157 101.634C68.4954 101.634 77.3936 101.634 80.5356 101.634C83.6776 101.634 85.3864 103.295 85.6623 107.609C85.9381 111.923 86.6216 118.021 84.6129 120.046C82.934 121.738 79.2404 121.362 74.5635 121.43C69.8865 121.504 52.9355 121.929 48.9481 121.996C44.9606 122.07 42.5382 121.073 42.2564 116.058C41.9806 111.043 41.9806 109.018 42.0166 106.563C42.0525 104.107 43.0539 101.726 47.3531 101.474C51.6583 101.234 61.312 101.634 61.312 101.634Z" stroke="#007BFF" stroke-opacity="0.6" stroke-width="2.157" stroke-miterlimit="10" stroke-linecap="round" stroke-linejoin="round"/>
<path d="M31 296L33 280" stroke="#007BFF" stroke-opacity="0.6" stroke-width="2.157" stroke-miterlimit="10" stroke-linecap="round" stroke-linejoin="round"/>
<path d="M14 289L24 276" stroke="#007BFF" stroke-opacity="0.6" stroke-width="2.157" stroke-miterlimit="10" stroke-linecap="round" stroke-linejoin="round"/>
<path d="M2 275L17 269" stroke="#007BFF" stroke-opacity="0.6" stroke-width="2.157" stroke-miterlimit="10" stroke-linecap="round" stroke-linejoin="round"/>
<path d="M12 106L28 108" stroke="#007BFF" stroke-opacity="0.6" stroke-width="2.157" stroke-miterlimit="10" stroke-linecap="round" stroke-linejoin="round"/>
<path d="M19 90L32 99" stroke="#007BFF" stroke-opacity="0.6" stroke-width="2.157" stroke-miterlimit="10" stroke-linecap="round" stroke-linejoin="round"/>
<path d="M34 78L39 92" stroke="#007BFF" stroke-opacity="0.6" stroke-width="2.157" stroke-miterlimit="10" stroke-linecap="round" stroke-linejoin="round"/>
<path d="M144.893 227C138.999 223.588 134.899 217.232 145.42 209.296C155.225 201.894 160.701 203.892 160.992 207.863C161.386 213.19 147.257 220.782 135.676 207.245C126.519 196.544 140.484 188.524 141.054 190.991C141.624 193.458 127.684 202.299 107 184" stroke="#007BFF" stroke-opacity="0.6" stroke-width="2.157" stroke-miterlimit="10" stroke-linecap="round" stroke-linejoin="round"/>
<path d="M141 292C135.477 292 131 296.477 131 302C131 307.523 135.477 312 141 312C146.523 312 151 307.523 151 302C151 296.477 146.523 292 141 292Z" stroke="#007BFF" stroke-opacity="0.6" stroke-width="2.157" stroke-miterlimit="10" stroke-linecap="round" stroke-linejoin="round"/>
<path d="M141 298C138.791 298 137 299.791 137 302C137 304.209 138.791 306 141 306C143.209 306 145 304.209 145 302C145 299.791 143.209 298 141 298Z" stroke="#007BFF" stroke-opacity="0.6" stroke-width="2.157" stroke-miterlimit="10" stroke-linecap="round" stroke-linejoin="round"/>
<path d="M18 203.5C18 200.46 20.4613 198 23.5 198C26.5387 198 29 200.46 29 203.5C29 206.54 26.5387 209 23.5 209C20.4613 209 18 206.533 18 203.5Z" stroke="#007BFF" stroke-opacity="0.6" stroke-width="2.157" stroke-miterlimit="10" stroke-linecap="round" stroke-linejoin="round"/>
<path d="M23.5 201C22.1193 201 21 202.119 21 203.5C21 204.881 22.1193 206 23.5 206C24.8807 206 26 204.881 26 203.5C26 202.119 24.8807 201 23.5 201Z" stroke="#007BFF" stroke-opacity="0.6" stroke-width="1.5" stroke-miterlimit="10" stroke-linecap="round" stroke-linejoin="round"/>
<path d="M110.5 108C109.119 108 108 109.119 108 110.5C108 111.881 109.119 113 110.5 113C111.881 113 113 111.881 113 110.5C113 109.119 111.881 108 110.5 108Z" stroke="#007BFF" stroke-opacity="0.6" stroke-width="1.5" stroke-miterlimit="10" stroke-linecap="round" stroke-linejoin="round"/>
<path d="M53 160C51.8954 160 51 160.895 51 162C51 163.105 51.8954 164 53 164C54.1046 164 55 163.105 55 162C55 160.895 54.1046 160 53 160Z" fill="#007BFF" fill-opacity="0.6"/>
<path d="M89 318C87.8954 318 87 318.895 87 320C87 321.105 87.8954 322 89 322C90.1046 322 91 321.105 91 320C91 318.895 90.1046 318 89 318Z" stroke="#007BFF" stroke-opacity="0.6" stroke-width="2.157" stroke-miterlimit="10" stroke-linecap="round" stroke-linejoin="round"/>
<path d="M110.5 105C107.462 105 105 107.462 105 110.5C105 113.538 107.462 116 110.5 116C113.538 116 116 113.538 116 110.5C116 107.462 113.538 105 110.5 105Z" stroke="#007BFF" stroke-opacity="0.6" stroke-width="2.157" stroke-miterlimit="10" stroke-linecap="round" stroke-linejoin="round"/>
<path d="M144.426 2C154.096 11.4511 147.162 32.5346 135.458 36.6878C118.033 42.8727 135.5 -3.85521 137.602 17.1864C139.329 34.5243 116.922 57.7115 114.645 41.9557C113.298 32.6185 121.416 28.1297 122.672 35.2675C123.904 42.2674 119.175 53.3306 105 59" stroke="#007BFF" stroke-opacity="0.6" stroke-width="2.157" stroke-miterlimit="10" stroke-linecap="round" stroke-linejoin="round"/>
<path d="M111 116L102.696 159.476H82.0119L73.8235 203H29" stroke="#007BFF" stroke-opacity="0.6" stroke-width="2.157" stroke-miterlimit="10" stroke-linecap="round" stroke-linejoin="round"/>
<path d="M131 302H82.7283L74 272" stroke="#007BFF" stroke-opacity="0.6" stroke-width="2.157" stroke-miterlimit="10" stroke-linecap="round" stroke-linejoin="round"/>
<path d="M16.3885 142.388C17.5588 141.217 21.017 142.786 24.1182 145.882C27.2194 148.983 28.7818 152.442 27.6115 153.612C26.4412 154.783 22.983 153.214 19.8818 150.118C16.7806 147.017 15.2182 143.558 16.3885 142.388Z" stroke="#007BFF" stroke-opacity="0.6" stroke-width="2.157" stroke-miterlimit="10" stroke-linecap="round" stroke-linejoin="round"/>
<path d="M28 153.784L27.203 154.133L17.497 158.389L7 163L11.8411 152.997L16.3104 143.759L16.6764 143" stroke="#007BFF" stroke-opacity="0.6" stroke-width="2.157" stroke-miterlimit="10" stroke-linecap="round" stroke-linejoin="round"/>
<path d="M152.056 152.596C151.554 150.915 154.483 148.391 158.595 146.96C162.706 145.523 166.442 145.723 166.944 147.404C167.446 149.085 164.517 151.609 160.405 153.04C156.294 154.477 152.558 154.277 152.056 152.596Z" stroke="#007BFF" stroke-opacity="0.6" stroke-width="2.157" stroke-miterlimit="10" stroke-linecap="round" stroke-linejoin="round"/>
<path d="M167 147L166.965 147.908L166.524 159L166.047 171L159.024 161.546L152.534 152.816L152 152.098" stroke="#007BFF" stroke-opacity="0.6" stroke-width="2.157" stroke-miterlimit="10" stroke-linecap="round" stroke-linejoin="round"/>
<path d="M157 264H172V249H157V264Z" stroke="#007BFF" stroke-opacity="0.6" stroke-width="2.157" stroke-miterlimit="10" stroke-linecap="round" stroke-linejoin="round"/>
<path d="M161 259H177V244H161V259Z" stroke="#007BFF" stroke-opacity="0.6" stroke-width="2.157" stroke-miterlimit="10" stroke-linecap="round" stroke-linejoin="round"/>
<path d="M138 78V93H154V78H138Z" stroke="#007BFF" stroke-opacity="0.6" stroke-width="2.157" stroke-miterlimit="10" stroke-linecap="round" stroke-linejoin="round"/>
<path d="M144 83V98H159V83H144Z" stroke="#007BFF" stroke-opacity="0.6" stroke-width="2.157" stroke-miterlimit="10" stroke-linecap="round" stroke-linejoin="round"/>
<path d="M66.9842 114.941C66.9842 114.941 67.4294 118 63.5989 118C61.5312 118 60.6102 116.528 61.1531 114.941C61.8606 112.89 64.703 112.707 63.5989 111" stroke="#007BFF" stroke-opacity="0.6" stroke-width="2.157" stroke-miterlimit="10" stroke-linecap="round" stroke-linejoin="round"/>
</svg>
