<svg width="179" height="324" viewBox="0 0 179 324" fill="none" xmlns="http://www.w3.org/2000/svg">
<path d="M101.62 91.0381C101.62 91.0381 100.325 103.525 96.9069 108C96.9069 108 105.595 101.058 108.827 91.0381C115.992 91.0381 133.782 91.0381 140.066 91.0381C146.35 91.0381 149.767 87.7787 150.325 79.2947C150.877 70.8108 152.244 58.8376 148.221 54.8526C144.863 51.5207 137.476 52.2645 128.116 52.1254C118.756 51.9863 84.8609 51.1458 76.8923 51.0067C68.9236 50.8676 64.0668 52.8269 63.5152 62.6835C62.9636 72.5402 62.9636 76.5252 63.0295 81.3507C63.1015 86.1763 65.1101 90.8567 73.7024 91.3465C82.3006 91.8302 101.62 91.0381 101.62 91.0381Z" stroke="#007BFF" stroke-opacity="0.6" stroke-width="2.157" stroke-miterlimit="10" stroke-linecap="round" stroke-linejoin="round"/>
<path d="M86.1897 70.692C85.6125 72.5701 86.3958 74.4597 87.9505 74.9036C89.4994 75.3532 91.2308 74.1865 91.8079 72.3083C92.391 70.4302 91.6018 68.5406 90.0471 68.0967C88.4982 67.6471 86.7727 68.8081 86.1897 70.692Z" fill="#007BFF" fill-opacity="0.6"/>
<path d="M103.224 70.692C102.544 72.5701 103.465 74.4597 105.278 74.9036C107.085 75.3532 109.105 74.1865 109.779 72.3083C110.452 70.4302 109.538 68.5406 107.724 68.0967C105.917 67.6471 103.904 68.8081 103.224 70.692Z" fill="#007BFF" fill-opacity="0.6"/>
<path d="M120.19 70.692C119.613 72.5701 120.396 74.4597 121.951 74.9036C123.499 75.3532 125.231 74.1865 125.808 72.3083C126.391 70.4302 125.602 68.5406 124.047 68.0967C122.498 67.6471 120.767 68.8081 120.19 70.692Z" fill="#007BFF" fill-opacity="0.6"/>
<path d="M116.031 216.767C115.936 217.301 116.064 217.842 116.324 217.972C116.585 218.102 116.87 217.767 116.969 217.233C117.064 216.699 116.936 216.158 116.676 216.028C116.415 215.898 116.126 216.227 116.031 216.767Z" stroke="#007BFF" stroke-opacity="0.6" stroke-width="2.157" stroke-miterlimit="10" stroke-linecap="round" stroke-linejoin="round"/>
<path d="M117.688 222.366C117.688 222.366 118.336 228.723 120.044 231C120.044 231 115.703 227.468 114.084 222.366C110.505 222.366 101.606 222.366 98.4644 222.366C95.3224 222.366 93.6136 220.705 93.3377 216.391C93.0619 212.077 92.3784 205.979 94.3871 203.954C96.066 202.262 99.7596 202.638 104.437 202.57C109.114 202.496 126.065 202.071 130.052 202.004C134.039 201.93 136.462 202.927 136.744 207.942C137.019 212.957 137.019 214.982 136.983 217.437C136.947 219.893 135.946 222.274 131.647 222.526C127.342 222.766 117.688 222.366 117.688 222.366Z" stroke="#007BFF" stroke-opacity="0.6" stroke-width="2.157" stroke-miterlimit="10" stroke-linecap="round" stroke-linejoin="round"/>
<path d="M148 28L146 44" stroke="#007BFF" stroke-opacity="0.6" stroke-width="2.157" stroke-miterlimit="10" stroke-linecap="round" stroke-linejoin="round"/>
<path d="M165 35L155 48" stroke="#007BFF" stroke-opacity="0.6" stroke-width="2.157" stroke-miterlimit="10" stroke-linecap="round" stroke-linejoin="round"/>
<path d="M177 49L162 55" stroke="#007BFF" stroke-opacity="0.6" stroke-width="2.157" stroke-miterlimit="10" stroke-linecap="round" stroke-linejoin="round"/>
<path d="M167 218L151 216" stroke="#007BFF" stroke-opacity="0.6" stroke-width="2.157" stroke-miterlimit="10" stroke-linecap="round" stroke-linejoin="round"/>
<path d="M160 234L147 225" stroke="#007BFF" stroke-opacity="0.6" stroke-width="2.157" stroke-miterlimit="10" stroke-linecap="round" stroke-linejoin="round"/>
<path d="M145 246L140 232" stroke="#007BFF" stroke-opacity="0.6" stroke-width="2.157" stroke-miterlimit="10" stroke-linecap="round" stroke-linejoin="round"/>
<path d="M34.1074 97C40.0014 100.412 44.1005 106.768 33.5799 114.704C23.7747 122.106 18.2991 120.108 18.0081 116.137C17.6139 110.81 31.7425 103.218 43.3244 116.755C52.4807 127.456 38.5158 135.476 37.9458 133.009C37.3758 130.542 51.3164 121.701 72 140" stroke="#007BFF" stroke-opacity="0.6" stroke-width="2.157" stroke-miterlimit="10" stroke-linecap="round" stroke-linejoin="round"/>
<path d="M38 32C43.5228 32 48 27.5228 48 22C48 16.4772 43.5228 12 38 12C32.4772 12 28 16.4772 28 22C28 27.5228 32.4772 32 38 32Z" stroke="#007BFF" stroke-opacity="0.6" stroke-width="2.157" stroke-miterlimit="10" stroke-linecap="round" stroke-linejoin="round"/>
<path d="M38 26C40.2091 26 42 24.2091 42 22C42 19.7909 40.2091 18 38 18C35.7909 18 34 19.7909 34 22C34 24.2091 35.7909 26 38 26Z" stroke="#007BFF" stroke-opacity="0.6" stroke-width="2.157" stroke-miterlimit="10" stroke-linecap="round" stroke-linejoin="round"/>
<path d="M161 120.5C161 123.54 158.539 126 155.5 126C152.461 126 150 123.54 150 120.5C150 117.46 152.461 115 155.5 115C158.539 115 161 117.467 161 120.5Z" stroke="#007BFF" stroke-opacity="0.6" stroke-width="2.157" stroke-miterlimit="10" stroke-linecap="round" stroke-linejoin="round"/>
<path d="M155.5 123C156.881 123 158 121.881 158 120.5C158 119.119 156.881 118 155.5 118C154.119 118 153 119.119 153 120.5C153 121.881 154.119 123 155.5 123Z" stroke="#007BFF" stroke-opacity="0.6" stroke-width="1.5" stroke-miterlimit="10" stroke-linecap="round" stroke-linejoin="round"/>
<path d="M68.5 216C69.8807 216 71 214.881 71 213.5C71 212.119 69.8807 211 68.5 211C67.1193 211 66 212.119 66 213.5C66 214.881 67.1193 216 68.5 216Z" stroke="#007BFF" stroke-opacity="0.6" stroke-width="1.5" stroke-miterlimit="10" stroke-linecap="round" stroke-linejoin="round"/>
<path d="M126 164C127.105 164 128 163.105 128 162C128 160.895 127.105 160 126 160C124.895 160 124 160.895 124 162C124 163.105 124.895 164 126 164Z" fill="#007BFF" fill-opacity="0.6"/>
<path d="M90 6C91.1046 6 92 5.10457 92 4C92 2.89543 91.1046 2 90 2C88.8954 2 88 2.89543 88 4C88 5.10457 88.8954 6 90 6Z" stroke="#007BFF" stroke-opacity="0.6" stroke-width="2.157" stroke-miterlimit="10" stroke-linecap="round" stroke-linejoin="round"/>
<path d="M68.5 219C71.5376 219 74 216.538 74 213.5C74 210.462 71.5376 208 68.5 208C65.4624 208 63 210.462 63 213.5C63 216.538 65.4624 219 68.5 219Z" stroke="#007BFF" stroke-opacity="0.6" stroke-width="2.157" stroke-miterlimit="10" stroke-linecap="round" stroke-linejoin="round"/>
<path d="M34.5737 322C24.9044 312.549 31.8378 291.465 43.5425 287.312C60.9666 281.127 43.5002 327.855 41.3984 306.814C39.6711 289.476 62.0779 266.289 64.3548 282.044C65.7016 291.381 57.5845 295.87 56.3282 288.733C55.0962 281.733 59.8251 270.669 74 265" stroke="#007BFF" stroke-opacity="0.6" stroke-width="2.157" stroke-miterlimit="10" stroke-linecap="round" stroke-linejoin="round"/>
<path d="M68 208L76.304 164.524H96.9881L105.177 121H150" stroke="#007BFF" stroke-opacity="0.6" stroke-width="2.157" stroke-miterlimit="10" stroke-linecap="round" stroke-linejoin="round"/>
<path d="M48 22H96.2717L105 52" stroke="#007BFF" stroke-opacity="0.6" stroke-width="2.157" stroke-miterlimit="10" stroke-linecap="round" stroke-linejoin="round"/>
<path d="M162.611 181.612C161.441 182.783 157.983 181.214 154.882 178.118C151.781 175.017 150.218 171.558 151.389 170.388C152.559 169.217 156.017 170.786 159.118 173.882C162.219 176.983 163.782 180.442 162.611 181.612Z" stroke="#007BFF" stroke-opacity="0.6" stroke-width="2.157" stroke-miterlimit="10" stroke-linecap="round" stroke-linejoin="round"/>
<path d="M151 170.216L151.797 169.867L161.503 165.611L172 161L167.159 171.003L162.69 180.241L162.324 181" stroke="#007BFF" stroke-opacity="0.6" stroke-width="2.157" stroke-miterlimit="10" stroke-linecap="round" stroke-linejoin="round"/>
<path d="M26.9441 171.404C27.4457 173.085 24.5165 175.609 20.4053 177.04C16.294 178.477 12.5576 178.277 12.0559 176.596C11.5543 174.915 14.4835 172.391 18.5947 170.96C22.706 169.523 26.4424 169.723 26.9441 171.404Z" stroke="#007BFF" stroke-opacity="0.6" stroke-width="2.157" stroke-miterlimit="10" stroke-linecap="round" stroke-linejoin="round"/>
<path d="M12 177L12.0349 176.092L12.4764 165L12.9527 153L19.9764 162.454L26.4655 171.184L27 171.902" stroke="#007BFF" stroke-opacity="0.6" stroke-width="2.157" stroke-miterlimit="10" stroke-linecap="round" stroke-linejoin="round"/>
<path d="M22 60H7V75H22V60Z" stroke="#007BFF" stroke-opacity="0.6" stroke-width="2.157" stroke-miterlimit="10" stroke-linecap="round" stroke-linejoin="round"/>
<path d="M18 65H2V80H18V65Z" stroke="#007BFF" stroke-opacity="0.6" stroke-width="2.157" stroke-miterlimit="10" stroke-linecap="round" stroke-linejoin="round"/>
<path d="M41 246V231H25L25 246H41Z" stroke="#007BFF" stroke-opacity="0.6" stroke-width="2.157" stroke-miterlimit="10" stroke-linecap="round" stroke-linejoin="round"/>
<path d="M35 241V226H20L20 241H35Z" stroke="#007BFF" stroke-opacity="0.6" stroke-width="2.157" stroke-miterlimit="10" stroke-linecap="round" stroke-linejoin="round"/>
<path d="M112.016 209.059C112.016 209.059 111.571 206 115.401 206C117.469 206 118.39 207.472 117.847 209.059C117.139 211.11 114.297 211.293 115.401 213" stroke="#007BFF" stroke-opacity="0.6" stroke-width="2.157" stroke-miterlimit="10" stroke-linecap="round" stroke-linejoin="round"/>
</svg>
