<svg width="34" height="32" viewBox="0 0 34 32" fill="none" xmlns="http://www.w3.org/2000/svg">
<path d="M11.7812 8.03125H15.4687C16.021 8.03125 16.4687 8.47897 16.4687 9.03125V15.9375C16.4687 16.4898 16.021 16.9375 15.4687 16.9375H7.77049C7.48875 16.9375 7.22007 17.0563 7.03055 17.2648L6.1664 18.2154C5.71081 18.7165 4.87692 18.441 4.80953 17.7671V17.7671C4.77439 17.4158 4.5082 17.1316 4.15991 17.0735L4.08273 17.0607C3.6563 16.9896 3.34375 16.6206 3.34375 16.1883V9.03125C3.34375 8.47896 3.79147 8.03125 4.34375 8.03125H4.51562" stroke="#007BFF"/>
<path d="M24.404 23.5287L24.3086 24.5045C24.2237 25.3727 23.1456 25.7235 22.566 25.0716L21.2035 23.539C21.0137 23.3256 20.7417 23.2034 20.4561 23.2034H9.50001C8.94773 23.2034 8.50001 22.7557 8.50001 22.2034V16.9375M26.3125 23.2034V11.8438C26.3125 11.2915 25.8648 10.8438 25.3125 10.8438H16.2344" stroke="#007BFF"/>
<path d="M10.7812 24.9062H2C1.44772 24.9062 1 25.354 1 25.9062V28.125C1 28.6773 1.44771 29.125 2 29.125H3.8978C4.23902 29.125 4.51562 29.4016 4.51562 29.7428C4.51562 30.2932 5.1811 30.5689 5.57031 30.1797L6.3321 29.4179C6.51964 29.2304 6.77399 29.125 7.03921 29.125H10.7812C11.3335 29.125 11.7812 28.6773 11.7812 28.125V25.9062C11.7812 25.354 11.3335 24.9062 10.7812 24.9062Z" stroke="#007BFF"/>
<path d="M17.875 6.5625V4.10938C17.875 3.55709 18.3227 3.10938 18.875 3.10938H27.8906C28.4429 3.10938 28.8906 3.55709 28.8906 4.10937V6.5625C28.8906 7.11478 28.4429 7.5625 27.8906 7.5625H26.0615C25.6823 7.5625 25.375 7.86984 25.375 8.24897C25.375 8.86054 24.6356 9.16682 24.2031 8.73437L23.3241 7.85539C23.1366 7.66785 22.8823 7.5625 22.617 7.5625H18.875C18.3227 7.5625 17.875 7.11478 17.875 6.5625Z" stroke="#007BFF"/>
<path d="M6.62102 2.87102L5.45711 1.70711C5.06658 1.31658 4.43342 1.31658 4.04289 1.70711L2.93352 2.81648C2.74598 3.00402 2.63607 3.25849 2.65818 3.52278C2.96686 7.21374 7.2931 11.6827 11.3328 11.9979C11.6175 12.0202 11.8898 11.8935 12.0796 11.68L13.0298 10.611C13.3816 10.2152 13.3639 9.61391 12.9895 9.23951L11.7852 8.03523C11.3947 7.6447 10.7615 7.6447 10.371 8.03523L9.77258 8.63366C9.56049 8.84575 9.26132 8.95864 8.97713 8.86274C8.15445 8.58513 6.88495 7.74406 5.95386 5.82293C5.77939 5.46295 5.8709 5.03535 6.15376 4.75248L6.62102 4.28523C7.01154 3.89471 7.01154 3.26154 6.62102 2.87102Z" stroke="#007BFF"/>
<path d="M26.5482 19.6333L25.622 18.7071C25.2315 18.3166 24.5983 18.3166 24.2078 18.7071L23.2929 19.622C23.1054 19.8095 22.995 20.0639 23.0192 20.328C23.3245 23.6587 27.208 27.6687 30.8496 27.9806C31.1342 28.005 31.4064 27.8779 31.5962 27.6644L32.3736 26.7898C32.7253 26.3941 32.7077 25.7928 32.3333 25.4184L31.3667 24.4518C30.9762 24.0613 30.343 24.0613 29.9525 24.4518L29.5053 24.899C29.2932 25.111 28.9937 25.224 28.7111 25.1235C27.9716 24.8605 26.8616 24.1069 26.0344 22.4328C25.8572 22.0742 25.9494 21.6464 26.2322 21.3635L26.5482 21.0475C26.9387 20.657 26.9387 20.0238 26.5482 19.6333Z" stroke="#007BFF"/>
</svg>
