<svg width="32" height="33" viewBox="0 0 32 33" fill="none" xmlns="http://www.w3.org/2000/svg">
<path d="M25.5173 1.85711L22.4313 1.34277C22.2027 2.77148 22.0884 6.82902 19.0024 2.37144L16.6021 4.08589C17.2879 5.11457 20.2025 8.37202 14.7162 7.34335L14.2019 10.2579C18.488 10.4294 17.6651 12.4524 15.0591 13.6868L16.945 16.0871C21.0597 13.6868 19.8596 14.8869 20.2025 18.1444L23.2885 18.4873C23.4599 17.1157 23.2885 13.1725 26.7174 17.6301L29.1176 15.7442C28.7176 14.6012 25.0029 11.9724 31.0035 12.6581L31.3464 9.57214C27.0603 9.57214 28.2604 7.5148 30.3177 6.14324L28.6033 3.57156C25.5173 7.00046 24.6601 3.91445 25.5173 1.85711Z" stroke="#007BFF"/>
<path d="M22.7727 6.3147C24.7611 6.3147 26.3731 7.92663 26.3731 9.91504C26.3731 11.9035 24.7611 13.5154 22.7727 13.5154C20.7843 13.5154 19.1724 11.9035 19.1724 9.91504C19.1724 7.92663 20.7843 6.3147 22.7727 6.3147Z" stroke="#007BFF"/>
<path d="M17.2878 3.74313C7.67636 2.70806 5.20684 10.983 8.1193 17.3483C9.0472 19.3763 11.3394 20.5457 12.1743 22.6138C12.569 23.5914 12.6357 24.6301 12.6481 25.4799C12.6583 26.1803 12.5291 26.7534 13.2003 26.9537V26.9537C15.7836 27.7243 19.6385 27.7357 19.771 25.0431C19.8721 22.9874 20.2982 20.3608 22.6026 20.2019" stroke="#007BFF"/>
<path d="M12.4876 7.17212C10.3803 9.71542 9.87451 12.1971 10.0696 14.2126C10.4049 17.6768 16.0879 19.2932 16.0879 22.7736V22.7736" stroke="#007BFF"/>
<path d="M7.00058 12.6582L6.24768 14.164C6.00069 14.658 5.40001 14.8582 4.90604 14.6112L4.29591 14.3062C3.95712 14.1368 3.55171 14.1733 3.24869 14.4006L2.38063 15.0516C1.98582 15.3477 1.87874 15.8944 2.13265 16.3176V16.3176C2.43778 16.8261 2.21516 17.4869 1.66451 17.7072L1.627 17.7222C1.24832 17.8737 1 18.2404 1 18.6483V19.5128C1 19.9217 1.26824 20.2823 1.65992 20.3998V20.3998C2.21054 20.5649 2.47917 21.1867 2.22209 21.7008L1.99058 22.1639C1.8067 22.5316 1.86666 22.9744 2.14171 23.2801L2.68446 23.8831C3.0015 24.2354 3.52226 24.3167 3.93163 24.0779L4.13526 23.9591C4.71086 23.6234 5.4488 23.9385 5.61042 24.585V24.585C5.72171 25.0301 6.12237 25.3451 6.58124 25.3451H7.41992C7.87878 25.3451 8.27944 25.0301 8.39073 24.585V24.585C8.55235 23.9385 9.2903 23.6234 9.8659 23.9591L10.1512 24.1256C10.5223 24.342 10.9902 24.2973 11.3136 24.0144L12.1439 23.2878" stroke="#007BFF"/>
<path d="M7.68515 16.7732C2.02746 16.7732 5.28491 25.3454 10.4283 20.545" stroke="#007BFF"/>
<path d="M13.5181 27.0596V30.2385C13.5181 30.4027 13.556 30.5664 13.6441 30.7048C15.0549 32.9225 18.3013 31.8859 18.7956 30.6057C18.825 30.5294 18.8329 30.4472 18.8329 30.3654V27.0596M16.0897 23.9736V25.5166" stroke="#007BFF"/>
<path d="M13.5181 29.1169H19.0043" stroke="#007BFF"/>
<path d="M6.65769 1L7.85781 5.11468M2.20012 4.08601L5.62902 6.65769M1 10.4295L5.11468 9.22936" stroke="#007BFF"/>
<path d="M23.4595 28.0881V26.2022V24.4753M28.7742 26.2022L25.5168 23.4591M29.9744 20.8874H26.0311" stroke="#007BFF"/>
</svg>
