<svg width="32" height="32" viewBox="0 0 32 32" fill="none" xmlns="http://www.w3.org/2000/svg">
<path d="M17.5903 14.4075L19.6015 12.564" stroke="#007BFF"/>
<path d="M22.6177 7.20093C24.0061 7.20093 25.1317 8.32646 25.1317 9.71488C25.1317 11.1033 24.0061 12.2288 22.6177 12.2288C21.2293 12.2288 20.1038 11.1033 20.1038 9.71488C20.1038 8.32646 21.2293 7.20093 22.6177 7.20093Z" stroke="#007BFF"/>
<path d="M11.7466 14.1101C11.7101 14.1666 11.674 14.2233 11.6382 14.2802C11.585 14.3645 11.5458 14.4568 11.5206 14.5532L10.705 17.6798C10.6115 18.0382 10.7238 18.419 10.9969 18.6694L14.1119 21.5248C14.3952 21.7844 14.8022 21.8588 15.159 21.7161L17.7439 20.6821C17.8649 20.6337 17.9755 20.5622 18.0686 20.4709C18.1195 20.4211 18.1711 20.3704 18.2233 20.3188M11.7466 14.1101C15.2894 7.11066 19.3206 2.80614 29.8689 1.16266C30.4661 1.06961 31.0015 1.53618 30.9548 2.13877C30.4236 8.98508 25.2425 17.261 18.2233 20.3188M11.7466 14.1101L18.2233 20.3188" stroke="#007BFF"/>
<path d="M24.2974 2.67578L29.4929 7.87128" stroke="#007BFF"/>
<path d="M14.5728 8.70931C10.9998 5.68603 7.87753 10.325 7.14625 13.3869C6.96863 14.1306 7.74301 14.4489 8.39268 14.0458C10.324 12.8473 11.3089 13.4901 11.7236 13.9048" stroke="#007BFF"/>
<path d="M23.0615 16.9989C26.3586 20.4314 21.9722 24.0058 18.9979 24.9793C18.281 25.214 17.9038 24.479 18.246 23.8066C19.322 21.6923 18.5954 20.7194 18.1465 20.3236" stroke="#007BFF"/>
<path d="M4.01538 19.4358L6.52933 16.9219" stroke="#007BFF"/>
<path d="M1 25.972L5.6927 21.2793" stroke="#007BFF"/>
<path d="M1.16943 31L5.86214 26.4749" stroke="#007BFF"/>
<path d="M10.7212 26.3074L6.19604 30.8325" stroke="#007BFF"/>
<path d="M12.7312 27.8152L14.91 25.6365" stroke="#007BFF"/>
<path d="M10.5528 18.5977C8.45967 19.479 7.39239 22.0802 7.01633 23.9097C6.89985 24.4763 7.35925 24.9726 7.93443 24.911C11.6362 24.5144 12.955 22.0986 13.5696 21.2792" stroke="#007BFF"/>
<path d="M16.5865 14.9106C16.8642 14.9106 17.0893 15.1358 17.0893 15.4134C17.0893 15.6911 16.8642 15.9162 16.5865 15.9162C16.3088 15.9162 16.0837 15.6911 16.0837 15.4134C16.0837 15.1358 16.3088 14.9106 16.5865 14.9106Z" fill="#007BFF"/>
</svg>
