<svg width="46" height="45" viewBox="0 0 46 45" fill="none" xmlns="http://www.w3.org/2000/svg">
<path d="M12.3104 4.22705C11.5635 4.22705 10.8173 4.46786 10.2093 4.95215L10.1398 5.00708L5.66515 9.56915L5.75965 9.48126C4.27884 10.7416 3.87074 12.7324 4.50619 14.4059C5.7053 17.823 8.76213 24.4308 14.7923 30.3827C20.8354 36.362 27.5921 39.2533 30.9344 40.5424L30.9677 40.5533L31.0011 40.5643C32.7292 41.1367 34.596 40.7285 35.9343 39.5975L35.976 39.5618L40.4228 35.1673C41.6032 34.0008 41.6032 31.9557 40.4228 30.7892L34.5919 25.0214C33.4082 23.8516 31.3399 23.8516 30.1562 25.0214L27.3324 27.8119C26.3215 27.3351 23.8344 26.0982 21.4709 23.8706C19.1382 21.6723 17.9473 19.1312 17.516 18.1495L20.362 15.337C21.6108 14.1029 21.6818 11.9841 20.2425 10.8518L20.3731 10.9699L14.4782 5.00708L14.4115 4.95215C13.8035 4.4679 13.0573 4.22705 12.3104 4.22705ZM12.3132 7.03131C12.4146 7.03114 12.5146 7.06891 12.6134 7.14392L18.3998 12.9996L18.4693 13.0546C18.4529 13.0417 18.524 13.1763 18.3498 13.3484L14.142 17.5068L14.4671 18.3555C14.4671 18.3555 16.0732 22.6708 19.506 25.9058C22.8816 29.0874 27.0434 30.8249 27.0434 30.8249L27.93 31.1985L32.1684 27.0099C32.4076 26.7735 32.3405 26.7735 32.5797 27.0099L38.4106 32.7778C38.6532 33.0175 38.6532 32.939 38.4106 33.1788L34.075 37.4634C33.4148 38.018 32.7327 38.1633 31.9127 37.8946C28.6937 36.6507 22.3978 33.9285 16.8045 28.3942C11.1724 22.8352 8.25395 16.5187 7.18264 13.4583L7.17708 13.4418L7.16874 13.4226C6.95328 12.8595 7.11077 12.0428 7.61621 11.6126L7.66346 11.5714L12.0102 7.14392C12.109 7.06959 12.2118 7.03148 12.3132 7.03131Z" fill="white"/>
<path d="M36.5801 0.412109L38.5923 2.40063L33.9065 7.03137H44.7012V9.84387H33.9065L38.5923 14.4746L36.5801 16.4631L28.4591 8.43762L36.5801 0.412109Z" fill="white"/>
</svg>
