<svg width="46" height="46" viewBox="0 0 46 46" fill="none" xmlns="http://www.w3.org/2000/svg">
<path d="M23 2.875C21.1936 2.875 19.9229 4.15913 19.2855 5.75H15.8125H14.375H7.1875V41.6875H38.8125V5.75H31.625H30.1875H26.7145C26.0771 4.15913 24.8064 2.875 23 2.875ZM23 5.75C23.8122 5.75 24.4375 6.37527 24.4375 7.1875V8.625H25.875H28.75V11.5H17.25V8.625H21.5625V7.1875C21.5625 6.37527 22.1878 5.75 23 5.75ZM10.0625 8.625H14.375V14.375H31.625V8.625H35.9375V38.8125H10.0625V8.625ZM30.6086 20.5461L21.5625 29.5923L16.8289 24.8586L14.7961 26.8914L21.5625 33.6577L32.6414 22.5789L30.6086 20.5461Z" fill="white"/>
</svg>
