<svg width="36" height="36" viewBox="0 0 36 36" fill="none" xmlns="http://www.w3.org/2000/svg">
<path d="M19.4375 0.75C16.2761 0.75 13.6875 3.33862 13.6875 6.5C13.6875 8.62817 14.8779 10.4924 16.6074 11.4863C16.5793 11.739 16.5625 11.9861 16.5625 12.25C16.5625 16.2031 19.7969 19.4375 23.75 19.4375C27.7031 19.4375 30.9375 16.2031 30.9375 12.25C30.9375 8.72925 28.3601 5.75317 25.0078 5.15234C24.4014 2.6311 22.1384 0.75 19.4375 0.75ZM19.4375 3.625C20.6055 3.625 21.5881 4.30444 22.043 5.28711C20.1619 5.75317 18.5671 6.98291 17.5957 8.61133C16.978 8.09473 16.5625 7.37598 16.5625 6.5C16.5625 4.89404 17.8315 3.625 19.4375 3.625ZM23.75 7.9375C26.1477 7.9375 28.0625 9.85229 28.0625 12.25C28.0625 14.6477 26.1477 16.5625 23.75 16.5625C21.3523 16.5625 19.4375 14.6477 19.4375 12.25C19.4375 9.85229 21.3523 7.9375 23.75 7.9375ZM11.4863 18C6.89307 18 0.794922 20.5156 0.794922 20.5156L1.87305 23.2109C1.87305 23.2109 8.0498 20.875 11.4863 20.875C12.8789 20.875 15.2542 21.7285 17.1914 22.7168C18.1572 23.2109 19.022 23.7275 19.6621 24.1543C19.9822 24.3677 20.2517 24.5586 20.4258 24.6934C20.51 24.7607 20.5718 24.8394 20.6055 24.873L20.8301 25.1875C20.9424 25.5076 20.9087 25.8669 20.6953 26.1758C20.4202 26.5632 19.9316 26.7148 19.4824 26.5801H19.4375L13.1934 23.5703L11.9805 26.1758L18.3594 29.2305H18.4043L18.4941 29.2754C20.1562 29.8594 22.0149 29.281 23.0312 27.8379C23.604 27.0237 23.7725 26.0691 23.6602 25.1426L30.5781 23.9746C31.3418 23.8455 32.0437 24.3228 32.2852 25.0527C32.5435 25.8276 32.1785 26.6138 31.4316 26.9395C29.3259 27.866 25.9399 29.2529 22.8965 30.3984C21.3748 30.9712 19.9204 31.4766 18.8086 31.8359C18.2527 32.0156 17.7698 32.1504 17.416 32.2402C17.0623 32.3301 16.7759 32.375 16.9219 32.375C17.0117 32.375 16.4333 32.2458 15.7539 31.8809C15.0745 31.5159 14.2209 30.9824 13.373 30.4434C12.5251 29.9043 11.6492 29.3596 10.8125 28.916C9.97583 28.4724 9.22339 28.0625 8.20703 28.0625C5.85425 28.0625 3.75977 28.9609 3.75977 28.9609L4.88281 31.6113C4.88281 31.6113 6.64038 30.9375 8.20703 30.9375C8.16772 30.9375 8.77979 31.0667 9.46484 31.4316C10.1499 31.7966 10.9978 32.3301 11.8457 32.8691C12.6936 33.4082 13.5415 33.9529 14.3613 34.3965C15.1812 34.8401 15.8999 35.25 16.9219 35.25C17.4104 35.25 17.6912 35.1433 18.1348 35.0254C18.5784 34.9075 19.1174 34.7671 19.707 34.5762C20.8862 34.1943 22.335 33.6777 23.8848 33.0938C26.9788 31.9314 30.4097 30.5557 32.5996 29.5898C34.6772 28.6746 35.7441 26.26 35.0254 24.1094C34.3403 22.0542 32.2234 20.7908 30.084 21.1445L22.2227 22.4473C22.217 22.4417 22.189 22.4529 22.1777 22.4473C22.1328 22.4136 22.0879 22.3462 22.043 22.3125L21.6387 21.998V22.043C21.5151 21.9531 21.4253 21.8689 21.2793 21.7734C20.5325 21.2793 19.561 20.7009 18.4941 20.1562C16.3547 19.0669 13.8447 18 11.4863 18Z" fill="white"/>
</svg>
