<svg width="46" height="46" viewBox="0 0 46 46" fill="none" xmlns="http://www.w3.org/2000/svg">
<path d="M23 4.3125C21.4109 4.3125 20.125 5.59839 20.125 7.1875C20.125 7.31104 20.1531 7.42896 20.1699 7.54688C15.2004 8.81592 11.5 13.3306 11.5 18.6875V31.625C11.5 32.4392 10.8767 33.0625 10.0625 33.0625H8.625V35.9375H18.957C18.7942 36.3923 18.6875 36.8696 18.6875 37.375C18.6875 39.739 20.636 41.6875 23 41.6875C25.364 41.6875 27.3125 39.739 27.3125 37.375C27.3125 36.8696 27.2058 36.3923 27.043 35.9375H37.375V33.0625H35.9375C35.1233 33.0625 34.5 32.4392 34.5 31.625V19.0918C34.5 13.6899 30.8894 8.87207 25.8301 7.54688C25.8469 7.42896 25.875 7.31104 25.875 7.1875C25.875 5.59839 24.5891 4.3125 23 4.3125ZM22.3711 10.0625C22.5789 10.0457 22.7866 10.0625 23 10.0625C23.0898 10.0625 23.1797 10.0625 23.2695 10.0625C27.9639 10.2029 31.625 14.3188 31.625 19.0918V31.625C31.625 32.1304 31.7317 32.6077 31.8945 33.0625H14.1055C14.2683 32.6077 14.375 32.1304 14.375 31.625V18.6875C14.375 14.1223 17.8901 10.3882 22.3711 10.0625ZM23 35.9375C23.8086 35.9375 24.4375 36.5664 24.4375 37.375C24.4375 38.1836 23.8086 38.8125 23 38.8125C22.1914 38.8125 21.5625 38.1836 21.5625 37.375C21.5625 36.5664 22.1914 35.9375 23 35.9375Z" fill="white"/>
</svg>
