<svg width="38" height="35" viewBox="0 0 38 35" fill="none" xmlns="http://www.w3.org/2000/svg">
<path d="M11.5 0C5.16602 0 0 5.16602 0 11.5C0 15.7395 2.31909 19.4343 5.75 21.4277V34.5H37.375V5.75H30.1875V4.3125H27.3125V5.75H21.4277C19.4343 2.31909 15.7395 0 11.5 0ZM11.5 2.875C16.2786 2.875 20.125 6.72144 20.125 11.5C20.125 16.2786 16.2786 20.125 11.5 20.125C6.72144 20.125 2.875 16.2786 2.875 11.5C2.875 6.72144 6.72144 2.875 11.5 2.875ZM10.0625 5.75V12.3086L7.5918 14.7793L9.6582 16.8457L12.5332 13.9707L12.9375 13.5215V5.75H10.0625ZM22.5957 8.625H27.3125V10.0625H30.1875V8.625H34.5V11.5H23C23 10.5005 22.8372 9.55151 22.5957 8.625ZM22.5957 14.375H34.5V31.625H8.625V22.5957C9.55151 22.8372 10.5005 23 11.5 23C16.8345 23 21.3042 19.3164 22.5957 14.375ZM23 20.125V23H25.875V20.125H23ZM28.75 20.125V23H31.625V20.125H28.75ZM11.5 25.875V28.75H14.375V25.875H11.5ZM17.25 25.875V28.75H20.125V25.875H17.25ZM23 25.875V28.75H25.875V25.875H23ZM28.75 25.875V28.75H31.625V25.875H28.75Z" fill="white"/>
</svg>
