<svg width="46" height="46" viewBox="0 0 46 46" fill="none" xmlns="http://www.w3.org/2000/svg">
<path d="M8.625 5.75V34.5H14.375V40.25H37.375V11.5H31.625V5.75H8.625ZM11.5 8.625H28.75V31.625H11.5V8.625ZM20.125 11.5C16.9468 11.5 14.375 14.0718 14.375 17.25H17.25C17.25 15.5374 18.4124 14.375 20.125 14.375C21.8376 14.375 23 15.5374 23 17.25C23 18.9626 21.8376 20.125 20.125 20.125H18.6875V24.4375H21.5625V22.7305C24.0276 22.0847 25.875 19.9172 25.875 17.25C25.875 14.0718 23.3032 11.5 20.125 11.5ZM31.625 14.375H34.5V37.375H17.25V34.5H31.625V14.375ZM18.6875 25.875V28.75H21.5625V25.875H18.6875Z" fill="white"/>
</svg>
