<svg width="109" height="278" viewBox="0 0 109 278" fill="none" xmlns="http://www.w3.org/2000/svg">
<path d="M44.5633 205C54.2833 210.693 61.0433 221.295 43.6933 234.536C27.5233 246.884 18.4933 243.551 18.0133 236.926C17.3633 228.04 40.6633 215.374 59.7633 237.958C74.8633 255.81 51.8333 269.19 50.8933 265.074C49.9533 260.958 72.9433 246.209 107.053 276.737" stroke="white" stroke-opacity="0.6" stroke-width="2.157" stroke-miterlimit="10" stroke-linecap="round" stroke-linejoin="round"/>
<path d="M19.11 45.6988C28.5596 45.6988 36.22 38.5808 36.22 29.8002C36.22 21.0197 28.5596 13.9016 19.11 13.9016C9.66041 13.9016 2 21.0197 2 29.8002C2 38.5808 9.66041 45.6988 19.11 45.6988Z" stroke="white" stroke-opacity="0.6" stroke-width="2.157" stroke-miterlimit="10" stroke-linecap="round" stroke-linejoin="round"/>
<path d="M18.9596 35.9891C22.4942 35.9891 25.3596 33.2493 25.3596 29.8697C25.3596 26.49 22.4942 23.7502 18.9596 23.7502C15.4249 23.7502 12.5596 26.49 12.5596 29.8697C12.5596 33.2493 15.4249 35.9891 18.9596 35.9891Z" stroke="white" stroke-opacity="0.6" stroke-width="2.157" stroke-miterlimit="10" stroke-linecap="round" stroke-linejoin="round"/>
<path d="M98.52 8.74426C100.464 8.74426 102.04 7.23451 102.04 5.37213C102.04 3.50975 100.464 2 98.52 2C96.576 2 95 3.50975 95 5.37213C95 7.23451 96.576 8.74426 98.52 8.74426Z" stroke="white" stroke-opacity="0.6" stroke-width="2.157" stroke-miterlimit="10" stroke-linecap="round" stroke-linejoin="round"/>
<path d="M35.8896 29.4133H90.9363L102.39 79.0035" stroke="white" stroke-opacity="0.6" stroke-width="2.157" stroke-miterlimit="10" stroke-linecap="round" stroke-linejoin="round"/>
<path d="M35.3698 147.025H10.0898V172.097H35.3698V147.025Z" stroke="white" stroke-opacity="0.6" stroke-width="2.157" stroke-miterlimit="10" stroke-linecap="round" stroke-linejoin="round"/>
<path d="M75.917 112.123C76.787 114.791 71.707 118.798 64.577 121.069C57.447 123.35 50.967 123.033 50.097 120.365C49.227 117.697 54.307 113.69 61.437 111.419C68.567 109.137 75.047 109.455 75.917 112.123Z" stroke="white" stroke-opacity="0.6" stroke-width="2.157" stroke-miterlimit="10" stroke-linecap="round" stroke-linejoin="round"/>
<path d="M27.28 155.276H2V180.349H27.28V155.276Z" stroke="white" stroke-opacity="0.6" stroke-width="2.157" stroke-miterlimit="10" stroke-linecap="round" stroke-linejoin="round"/>
<path d="M50.0967 120.365L50.1567 118.897L50.9167 100.965L51.7367 81.5654L63.8267 96.8491L74.9967 110.962L75.9167 112.123" stroke="white" stroke-opacity="0.6" stroke-width="2.157" stroke-miterlimit="10" stroke-linecap="round" stroke-linejoin="round"/>
</svg>
