<svg width="318" height="80" viewBox="0 0 318 80" fill="none" xmlns="http://www.w3.org/2000/svg">
<path d="M75 11H55V31H75V11Z" stroke="white" stroke-opacity="0.6" stroke-width="2.157" stroke-miterlimit="10" stroke-linecap="round" stroke-linejoin="round"/>
<path d="M68 18H48V38H68V18Z" stroke="white" stroke-opacity="0.6" stroke-width="2.157" stroke-miterlimit="10" stroke-linecap="round" stroke-linejoin="round"/>
<path d="M2.49999 35C3.8807 35 5 33.8807 5 32.5C5 31.1193 3.8807 30 2.49999 30C1.11928 30 0 31.1193 0 32.5C0 33.8807 1.11928 35 2.49999 35Z" fill="white" fill-opacity="0.6"/>
<path d="M30.5 73C32.433 73 34 68.9706 34 64C34 59.0294 32.433 55 30.5 55C28.567 55 27 59.0294 27 64C27 68.9706 28.567 73 30.5 73Z" stroke="white" stroke-opacity="0.6" stroke-width="2.157" stroke-miterlimit="10" stroke-linecap="round" stroke-linejoin="round"/>
<path d="M31 73L30.056 72.6561L18.5052 68.4987L6 64.0025L18.5052 59.5013L30.056 55.3439L31 55" stroke="white" stroke-opacity="0.6" stroke-width="2.157" stroke-miterlimit="10" stroke-linecap="round" stroke-linejoin="round"/>
<path d="M80 49L79 64" stroke="white" stroke-opacity="0.6" stroke-width="2.157" stroke-miterlimit="10" stroke-linecap="round" stroke-linejoin="round"/>
<path d="M95 55L87 67" stroke="white" stroke-opacity="0.6" stroke-width="2.157" stroke-miterlimit="10" stroke-linecap="round" stroke-linejoin="round"/>
<path d="M106 69L93 73" stroke="white" stroke-opacity="0.6" stroke-width="2.157" stroke-miterlimit="10" stroke-linecap="round" stroke-linejoin="round"/>
<path d="M121.47 58C112.02 48.7147 118.796 28.001 130.235 23.9207C147.263 17.8444 130.193 63.7525 128.139 43.08C126.451 26.0463 148.349 3.2659 150.574 18.7452C151.89 27.9186 143.958 32.3287 142.73 25.3162C141.526 18.4391 146.147 7.56997 160 2" stroke="white" stroke-opacity="0.6" stroke-width="2.157" stroke-miterlimit="10" stroke-linecap="round" stroke-linejoin="round"/>
<path d="M282 125L269.514 51.1635H231.421L226 27" stroke="white" stroke-opacity="0.6" stroke-width="2" stroke-miterlimit="10" stroke-linecap="round" stroke-linejoin="round"/>
<path d="M224 27C227.866 27 231 23.866 231 20C231 16.134 227.866 13 224 13C220.134 13 217 16.134 217 20C217 23.866 220.134 27 224 27Z" stroke="white" stroke-opacity="0.6" stroke-width="2" stroke-miterlimit="10" stroke-linecap="round" stroke-linejoin="round"/>
<path d="M226 20C226 21.1031 225.104 22 224 22C222.896 22 222 21.1031 222 20C222 18.8969 222.896 18 224 18C225.104 18 226 18.8969 226 20Z" fill="white" fill-opacity="0.6"/>
<path d="M275 19C298.194 19 317 37.8021 317 61" stroke="white" stroke-opacity="0.6" stroke-width="2" stroke-miterlimit="10" stroke-linecap="round" stroke-linejoin="round"/>
<path d="M182.032 56.7677C181.935 57.3053 182.067 57.8429 182.325 57.9734C182.583 58.0987 182.87 57.7698 182.968 57.2323C183.065 56.6947 182.933 56.1571 182.675 56.0266C182.417 55.9013 182.13 56.2302 182.032 56.7677Z" stroke="white" stroke-opacity="0.6" stroke-width="2" stroke-miterlimit="10" stroke-linecap="round" stroke-linejoin="round"/>
<path d="M184.127 61.6684C184.127 61.6684 184.761 67.8039 186.432 70C186.432 70 182.189 66.5904 180.608 61.6684C177.106 61.6684 168.415 61.6684 165.342 61.6684C162.27 61.6684 160.599 60.0655 160.331 55.8998C160.059 51.734 159.393 45.8521 161.358 43.8915C162.998 42.2568 166.606 42.6191 171.18 42.5512C175.753 42.4832 192.314 42.0712 196.208 42.0033C200.103 41.9353 202.474 42.8953 202.747 47.7357C203.019 52.5762 203.019 54.5368 202.984 56.905C202.948 59.2731 201.965 61.5734 197.767 61.8133C193.564 62.0579 184.127 61.6684 184.127 61.6684Z" stroke="white" stroke-opacity="0.6" stroke-width="2" stroke-miterlimit="10" stroke-linecap="round" stroke-linejoin="round"/>
<path d="M178.016 50.4929C178.016 50.4929 177.57 47 181.401 47C183.47 47 184.39 48.6782 183.846 50.4929C183.14 52.8397 180.299 53.0443 181.401 55" stroke="white" stroke-opacity="0.6" stroke-width="2" stroke-miterlimit="10" stroke-linecap="round" stroke-linejoin="round"/>
</svg>
