<svg width="126" height="273" viewBox="0 0 126 273" fill="none" xmlns="http://www.w3.org/2000/svg">
<path d="M75.1808 80.0381C75.1808 80.0381 73.9004 92.5252 70.5216 97C70.5216 97 79.111 90.058 82.3061 80.0381C89.3899 80.0381 106.978 80.0381 113.19 80.0381C119.403 80.0381 122.781 76.7787 123.333 68.2947C123.878 59.8108 125.23 47.8376 121.252 43.8526C117.933 40.5207 110.629 41.2645 101.376 41.1254C92.1226 40.9863 58.6125 40.1458 50.7344 40.0067C42.8563 39.8676 38.0547 41.8269 37.5094 51.6835C36.964 61.5402 36.964 65.5252 37.0292 70.3507C37.1003 75.1763 39.0862 79.8567 47.5808 80.3465C56.0813 80.8302 75.1808 80.0381 75.1808 80.0381Z" stroke="white" stroke-opacity="0.6" stroke-width="2.157" stroke-miterlimit="10" stroke-linecap="round" stroke-linejoin="round"/>
<path d="M62.0899 63.4234L62.0878 63.4228C60.8912 63.0812 60.1429 61.5471 60.6675 59.8393C61.1984 58.1244 62.7044 57.2276 63.9077 57.5769L63.9098 57.5775C65.1077 57.9195 65.8598 59.4546 65.3304 61.1601L65.33 61.1615C64.805 62.8698 63.2935 63.7728 62.0899 63.4234Z" stroke="white" stroke-opacity="0.6"/>
<path d="M77.6696 59.8402L77.6697 59.8398C78.2006 58.1246 79.7067 57.2275 80.9101 57.5769L80.9122 57.5775C82.1089 57.9192 82.8572 59.4535 82.3324 61.1615C81.8074 62.8698 80.2958 63.7728 79.0923 63.4234L79.0902 63.4228C77.8923 63.0808 77.1402 61.5457 77.6696 59.8402Z" stroke="white" stroke-opacity="0.6"/>
<path d="M94.6676 60.8388L94.6678 60.8384C95.1925 59.1256 96.7034 58.2273 97.9077 58.5769L97.9098 58.5775C99.1077 58.9195 99.8598 60.4546 99.3304 62.1601L99.33 62.1615C98.805 63.8698 97.2935 64.7728 96.0899 64.4234L96.0878 64.4228C94.8911 64.0811 94.1428 62.5468 94.6676 60.8388Z" stroke="white" stroke-opacity="0.6"/>
<path d="M12 21C17.5228 21 22 16.7467 22 11.5C22 6.2533 17.5228 2 12 2C6.47715 2 2 6.2533 2 11.5C2 16.7467 6.47715 21 12 21Z" stroke="white" stroke-opacity="0.6" stroke-width="2.157" stroke-miterlimit="10" stroke-linecap="round" stroke-linejoin="round"/>
<path d="M12 15C14.2091 15 16 13.433 16 11.5C16 9.567 14.2091 8 12 8C9.79086 8 8 9.567 8 11.5C8 13.433 9.79086 15 12 15Z" stroke="white" stroke-opacity="0.6" stroke-width="2.157" stroke-miterlimit="10" stroke-linecap="round" stroke-linejoin="round"/>
<path d="M22 12H69.4248L78 41" stroke="white" stroke-opacity="0.6" stroke-width="2.157" stroke-miterlimit="10" stroke-linecap="round" stroke-linejoin="round"/>
<path d="M111.37 127H86.0898V152.28H111.37V127Z" stroke="white" stroke-opacity="0.6" stroke-width="2.157" stroke-miterlimit="10" stroke-linecap="round" stroke-linejoin="round"/>
<path d="M103.28 135.32H78V160.6H103.28V135.32Z" stroke="white" stroke-opacity="0.6" stroke-width="2.157" stroke-miterlimit="10" stroke-linecap="round" stroke-linejoin="round"/>
<path d="M40.52 182.8C42.464 182.8 44.04 181.278 44.04 179.4C44.04 177.522 42.464 176 40.52 176C38.5759 176 37 177.522 37 179.4C37 181.278 38.5759 182.8 40.52 182.8Z" fill="white" fill-opacity="0.6"/>
<path d="M104.24 230.46C104.24 232.92 102.17 234.92 99.62 234.92C97.07 234.92 95 232.92 95 230.46C95 228 97.07 226 99.62 226C102.17 226 104.24 228 104.24 230.46Z" stroke="white" stroke-opacity="0.6" stroke-width="2.157" stroke-miterlimit="10" stroke-linecap="round" stroke-linejoin="round"/>
<path d="M78.917 260.557C79.787 263.225 74.707 267.232 67.577 269.503C60.447 271.785 53.967 271.467 53.097 268.799C52.227 266.131 57.307 262.124 64.437 259.853C71.567 257.572 78.047 257.889 78.917 260.557Z" stroke="white" stroke-opacity="0.6" stroke-width="2.157" stroke-miterlimit="10" stroke-linecap="round" stroke-linejoin="round"/>
<path d="M53.0977 268.799L53.1577 267.331L53.9177 249.4L54.7377 230L66.8277 245.284L77.9977 259.397L78.9177 260.557" stroke="white" stroke-opacity="0.6" stroke-width="2.157" stroke-miterlimit="10" stroke-linecap="round" stroke-linejoin="round"/>
</svg>
