<svg width="202" height="374" viewBox="0 0 202 374" fill="none" xmlns="http://www.w3.org/2000/svg">
<path d="M55.5301 63.1001C65.2501 68.8401 72.0101 79.5301 54.6601 92.8801C38.4901 105.33 29.4601 101.97 28.9801 95.2901C28.3301 86.3301 51.6301 73.5601 70.7301 96.3301C85.8301 114.33 62.8001 127.82 61.8601 123.67C60.9201 119.52 83.9101 104.65 118.02 135.43" stroke="#007BFF" stroke-opacity="0.6" stroke-width="2.157" stroke-miterlimit="10" stroke-linecap="round" stroke-linejoin="round"/>
<path d="M66 312.32L79.65 240.51H113.65L127.11 168.62H200.79" stroke="#007BFF" stroke-opacity="0.6" stroke-width="2.157" stroke-miterlimit="10" stroke-linecap="round" stroke-linejoin="round"/>
<path d="M35.3698 2H10.0898V27.28H35.3698V2Z" stroke="#007BFF" stroke-opacity="0.6" stroke-width="2.157" stroke-miterlimit="10" stroke-linecap="round" stroke-linejoin="round"/>
<path d="M27.28 10.3203H2V35.6003H27.28V10.3203Z" stroke="#007BFF" stroke-opacity="0.6" stroke-width="2.157" stroke-miterlimit="10" stroke-linecap="round" stroke-linejoin="round"/>
<path d="M34.8094 340.05L19.4395 361.67" stroke="#007BFF" stroke-opacity="0.6" stroke-width="2.157" stroke-miterlimit="10" stroke-linecap="round" stroke-linejoin="round"/>
<path d="M55.5998 365.05L30.2598 372.9" stroke="#007BFF" stroke-opacity="0.6" stroke-width="2.157" stroke-miterlimit="10" stroke-linecap="round" stroke-linejoin="round"/>
<path d="M19.4399 281.42C21.384 281.42 22.9599 279.898 22.9599 278.02C22.9599 276.142 21.384 274.62 19.4399 274.62C17.4959 274.62 15.9199 276.142 15.9199 278.02C15.9199 279.898 17.4959 281.42 19.4399 281.42Z" stroke="#007BFF" stroke-opacity="0.6" stroke-width="2.157" stroke-miterlimit="10" stroke-linecap="round" stroke-linejoin="round"/>
<path d="M37.0626 188.767C36.8726 189.301 37.1286 189.842 37.649 189.972C38.1693 190.102 38.7392 189.767 38.9374 189.233C39.1274 188.699 38.8714 188.158 38.351 188.028C37.8307 187.898 37.2525 188.227 37.0626 188.767Z" stroke="#007BFF" stroke-opacity="0.6" stroke-width="2.157" stroke-miterlimit="10" stroke-linecap="round" stroke-linejoin="round"/>
<path d="M33.0211 178.37C33.0211 178.37 32.4274 174 37.5347 174C40.2917 174 41.5197 176.103 40.7959 178.37C39.8525 181.301 36.0627 181.562 37.5347 184" stroke="#007BFF" stroke-opacity="0.6" stroke-width="2.157" stroke-miterlimit="10" stroke-linecap="round" stroke-linejoin="round"/>
<path d="M40.5432 193.985C40.5432 193.985 41.3968 202.095 43.6495 205C43.6495 205 37.927 200.493 35.7929 193.985C31.0743 193.985 19.3448 193.985 15.2031 193.985C11.0614 193.985 8.80879 191.865 8.44521 186.361C8.08162 180.857 7.18057 173.077 9.8284 170.494C12.0415 168.334 16.9104 168.813 23.0754 168.727C29.2405 168.633 51.5851 168.091 56.8412 168.005C62.0973 167.911 65.2905 169.182 65.662 175.581C66.0256 181.98 66.0256 184.563 65.9782 187.696C65.9308 190.828 64.6108 193.867 58.9436 194.189C53.2686 194.495 40.5432 193.985 40.5432 193.985Z" stroke="#007BFF" stroke-opacity="0.6" stroke-width="2.157" stroke-miterlimit="10" stroke-linecap="round" stroke-linejoin="round"/>
</svg>
