<svg width="176" height="416" viewBox="0 0 176 416" fill="none" xmlns="http://www.w3.org/2000/svg">
<path d="M81 136L78 162.36" stroke="#007BFF" stroke-opacity="0.6" stroke-width="2.157" stroke-miterlimit="10" stroke-linecap="round" stroke-linejoin="round"/>
<path d="M107.309 146.79L91.9395 168.41" stroke="#007BFF" stroke-opacity="0.6" stroke-width="2.157" stroke-miterlimit="10" stroke-linecap="round" stroke-linejoin="round"/>
<path d="M128.1 171.79L102.76 179.64" stroke="#007BFF" stroke-opacity="0.6" stroke-width="2.157" stroke-miterlimit="10" stroke-linecap="round" stroke-linejoin="round"/>
<path d="M141.064 23.1516C140.869 23.958 141.134 24.7644 141.65 24.9601C142.167 25.148 142.74 24.6548 142.936 23.8484C143.131 23.042 142.866 22.2356 142.35 22.0399C141.833 21.852 141.26 22.3452 141.064 23.1516Z" stroke="#007BFF" stroke-opacity="0.6" stroke-width="2.157" stroke-miterlimit="10" stroke-linecap="round" stroke-linejoin="round"/>
<path d="M145.471 31.5027C145.471 31.5027 146.43 40.7059 148.955 44C148.955 44 142.541 38.8856 140.151 31.5027C134.858 31.5027 121.72 31.5027 117.076 31.5027C112.431 31.5027 109.906 29.0983 109.501 22.8496C109.089 16.601 108.083 7.77813 111.053 4.83718C113.531 2.38526 118.986 2.92861 125.899 2.82673C132.813 2.72485 157.846 2.10678 163.733 2.0049C169.621 1.90302 173.205 3.34294 173.617 10.6036C174.029 17.8643 174.029 20.8052 173.975 24.3575C173.921 27.9097 172.436 31.36 166.09 31.72C159.737 32.0868 145.471 31.5027 145.471 31.5027Z" stroke="#007BFF" stroke-opacity="0.6" stroke-width="2.157" stroke-miterlimit="10" stroke-linecap="round" stroke-linejoin="round"/>
<path d="M135.024 14.2393C135.024 14.2393 134.354 9 140.101 9C143.205 9 144.586 11.5173 143.77 14.2393C142.709 17.7595 138.448 18.0665 140.101 21" stroke="#007BFF" stroke-opacity="0.6" stroke-width="2.157" stroke-miterlimit="10" stroke-linecap="round" stroke-linejoin="round"/>
<path d="M161.62 232.92C164.172 232.92 166.24 230.923 166.24 228.46C166.24 225.997 164.172 224 161.62 224C159.068 224 157 225.997 157 228.46C157 230.923 159.068 232.92 161.62 232.92Z" fill="#007BFF" fill-opacity="0.6"/>
<path d="M150.862 390.93L129.992 268.06H66.3217L57.2617 227.85" stroke="#007BFF" stroke-opacity="0.6" stroke-width="2.157" stroke-miterlimit="10" stroke-linecap="round" stroke-linejoin="round"/>
<path d="M164.342 402.52C164.342 408.92 158.802 414.11 151.972 414.11C145.142 414.11 139.602 408.92 139.602 402.52C139.602 396.12 145.142 390.93 151.972 390.93C158.802 390.93 164.342 396.11 164.342 402.52Z" stroke="#007BFF" stroke-opacity="0.6" stroke-width="2.157" stroke-miterlimit="10" stroke-linecap="round" stroke-linejoin="round"/>
<path d="M151.86 407.03C154.412 407.03 156.48 405.033 156.48 402.57C156.48 400.107 154.412 398.11 151.86 398.11C149.309 398.11 147.24 400.107 147.24 402.57C147.24 405.033 149.309 407.03 151.86 407.03Z" stroke="#007BFF" stroke-opacity="0.6" stroke-width="2.157" stroke-miterlimit="10" stroke-linecap="round" stroke-linejoin="round"/>
<path d="M54.37 228.18C61.2018 228.18 66.74 222.991 66.74 216.59C66.74 210.189 61.2018 205 54.37 205C47.5382 205 42 210.189 42 216.59C42 222.991 47.5382 228.18 54.37 228.18Z" stroke="#007BFF" stroke-opacity="0.6" stroke-width="2.157" stroke-miterlimit="10" stroke-linecap="round" stroke-linejoin="round"/>
<path d="M58.8806 216.64C58.8806 219.1 56.8107 221.1 54.2607 221.1C51.7107 221.1 49.6406 219.1 49.6406 216.64C49.6406 214.18 51.7107 212.18 54.2607 212.18C56.8107 212.18 58.8806 214.18 58.8806 216.64Z" fill="#007BFF" fill-opacity="0.6"/>
<path d="M170.37 91H145.09V116.28H170.37V91Z" stroke="#007BFF" stroke-opacity="0.6" stroke-width="2.157" stroke-miterlimit="10" stroke-linecap="round" stroke-linejoin="round"/>
<path d="M162.28 99.3203H137V124.6H162.28V99.3203Z" stroke="#007BFF" stroke-opacity="0.6" stroke-width="2.157" stroke-miterlimit="10" stroke-linecap="round" stroke-linejoin="round"/>
<path d="M19.11 176.06C28.5596 176.06 36.22 168.883 36.22 160.03C36.22 151.177 28.5596 144 19.11 144C9.66039 144 2 151.177 2 160.03C2 168.883 9.66039 176.06 19.11 176.06Z" stroke="#007BFF" stroke-opacity="0.6" stroke-width="2.157" stroke-miterlimit="10" stroke-linecap="round" stroke-linejoin="round"/>
<path d="M25.3508 160.11C25.3508 163.52 22.4908 166.28 18.9508 166.28C15.4208 166.28 12.5508 163.52 12.5508 160.11C12.5508 156.7 15.4108 153.94 18.9508 153.94C22.4908 153.94 25.3508 156.7 25.3508 160.11Z" stroke="#007BFF" stroke-opacity="0.6" stroke-width="2.157" stroke-miterlimit="10" stroke-linecap="round" stroke-linejoin="round"/>
</svg>
