<svg width="32" height="32" viewBox="0 0 32 32" fill="none" xmlns="http://www.w3.org/2000/svg">
<path d="M4.91302 29.5325V31.0977" stroke="#007BFF"/>
<path d="M15.087 29.5325V31.0977" stroke="#007BFF"/>
<path d="M10.1304 23.2716L11.3875 25.2829C11.4189 25.3333 11.4453 25.3875 11.4708 25.4412C12.0353 26.6285 13.7712 25.8518 13.2609 24.576L11.9565 21.9673" stroke="#007BFF"/>
<path d="M31 22.829V23.3586C31 24.4632 30.1046 25.3586 29 25.3586H24.6522C23.5476 25.3586 22.6522 24.4632 22.6522 23.3586V19.0108C22.6522 17.9062 23.5476 17.0108 24.6522 17.0108H29C30.1046 17.0108 31 17.9062 31 19.0108V21.3112" stroke="#007BFF"/>
<path d="M28.3913 21.1848C28.3913 22.0493 27.6905 22.7501 26.8261 22.7501C25.9616 22.7501 25.2609 22.0493 25.2609 21.1848C25.2609 20.3204 25.9616 19.6196 26.8261 19.6196C27.6905 19.6196 28.3913 20.3204 28.3913 21.1848Z" stroke="#007BFF"/>
<path d="M17.9565 5.01083C17.9565 7.31602 16.0878 9.18474 13.7826 9.18474C11.4774 9.18474 9.6087 7.31602 9.6087 5.01083C9.6087 2.70564 11.4774 0.836914 13.7826 0.836914C16.0878 0.836914 17.9565 2.70564 17.9565 5.01083Z" stroke="#007BFF"/>
<path d="M12.4783 5.04742V4.74772C12.4783 4.01793 13.2347 3.53394 13.8973 3.83976L14.1756 3.96821C14.9003 4.30267 14.9604 5.30953 14.2807 5.72782L14.0024 5.89908C13.3361 6.30909 12.4783 5.82975 12.4783 5.04742Z" stroke="#007BFF"/>
<path d="M18.4783 11.5327L20.5652 8.66309" stroke="#007BFF"/>
<path d="M20.0435 13.3587L22.6522 11.2717" stroke="#007BFF"/>
<path d="M21.6087 15.1848L24.7391 14.6631" stroke="#007BFF"/>
<path d="M16.9131 13.3587L16.7126 12.9577C16.4187 12.37 15.6477 12.2205 15.1556 12.6559L9.41264 17.7361C9.36953 17.7743 9.3232 17.8086 9.27417 17.8388L6.69716 19.4246C6.27248 19.686 6.10523 20.2203 6.3051 20.6771L7.37199 23.1157C7.59715 23.6304 8.20197 23.8586 8.71103 23.6211L11.6957 22.2282L19.2026 19.4984C19.7808 19.2882 20.0338 18.6108 19.735 18.073L17.6957 14.4022" stroke="#007BFF"/>
<path d="M10.6522 20.9238L9.08698 18.0542" stroke="#007BFF"/>
<path d="M3.86957 7.88037H5.69565" stroke="#007BFF"/>
<path d="M2.82611 9.96729H5.69568" stroke="#007BFF"/>
<path d="M2.82611 12.3152H5.69568" stroke="#007BFF"/>
<path d="M6.26087 5.79346H2C1.44772 5.79346 1 6.24117 1 6.79346V13.1413C1 13.6936 1.44772 14.1413 2 14.1413H6.26087C6.81315 14.1413 7.26087 13.6936 7.26087 13.1413V6.79346C7.26087 6.24117 6.81315 5.79346 6.26087 5.79346Z" stroke="#007BFF"/>
<path d="M8.04351 16.75H3.56525C3.01296 16.75 2.56525 17.1977 2.56525 17.75V27.9674" stroke="#007BFF"/>
<path d="M6.47859 21.1848C3.86978 21.9674 4.39116 25.0979 7.52207 23.2718" stroke="#007BFF"/>
<path d="M17.1739 22.2283V27.7065" stroke="#007BFF"/>
<path d="M18 27.9673H2.34403C1.67417 27.9673 1.08961 28.6355 1.22787 29.2909C1.41568 30.1813 1.85304 31.0977 3.34783 31.0977H16.7508C16.8582 31.0977 16.9655 31.0813 17.0661 31.0435C18.1533 30.6343 18.6988 29.9 18.9026 28.9608C19.0197 28.4211 18.5523 27.9673 18 27.9673Z" stroke="#007BFF"/>
</svg>
