<svg width="33" height="44" viewBox="0 0 33 44" fill="none" xmlns="http://www.w3.org/2000/svg">
<path d="M6.00833 25.5669L8.65972 27.9237" stroke="#007BFF"/>
<path d="M17.4969 25.5669L20.1483 27.9237" stroke="#007BFF"/>
<path d="M10.4268 23.5046V27.0398" stroke="#007BFF"/>
<path d="M21.9168 23.5046V27.0398" stroke="#007BFF"/>
<path d="M12.49 28.513L14.8468 25.8616" stroke="#007BFF"/>
<path d="M23.9786 28.513L26.3354 25.8616" stroke="#007BFF"/>
<path d="M11.4898 29.3967H9.65997C9.10769 29.3967 8.65997 29.8444 8.65997 30.3967V34.9941C8.65991 44.7159 22.5061 45.8943 23.3899 34.9941V30.3967C23.3899 29.8444 22.9422 29.3967 22.3899 29.3967H20.5601C20.0078 29.3967 19.5601 29.8444 19.5601 30.3967V34.1103C18.971 39.1185 13.079 39.1185 12.4898 34.1103V30.3967C12.4898 29.8444 12.042 29.3967 11.4898 29.3967Z" stroke="#007BFF"/>
<path d="M8.65997 32.0481H12.1952" stroke="#007BFF"/>
<path d="M19.8537 32.3428H23.0943" stroke="#007BFF"/>
<path d="M3.94656 4.06122C3.94656 2.4342 5.26553 1.11523 6.89255 1.11523C8.51958 1.11523 9.83854 2.4342 9.83854 4.06122C9.83854 5.68825 8.51958 7.00721 6.89255 7.00721C5.26553 7.00721 3.94656 5.68825 3.94656 4.06122Z" stroke="#007BFF"/>
<path d="M22.8002 4.06122C22.8002 2.4342 24.1192 1.11523 25.7462 1.11523C27.3732 1.11523 28.6922 2.4342 28.6922 4.06122C28.6922 5.68825 27.3732 7.00721 25.7462 7.00721C24.1192 7.00721 22.8002 5.68825 22.8002 4.06122Z" stroke="#007BFF"/>
<path d="M12.7835 6.41791C12.7835 4.79089 14.1025 3.47192 15.7295 3.47192C17.3566 3.47192 18.6755 4.79089 18.6755 6.41791C18.6755 8.04494 17.3566 9.3639 15.7295 9.3639C14.1025 9.3639 12.7835 8.04494 12.7835 6.41791Z" stroke="#007BFF"/>
<path d="M11.784 18.7912H2C1.44772 18.7912 1 18.3435 1 17.7912V13.5017C1 13.3567 1.03165 13.2109 1.09616 13.0811C3.69546 7.85101 10.7239 8.39859 12.7132 13.107C12.7613 13.2209 12.784 13.3451 12.784 13.4687V17.7912C12.784 18.3435 12.3362 18.7912 11.784 18.7912Z" stroke="#007BFF"/>
<path d="M30.6376 18.7912H20.8537C20.3014 18.7912 19.8537 18.3435 19.8537 17.7912V13.5017C19.8537 13.3567 19.8853 13.2109 19.9498 13.0811C22.5491 7.85101 29.5776 8.39859 31.5669 13.107C31.615 13.2209 31.6376 13.3451 31.6376 13.4687V17.7912C31.6376 18.3435 31.1899 18.7912 30.6376 18.7912Z" stroke="#007BFF"/>
<path d="M20.6223 21.1479H10.8383C10.286 21.1479 9.83832 20.7002 9.83832 20.1479V15.8584C9.83832 15.7134 9.86997 15.5676 9.93448 15.4378C12.5338 10.2077 19.5623 10.7553 21.5515 15.4637C21.5997 15.5776 21.6223 15.7018 21.6223 15.8254V20.1479C21.6223 20.7002 21.1746 21.1479 20.6223 21.1479Z" fill="#F6F9FF" stroke="#007BFF"/>
</svg>
