<svg width="32" height="34" viewBox="0 0 32 34" fill="none" xmlns="http://www.w3.org/2000/svg">
<path d="M1 31.5538V25.3933C1 24.841 1.44772 24.3933 2 24.3933H5.16831C5.72059 24.3933 6.16831 24.841 6.16831 25.3933V31.5538C6.16831 32.1061 5.72059 32.5538 5.16831 32.5538H2C1.44772 32.5538 1 32.1061 1 31.5538Z" stroke="#007BFF"/>
<path d="M13.1761 29.5618V30.3778" stroke="#007BFF"/>
<path d="M6.16797 25.2095C8.12649 23.251 12.0841 23.0335 12.6964 23.5774C15.1445 25.7534 17.4113 25.2095 18.9527 25.2095C20.0408 25.2095 20.3128 26.8415 20.3128 27.6575" stroke="#007BFF"/>
<path d="M14.6005 29.2897C16.5076 28.4421 19.4293 28.2135 20.7534 28.2021C20.8226 28.2015 20.8914 28.1945 20.9591 28.18C24.942 27.3292 28.2195 25.9142 29.4667 25.2598C29.5304 25.2264 29.5971 25.1984 29.6671 25.1818C30.8723 24.8965 31.0628 25.9156 30.9843 26.7172C30.9591 26.9738 30.8017 27.1935 30.5871 27.3365L22.1968 32.9301C22.0326 33.0396 21.8396 33.0981 21.6421 33.0981H8.88813C7.14723 32.8804 6.34931 32.282 6.16797 32.01" stroke="#007BFF"/>
<path d="M16.2324 10.1606V11.2763C16.2324 11.4432 16.3677 11.5786 16.5347 11.5786H16.8127C17.1332 11.5786 17.393 11.8384 17.393 12.1589V14.3229C17.393 14.6434 17.1332 14.9032 16.8127 14.9032C16.4922 14.9032 16.2324 15.163 16.2324 15.4835V16.3211C16.2324 16.8734 16.6801 17.3211 17.2324 17.3211H19.5847C20.137 17.3211 20.5847 16.8734 20.5847 16.3211V15.3384C20.5847 15.0981 20.3898 14.9032 20.1495 14.9032C19.9091 14.9032 19.7142 14.7084 19.7142 14.468V10.1606C19.7142 9.60836 19.2665 9.16064 18.7142 9.16064H17.2324C16.6801 9.16064 16.2324 9.60836 16.2324 10.1606Z" stroke="#007BFF"/>
<path d="M18.1374 4.26416C18.8886 4.26416 19.4975 4.87309 19.4975 5.62424C19.4975 6.37539 18.8886 6.98432 18.1374 6.98432C17.3863 6.98432 16.7773 6.37539 16.7773 5.62424C16.7773 4.87309 17.3863 4.26416 18.1374 4.26416Z" stroke="#007BFF"/>
<path d="M18.1369 1C23.6954 1 28.2015 5.50608 28.2015 11.0646C28.2015 16.6231 23.6954 21.1292 18.1369 21.1292C12.5783 21.1292 8.07227 16.6231 8.07227 11.0646C8.07227 5.50608 12.5783 1 18.1369 1Z" stroke="#007BFF"/>
</svg>
