<svg width="33" height="33" viewBox="0 0 33 33" fill="none" xmlns="http://www.w3.org/2000/svg">
<path d="M1 30.8581V22.0725C1 21.5202 1.44772 21.0725 2 21.0725H4.87921C5.4315 21.0725 5.87921 21.5202 5.87921 22.0725V30.8581C5.87921 31.4104 5.4315 31.8581 4.87921 31.8581H2C1.44772 31.8581 1 31.4104 1 30.8581Z" stroke="#007BFF"/>
<path d="M6.13599 22.0998C9.07492 20.7434 9.42659 16.4017 9.81909 13.9804C9.90001 13.4812 10.3753 13.1418 10.856 13.299C13.4011 14.1315 12.5739 16.9566 12.3461 19.0839C12.2888 19.6188 12.725 20.0454 13.2629 20.0454H18.976M16.408 29.2903C20.9851 29.6291 18.5121 33.1575 14.9726 32.2293C14.9032 32.2111 14.8311 32.1982 14.7595 32.1936L9.59227 31.8657C9.51396 31.8608 9.43651 31.8466 9.36151 31.8235L6.13599 30.8311" stroke="#007BFF"/>
<path d="M18.976 20.0454C21.544 20.559 20.26 23.127 18.7192 23.127" stroke="#007BFF"/>
<path d="M16.1512 23.1267C23.3417 22.3564 19.2328 27.2356 15.6376 25.9515" stroke="#007BFF"/>
<path d="M16.4081 26.2086C22.8281 25.9518 18.7193 30.5743 15.3809 29.0334" stroke="#007BFF"/>
<path d="M7.93359 6.43481V9.25962" stroke="#007BFF"/>
<path d="M26.1664 24.6677V27.4925" stroke="#007BFF"/>
<path d="M6.39282 7.97559H9.47443" stroke="#007BFF"/>
<path d="M24.6257 26.2085H27.7073" stroke="#007BFF"/>
<path d="M20.9665 3.35327H21.0661C21.5926 3.35327 22 3.81477 21.9345 4.33719C21.8655 4.88885 22.3237 5.35654 22.8791 5.38142C24.8992 5.4719 25.3914 6.4274 24.3558 7.2818C24.2036 7.40745 24.0066 7.46208 23.8091 7.46208H20.7735C19.7974 7.46208 18.3582 8.93043 19.7593 10.105C19.9107 10.2319 20.1087 10.2869 20.3062 10.2869H21.8955C22.0029 10.2869 22.113 10.3047 22.2141 10.341C26.2726 11.7995 25.3204 15.7199 22.7902 16.9532C22.3778 17.1542 22.0577 17.5498 22.0577 18.0087C22.0577 18.5609 21.61 19.0181 21.0577 19.0181H20.9021C20.4057 19.0181 20.0033 18.6157 20.0033 18.1193C20.0033 17.6229 19.6009 17.2205 19.1045 17.2205H18.4627C16.6647 17.2205 16.6649 15.1661 18.4627 15.1661H21.7922C21.9662 15.1661 22.141 15.1255 22.2761 15.0158C22.7601 14.6228 23.209 13.8251 22.4294 12.7688C22.2208 12.4862 21.8476 12.3992 21.4965 12.405C20.7678 12.417 19.7698 12.2245 18.976 11.8277C17.9963 11.3379 15.1493 7.57894 19.3403 5.67232C19.7271 5.49636 20.0033 5.12315 20.0033 4.69822V4.31642C20.0033 3.78449 20.4345 3.35327 20.9665 3.35327Z" stroke="#007BFF"/>
<path d="M10.7584 12.0846C11.272 2.32609 19.7464 0.785355 23.0849 1.55576C30.7889 3.33361 31.5593 9.51651 31.5593 12.0846C30.5321 19.5317 25.3961 21.3293 22.5713 22.0998" stroke="#007BFF"/>
</svg>
