<svg width="32" height="35" viewBox="0 0 32 35" fill="none" xmlns="http://www.w3.org/2000/svg">
<path d="M9.94316 15.8879H7.48162C6.92934 15.8879 6.48162 15.4402 6.48162 14.8879V10.9841C5.90506 0.907637 22.8568 -3.99678 25.5047 10.8966C25.5147 10.9529 25.5201 11.0128 25.5201 11.07V14.8879C25.5201 15.4402 25.0724 15.8879 24.5201 15.8879H22.347" stroke="#007BFF"/>
<path d="M6.19232 10.4072H9.07694" stroke="#007BFF"/>
<path d="M22.6346 10.4072H25.2308" stroke="#007BFF"/>
<path d="M7.92307 15.8879V17.7726C7.92307 18.3248 8.37078 18.7726 8.92307 18.7726H13.1154" stroke="#007BFF"/>
<path d="M16 19.9263H14.2692C13.632 19.9263 13.1154 19.4098 13.1154 18.7725C13.1154 18.1352 13.632 17.6187 14.2692 17.6187H16C16.6373 17.6187 17.1538 18.1352 17.1538 18.7725C17.1538 19.4098 16.6373 19.9263 16 19.9263Z" stroke="#007BFF"/>
<path d="M9.07693 11.5809C9.88456 10.4144 10.7765 9.54137 11.6103 8.91004C13.2049 7.70264 15.3333 8.6244 17.1437 9.47462C18.8626 10.2818 21.0163 10.94 22.3462 11.2725" stroke="#007BFF"/>
<path d="M9.15116 11.0752L9.85778 17.4348C9.91381 17.9391 10.0381 18.4378 10.2767 18.8856C13.6476 25.2118 21.2213 22.349 22.0577 17.3303L22.6346 10.4072C23.4818 4.47654 11.3346 -0.348069 9.2002 9.73767C9.10784 10.1741 9.1019 10.6319 9.15116 11.0752Z" stroke="#007BFF"/>
<path d="M12.25 21.3687L10.8077 24.5417" stroke="#007BFF"/>
<path d="M19.4615 21.0803L21.4808 25.1188" stroke="#007BFF"/>
<path d="M12.5385 22.2341L19.1731 29.1572" stroke="#007BFF"/>
<path d="M13.1154 28.5803L19.4615 21.6572" stroke="#007BFF"/>
<path d="M10.5192 24.5417L16 34.061" stroke="#007BFF"/>
<path d="M21.7692 24.2534L16.2885 34.0611" stroke="#007BFF"/>
<path d="M11.0962 24.2534C4.89663 25.6011 1.46765 28.7119 1.04458 33.3505C0.994413 33.9005 1.44772 34.3496 2 34.3496H29.9232C30.5046 34.3496 30.9673 33.8504 30.8791 33.2757C29.8321 26.4506 24.0304 25.352 21.1923 24.2534" stroke="#007BFF"/>
<path d="M22.9231 27.4265L24.0769 28.0034" stroke="#007BFF"/>
<path d="M25.2308 28.5803C27.0769 29.9649 27.7308 31.2726 27.8269 31.7534" stroke="#007BFF"/>
</svg>
