<svg width="31" height="42" viewBox="0 0 31 42" fill="none" xmlns="http://www.w3.org/2000/svg">
<path d="M5.38202 28.0641C6.05618 12.8954 25.6067 13.9067 26.2809 28.0641M1 21.3223H4.70787M27.2921 21.3223H31" stroke="#F6F9FF"/>
<path d="M5.38202 10.873L7.74157 13.2326" stroke="#F6F9FF"/>
<path d="M23.9213 13.5696L26.2809 11.21" stroke="#F6F9FF"/>
<path d="M15.8315 6.49097V9.86175" stroke="#F6F9FF"/>
<path d="M12.7978 13.2327H18.8652" stroke="#F6F9FF"/>
<path d="M15.8315 13.2327V16.9405" stroke="#F6F9FF"/>
<path d="M4.03371 28.4011H27.6292" stroke="#F6F9FF"/>
<path d="M8.41573 28.7383V31.4349" stroke="#F6F9FF"/>
<path d="M23.2472 28.4011V31.4348" stroke="#F6F9FF"/>
<path d="M3.02247 35.4798L4.04719 31.4348H27.2742L28.6404 35.4798" stroke="#F6F9FF"/>
<path d="M1 35.4797H30.3258" stroke="#F6F9FF"/>
<path d="M19.2031 38.5134H4.33789C2.68104 38.5134 1.33789 37.1703 1.33789 35.5134V11.5471" stroke="#007BFF"/>
<path d="M1.33789 10.1988V4.09766C1.33789 2.4408 2.68104 1.09766 4.33789 1.09766H27.3267C28.9835 1.09766 30.3267 2.4408 30.3267 4.09766V36.828C30.3267 38.5134 28.9783 38.5134 28.9783 38.5134" stroke="#007BFF"/>
<path d="M21.2246 38.5806V33.187C21.2246 32.4127 22.0667 31.9322 22.7333 32.3261L27.3176 35.035C27.9401 35.4028 27.9785 36.2894 27.3901 36.7096L27.0458 36.9555C26.6159 37.2626 26.4991 37.8512 26.7791 38.2993L27.4679 39.4013C27.7479 39.8494 27.6311 40.438 27.2011 40.7451L26.5181 41.233C26.0323 41.58 25.3526 41.4268 25.0627 40.9049L24.3862 39.6873C24.1262 39.2193 23.5437 39.0391 23.0649 39.2785L22.6718 39.475C22.0069 39.8075 21.2246 39.324 21.2246 38.5806Z" stroke="#007BFF"/>
<path d="M9.42773 10.873H22.2367" stroke="#007BFF"/>
<path d="M1.33789 7.16504H30.3267" stroke="#007BFF"/>
<path d="M9.34831 2.44604C10.093 2.44604 10.6966 3.04971 10.6966 3.79436C10.6966 4.53901 10.093 5.14267 9.34831 5.14267C8.60366 5.14267 8 4.53901 8 3.79436C8 3.04971 8.60366 2.44604 9.34831 2.44604Z" stroke="#007BFF"/>
<path d="M14.3483 2.44604C15.093 2.44604 15.6966 3.04971 15.6966 3.79436C15.6966 4.53901 15.093 5.14267 14.3483 5.14267C13.6037 5.14267 13 4.53901 13 3.79436C13 3.04971 13.6037 2.44604 14.3483 2.44604Z" stroke="#007BFF"/>
<path d="M4.76433 2.4458C5.50898 2.4458 6.11264 3.04946 6.11264 3.79412C6.11264 4.53877 5.50898 5.14243 4.76433 5.14243C4.01968 5.14243 3.41602 4.53877 3.41602 3.79412C3.41602 3.04946 4.01968 2.4458 4.76433 2.4458Z" stroke="#007BFF"/>
<path d="M23.5836 19.3H8.07797C7.14715 19.3 6.39258 18.5454 6.39258 17.6146C6.39258 16.6838 7.14716 15.9292 8.07797 15.9292H23.5836C24.5144 15.9292 25.269 16.6838 25.269 17.6146C25.269 18.5454 24.5144 19.3 23.5836 19.3Z" stroke="#007BFF"/>
<path d="M23.5836 26.0414H8.07797C7.14715 26.0414 6.39258 25.2869 6.39258 24.356C6.39258 23.4252 7.14716 22.6707 8.07797 22.6707H23.5836C24.5144 22.6707 25.269 23.4252 25.269 24.356C25.269 25.2869 24.5144 26.0414 23.5836 26.0414Z" stroke="#007BFF"/>
<path d="M16.8426 33.4572H14.8202C13.8893 33.4572 13.1348 32.7026 13.1348 31.7718C13.1348 30.841 13.8893 30.0864 14.8202 30.0864H16.8426C17.7734 30.0864 18.528 30.841 18.528 31.7718C18.528 32.7026 17.7734 33.4572 16.8426 33.4572Z" stroke="#007BFF"/>
</svg>
