<svg width="32" height="31" viewBox="0 0 32 31" fill="none" xmlns="http://www.w3.org/2000/svg">
<path d="M14.9163 14.4456C15.4857 14.4456 15.9472 14.9071 15.9472 15.4764C15.9472 16.0457 15.4857 16.5072 14.9163 16.5072C14.347 16.5072 13.8855 16.0457 13.8855 15.4764C13.8855 14.9071 14.347 14.4456 14.9163 14.4456Z" stroke="#007BFF"/>
<path d="M10.793 14.4456C11.3623 14.4456 11.8238 14.9071 11.8238 15.4764C11.8238 16.0457 11.3623 16.5072 10.793 16.5072C10.2237 16.5072 9.76215 16.0457 9.76215 15.4764C9.76215 14.9071 10.2237 14.4456 10.793 14.4456Z" stroke="#007BFF"/>
<path d="M6.66963 14.4456C7.23895 14.4456 7.70047 14.9071 7.70047 15.4764C7.70047 16.0457 7.23895 16.5072 6.66963 16.5072C6.10032 16.5072 5.63879 16.0457 5.63879 15.4764C5.63879 14.9071 6.10032 14.4456 6.66963 14.4456Z" stroke="#007BFF"/>
<path d="M7.185 26.3002L8.6403 23.5715C9.01353 22.8717 9.74209 22.4346 10.5352 22.4346V22.4346" stroke="#007BFF"/>
<path d="M7.18503 26.3002L5.87459 24.007C5.41004 23.194 4.54551 22.6923 3.60918 22.6923V22.6923C2.16817 22.6923 1 21.5241 1 20.0831V12.0337C1 10.3768 2.34315 9.03369 4 9.03369H17.6704C19.2939 9.03369 20.6228 10.3252 20.6692 11.948L20.8436 18.0535" stroke="#007BFF"/>
<path d="M29.3481 23.2078V23.2078C30.8216 24.313 28.6999 25.7849 26.858 25.7849H24.7093" stroke="#007BFF"/>
<path d="M25.2247 30.4237H27.4465C27.6831 30.4237 27.923 30.416 28.1503 30.3505C29.5316 29.9525 29.0357 28.5833 28.3172 28.1043M28.3172 28.1043H24.7093M28.3172 28.1043C30.1212 27.8466 29.6058 26.0426 28.8326 25.7849" stroke="#007BFF"/>
<path d="M16.4626 28.8775C19.2974 28.1044 19.4631 30.4236 20.0705 30.4236C21.8745 30.4238 22.6476 30.4236 23.6784 30.4236" stroke="#007BFF"/>
<path d="M14.7203 19.5999H12.793C11.6884 19.5999 10.793 20.4953 10.793 21.5999V27.9082C10.793 29.0128 11.6884 29.9082 12.793 29.9082H14.7203C15.8249 29.9082 16.7203 29.0128 16.7203 27.9082V21.5999C16.7203 20.4953 15.8249 19.5999 14.7203 19.5999Z" stroke="#007BFF"/>
<path d="M13.8855 19.8577V30.166" stroke="#007BFF"/>
<path d="M30.8943 7.22974C30.3789 12.3839 26.5991 15.0469 25.2247 16.2496" stroke="#007BFF"/>
<path d="M16.7203 20.8883C19.6274 21.6151 21.244 17.4836 22.4264 15.3443C22.5676 15.0889 22.7673 14.8602 23.0395 14.7548C23.6599 14.5145 24.2015 14.7112 24.6045 15.0232C25.0795 15.3909 25.0996 16.0595 24.8839 16.6202L23.9361 19.0844C23.6197 19.8754 23.9913 20.4136 24.3754 20.6987C24.5797 20.8504 24.84 20.8883 25.0944 20.8883H29.8635C30.8782 20.8883 31.079 21.6652 30.9758 22.345C30.8867 22.9319 30.2934 23.2077 29.6998 23.2077H24.7093" stroke="#007BFF"/>
<path d="M19.4262 3.36426C20.1993 4.91051 21.359 4.6528 21.8744 3.36426" stroke="#007BFF"/>
<path d="M19.5561 3.62175C17.4948 -0.759383 9.24743 1.56027 11.0509 8.77606" stroke="#007BFF"/>
<path d="M21.6168 3.87958C24.4516 -0.75918 30.3789 1.81801 30.6366 5.68355" stroke="#007BFF"/>
</svg>
