<svg width="30" height="31" viewBox="0 0 30 31" fill="none" xmlns="http://www.w3.org/2000/svg">
<path d="M0 4.84766H0.75" stroke="#F6F9FF"/>
<path d="M2 4.84766H9" stroke="#F6F9FF"/>
<path d="M4 23.5977H1.5C0.947715 23.5977 0.5 23.1499 0.5 22.5977V7.84766C0.5 7.29537 0.947715 6.84766 1.5 6.84766H3.5" stroke="#F6F9FF"/>
<path d="M0.5 21.3477H3.25" stroke="#F6F9FF"/>
<path d="M10.75 21.0977H19.75" stroke="#F6F9FF"/>
<path d="M7.25 22.8477V23.5977" stroke="#F6F9FF"/>
<path d="M24.5 22.8477V23.5977" stroke="#F6F9FF"/>
<path d="M28 21.0977H30" stroke="#F6F9FF"/>
<path d="M18.75 23.3477H21.5" stroke="#F6F9FF"/>
<path d="M24.25 26.0977C25.7688 26.0977 27 24.8664 27 23.3477C27 21.8289 25.7688 20.5977 24.25 20.5977C22.7312 20.5977 21.5 21.8289 21.5 23.3477C21.5 24.8664 22.7312 26.0977 24.25 26.0977Z" stroke="#F6F9FF"/>
<path d="M2 6.34766H2.75" stroke="#007BFF"/>
<path d="M2 8.09766H2.75" stroke="#007BFF"/>
<path d="M2 10.0977H2.75" stroke="#007BFF"/>
<path d="M2 12.0977H2.75" stroke="#007BFF"/>
<path d="M12 11.5977C12 12.1499 12.4477 12.5977 13 12.5977C13.5523 12.5977 14 12.1499 14 11.5977C14 11.0454 13.5523 10.5977 13 10.5977C12.4477 10.5977 12 11.0454 12 11.5977Z" stroke="#007BFF"/>
<path d="M19.5 10.0977C19.5 10.6499 19.9477 11.0977 20.5 11.0977C21.0523 11.0977 21.5 10.6499 21.5 10.0977C21.5 9.54537 21.0523 9.09766 20.5 9.09766C19.9477 9.09766 19.5 9.54537 19.5 10.0977Z" stroke="#007BFF"/>
<path d="M16.5 7.09766C16.5 7.64994 16.9477 8.09766 17.5 8.09766C18.0523 8.09766 18.5 7.64994 18.5 7.09766C18.5 6.54537 18.0523 6.09766 17.5 6.09766C16.9477 6.09766 16.5 6.54537 16.5 7.09766Z" stroke="#007BFF"/>
<path d="M18 7.84766L19.5 9.34766" stroke="#007BFF"/>
<path d="M21.25 9.34766L24.75 5.84766" stroke="#007BFF"/>
<path d="M13.5 10.8477L16.75 7.59766" stroke="#007BFF"/>
<path d="M3.75 6.34766H10.5" stroke="#007BFF"/>
<path d="M3.75 8.09766H10.5" stroke="#007BFF"/>
<path d="M3.75 10.0977H10.5" stroke="#007BFF"/>
<path d="M3.75 12.0977H10.5" stroke="#007BFF"/>
<path d="M3.75 10.0977H10.5" stroke="#007BFF"/>
<path d="M26.5 4.09766L0.5 4.34766V23.0977H26.5V4.09766Z" stroke="#007BFF"/>
<path d="M4.5 17.0977H2.25V21.0977H4.5V17.0977Z" stroke="#007BFF"/>
<path d="M8 18.0977H5.5V21.0977H8V18.0977Z" stroke="#007BFF"/>
<path d="M11.5 14.0977H9V21.0977H11.5V14.0977Z" stroke="#007BFF"/>
<path d="M15 16.0977H12.5V21.0977H15V16.0977Z" stroke="#007BFF"/>
<path d="M24 3.84766C24 5.36644 25.2312 6.59766 26.75 6.59766C28.2688 6.59766 29.5 5.36644 29.5 3.84766C29.5 2.32887 28.2688 1.09766 26.75 1.09766C25.2312 1.09766 24 2.32887 24 3.84766Z" fill="#F6F9FF" stroke="#007BFF"/>
<path d="M15 22.8477C15 26.8517 18.2459 30.0977 22.25 30.0977C26.2541 30.0977 29.5 26.8517 29.5 22.8477C29.5 18.8436 26.2541 15.5977 22.25 15.5977C18.2459 15.5977 15 18.8436 15 22.8477Z" fill="#F6F9FF"/>
<path d="M22.25 15.5977V15.5977C18.2459 15.5977 15 18.8436 15 22.8477V22.8477C15 26.8517 18.2459 30.0977 22.25 30.0977V30.0977C26.2541 30.0977 29.5 26.8517 29.5 22.8477V22.8477C29.5 18.8436 26.2541 15.5977 22.25 15.5977V15.5977ZM22.25 15.5977V19.0977" stroke="#007BFF"/>
<path d="M15.5 26.3477L18.75 24.3477" stroke="#007BFF"/>
<path d="M18.5 22.8477C18.5 24.9187 20.1789 26.5977 22.25 26.5977C24.3211 26.5977 26 24.9187 26 22.8477C26 20.7766 24.3211 19.0977 22.25 19.0977C20.1789 19.0977 18.5 20.7766 18.5 22.8477Z" stroke="#007BFF"/>
<path d="M20 22.8477C20 24.0903 21.0074 25.0977 22.25 25.0977C23.4926 25.0977 24.5 24.0903 24.5 22.8477C24.5 21.605 23.4926 20.5977 22.25 20.5977C21.0074 20.5977 20 21.605 20 22.8477Z" stroke="#007BFF"/>
<path d="M25.75 24.3477L28.5 26.0977" stroke="#007BFF"/>
</svg>
