<svg width="32" height="29" viewBox="0 0 32 29" fill="none" xmlns="http://www.w3.org/2000/svg">
<path d="M9.39627 3.43164C11.635 4.42663 13.4384 7.37014 14.0603 8.71753" stroke="#007BFF"/>
<path d="M24.941 18.9783C28.1747 21.7145 29.1904 23.435 29.2941 23.9532" stroke="#007BFF"/>
<path d="M1 24.8859C3.60868 28.4264 5.65903 27.9468 7.21798 26.6594C8.86821 25.2965 8.27763 21.3981 6.37217 22.3727V22.3727C5.34145 22.8999 5.41408 23.998 5.89233 25.0524C7.80137 29.261 12.691 28.0631 13.7483 27.3736V27.3736C16.3856 25.6536 13.9583 23.4192 11.6727 21.2536C8.47209 18.221 6.88936 15.2103 6.59682 14.6252C3.91568 7.69898 5.78342 3.87665 7.70079 1.88924C8.81409 0.735282 10.6106 0.653363 11.9503 1.53443C13.8139 2.76003 14.9559 4.14263 15.5383 5.12884C15.8346 5.63064 15.9502 6.23107 15.7456 6.77675C15.4477 7.57139 14.8304 8.42589 14.2965 9.05262C13.948 9.4617 13.6011 9.89156 13.4464 10.4062C12.0578 15.0267 19.0989 18.996 21.6678 18.3163C22.3121 18.1458 22.7094 17.5024 23.2366 17.0948C23.8659 16.6084 24.3466 16.3149 24.7427 16.138C25.6259 15.7433 26.6315 16.1368 27.4024 16.7212C29.6967 18.4606 30.644 20.0399 30.9134 21.2183C31.2595 22.7316 29.7339 24.1501 28.4453 25.0158C25.4365 27.0369 21.6779 26.3009 19.967 26.1298" stroke="#007BFF"/>
</svg>
