<svg width="66" height="68" viewBox="0 0 66 68" fill="none" xmlns="http://www.w3.org/2000/svg">
<path d="M26.3276 59.3358L22.2476 62.0798C22.1356 62.1518 22.0396 62.2238 21.9196 62.2878C21.7175 62.4193 21.4724 62.4678 21.2354 62.4231C20.9984 62.3784 20.7879 62.2439 20.6476 62.0478C20.3756 61.7358 20.1196 61.4158 19.8476 61.1038C19.7196 60.9678 19.5836 60.8398 19.4156 60.6798L18.4316 61.0398C18.4316 61.4078 18.3596 61.7198 18.3116 62.0318C18.3121 62.1922 18.2763 62.3507 18.207 62.4953C18.1376 62.6399 18.0364 62.767 17.911 62.867C17.7856 62.9671 17.6392 63.0374 17.4828 63.0729C17.3263 63.1083 17.1639 63.108 17.0076 63.0718C16.6556 63.0718 16.3116 63.0078 15.9676 62.9598L10.8556 62.3598H10.7596C9.68759 62.1918 9.49558 61.9598 9.56758 60.8398C9.56758 60.4638 9.61559 60.0398 9.64759 59.6718L9.06359 59.4318C8.90359 59.5598 8.72758 59.6878 8.56758 59.8238C8.40758 59.9598 8.20758 60.1918 8.00758 60.3438C7.89658 60.4711 7.75746 60.5708 7.60125 60.635C7.44504 60.6992 7.27602 60.7262 7.10759 60.7137C6.93915 60.7013 6.77592 60.6499 6.63081 60.5634C6.48571 60.477 6.36272 60.358 6.27158 60.2158C4.97558 58.6878 3.66359 57.1758 2.35959 55.6638C2.25529 55.542 2.16661 55.4076 2.09559 55.2638C1.98441 55.086 1.94101 54.8741 1.97333 54.667C2.00565 54.4598 2.11154 54.2712 2.27159 54.1358C2.47159 53.9358 2.70358 53.7678 2.92758 53.5838L3.83159 52.8238L3.49558 51.7998L1.79958 51.5518C1.07158 51.4558 0.775585 51.1118 0.879585 50.3998C1.15959 48.4478 1.45559 46.5038 1.75159 44.5598C1.79959 44.2478 1.90358 43.9438 1.98358 43.6158C2.92758 43.3518 3.83158 43.8718 4.73558 43.6958C4.82639 43.6299 4.88801 43.5313 4.90742 43.4208C4.92683 43.3104 4.9025 43.1967 4.83958 43.1038C4.59958 42.6878 4.35959 42.3038 4.10359 41.8718C4.00336 41.7563 3.93095 41.6194 3.8919 41.4716C3.85285 41.3238 3.84822 41.169 3.87835 41.0191C3.90848 40.8693 3.97258 40.7283 4.06571 40.607C4.15884 40.4858 4.27854 40.3875 4.41559 40.3198C4.77559 40.0558 5.15159 39.8158 5.51959 39.5678C6.86359 38.6665 8.19692 37.7598 9.51959 36.8478C9.6155 36.7636 9.72748 36.6998 9.84877 36.6601C9.97005 36.6204 10.0981 36.6057 10.2252 36.6169C10.3524 36.6282 10.4759 36.665 10.5884 36.7253C10.7008 36.7856 10.7999 36.8681 10.8796 36.9678C11.1996 37.3198 11.4876 37.7038 11.8076 38.0558C11.9324 38.1831 12.069 38.2983 12.2156 38.3998C12.5356 38.2318 12.5356 37.9598 12.5676 37.7198C12.7196 36.7198 12.8556 35.7118 12.9996 34.7038C13.4156 31.7198 13.8476 28.7358 14.2636 25.7518C14.6796 22.7678 15.0636 19.9038 15.5036 16.9518C15.8636 14.4718 16.2476 11.9998 16.6396 9.51979C16.7817 8.70133 17.0516 7.91033 17.4396 7.17579C17.764 6.50093 18.2471 5.91477 18.8476 5.46752C19.4481 5.02027 20.1481 4.72527 20.8876 4.60778C22.2117 4.38595 23.5635 4.38595 24.8876 4.60778C26.3356 4.80778 27.7836 4.98378 29.2316 5.16778L36.1356 6.03979L42.8476 6.87978L49.6476 7.73578L56.4556 8.59179C57.6264 8.69072 58.7875 8.88334 59.9276 9.16778C60.5682 9.35373 61.1962 9.58087 61.8076 9.84779C62.7358 10.2387 63.5375 10.8793 64.1236 11.6984C64.7096 12.5175 65.0572 13.4831 65.1276 14.4878C65.2716 15.5924 65.2716 16.7111 65.1276 17.8158C64.6556 21.3358 64.1596 24.8558 63.6876 28.3838C63.2156 31.9118 62.7436 35.4958 62.2716 39.0478C61.7383 43.0744 61.1889 47.1011 60.6236 51.1278C60.3569 53.1011 60.0903 55.0824 59.8236 57.0718C59.6933 58.0809 59.3845 59.0588 58.9116 59.9598C58.6309 60.5352 58.2334 61.0457 57.7444 61.459C57.2554 61.8722 56.6857 62.179 56.0716 62.3598C55.4343 62.5501 54.7809 62.6814 54.1196 62.7518C52.5311 62.8629 50.935 62.7769 49.3676 62.4958L41.6316 61.4078L34.0956 60.3998L27.0156 59.4078C26.7879 59.37 26.5582 59.3459 26.3276 59.3358ZM21.6156 30.1598C22.0076 30.2798 22.2716 30.0478 22.5516 29.9358C25.3996 28.7678 28.2423 27.5891 31.0796 26.3998C31.4289 26.2362 31.8158 26.1699 32.1996 26.2078C32.9276 26.2798 33.6556 26.3278 34.3756 26.4318C37.2076 26.8238 40.0396 27.2318 42.8716 27.6318C43.5317 27.7195 44.1988 27.7436 44.8636 27.7038C45.6294 27.6482 46.3527 27.3309 46.9121 26.805C47.4715 26.2791 47.8329 25.5767 47.9356 24.8158C48.3116 22.2718 48.7356 19.7358 49.1356 17.1918C49.2323 16.5967 49.216 15.9888 49.0876 15.3998C49.0128 15.0076 48.8483 14.6382 48.6067 14.3203C48.3652 14.0025 48.0534 13.7449 47.6956 13.5678C47.1952 13.3091 46.6539 13.1386 46.0956 13.0638C44.6236 12.8558 43.1356 12.6798 41.6636 12.4718C39.2049 12.1358 36.7516 11.7918 34.3036 11.4398C31.5036 11.0318 28.7036 10.6398 25.9116 10.2078C25.0556 10.0878 24.1996 9.99979 23.3996 9.99979C22.9074 9.97255 22.418 10.0898 21.9916 10.3371C21.5651 10.5844 21.2203 10.951 20.9996 11.3918C20.6422 11.9936 20.4058 12.6594 20.3036 13.3518C19.9356 15.8958 19.5756 18.4478 19.2236 20.9918C19.1927 21.2748 19.2062 21.5609 19.2636 21.8398C19.3726 22.3547 19.5969 22.8383 19.9198 23.254C20.2426 23.6697 20.6556 24.0068 21.1276 24.2398C21.7279 24.5306 22.3661 24.7352 23.0236 24.8478C23.1996 24.8478 23.4076 24.8478 23.4876 25.1438C23.1836 25.9438 22.8636 26.7438 22.5596 27.6078C22.2556 28.4718 21.8476 29.2638 21.6156 30.1598ZM52.0156 51.9758C52.2341 51.963 52.4531 51.963 52.6716 51.9758C53.2393 52.0465 53.8148 52.0249 54.3756 51.9118C55.0653 51.7823 55.6968 51.4391 56.1806 50.9309C56.6645 50.4226 56.9762 49.775 57.0716 49.0798C57.4316 46.5998 57.7996 44.1198 58.1276 41.6318C58.1915 41.0643 58.1753 40.4907 58.0796 39.9278C58.0487 39.2935 57.7881 38.6922 57.3465 38.2359C56.905 37.7796 56.3125 37.4995 55.6796 37.4478C54.8076 37.2718 53.9196 37.1678 53.0396 37.0478L46.6396 36.1678C44.5996 35.8878 42.5516 35.6158 40.5116 35.3678C38.4716 35.1198 36.6156 34.7918 34.6636 34.5198C34.2275 34.448 33.7849 34.4239 33.3436 34.4478C32.8464 34.4686 32.3653 34.63 31.956 34.9132C31.5468 35.1964 31.2263 35.5898 31.0316 36.0478C30.7828 36.6121 30.6365 37.2162 30.5996 37.8318C30.5996 38.1838 30.5516 38.5278 30.5036 38.8798C30.2156 41.0478 29.9196 43.2158 29.6396 45.3918C29.5494 46.1062 29.6962 46.8305 30.0575 47.4534C30.4188 48.0763 30.9746 48.5634 31.6396 48.8398C32.1109 49.0263 32.6021 49.1578 33.1036 49.2318C34.8956 49.5118 36.6876 49.7518 38.4796 50.0318C40.1436 50.2718 41.7996 50.5358 43.4636 50.7838C43.9947 50.8759 44.4886 51.1173 44.8876 51.4798C47.2236 53.4478 49.5756 55.3838 51.9196 57.3278C52.0396 57.4238 52.1356 57.5678 52.3676 57.4638C52.3436 55.6718 52.1036 53.8798 52.0316 51.9758H52.0156ZM17.1356 59.7678L19.6236 59.2078C20.1996 59.6398 20.4636 60.3438 21.1356 60.7358C21.3756 60.5998 21.6316 60.4798 21.8636 60.3278C22.5036 59.9118 23.1436 59.5278 23.7676 59.0638C24.2156 58.7598 24.6476 58.4318 25.0636 58.0958C25.4796 57.7598 25.5116 57.5678 25.1996 57.1358C24.8876 56.7038 24.5996 56.3358 24.2956 55.9278L25.6156 53.6958C26.1196 53.7518 26.5836 53.8238 27.0556 53.8638C27.5276 53.9038 27.5916 53.7758 27.6476 53.3998C27.8663 51.9918 28.0716 50.5784 28.2636 49.1598C28.2715 48.9423 28.2527 48.7247 28.2076 48.5118L26.3356 48.1918C26.2156 47.7598 26.1116 47.3358 25.9756 46.9198C25.8396 46.5038 25.6956 46.1198 25.5356 45.6478C25.8396 45.4478 26.1036 45.2798 26.3356 45.0958C26.5676 44.9118 26.9196 44.8318 27.0316 44.4318C26.9432 44.2803 26.8471 44.1334 26.7436 43.9918L24.1836 40.7918C24.1083 40.6872 24.0195 40.5931 23.9196 40.5118C23.8471 40.4498 23.7549 40.4158 23.6596 40.4158C23.5642 40.4158 23.472 40.4498 23.3996 40.5118C23.2396 40.6158 23.0956 40.7358 22.9436 40.8558L21.9916 41.5598L19.5116 40.1598L19.7036 38.6718C19.7388 38.5652 19.7416 38.4505 19.7117 38.3423C19.6818 38.2341 19.6205 38.1372 19.5356 38.0638C17.7792 37.6375 15.9744 37.4438 14.1676 37.4878C13.8076 38.0398 14.1036 38.7358 13.8076 39.3438L11.4716 39.9198C11.1756 39.5998 10.8796 39.1838 10.5996 38.7998C10.3196 38.4158 10.1276 38.3758 9.71159 38.6478C8.42358 39.4478 7.15159 40.2958 5.87159 41.1278C5.76104 41.2295 5.66423 41.3451 5.58358 41.4718C5.88758 42.2158 6.52759 42.7038 6.79958 43.4478C6.32759 44.0558 6.03958 44.7678 5.55158 45.3598L3.82358 45.0878C3.31958 45.0158 3.18359 45.0878 3.10359 45.5838C2.89559 46.9678 2.70358 48.3518 2.51958 49.7358C2.51499 49.9078 2.5311 50.0797 2.56758 50.2478C3.28758 50.5838 4.05558 50.4238 4.69558 50.6958L5.34359 53.3838C4.88759 53.9198 4.18359 54.1038 3.79159 54.7038C3.82406 54.8282 3.87531 54.9469 3.94359 55.0558C4.89559 56.2398 5.86359 57.4558 6.83159 58.5918C6.94159 58.6814 7.06257 58.7567 7.19159 58.8158L8.75158 57.6478L11.2876 58.9598C11.2876 59.3998 11.1996 59.8318 11.1596 60.2718C11.1191 60.4121 11.1179 60.5609 11.1559 60.7019C11.194 60.843 11.27 60.9709 11.3756 61.0718C12.9756 61.3438 14.6956 61.5278 16.3916 61.7198C16.5143 61.7186 16.636 61.697 16.7516 61.6558C17.0476 61.0478 16.9036 60.3998 17.1516 59.7678H17.1356Z" fill="white"/>
<path d="M60.687 66.1602L61.079 62.5842C61.135 62.1122 61.183 61.6402 61.271 61.1682C61.3064 60.9641 61.4195 60.7817 61.5866 60.6594C61.7537 60.5371 61.9618 60.4843 62.167 60.5122C62.3693 60.5264 62.5587 60.6169 62.6968 60.7654C62.8349 60.9139 62.9115 61.1094 62.911 61.3122C62.911 61.9122 62.807 62.5122 62.743 63.1122L62.383 66.3122C62.3625 66.5651 62.3251 66.8163 62.271 67.0642C62.2449 67.2911 62.1339 67.4998 61.9602 67.6482C61.7866 67.7966 61.5632 67.8738 61.335 67.8642C61.146 67.8799 60.956 67.8799 60.767 67.8642L54.423 67.1682C54.233 67.1544 54.0452 67.1195 53.863 67.0642C53.6783 67.0103 53.5193 66.8917 53.415 66.7301C53.3106 66.5684 53.2681 66.3746 53.295 66.1842C53.3387 66.0149 53.4367 65.8645 53.5739 65.7561C53.7112 65.6478 53.8801 65.5874 54.055 65.5842C54.2759 65.564 54.4981 65.564 54.719 65.5842C56.319 65.7442 57.879 65.9122 59.463 66.0882C59.865 66.1737 60.2777 66.198 60.687 66.1602Z" fill="white"/>
<path d="M15.4952 1.67999C15.3592 2.83999 15.2312 3.90399 15.1032 4.96799C15.0392 5.47199 14.9752 5.97599 14.9032 6.47999C14.8849 6.62115 14.8293 6.75488 14.7421 6.86738C14.6549 6.97988 14.5393 7.06709 14.4072 7.12C14.2919 7.17584 14.1649 7.2032 14.0369 7.19977C13.9089 7.19635 13.7836 7.16224 13.6715 7.10031C13.5594 7.03838 13.4638 6.95044 13.3927 6.84389C13.3217 6.73734 13.2772 6.61529 13.2632 6.48799C13.2352 6.27022 13.2352 6.04977 13.2632 5.83199L13.7992 1.48799C13.8235 1.23508 13.8636 0.983925 13.9192 0.735992C13.9301 0.631439 13.9616 0.530076 14.0118 0.437695C14.062 0.345315 14.1299 0.263729 14.2116 0.197604C14.2933 0.131479 14.3873 0.0821116 14.4881 0.0523222C14.5889 0.0225329 14.6946 0.0129052 14.7992 0.0239928C15.2429 0.0267213 15.6863 0.0534287 16.1272 0.103995L21.1352 0.655994C21.3527 0.677045 21.5658 0.730993 21.7672 0.815994C21.9202 0.879315 22.0467 0.993457 22.1254 1.13918C22.2041 1.28491 22.2301 1.4533 22.1992 1.61599C22.183 1.77522 22.1119 1.92384 21.998 2.03628C21.8841 2.14871 21.7346 2.21792 21.5752 2.23199C21.3253 2.26 21.073 2.26 20.8232 2.23199L16.0952 1.74399L15.4952 1.67999Z" fill="white"/>
<path d="M21.6155 30.1599C21.8475 29.2639 22.2315 28.4319 22.5435 27.5759C22.8555 26.7199 23.1675 25.9199 23.4715 25.1119C23.3915 24.8559 23.1835 24.8559 23.0075 24.8159C22.3501 24.7034 21.7118 24.4987 21.1115 24.2079C20.6396 23.9749 20.2266 23.6378 19.9037 23.2221C19.5809 22.8064 19.3565 22.3229 19.2475 21.8079C19.1902 21.529 19.1767 21.2429 19.2075 20.9599C19.5595 18.4159 19.9195 15.8639 20.2875 13.3199C20.3947 12.6264 20.6366 11.9605 20.9995 11.3599C21.2249 10.9251 21.5716 10.5651 21.9977 10.3237C22.4237 10.0823 22.9108 9.96978 23.3995 9.99991C24.1995 9.99991 25.0475 10.1199 25.8635 10.2399C28.6635 10.6399 31.4635 11.0399 34.2555 11.4719C36.7035 11.8239 39.1569 12.1679 41.6155 12.5039C43.0875 12.7119 44.5755 12.8879 46.0475 13.0959C46.6059 13.1708 47.1471 13.3413 47.6475 13.5999C48.0053 13.777 48.3172 14.0346 48.5587 14.3524C48.8002 14.6703 48.9648 15.0398 49.0395 15.4319C49.1782 16.0107 49.2081 16.6102 49.1275 17.1999C48.7115 19.7439 48.3275 22.2799 47.9275 24.8239C47.8249 25.5848 47.4635 26.2872 46.9041 26.8131C46.3447 27.339 45.6213 27.6564 44.8555 27.7119C44.1895 27.7385 43.5224 27.701 42.8635 27.5999C40.0315 27.2159 37.1995 26.7999 34.3675 26.3999C33.6475 26.2959 32.9195 26.2479 32.1915 26.1759C31.8104 26.1395 31.4264 26.2058 31.0795 26.3679C28.2422 27.5572 25.3995 28.7359 22.5515 29.9039C22.2715 30.0479 22.0075 30.2799 21.6155 30.1599ZM43.3435 21.0879C43.5355 21.0879 43.6955 21.0879 43.8475 21.0879C44.007 21.0769 44.1584 21.0138 44.2784 20.9083C44.3984 20.8027 44.4803 20.6606 44.5115 20.5039C44.5423 20.3307 44.515 20.1521 44.434 19.9959C44.353 19.8398 44.2228 19.7146 44.0635 19.6399C43.8883 19.5714 43.7057 19.5231 43.5195 19.4959L41.7275 19.2239L34.7515 18.1919L28.7195 17.2959L25.0395 16.7679C24.8828 16.748 24.7242 16.748 24.5675 16.7679C24.4062 16.8002 24.2588 16.8813 24.1453 17.0004C24.0318 17.1195 23.9578 17.2706 23.9333 17.4333C23.9088 17.5959 23.9351 17.7622 24.0085 17.9094C24.0819 18.0566 24.1989 18.1776 24.3435 18.2559C24.521 18.3246 24.7065 18.3703 24.8955 18.3919L32.8155 19.5599L39.8795 20.6159C41.0475 20.7679 42.2075 20.9279 43.3435 21.0879ZM43.7995 17.3199C43.9061 17.3264 44.013 17.3264 44.1195 17.3199C44.2939 17.2968 44.4558 17.2169 44.5802 17.0925C44.7045 16.9682 44.7844 16.8063 44.8075 16.6319C44.8225 16.4669 44.786 16.3014 44.7029 16.1581C44.6197 16.0148 44.4942 15.9008 44.3435 15.8319C44.1711 15.7535 43.9876 15.7023 43.7995 15.6799L36.9115 14.7199L30.6795 13.8799L25.5835 13.1999C25.3631 13.172 25.14 13.172 24.9195 13.1999C24.7606 13.2209 24.6129 13.2932 24.4988 13.4058C24.3847 13.5185 24.3106 13.6653 24.2875 13.8239C24.2611 13.9662 24.2791 14.1133 24.3392 14.245C24.3994 14.3767 24.4986 14.4867 24.6235 14.5599C24.8452 14.6774 25.0865 14.7533 25.3355 14.7839L33.5515 15.9279L41.0955 16.9839L43.7995 17.3199ZM32.3275 23.4319H32.5755C32.7519 23.4234 32.9205 23.3569 33.0551 23.2425C33.1897 23.1282 33.2827 22.9726 33.3195 22.7999C33.3333 22.6331 33.2943 22.4662 33.2082 22.3227C33.1221 22.1792 32.9932 22.0663 32.8395 21.9999C32.6342 21.9186 32.419 21.8648 32.1995 21.8399L29.1035 21.3519C27.7195 21.1359 26.3435 20.9199 24.9675 20.7199C24.6554 20.6707 24.3395 20.6493 24.0235 20.6559C23.8535 20.6619 23.6907 20.7259 23.5621 20.8374C23.4336 20.9489 23.3472 21.101 23.3172 21.2685C23.2873 21.436 23.3156 21.6087 23.3976 21.7578C23.4795 21.9069 23.6101 22.0234 23.7675 22.0879C23.9726 22.1718 24.1877 22.2283 24.4075 22.2559C25.8742 22.4959 27.3435 22.7279 28.8155 22.9519L32.3275 23.4319Z" fill="#007BFF"/>
<path d="M52.0316 51.976C52.1036 53.88 52.3436 55.672 52.3516 57.456C52.1196 57.56 52.0236 57.456 51.9036 57.32C49.5596 55.376 47.2076 53.44 44.8716 51.472C44.4697 51.1182 43.9761 50.8853 43.4476 50.8C41.7836 50.552 40.1276 50.288 38.4636 50.048C36.6716 49.776 34.8796 49.536 33.0876 49.248C32.5861 49.174 32.0949 49.0425 31.6236 48.856C30.9586 48.5796 30.4028 48.0925 30.0415 47.4696C29.6802 46.8467 29.5334 46.1224 29.6236 45.408C29.9036 43.232 30.1996 41.064 30.4876 38.896C30.5356 38.544 30.5596 38.2 30.5836 37.848C30.6334 37.2153 30.7988 36.597 31.0716 36.024C31.2662 35.566 31.5868 35.1726 31.996 34.8894C32.4052 34.6062 32.8863 34.4448 33.3836 34.424C33.8249 34.4001 34.2675 34.4242 34.7036 34.496C36.6556 34.768 38.5996 35.064 40.5516 35.344C42.5036 35.624 44.6396 35.904 46.6796 36.144L53.0796 37.024C53.9596 37.144 54.8476 37.248 55.7196 37.424C56.3525 37.4757 56.9449 37.7558 57.3865 38.2121C57.8281 38.6684 58.0887 39.2697 58.1196 39.904C58.2153 40.4669 58.2314 41.0405 58.1676 41.608C57.8396 44.096 57.4716 46.576 57.1116 49.056C57.0162 49.7512 56.7045 50.3988 56.2206 50.9071C55.7368 51.4153 55.1053 51.7585 54.4156 51.888C53.8547 52.0011 53.2793 52.0227 52.7116 51.952C52.4846 51.9462 52.2575 51.9542 52.0316 51.976ZM33.7996 41.24H33.6316C33.4243 41.2242 33.2191 41.2897 33.0594 41.4226C32.8996 41.5555 32.7978 41.7454 32.7756 41.952C32.7714 42.138 32.8323 42.3197 32.9476 42.4657C33.063 42.6117 33.2256 42.7129 33.4076 42.752C33.6235 42.8077 33.8425 42.8504 34.0636 42.88L40.0956 43.68L46.1276 44.48L53.1996 45.456C53.356 45.4793 53.5151 45.4793 53.6716 45.456C53.8454 45.4289 54.0054 45.3452 54.1269 45.2179C54.2484 45.0907 54.3246 44.9269 54.3436 44.752C54.3586 44.587 54.322 44.4214 54.2389 44.2781C54.1558 44.1348 54.0302 44.0209 53.8796 43.952C53.7071 43.8736 53.5236 43.8223 53.3356 43.8L45.1676 42.8L35.7356 41.488L33.7996 41.24ZM34.3116 37.04H33.9996C33.83 37.073 33.6758 37.1601 33.5598 37.2881C33.4438 37.4161 33.3724 37.5782 33.3562 37.7501C33.34 37.9221 33.3799 38.0947 33.4699 38.2421C33.5599 38.3895 33.6952 38.5038 33.8556 38.568C34.1916 38.648 34.5436 38.704 34.8876 38.752L37.9916 39.224L46.1756 40.488L53.1356 41.552C53.4153 41.605 53.6989 41.6345 53.9836 41.64C54.1673 41.6554 54.3503 41.6028 54.4977 41.4922C54.6452 41.3816 54.7469 41.2207 54.7836 41.04C54.8193 40.852 54.7865 40.6575 54.6911 40.4916C54.5957 40.3257 54.444 40.1996 54.2636 40.136C53.9571 40.0475 53.6441 39.9833 53.3276 39.944L48.4396 39.144L35.9196 37.272L34.3116 37.04ZM52.8316 49.488C52.9621 49.4969 53.093 49.4969 53.2236 49.488C53.366 49.4676 53.4987 49.4036 53.6033 49.3048C53.7079 49.2059 53.7792 49.0771 53.8076 48.936C53.8497 48.7984 53.8477 48.6511 53.8017 48.5148C53.7558 48.3785 53.6683 48.26 53.5516 48.176C53.3891 48.0503 53.2004 47.9628 52.9996 47.92C52.6316 47.84 52.2556 47.792 51.8796 47.728L46.0636 46.856C45.7202 46.7936 45.3724 46.7589 45.0236 46.752C44.9268 46.7432 44.8293 46.7536 44.7367 46.7827C44.644 46.8118 44.558 46.8589 44.4836 46.9214C44.4093 46.9839 44.348 47.0604 44.3034 47.1467C44.2587 47.233 44.2316 47.3272 44.2236 47.424C44.2043 47.6149 44.2543 47.8064 44.3644 47.9635C44.4746 48.1207 44.6375 48.233 44.8236 48.28C45.0371 48.3323 45.2535 48.3723 45.4716 48.4L51.1996 49.256L52.8316 49.488Z" fill="#007BFF"/>
<path d="M17.1509 59.768C16.9029 60.376 17.0469 61.048 16.7269 61.648C16.6113 61.6892 16.4896 61.7109 16.3669 61.712C14.6709 61.52 12.9669 61.336 11.3509 61.064C11.2453 60.9631 11.1693 60.8352 11.1313 60.6942C11.0932 60.5532 11.0944 60.4044 11.1349 60.264C11.1349 59.824 11.2229 59.392 11.2629 58.952L8.72691 57.64L7.16691 58.808C7.03789 58.7489 6.91691 58.6737 6.80691 58.584C5.83891 57.408 4.87091 56.232 3.91891 55.048C3.85064 54.9391 3.79938 54.8204 3.76691 54.696C4.15891 54.096 4.86291 53.896 5.31891 53.376L4.67091 50.688C4.03091 50.416 3.26291 50.576 2.54291 50.24C2.50642 50.0719 2.49031 49.9 2.49491 49.728C2.67891 48.344 2.87091 46.96 3.07891 45.576C3.15891 45.088 3.29491 45.008 3.79891 45.08L5.52691 45.352C6.01491 44.76 6.32691 44.048 6.77491 43.44C6.50291 42.696 5.86291 42.208 5.55891 41.464C5.63955 41.3373 5.73637 41.2217 5.84691 41.12C7.12691 40.32 8.39891 39.456 9.68691 38.64C10.1029 38.368 10.2469 38.408 10.5749 38.792C10.9029 39.176 11.1749 39.528 11.4709 39.888L13.7989 39.344C14.0949 38.736 13.7989 38.04 14.1589 37.488C15.9657 37.4441 17.7705 37.6377 19.5269 38.064C19.6119 38.1374 19.6732 38.2344 19.7031 38.3426C19.733 38.4508 19.7301 38.5654 19.6949 38.672L19.5029 40.16L22.0229 41.536L22.9749 40.832C23.1269 40.712 23.2709 40.592 23.4309 40.488C23.5034 40.4261 23.5956 40.392 23.6909 40.392C23.7862 40.392 23.8785 40.4261 23.9509 40.488C24.0508 40.5693 24.1396 40.6635 24.2149 40.768L26.7749 43.968C26.8784 44.1097 26.9745 44.2565 27.0629 44.408C26.9509 44.808 26.6149 44.896 26.3669 45.072C26.1189 45.248 25.8469 45.424 25.5669 45.624C25.7269 46.064 25.8789 46.48 26.0069 46.896C26.1349 47.312 26.2469 47.696 26.3669 48.168L28.2389 48.488C28.284 48.7009 28.3028 48.9186 28.2949 49.136C28.1029 50.5494 27.8976 51.9627 27.6789 53.376C27.6229 53.752 27.4709 53.864 27.0869 53.84C26.7029 53.816 26.1509 53.728 25.6469 53.672L24.3269 55.904C24.6309 56.304 24.9429 56.704 25.2309 57.112C25.5189 57.52 25.5189 57.736 25.0949 58.072C24.6709 58.408 24.2469 58.736 23.7989 59.04C23.1749 59.48 22.5349 59.888 21.8949 60.304C21.6629 60.456 21.4069 60.576 21.1669 60.712C20.4949 60.32 20.2309 59.616 19.6549 59.184L17.1509 59.768ZM15.4629 55.6C16.3556 55.606 17.2403 55.4328 18.0648 55.0906C18.8893 54.7484 19.6368 54.2443 20.2629 53.608C20.9497 52.9509 21.4416 52.1168 21.6844 51.1978C21.9272 50.2788 21.9115 49.3106 21.6389 48.4C21.3496 47.184 20.7 46.0837 19.7751 45.2429C18.8501 44.4022 17.6929 43.8603 16.4549 43.688C15.6782 43.5115 14.8731 43.5 14.0918 43.6543C13.3104 43.8087 12.5701 44.1254 11.9189 44.584C10.7603 45.3882 9.89969 46.5525 9.47091 47.896C9.05929 49.0415 9.05929 50.2946 9.47091 51.44C9.93384 52.6567 10.7538 53.705 11.8231 54.4474C12.8924 55.1898 14.1612 55.5916 15.4629 55.6Z" fill="#007BFF"/>
<path d="M43.343 21.0879C42.207 20.9279 41.047 20.7679 39.879 20.5919L32.815 19.5359L24.895 18.3679C24.7059 18.3463 24.5204 18.3006 24.343 18.2319C24.1983 18.1536 24.0813 18.0326 24.0079 17.8854C23.9345 17.7382 23.9083 17.572 23.9327 17.4093C23.9572 17.2467 24.0313 17.0955 24.1448 16.9764C24.2582 16.8574 24.4057 16.7762 24.567 16.7439C24.7237 16.724 24.8823 16.724 25.039 16.7439L28.719 17.2719L34.751 18.1679L41.727 19.1999L43.519 19.4719C43.7052 19.4991 43.8877 19.5475 44.063 19.6159C44.2223 19.6906 44.3525 19.8158 44.4335 19.972C44.5145 20.1282 44.5417 20.3067 44.511 20.4799C44.4797 20.6367 44.3978 20.7788 44.2778 20.8843C44.1578 20.9898 44.0064 21.053 43.847 21.0639C43.695 21.1039 43.535 21.0879 43.343 21.0879Z" fill="white"/>
<path d="M43.7993 17.3202L41.0953 16.9602L33.5513 15.9042L25.3353 14.8002C25.0862 14.7696 24.8449 14.6936 24.6233 14.5762C24.4984 14.5029 24.3991 14.393 24.339 14.2612C24.2788 14.1295 24.2608 13.9825 24.2873 13.8402C24.307 13.6786 24.3798 13.5282 24.4941 13.4124C24.6085 13.2966 24.758 13.222 24.9193 13.2002C25.1397 13.1722 25.3628 13.1722 25.5833 13.2002L30.6793 13.8882L36.9113 14.7522L43.7993 15.7122C43.9873 15.7345 44.1708 15.7858 44.3433 15.8642C44.4939 15.9331 44.6195 16.047 44.7026 16.1903C44.7857 16.3336 44.8223 16.4992 44.8073 16.6642C44.7842 16.8385 44.7042 17.0004 44.5799 17.1248C44.4555 17.2491 44.2936 17.3291 44.1193 17.3522C44.012 17.3481 43.9052 17.3374 43.7993 17.3202Z" fill="white"/>
<path d="M32.3266 23.4319L28.8146 22.9119C27.3426 22.6879 25.8733 22.4559 24.4066 22.2159C24.1868 22.1883 23.9716 22.1318 23.7666 22.0479C23.6092 21.9834 23.4786 21.8669 23.3967 21.7178C23.3147 21.5687 23.2864 21.396 23.3163 21.2285C23.3462 21.061 23.4327 20.9089 23.5612 20.7974C23.6897 20.6859 23.8526 20.6219 24.0226 20.6159C24.3386 20.6093 24.6545 20.6307 24.9666 20.6799C26.3426 20.8799 27.7186 21.0959 29.1026 21.3119L32.1986 21.7999C32.4181 21.8248 32.6333 21.8786 32.8386 21.9599C32.9923 22.0263 33.1212 22.1392 33.2073 22.2827C33.2934 22.4262 33.3323 22.5931 33.3186 22.7599C33.2817 22.9326 33.1888 23.0882 33.0542 23.2025C32.9196 23.3169 32.751 23.3834 32.5746 23.3919L32.3266 23.4319Z" fill="white"/>
<path d="M33.7988 41.2402L35.7028 41.4882L45.1668 42.8002L53.3668 43.9442C53.5549 43.9666 53.7384 44.0179 53.9108 44.0962C54.0615 44.1651 54.187 44.2791 54.2702 44.4224C54.3533 44.5657 54.3898 44.7313 54.3748 44.8962C54.3558 45.0711 54.2797 45.2349 54.1582 45.3622C54.0367 45.4894 53.8767 45.5731 53.7028 45.6002C53.5464 45.6236 53.3873 45.6236 53.2308 45.6002L46.1588 44.5602L40.1268 43.7602L34.0948 42.9602C33.8738 42.9307 33.6548 42.8879 33.4388 42.8322C33.2569 42.7932 33.0942 42.692 32.9789 42.5459C32.8635 42.3999 32.8027 42.2183 32.8068 42.0322C32.8291 41.8256 32.9309 41.6358 33.0907 41.5029C33.2504 41.37 33.4556 41.3045 33.6628 41.3202L33.7988 41.2402Z" fill="white"/>
<path d="M34.3437 37.04L35.9437 37.272L48.4557 39.184L53.3437 39.984C53.6602 40.0233 53.9732 40.0875 54.2797 40.176C54.4601 40.2396 54.6118 40.3658 54.7072 40.5317C54.8026 40.6975 54.8354 40.8921 54.7997 41.08C54.7631 41.2607 54.6613 41.4217 54.5139 41.5323C54.3664 41.6429 54.1834 41.6955 53.9997 41.68C53.715 41.6745 53.4314 41.6451 53.1517 41.592L46.1917 40.528L38.0237 39.224L34.9197 38.752C34.5757 38.704 34.2237 38.648 33.8877 38.568C33.7273 38.5039 33.592 38.3896 33.502 38.2422C33.412 38.0947 33.3721 37.9221 33.3883 37.7502C33.4045 37.5782 33.4759 37.4161 33.5919 37.2881C33.7079 37.1601 33.8621 37.0731 34.0317 37.04H34.3437Z" fill="white"/>
<path d="M52.8316 49.488L51.2316 49.256L45.5196 48.4C45.3015 48.3724 45.0852 48.3323 44.8716 48.28C44.6856 48.233 44.5226 48.1207 44.4125 47.9636C44.3023 47.8064 44.2523 47.615 44.2716 47.424C44.2797 47.3272 44.3068 47.233 44.3514 47.1468C44.3961 47.0605 44.4573 46.9839 44.5317 46.9215C44.6061 46.859 44.6921 46.8119 44.7847 46.7828C44.8774 46.7537 44.9749 46.7433 45.0716 46.752C45.4205 46.7589 45.7683 46.7937 46.1116 46.856L51.9276 47.728C52.3036 47.792 52.6796 47.84 53.0476 47.92C53.2347 47.9576 53.4118 48.0339 53.5676 48.144C53.6844 48.2281 53.7719 48.3466 53.8178 48.4829C53.8637 48.6192 53.8658 48.7665 53.8236 48.904C53.7953 49.0451 53.7239 49.174 53.6193 49.2728C53.5148 49.3717 53.3821 49.4357 53.2396 49.456C53.1046 49.4764 52.9682 49.4871 52.8316 49.488Z" fill="white"/>
<path d="M15.4642 55.6001C14.1703 55.5894 12.9095 55.19 11.8454 54.454C10.7812 53.7179 9.96275 52.679 9.49621 51.4721C9.0846 50.3266 9.0846 49.0736 9.49621 47.9281C9.925 46.5846 10.7856 45.4202 11.9442 44.6161C12.5954 44.1575 13.3357 43.8408 14.1171 43.6864C14.8985 43.5321 15.7035 43.5436 16.4802 43.7201C17.7097 43.8946 18.8587 44.4339 19.7785 45.2682C20.6984 46.1024 21.3469 47.1934 21.6402 48.4001C21.9065 49.3062 21.919 50.268 21.6763 51.1806C21.4337 52.0933 20.9453 52.9219 20.2642 53.5761C19.6408 54.2182 18.8945 54.7282 18.0699 55.0759C17.2453 55.4237 16.3591 55.6019 15.4642 55.6001Z" fill="white"/>
</svg>
