<svg width="79" height="75" viewBox="0 0 79 75" fill="none" xmlns="http://www.w3.org/2000/svg">
<path d="M4.36013 55.2C4.64013 53.808 5.05613 52.688 5.36013 51.536C5.66413 50.384 6.08012 49.256 6.31212 48.08C5.96517 47.9285 5.58234 47.8785 5.20813 47.936C4.46038 47.9329 3.71785 47.8114 3.00813 47.576C2.34603 47.3834 1.75607 46.9985 1.3131 46.4701C0.870137 45.9416 0.594136 45.2935 0.520125 44.608C0.45341 44.1899 0.418644 43.7673 0.416125 43.344C0.378792 40.144 0.349458 36.9253 0.328125 33.688C0.328626 32.7746 0.4634 31.8662 0.728125 30.992C0.945376 30.0825 1.43601 29.2615 2.13399 28.6393C2.83197 28.0171 3.7038 27.6237 4.63213 27.512C5.46788 27.3732 6.31299 27.2983 7.16013 27.288C13.0801 27.224 19.0081 27.184 24.9281 27.128C25.9056 27.1113 26.8805 27.2325 27.8241 27.488C28.7979 27.7623 29.6831 28.2863 30.3921 29.008C31.0876 29.6616 31.5033 30.5589 31.5521 31.512C31.6081 32.488 31.6401 33.464 31.6161 34.44C31.5601 36.52 31.5521 38.592 31.6721 40.672C31.8049 42.0324 31.713 43.4054 31.4001 44.736C31.2394 45.4371 30.8944 46.0826 30.4007 46.6058C29.9071 47.1289 29.2827 47.5108 28.5921 47.712C28.4371 47.7665 28.2758 47.8014 28.1121 47.816C27.2401 47.864 26.3601 47.944 25.4881 47.944C22.2295 47.944 18.9761 47.944 15.7281 47.944C15.2107 47.9394 14.7055 48.1021 14.2881 48.408C11.3041 50.496 8.29612 52.56 5.30412 54.632C5.04812 54.768 4.80013 54.912 4.36013 55.2ZM25.4081 38.456C25.6985 38.4758 25.9898 38.4758 26.2801 38.456C26.4605 38.4398 26.6278 38.3555 26.7482 38.2202C26.8686 38.085 26.9329 37.909 26.9281 37.728C26.9486 37.5397 26.895 37.3508 26.7784 37.2014C26.6619 37.052 26.4918 36.9539 26.3041 36.928C26.0149 36.8916 25.7236 36.8756 25.4321 36.88H6.50412H5.80013C5.67134 36.8865 5.54442 36.9135 5.42413 36.96C5.27101 37.0172 5.13908 37.1199 5.04612 37.2544C4.95315 37.3888 4.90359 37.5485 4.90412 37.712C4.91293 37.8926 4.98652 38.064 5.11141 38.1947C5.23629 38.3255 5.40412 38.4069 5.58413 38.424C5.87724 38.4401 6.17101 38.4401 6.46413 38.424L25.4081 38.456ZM15.5601 33.6V33.512H24.9281C25.2234 33.5035 25.5163 33.4578 25.8001 33.376C25.9594 33.3348 26.0985 33.2379 26.1925 33.1028C26.2864 32.9678 26.3288 32.8036 26.3121 32.64C26.3138 32.4751 26.2555 32.3152 26.148 32.1901C26.0406 32.065 25.8914 31.9833 25.7281 31.96C25.4071 31.9201 25.0835 31.904 24.7601 31.912L11.5761 32H6.20013C5.93261 31.9948 5.6651 32.0108 5.40013 32.048C5.22262 32.0918 5.06548 32.1951 4.95486 32.3406C4.84423 32.4862 4.7868 32.6652 4.79213 32.848C4.80279 33.0272 4.8772 33.1966 5.00191 33.3258C5.12663 33.4549 5.29341 33.5351 5.47213 33.552C5.76524 33.568 6.05901 33.568 6.35213 33.552L15.5601 33.6ZM6.60013 41.896C6.34413 41.896 6.08013 41.896 5.80013 41.896C5.62262 41.9137 5.45614 41.9903 5.32713 42.1135C5.19812 42.2367 5.114 42.3995 5.08813 42.576C5.08194 42.7566 5.13709 42.934 5.24458 43.0792C5.35208 43.2245 5.5056 43.3291 5.68013 43.376C5.94405 43.4235 6.21201 43.4449 6.48013 43.44L16.5041 43.512C16.7305 43.5281 16.9577 43.5281 17.1841 43.512C17.3616 43.4942 17.5281 43.4177 17.6571 43.2945C17.7861 43.1713 17.8703 43.0085 17.8961 42.832C17.9028 42.6524 17.8488 42.4759 17.7428 42.3307C17.6369 42.1856 17.4852 42.0804 17.3121 42.032C17.0488 41.9802 16.7804 41.9587 16.5121 41.968H11.5441" fill="white"/>
<path d="M59.7118 63.6563C59.7039 65.8528 59.0447 67.9976 57.8177 69.8194C56.5906 71.6412 54.8508 73.0581 52.8183 73.891C50.7859 74.7239 48.552 74.9352 46.3994 74.4984C44.2468 74.0615 42.2721 72.996 40.7251 71.4367C39.1781 69.8774 38.1284 67.8944 37.7086 65.7383C37.2888 63.5823 37.5179 61.3503 38.3668 59.3245C39.2158 57.2987 40.6465 55.5701 42.478 54.3576C44.3094 53.145 46.4594 52.5028 48.6558 52.5123C50.1164 52.508 51.5632 52.7939 52.9123 53.3535C54.2614 53.9131 55.4858 54.7352 56.5145 55.7721C57.5431 56.8089 58.3555 58.0398 58.9044 59.3933C59.4533 60.7468 59.7277 62.1959 59.7118 63.6563ZM41.2398 64.3443C41.6398 64.4723 41.7838 64.5363 41.9358 64.5683C43.2878 64.8963 44.6398 65.2483 46.0078 65.5363C46.3235 65.5876 46.6195 65.7232 46.8645 65.9288C47.1095 66.1344 47.2945 66.4023 47.3998 66.7043C47.8878 67.9043 48.4478 69.1043 48.9998 70.2643C49.1358 70.5523 49.2878 70.8403 49.4318 71.1363C49.5198 71.0723 49.5998 71.0403 49.6078 70.9923C50.8078 66.987 52.0025 62.987 53.1918 58.9923C53.2718 58.7203 53.3358 58.4483 53.4238 58.1283C53.2478 58.1283 53.1438 58.1283 53.0718 58.1283L41.2398 64.3443Z" fill="white"/>
<path d="M60.201 11.3602C60.2042 14.0815 59.2079 16.7093 57.4013 18.7445C55.5947 20.7797 53.1036 22.0806 50.4011 22.4002C47.8235 22.7472 45.2081 22.1382 43.049 20.6882C42.5132 20.3219 42.0124 19.9068 41.5531 19.4482C38.4331 16.4082 37.2091 12.7522 38.3531 8.52017C38.8208 6.53672 39.852 4.73078 41.3224 3.31992C42.7929 1.90905 44.6399 0.953434 46.6411 0.568173C48.1183 0.226726 49.65 0.192783 51.141 0.46845C52.6319 0.744118 54.0502 1.3235 55.3077 2.1706C56.5652 3.01769 57.6351 4.11438 58.4507 5.3925C59.2664 6.67063 59.8104 8.10286 60.049 9.60017C60.137 10.1922 60.1451 10.7842 60.201 11.3602ZM44.249 4.48017C43.8528 4.55839 43.5027 4.78798 43.273 5.12017C42.7839 5.73595 42.4644 6.46908 42.3465 7.24663C42.2286 8.02419 42.3164 8.81906 42.6011 9.55217C42.8488 10.1543 43.1458 10.7349 43.4891 11.2882C44.7012 13.2199 46.1647 14.982 47.8411 16.5282C48.4601 17.1053 49.1856 17.5563 49.9771 17.8562C50.8271 18.2023 51.7645 18.2718 52.6563 18.055C53.548 17.8381 54.3489 17.3459 54.9451 16.6482C53.9403 15.4454 52.8523 14.3146 51.6891 13.2642C51.5612 13.3504 51.4383 13.4439 51.3211 13.5442C51.0195 13.8517 50.6168 14.0396 50.1875 14.0735C49.7581 14.1073 49.331 13.9846 48.9851 13.7282C48.3544 13.35 47.8095 12.8446 47.3853 12.244C46.961 11.6434 46.6667 10.9609 46.5211 10.2402C46.4645 9.98636 46.4706 9.72258 46.5389 9.47167C46.6072 9.22076 46.7356 8.99027 46.9131 8.80017C47.0797 8.60139 47.2347 8.39304 47.3771 8.17617C46.4171 6.82417 45.273 5.72817 44.249 4.48017Z" fill="white"/>
<path d="M78.8556 37.4801C78.8556 40.4314 77.6832 43.2618 75.5963 45.3487C73.5094 47.4356 70.6789 48.6081 67.7276 48.6081C64.7763 48.6081 61.9458 47.4356 59.8589 45.3487C57.772 43.2618 56.5996 40.4314 56.5996 37.4801C56.5996 34.5287 57.772 31.6983 59.8589 29.6114C61.9458 27.5245 64.7763 26.3521 67.7276 26.3521C70.6789 26.3521 73.5094 27.5245 75.5963 29.6114C77.6832 31.6983 78.8556 34.5287 78.8556 37.4801ZM71.1756 38.5521C71.3036 38.4081 71.3596 38.3281 71.4316 38.2641C72.4091 37.3481 73.1032 36.1708 73.4316 34.872C73.502 34.7046 73.5065 34.5167 73.4441 34.3461C73.3818 34.1755 73.2573 34.0347 73.0956 33.9521C72.5246 33.7031 71.8791 33.6858 71.2956 33.904C71.1775 33.9583 71.0722 34.037 70.9867 34.1349C70.9012 34.2328 70.8375 34.3477 70.7996 34.472C70.5916 34.952 70.3836 35.4241 70.1356 35.8801C69.8442 36.431 69.4034 36.8885 68.8636 37.2001C68.6729 37.2849 68.4747 37.3519 68.2716 37.4001V36.0001C68.2716 35.6081 68.2716 35.2001 68.2716 34.8321C68.2823 34.7089 68.2662 34.5848 68.2244 34.4685C68.1825 34.3521 68.116 34.2462 68.0293 34.158C67.9427 34.0698 67.8379 34.0014 67.7223 33.9576C67.6067 33.9138 67.483 33.8955 67.3596 33.904C67.0681 33.8882 66.7757 33.9043 66.4876 33.9521C66.291 33.9738 66.1095 34.0676 65.978 34.2153C65.8465 34.3631 65.7744 34.5543 65.7756 34.7521C65.7636 34.9812 65.7636 35.2109 65.7756 35.4401C65.7756 36.3121 65.7756 37.192 65.7756 38.072C65.7756 38.216 65.8316 38.4001 65.6476 38.4881C65.5996 38.4881 65.5676 38.4881 65.5436 38.4881C65.4502 38.4612 65.3613 38.4208 65.2796 38.3681C64.4563 37.8496 63.8028 37.1015 63.3996 36.216C63.2076 35.808 63.0556 35.416 62.8796 34.96C62.8239 34.7188 62.6794 34.5074 62.4748 34.368C62.2701 34.2286 62.0205 34.1715 61.7756 34.2081C61.5471 34.215 61.3195 34.2417 61.0956 34.2881C60.9621 34.2911 60.8315 34.3275 60.7156 34.394C60.5998 34.4604 60.5024 34.5548 60.4324 34.6686C60.3625 34.7823 60.3221 34.9118 60.3149 35.0451C60.3078 35.1785 60.3341 35.3115 60.3916 35.4321C60.4617 35.6486 60.5473 35.8598 60.6476 36.0641C61.8889 38.7437 64.0245 40.9076 66.6876 42.1841C66.8307 42.2576 66.9808 42.3165 67.1356 42.3601C67.2455 42.3962 67.3619 42.4082 67.4768 42.395C67.5918 42.3819 67.7025 42.3439 67.8013 42.2839C67.9002 42.2238 67.9849 42.143 68.0495 42.047C68.1141 41.9511 68.1571 41.8423 68.1756 41.7281C68.2224 41.3752 68.2491 41.02 68.2556 40.6641C68.2556 40.3841 68.1756 40.0721 68.4316 39.8641C68.6168 39.8311 68.8064 39.8311 68.9916 39.8641C69.6287 40.0528 70.1891 40.4395 70.5916 40.9681C70.8156 41.2881 71.0076 41.6241 71.2076 41.9681C71.3175 42.2598 71.5373 42.4969 71.82 42.6285C72.1026 42.7601 72.4256 42.7758 72.7196 42.672C72.8668 42.66 73.0086 42.6108 73.1315 42.5289C73.2545 42.4471 73.3547 42.3354 73.4227 42.2042C73.4906 42.0731 73.5242 41.9268 73.5201 41.7792C73.5161 41.6315 73.4746 41.4873 73.3996 41.36C73.0235 40.5636 72.5088 39.8404 71.8796 39.2241L71.1756 38.5521Z" fill="white"/>
<path d="M33.3516 38.3999V37.0319C33.5596 36.9919 33.7436 36.9359 33.9276 36.9199C34.1116 36.9039 34.3196 36.9199 34.5116 36.9199H53.5356C53.8965 36.8617 54.2665 36.9003 54.6076 37.0319C54.708 37.4783 54.7242 37.9396 54.6556 38.3919C54.4396 38.3919 54.2876 38.4559 54.1276 38.4639C51.4876 38.5279 34.2716 38.4799 33.3516 38.3999Z" fill="white"/>
<path d="M32.7676 29.3202L32.0156 27.9522C34.3836 25.1522 36.7356 22.3735 39.0716 19.6162C39.6316 19.9122 39.6316 19.9122 40.1436 20.5922C39.7516 21.2242 33.6636 28.4562 32.7676 29.3202Z" fill="white"/>
<path d="M32.1445 47.6884C32.3765 47.2164 32.5765 46.8164 32.8085 46.3604C32.9614 46.4346 33.1085 46.5201 33.2485 46.6164L40.5365 53.0884C40.6245 53.1764 40.6965 53.2804 40.8085 53.4004C40.4974 53.8094 40.1052 54.1498 39.6565 54.4004C37.1445 52.1364 34.6485 49.9204 32.1445 47.6884Z" fill="white"/>
<path d="M15.9439 38.4402H6.47993C6.18682 38.4564 5.89304 38.4564 5.59993 38.4402C5.41992 38.4231 5.2521 38.3417 5.12721 38.211C5.00232 38.0802 4.92873 37.9088 4.91993 37.7282C4.9194 37.5648 4.96895 37.4051 5.06192 37.2706C5.15488 37.1362 5.28681 37.0334 5.43993 36.9762C5.56022 36.9298 5.68714 36.9028 5.81593 36.8962H6.50393H25.4319C25.7234 36.8918 26.0147 36.9078 26.3039 36.9442C26.4916 36.9702 26.6617 37.0682 26.7782 37.2176C26.8948 37.367 26.9484 37.5559 26.9279 37.7442C26.9327 37.9252 26.8684 38.1012 26.748 38.2365C26.6276 38.3717 26.4603 38.456 26.2799 38.4722C25.9896 38.492 25.6983 38.492 25.4079 38.4722" fill="#007BFF"/>
<path d="M15.5607 33.6004H6.37674C6.08363 33.6164 5.78986 33.6164 5.49675 33.6004C5.31803 33.5835 5.15125 33.5033 5.02653 33.3742C4.90182 33.2451 4.82741 33.0756 4.81675 32.8964C4.81142 32.7136 4.86885 32.5346 4.97948 32.389C5.0901 32.2435 5.24725 32.1402 5.42475 32.0964C5.68972 32.0593 5.95723 32.0432 6.22475 32.0484H11.6007L24.7847 31.9844C25.1082 31.9764 25.4317 31.9925 25.7527 32.0324C25.916 32.0557 26.0652 32.1375 26.1726 32.2626C26.2801 32.3876 26.3384 32.5475 26.3367 32.7124C26.3535 32.876 26.311 33.0402 26.2171 33.1752C26.1232 33.3103 25.984 33.4072 25.8247 33.4484C25.5389 33.514 25.2459 33.5436 24.9527 33.5364" fill="#007BFF"/>
<path d="M41.2402 64.3442L53.0642 58.1362C53.1362 58.1362 53.2402 58.1362 53.4162 58.1362C53.3282 58.4562 53.2642 58.7282 53.1842 59.0002C51.9896 63.0109 50.7949 67.0109 49.6002 71.0002C49.6002 71.0482 49.5122 71.0802 49.4242 71.1442C49.2802 70.8482 49.1282 70.5602 48.9922 70.2722C48.4642 69.0882 47.9042 67.8722 47.3922 66.7122C47.2856 66.4081 47.0982 66.1388 46.8502 65.933C46.6022 65.7272 46.3028 65.5929 45.9842 65.5442C44.6162 65.2562 43.2642 64.9042 41.9122 64.5762C41.8002 64.5362 41.6402 64.4722 41.2402 64.3442Z" fill="#007BFF"/>
<path d="M44.2478 4.47998C45.2718 5.72798 46.4158 6.82398 47.3758 8.16798C47.2334 8.38484 47.0785 8.5932 46.9118 8.79198C46.7359 8.98443 46.6096 9.21696 46.5441 9.46933C46.4786 9.7217 46.4757 9.98625 46.5358 10.24C46.6814 10.9607 46.9757 11.6432 47.4 12.2438C47.8243 12.8444 48.3691 13.3499 48.9998 13.728C49.3458 13.9844 49.7729 14.1071 50.2022 14.0733C50.6316 14.0395 51.0342 13.8515 51.3358 13.544C51.453 13.4437 51.5759 13.3502 51.7038 13.264C52.867 14.3144 53.955 15.4452 54.9598 16.648C54.3636 17.3457 53.5628 17.8379 52.671 18.0548C51.7792 18.2716 50.8418 18.2021 49.9918 17.856C49.2003 17.5561 48.4748 17.1051 47.8558 16.528C46.1794 14.9818 44.7159 13.2197 43.5038 11.288C43.155 10.7353 42.8526 10.1546 42.5998 9.55198C42.3129 8.82022 42.2225 8.02613 42.3376 7.24863C42.4527 6.47112 42.7692 5.73726 43.2558 5.11998C43.4892 4.7843 43.8457 4.55431 44.2478 4.47998Z" fill="#007BFF"/>
<path d="M71.1769 38.552L71.8568 39.2C72.4861 39.8163 73.0008 40.5395 73.3769 41.336C73.4519 41.4632 73.4934 41.6074 73.4974 41.7551C73.5014 41.9027 73.4679 42.049 73.3999 42.1801C73.3319 42.3113 73.2318 42.423 73.1088 42.5048C72.9858 42.5867 72.8441 42.6359 72.6969 42.648C72.4028 42.7517 72.0799 42.7361 71.7972 42.6045C71.5146 42.4729 71.2947 42.2357 71.1849 41.944C70.9849 41.6 70.7928 41.264 70.5688 40.944C70.1663 40.4154 69.6059 40.0287 68.9688 39.84C68.7836 39.8071 68.5941 39.8071 68.4089 39.84C68.1529 40.08 68.2568 40.392 68.2329 40.64C68.2264 40.9959 68.1997 41.3511 68.1529 41.704C68.1344 41.8182 68.0913 41.927 68.0267 42.023C67.9621 42.1189 67.8775 42.1997 67.7786 42.2598C67.6797 42.3199 67.569 42.3578 67.4541 42.3709C67.3391 42.3841 67.2227 42.3722 67.1128 42.336C66.958 42.2925 66.8079 42.2335 66.6649 42.16C64.0017 40.8835 61.8662 38.7196 60.6248 36.04C60.5245 35.8357 60.4389 35.6245 60.3688 35.408C60.3114 35.2874 60.285 35.1544 60.2922 35.021C60.2993 34.8877 60.3397 34.7582 60.4097 34.6445C60.4797 34.5307 60.577 34.4363 60.6929 34.3699C60.8087 34.3034 60.9393 34.267 61.0728 34.264C61.2968 34.2176 61.5243 34.1909 61.7529 34.184C61.9977 34.1474 62.2474 34.2046 62.452 34.3439C62.6566 34.4833 62.8012 34.6947 62.8568 34.936C63.0328 35.352 63.1849 35.784 63.3769 36.192C63.7804 37.0526 64.4216 37.7798 65.2248 38.288C65.3065 38.3407 65.3954 38.3811 65.4888 38.408C65.4888 38.408 65.5448 38.408 65.5928 38.408C65.7768 38.32 65.7129 38.136 65.7209 37.992C65.7209 37.112 65.7209 36.232 65.7209 35.36C65.7089 35.1308 65.7089 34.9011 65.7209 34.672C65.7197 34.4742 65.7918 34.283 65.9232 34.1353C66.0547 33.9875 66.2363 33.8937 66.4328 33.872C66.7209 33.8242 67.0133 33.8081 67.3048 33.824C67.4282 33.8154 67.5519 33.8337 67.6676 33.8775C67.7832 33.9214 67.8879 33.9897 67.9746 34.0779C68.0612 34.1661 68.1278 34.272 68.1696 34.3884C68.2114 34.5047 68.2275 34.6288 68.2168 34.752C68.2168 35.136 68.2168 35.552 68.2168 35.92V37.36C68.42 37.3118 68.6181 37.2448 68.8089 37.16C69.3486 36.8484 69.7895 36.3909 70.0808 35.84C70.3288 35.384 70.5368 34.912 70.7448 34.432C70.7827 34.3076 70.8465 34.1927 70.932 34.0948C71.0175 33.9969 71.1227 33.9182 71.2409 33.864C71.8243 33.6458 72.4698 33.663 73.0409 33.912C73.2026 33.9947 73.3271 34.1354 73.3894 34.306C73.4517 34.4767 73.4472 34.6645 73.3769 34.832C73.0485 36.1307 72.3544 37.308 71.3769 38.224C71.4009 38.328 71.3049 38.4 71.1769 38.552Z" fill="#007BFF"/>
</svg>
