<svg width="69" height="56" viewBox="0 0 69 56" fill="none" xmlns="http://www.w3.org/2000/svg">
<path d="M60.264 26.3762C60.728 26.3762 61.064 26.3762 61.368 26.4562C61.9827 26.5063 62.5942 26.5891 63.2 26.7042C64.3166 26.9006 65.3448 27.4385 66.1429 28.2437C66.9409 29.049 67.4696 30.0819 67.656 31.2002C67.7853 31.7728 67.855 32.3572 67.864 32.9442C67.9387 37.6855 67.9947 42.4348 68.032 47.1922C68.032 48.1602 67.976 49.1442 67.888 50.1122C67.8159 51.2256 67.3955 52.2882 66.6862 53.1496C65.977 54.011 65.0149 54.6276 63.936 54.9122C63.0019 55.2025 62.0258 55.3349 61.048 55.3042C60.624 55.3042 60.2 55.3042 59.776 55.3042C51.872 55.3042 43.9627 55.3042 36.048 55.3042C35.1044 55.33 34.1612 55.2386 33.24 55.0322C32.0536 54.7792 30.959 54.2063 30.0749 53.3758C29.1907 52.5452 28.5506 51.4885 28.224 50.3202C27.9216 49.2783 27.7444 48.204 27.696 47.1202C27.696 46.8642 27.648 46.6082 27.624 46.3682C27.2892 46.2132 26.9139 46.1684 26.552 46.2402C22.448 46.2402 18.344 46.3042 14.24 46.3362C12.776 46.3362 11.312 46.3362 9.84804 46.3362C8.47938 46.3448 7.11642 46.159 5.80004 45.7842C5.25241 45.6149 4.71769 45.4064 4.20004 45.1602C3.45908 44.8177 2.79925 44.3218 2.26416 43.7054C1.72908 43.0889 1.33093 42.3659 1.09604 41.5842C0.735982 40.3638 0.560706 39.0964 0.576043 37.8242C0.576043 37.3042 0.576043 36.7842 0.576043 36.2642C0.576043 27.8375 0.554709 19.4135 0.512042 10.9922C0.512042 10.3362 0.464042 9.68818 0.440042 9.04018C0.372429 7.96968 0.436916 6.89492 0.632043 5.84018C0.834425 4.67579 1.40001 3.60528 2.24783 2.78189C3.09565 1.9585 4.18223 1.42445 5.35204 1.25618C6.54362 1.08174 7.74847 1.01481 8.95204 1.05618L20.872 1.00818L46.552 0.816185C48.64 0.816185 50.72 0.760183 52.808 0.752183C53.5558 0.737553 54.3037 0.766938 55.048 0.840184C56.0716 0.951199 57.0447 1.34222 57.8604 1.97026C58.6762 2.59831 59.303 3.43908 59.672 4.40018C60.063 5.30075 60.2567 6.27456 60.24 7.25618C60.24 8.45618 60.24 9.65619 60.24 10.8642C60.24 15.6642 60.24 20.4455 60.24 25.2082L60.264 26.3762ZM29.2 36.0482C29.2 36.5122 29.2 36.8482 29.2 37.2082C29.2 40.7202 29.256 44.2322 29.24 47.7442C29.2463 48.9183 29.5431 50.0727 30.104 51.1042C30.6043 52.0983 31.4615 52.8669 32.504 53.2562C33.5709 53.6615 34.7074 53.8518 35.848 53.8162C36.528 53.8162 37.216 53.8162 37.896 53.8162H61.136C61.9831 53.8211 62.8256 53.6915 63.632 53.4322C64.206 53.2496 64.7258 52.9275 65.1446 52.4947C65.5635 52.0619 65.8684 51.5319 66.032 50.9522C66.2685 50.1742 66.3872 49.3653 66.384 48.5522C66.384 43.8642 66.384 39.1842 66.32 34.5042C66.3164 33.495 66.2037 32.4892 65.984 31.5042C65.8473 30.5906 65.4022 29.7512 64.7226 29.1254C64.043 28.4997 63.1698 28.1252 62.248 28.0642C61.2169 27.919 60.1773 27.8415 59.136 27.8322C52.464 27.8322 45.792 27.8322 39.136 27.8322H35.136C34.1242 27.8412 33.1231 28.0393 32.184 28.4162C31.5229 28.6542 30.9309 29.0518 30.4605 29.5738C29.9902 30.0958 29.6561 30.7259 29.488 31.4082C29.299 32.1675 29.197 32.9458 29.184 33.7282C29.184 33.9762 29.128 34.2242 29.096 34.5282C28.84 34.5282 28.648 34.5282 28.456 34.5282H11.176C11.1473 34.5364 11.1168 34.5364 11.088 34.5282C11.088 34.5282 11.04 34.4802 10.96 34.4082C10.96 34.1442 10.96 33.8242 10.92 33.5042C10.8827 30.6775 10.8454 27.8482 10.808 25.0162C10.808 22.9042 10.76 20.7922 10.752 18.6802C10.752 18.5042 10.648 18.2802 10.952 18.1682L11.384 18.6722L14.248 22.2482C14.3844 22.4323 14.5341 22.6061 14.696 22.7682C14.8225 22.8993 14.9932 22.9789 15.175 22.9915C15.3568 23.004 15.5368 22.9487 15.6801 22.8362C15.8235 22.7237 15.92 22.5621 15.951 22.3825C15.9821 22.2029 15.9454 22.0183 15.848 21.8642C15.7312 21.6688 15.5973 21.4841 15.448 21.3122L11 15.7122C10.9048 15.5798 10.8006 15.4542 10.688 15.3362C10.6009 15.2273 10.4887 15.1411 10.3611 15.085C10.2334 15.0289 10.0941 15.0045 9.95494 15.0139C9.81581 15.0233 9.68103 15.0663 9.56211 15.1392C9.44319 15.212 9.34367 15.3125 9.27204 15.4322C9.21159 15.5072 9.15804 15.5875 9.11204 15.6722C7.78404 17.7575 6.45071 19.8455 5.11204 21.9362C5.01919 22.0713 4.94139 22.2162 4.88004 22.3682C4.81338 22.5355 4.80901 22.7213 4.86774 22.8916C4.92647 23.0619 5.04439 23.2055 5.20004 23.2962C5.34277 23.3781 5.50906 23.4093 5.67179 23.3846C5.83451 23.3599 5.98406 23.2808 6.09604 23.1602C6.26403 22.9634 6.41397 22.7519 6.54404 22.5282L8.74404 19.0642C8.82404 18.9442 8.87204 18.7602 9.14404 18.7762C9.14404 19.0882 9.18404 19.4002 9.19204 19.7122L9.36004 34.4482C9.36004 34.6082 9.36004 34.7682 9.36004 34.9362C9.40804 35.7362 9.73604 36.0482 10.504 36.0882C10.768 36.0882 11.024 36.0882 11.304 36.0882H29.2V36.0482ZM27.832 8.98418C27.9561 9.03381 28.0847 9.07132 28.216 9.09618H58.28C58.4013 9.07257 58.5194 9.03498 58.632 8.98418C58.7968 7.73618 58.6904 6.46732 58.32 5.26419C58.0733 4.46407 57.5878 3.75856 56.9285 3.24234C56.2693 2.72612 55.468 2.42388 54.632 2.37619C54.112 2.32819 53.592 2.32019 53.032 2.32019C52.12 2.32019 51.216 2.32019 50.304 2.32019L29.408 2.46419C29.056 2.46419 28.696 2.46419 28.336 2.46419C28.1527 2.49075 27.971 2.52815 27.792 2.57619L27.832 8.98418ZM36.864 23.9042L44.864 23.7682L53.448 23.6482C53.7404 23.6457 54.0321 23.619 54.32 23.5682C54.4807 23.5309 54.6232 23.4384 54.7226 23.3068C54.822 23.1752 54.8721 23.0129 54.864 22.8482C54.859 22.6839 54.7973 22.5265 54.6894 22.4025C54.5815 22.2786 54.434 22.1958 54.272 22.1682C54.0058 22.147 53.7383 22.147 53.472 22.1682C51.488 22.1682 49.472 22.1682 47.52 22.2322L22 22.5922H20.344C20.148 22.591 19.9523 22.6097 19.76 22.6482C19.5885 22.6981 19.4386 22.8039 19.3342 22.9489C19.2298 23.0939 19.1769 23.2697 19.184 23.4482C19.2004 23.6105 19.2708 23.7626 19.384 23.8801C19.4971 23.9976 19.6465 24.0737 19.808 24.0962C20.1331 24.1163 20.459 24.1163 20.784 24.0962L36.864 23.9042ZM36.864 16.1042L53.352 15.9442C53.5465 15.9562 53.7416 15.9562 53.936 15.9442C54.1334 15.9442 54.3226 15.8658 54.4621 15.7263C54.6017 15.5867 54.68 15.3975 54.68 15.2002C54.68 15.0029 54.6017 14.8136 54.4621 14.6741C54.3226 14.5346 54.1334 14.4562 53.936 14.4562C53.643 14.4362 53.349 14.4362 53.056 14.4562C49.312 14.4562 45.576 14.5442 41.856 14.5762L20.68 14.7602C20.3569 14.7536 20.0336 14.7669 19.712 14.8002C19.5486 14.8229 19.3986 14.9029 19.2887 15.026C19.1788 15.1491 19.1162 15.3072 19.112 15.4722C19.087 15.6588 19.1369 15.8478 19.2508 15.9977C19.3648 16.1477 19.5335 16.2464 19.72 16.2722C20.013 16.2924 20.3071 16.2924 20.6 16.2722L36.864 16.1042ZM19.928 9.04018C20.638 9.10659 21.3516 9.1253 22.064 9.09618C22.744 9.09618 23.424 9.09618 24.104 9.09618C24.8146 9.15594 25.5298 9.12367 26.232 9.00018C26.232 8.80818 26.28 8.64818 26.28 8.48818C26.28 6.60818 26.232 4.73618 26.2 2.88818C26.2 2.83218 26.144 2.77619 26.096 2.66419C25.954 2.6298 25.8096 2.60574 25.664 2.59219C23.8827 2.59219 22.0987 2.61619 20.312 2.66419C20.1529 2.6844 19.997 2.72472 19.848 2.78418C19.848 4.76818 19.848 6.71218 19.848 8.64819C19.8618 8.78117 19.8885 8.91247 19.928 9.04018ZM18.232 9.04018C18.2993 8.50966 18.318 7.97411 18.288 7.44018C18.288 6.92018 18.288 6.40018 18.288 5.84018C18.288 5.28018 18.288 4.73618 18.288 4.18418C18.3314 3.66759 18.2991 3.14742 18.192 2.64018C17.992 2.64018 17.84 2.59219 17.68 2.59219L11.352 2.65618C11.296 2.65618 11.248 2.71218 11.168 2.75218C11.1299 2.8329 11.1056 2.91943 11.096 3.00818C11.096 4.85885 11.1147 6.70685 11.152 8.55218C11.1637 8.67433 11.1878 8.79496 11.224 8.91218C13.5553 9.09752 15.896 9.13493 18.232 9.02418V9.04018ZM2.00004 8.46419C3.07791 7.68302 4.06534 6.78414 4.94404 5.78418C4.38368 5.18673 3.76154 4.6504 3.08804 4.18418C2.04804 5.43218 2.00004 6.85619 2.00004 8.46419ZM6.20804 6.86419L4.16004 8.76018C4.12004 8.80818 4.16004 8.92818 4.16004 9.01618C5.59323 9.15484 7.03772 9.12531 8.46404 8.92818C7.76538 8.1948 7.01693 7.51051 6.22404 6.88018L6.20804 6.86419ZM4.47204 3.14418C4.98439 3.73062 5.56444 4.25428 6.20004 4.70419C7.01754 4.15037 7.73904 3.46669 8.33604 2.68018C7.03387 2.56669 5.72243 2.73028 4.48804 3.16018L4.47204 3.14418ZM9.42404 4.03219C9.15204 4.24819 8.97604 4.37618 8.81604 4.52818C8.37604 4.94418 7.88004 5.32818 7.44004 5.80818C8.02948 6.46187 8.69563 7.04206 9.42404 7.53618C9.59775 6.38039 9.60314 5.20553 9.44004 4.04819L9.42404 4.03219Z" fill="white"/>
<path d="M29.2006 36.0483H11.4166C11.1526 36.0483 10.8966 36.0483 10.6166 36.0483C9.81664 36.0483 9.52064 35.6803 9.47264 34.8963C9.47264 34.7283 9.47264 34.5683 9.47264 34.4083L9.30465 19.6723C9.30465 19.3603 9.30464 19.0483 9.25664 18.7363C8.98464 18.7363 8.93664 18.9043 8.85664 19.0243L6.66465 22.4803C6.53458 22.704 6.38464 22.9155 6.21664 23.1123C6.10466 23.2329 5.95511 23.312 5.79239 23.3367C5.62966 23.3614 5.46338 23.3303 5.32065 23.2483C5.16499 23.1576 5.04707 23.014 4.98835 22.8437C4.92962 22.6734 4.93398 22.4877 5.00064 22.3203C5.06199 22.1683 5.13979 22.0234 5.23265 21.8883C6.55531 19.7976 7.88865 17.7096 9.23265 15.6243C9.27864 15.5397 9.3322 15.4593 9.39265 15.3843C9.46457 15.2662 9.56379 15.1671 9.68197 15.0953C9.80015 15.0235 9.93383 14.9811 10.0718 14.9717C10.2097 14.9623 10.3479 14.9862 10.4748 15.0413C10.6016 15.0963 10.7134 15.1811 10.8006 15.2883C10.9132 15.4063 11.0174 15.5319 11.1126 15.6643L15.5606 21.2643C15.7099 21.4362 15.8438 21.6209 15.9606 21.8163C16.0403 21.9708 16.0628 22.1485 16.024 22.3179C15.9852 22.4874 15.8878 22.6376 15.7488 22.7421C15.6099 22.8465 15.4384 22.8984 15.2649 22.8886C15.0914 22.8787 14.9269 22.8078 14.8006 22.6883C14.6387 22.5263 14.489 22.3524 14.3526 22.1683L11.4886 18.5923L11.0566 18.0883C10.7526 18.2003 10.8566 18.4243 10.8566 18.6003C10.8566 20.7123 10.8566 22.8243 10.9126 24.9363C10.9446 27.7683 10.982 30.5976 11.0246 33.4243C11.0246 33.7443 11.0246 34.0643 11.0646 34.3283C11.1446 34.4003 11.1606 34.4323 11.1926 34.4483C11.2214 34.4565 11.2519 34.4565 11.2806 34.4483H28.5606C28.7526 34.4483 28.9446 34.4483 29.2006 34.4483C29.2006 34.1843 29.2806 33.9363 29.2886 33.6483C29.3016 32.8659 29.4035 32.0876 29.5926 31.3283C29.7685 30.6595 30.1043 30.0435 30.5712 29.5334C31.0381 29.0234 31.622 28.6345 32.2726 28.4003C33.2117 28.0234 34.2129 27.8253 35.2246 27.8163H39.2246C45.8966 27.8163 52.5686 27.8163 59.2246 27.8163C60.2659 27.8256 61.3055 27.9031 62.3366 28.0483C63.2584 28.1093 64.1316 28.4838 64.8112 29.1096C65.4908 29.7353 65.9359 30.5747 66.0726 31.4883C66.2923 32.4733 66.405 33.4791 66.4086 34.4883C66.4566 39.1683 66.4566 43.8483 66.4726 48.5363C66.4758 49.3494 66.3571 50.1584 66.1206 50.9363C65.957 51.516 65.6521 52.046 65.2332 52.4788C64.8144 52.9116 64.2946 53.2338 63.7206 53.4163C62.9142 53.6756 62.0717 53.8053 61.2246 53.8003H38.0246C37.3446 53.8003 36.6566 53.8003 35.9766 53.8003C34.836 53.8359 33.6995 53.6456 32.6326 53.2403C31.5901 52.851 30.7329 52.0824 30.2326 51.0883C29.6717 50.0568 29.3749 48.9025 29.3686 47.7283C29.3686 44.2163 29.3686 40.7043 29.3286 37.1923C29.2566 36.8563 29.2006 36.5123 29.2006 36.0483ZM44.4006 49.0803C44.3754 49.2579 44.4105 49.4389 44.5005 49.5942C44.5904 49.7494 44.73 49.8699 44.8966 49.9363C45.0639 50.0028 45.2501 50.0034 45.4179 49.9381C45.5856 49.8728 45.7224 49.7464 45.8006 49.5843C45.9383 49.2913 46.0482 48.9859 46.1286 48.6723C46.6406 46.8963 47.1366 45.1123 47.6486 43.3363C48.518 40.3123 49.3793 37.315 50.2326 34.3443C50.3182 34.0664 50.385 33.7831 50.4326 33.4963C50.4417 33.3219 50.3935 33.1492 50.2953 33.0048C50.197 32.8603 50.0542 32.752 49.8886 32.6963C49.7155 32.6573 49.5342 32.677 49.3734 32.7523C49.2127 32.8276 49.0815 32.9543 49.0006 33.1123C48.8951 33.3502 48.8095 33.5963 48.7446 33.8483C48.4966 34.6483 48.2646 35.5363 48.0246 36.3763C46.8993 40.3336 45.774 44.2963 44.6486 48.2643C44.5606 48.5443 44.4886 48.8643 44.4006 49.0803ZM57.2006 41.2003C56.9846 41.3843 56.8646 41.4883 56.7366 41.5843L53.2966 44.1443C53.0599 44.3147 52.8402 44.5076 52.6406 44.7203C52.536 44.8477 52.4788 45.0074 52.4788 45.1723C52.4788 45.3372 52.536 45.4969 52.6406 45.6243C52.7301 45.7455 52.8564 45.8344 53.0006 45.8776C53.1449 45.9209 53.2993 45.9162 53.4406 45.8643C53.5955 45.824 53.7418 45.7563 53.8726 45.6643C55.5206 44.4483 57.1767 43.2643 58.8087 41.9923C59.4326 41.5123 59.4007 41.0003 58.8087 40.4563L58.5847 40.2723L54.4486 37.0083C54.271 36.8645 54.0778 36.7411 53.8726 36.6403C53.7243 36.5721 53.5573 36.5564 53.3988 36.5956C53.2404 36.6349 53.1 36.7268 53.0006 36.8563C52.9077 36.9902 52.858 37.1493 52.858 37.3123C52.858 37.4753 52.9077 37.6344 53.0006 37.7683C53.1481 37.941 53.3145 38.0967 53.4966 38.2323C54.2006 38.8003 54.9206 39.3603 55.6326 39.9203L57.2006 41.2003ZM37.8646 40.8723L38.3206 40.4803C39.3393 39.675 40.3526 38.875 41.3606 38.0803C41.5897 37.9005 41.7989 37.6967 41.9846 37.4723C42.0704 37.3566 42.1167 37.2163 42.1167 37.0723C42.1167 36.9283 42.0704 36.788 41.9846 36.6723C41.8949 36.5355 41.7608 36.4338 41.6049 36.3843C41.4491 36.3348 41.2809 36.3404 41.1286 36.4003C40.8944 36.516 40.6743 36.6582 40.4726 36.8243L36.5206 39.9843C36.362 40.0978 36.217 40.2294 36.0886 40.3763C36.0124 40.4508 35.9519 40.5398 35.9106 40.638C35.8692 40.7362 35.8479 40.8417 35.8479 40.9483C35.8479 41.0549 35.8692 41.1604 35.9106 41.2586C35.9519 41.3568 36.0124 41.4458 36.0886 41.5203C36.1788 41.617 36.275 41.7078 36.3766 41.7923L40.9286 45.4403C41.0277 45.5268 41.1381 45.5995 41.2566 45.6563C41.4146 45.742 41.5967 45.772 41.7738 45.7415C41.9508 45.711 42.1125 45.6218 42.2326 45.4883C42.3423 45.3477 42.4018 45.1746 42.4018 44.9963C42.4018 44.818 42.3423 44.6449 42.2326 44.5043C42.0532 44.317 41.8578 44.1457 41.6486 43.9923L38.4486 41.4243C38.2166 41.2003 38.0566 41.0483 37.8246 40.8483L37.8646 40.8723Z" fill="#007BFF"/>
<path d="M27.832 8.98409V2.64809C28.011 2.60006 28.1926 2.56265 28.376 2.53609C28.736 2.53609 29.096 2.53609 29.448 2.53609L50.344 2.39209C51.256 2.39209 52.16 2.39209 53.072 2.39209C53.592 2.39209 54.112 2.39209 54.672 2.44809C55.508 2.49578 56.3093 2.79802 56.9685 3.31424C57.6277 3.83047 58.1133 4.53597 58.36 5.33609C58.7303 6.53922 58.8368 7.80808 58.672 9.05609C58.5594 9.10689 58.4413 9.14447 58.32 9.16809H28.256C28.1083 9.12276 27.9661 9.06104 27.832 8.98409Z" fill="#007BFF"/>
<path d="M36.8646 23.904L20.7686 24.144C20.4436 24.1641 20.1176 24.1641 19.7926 24.144C19.631 24.1215 19.4817 24.0454 19.3685 23.9279C19.2554 23.8104 19.185 23.6583 19.1686 23.496C19.1615 23.3175 19.2144 23.1417 19.3187 22.9967C19.4231 22.8517 19.5731 22.7459 19.7446 22.696C19.9369 22.6575 20.1325 22.6388 20.3286 22.64H21.9846L47.5366 22.264C49.5206 22.264 51.5366 22.216 53.4886 22.2C53.7548 22.1788 54.0224 22.1788 54.2886 22.2C54.4506 22.2276 54.598 22.3104 54.7059 22.4343C54.8138 22.5583 54.8755 22.7157 54.8806 22.88C54.8886 23.0447 54.8386 23.207 54.7391 23.3386C54.6397 23.4702 54.4972 23.5627 54.3366 23.6C54.0487 23.6508 53.757 23.6775 53.4646 23.68L44.8806 23.8L36.8806 23.936L36.8646 23.904Z" fill="#007BFF"/>
<path d="M36.8235 16.1042L20.5275 16.2402C20.2346 16.2603 19.9405 16.2603 19.6475 16.2402C19.461 16.2143 19.2923 16.1156 19.1783 15.9657C19.0644 15.8158 19.0145 15.6268 19.0395 15.4402C19.0437 15.2752 19.1062 15.1171 19.2161 14.994C19.326 14.8709 19.4761 14.7909 19.6395 14.7682C19.9611 14.7349 20.2844 14.7215 20.6075 14.7282L41.7835 14.5442C45.5275 14.5442 49.2635 14.4642 52.9835 14.4242C53.2765 14.4042 53.5705 14.4042 53.8635 14.4242C54.0609 14.4242 54.2501 14.5025 54.3896 14.6421C54.5291 14.7816 54.6075 14.9708 54.6075 15.1682C54.6075 15.3655 54.5291 15.5547 54.3896 15.6942C54.2501 15.8338 54.0609 15.9122 53.8635 15.9122C53.6691 15.9241 53.474 15.9241 53.2795 15.9122L36.7915 16.0722L36.8235 16.1042Z" fill="#007BFF"/>
<path d="M19.9277 9.04006C19.886 8.90196 19.8592 8.75983 19.8477 8.61606C19.8477 6.68006 19.8477 4.73606 19.8477 2.75206C19.9966 2.69259 20.1525 2.65227 20.3117 2.63206C22.093 2.60006 23.877 2.57606 25.6637 2.56006C25.8092 2.57361 25.9536 2.59768 26.0957 2.63206C26.1437 2.74406 26.1997 2.80006 26.1997 2.85606C26.1997 4.73606 26.2557 6.60806 26.2797 8.45606C26.2797 8.61606 26.2797 8.77606 26.2317 8.96806C25.5294 9.09155 24.8142 9.12382 24.1037 9.06406C23.4237 9.06406 22.7437 9.06406 22.0637 9.06406C21.3519 9.10382 20.6383 9.0958 19.9277 9.04006ZM22.7437 6.69606C23.2797 6.69606 23.7357 6.69606 24.1837 6.62406C24.3605 6.60534 24.5242 6.52183 24.6431 6.38963C24.7621 6.25743 24.8279 6.08589 24.8279 5.90806C24.8279 5.73022 24.7621 5.55868 24.6431 5.42648C24.5242 5.29428 24.3605 5.21078 24.1837 5.19206C23.3197 5.14406 22.4477 5.19206 21.5757 5.19206C21.4441 5.20046 21.3187 5.25084 21.2179 5.3358C21.1171 5.42076 21.0462 5.53582 21.0157 5.66406C20.9771 5.76203 20.9614 5.86747 20.9695 5.97242C20.9776 6.07738 21.0094 6.17913 21.0626 6.27C21.1157 6.36088 21.1888 6.43852 21.2763 6.49707C21.3638 6.55563 21.4634 6.59357 21.5677 6.60806C21.9573 6.66321 22.3501 6.6926 22.7437 6.69606Z" fill="#007BFF"/>
<path d="M18.2321 9.02414C15.8918 9.15153 13.5457 9.13016 11.2081 8.96014C11.1718 8.84292 11.1477 8.72229 11.1361 8.60014C11.1361 6.74947 11.1174 4.90147 11.0801 3.05614C11.0896 2.96738 11.114 2.88086 11.1521 2.80014C11.2321 2.80014 11.2801 2.70414 11.3361 2.70414L17.6641 2.64014C17.8241 2.64014 17.9761 2.64014 18.1761 2.68814C18.2831 3.19538 18.3155 3.71554 18.2721 4.23214C18.2721 4.78414 18.2721 5.33614 18.2721 5.88814C18.2721 6.44014 18.2721 6.92814 18.2721 7.48814C18.3036 8.00032 18.2902 8.51428 18.2321 9.02414ZM14.5761 3.60014C14.1281 3.60014 13.6721 3.60014 13.2161 3.60014C12.4721 3.60014 12.2161 3.89614 12.2001 4.61614C12.1841 5.33614 12.2001 6.04014 12.2001 6.76014C12.2001 7.48014 12.5761 7.88814 13.3521 7.86414C14.1281 7.84014 15.1121 7.78414 15.9841 7.71214C16.109 7.72224 16.2347 7.70601 16.353 7.66451C16.4712 7.62301 16.5795 7.55715 16.6707 7.4712C16.7619 7.38525 16.8341 7.28111 16.8826 7.16552C16.931 7.04993 16.9547 6.92545 16.9521 6.80014C16.9921 6.02198 16.9921 5.24229 16.9521 4.46414C16.9511 4.34686 16.9265 4.23097 16.8797 4.12342C16.833 4.01586 16.765 3.91885 16.6798 3.83819C16.5947 3.75752 16.4941 3.69487 16.3842 3.65396C16.2743 3.61306 16.1572 3.59475 16.0401 3.60014C15.5521 3.53614 15.0641 3.60014 14.5761 3.60014Z" fill="#007BFF"/>
<path d="M2.00087 8.4642C1.94487 6.8642 2.00087 5.4322 3.08887 4.2002C3.76237 4.66641 4.38451 5.20274 4.94487 5.8002C4.06529 6.79455 3.07789 7.68804 2.00087 8.4642Z" fill="#007BFF"/>
<path d="M6.22472 6.88037C7.00935 7.51156 7.74976 8.19583 8.44072 8.92837C7.0144 9.1255 5.56991 9.15503 4.13672 9.01637C4.13672 8.92837 4.13672 8.80837 4.13672 8.76037L6.22472 6.88037Z" fill="#007BFF"/>
<path d="M4.48828 3.16014C5.72884 2.73338 7.04595 2.57522 8.35228 2.69614C7.75528 3.48265 7.03377 4.16632 6.21628 4.72014C5.58068 4.27023 5.00063 3.74658 4.48828 3.16014Z" fill="#007BFF"/>
<path d="M9.43908 4.04834C9.60904 5.21016 9.60904 6.39052 9.43908 7.55234C8.71066 7.05822 8.04452 6.47803 7.45508 5.82434C7.89508 5.32834 8.39108 4.96034 8.83108 4.54434C8.99108 4.40034 9.19908 4.26434 9.43908 4.04834Z" fill="#007BFF"/>
<path d="M44.401 49.0801C44.457 48.8641 44.529 48.5441 44.617 48.2321C45.737 44.2748 46.8623 40.3121 47.993 36.3441C48.233 35.5041 48.465 34.6561 48.713 33.8161C48.7778 33.5641 48.8635 33.3179 48.969 33.0801C49.0499 32.922 49.181 32.7954 49.3418 32.7201C49.5025 32.6448 49.6838 32.6251 49.857 32.6641C50.0226 32.7198 50.1654 32.8281 50.2636 32.9725C50.3618 33.117 50.4101 33.2896 50.401 33.4641C50.3533 33.7509 50.2865 34.0342 50.201 34.3121C49.3743 37.3361 48.5343 40.3441 47.681 43.3361C47.169 45.1121 46.673 46.8961 46.161 48.6721C46.0805 48.9857 45.9707 49.2911 45.833 49.5841C45.7547 49.7462 45.6179 49.8726 45.4502 49.9379C45.2825 50.0032 45.0963 50.0025 44.929 49.9361C44.7563 49.8753 44.6097 49.7572 44.5136 49.6014C44.4176 49.4457 44.3778 49.2616 44.401 49.0801Z" fill="white"/>
<path d="M57.1992 41.2L55.5992 39.92C54.8872 39.36 54.1672 38.8 53.4632 38.232C53.281 38.0964 53.1147 37.9407 52.9672 37.768C52.8743 37.6341 52.8245 37.475 52.8245 37.312C52.8245 37.149 52.8743 36.9899 52.9672 36.856C53.0665 36.7265 53.2069 36.6346 53.3654 36.5953C53.5238 36.5561 53.6909 36.5718 53.8392 36.64C54.0443 36.7408 54.2375 36.8643 54.4152 37.008L58.5512 40.272L58.7752 40.456C59.3832 41 59.4152 41.512 58.7752 41.992C57.1752 43.24 55.4872 44.448 53.8392 45.664C53.7083 45.756 53.562 45.8238 53.4072 45.864C53.2658 45.916 53.1114 45.9206 52.9672 45.8774C52.8229 45.8341 52.6966 45.7452 52.6072 45.624C52.5025 45.4966 52.4453 45.3369 52.4453 45.172C52.4453 45.0072 52.5025 44.8474 52.6072 44.72C52.8067 44.5073 53.0264 44.3144 53.2632 44.144L56.7032 41.584C56.8232 41.464 56.9432 41.36 57.1992 41.2Z" fill="white"/>
<path d="M37.8237 40.8479C38.0557 41.0479 38.2157 41.2079 38.3917 41.3439L41.5917 43.9119C41.8009 44.0653 41.9963 44.2366 42.1757 44.4239C42.2853 44.5645 42.3449 44.7377 42.3449 44.9159C42.3449 45.0942 42.2853 45.2674 42.1757 45.4079C42.0555 45.5415 41.8939 45.6306 41.7168 45.6611C41.5398 45.6916 41.3576 45.6616 41.1997 45.5759C41.0811 45.5191 40.9708 45.4464 40.8717 45.3599L36.3197 41.7119C36.218 41.6275 36.1218 41.5366 36.0317 41.4399C35.9555 41.3654 35.895 41.2765 35.8536 41.1782C35.8123 41.08 35.791 40.9745 35.791 40.8679C35.791 40.7614 35.8123 40.6559 35.8536 40.5577C35.895 40.4594 35.9555 40.3705 36.0317 40.2959C36.1601 40.149 36.305 40.0174 36.4637 39.9039L40.3997 36.7439C40.6014 36.5779 40.8215 36.4356 41.0557 36.3199C41.2079 36.2601 41.3761 36.2544 41.532 36.3039C41.6879 36.3535 41.822 36.4552 41.9117 36.5919C41.9974 36.7077 42.0437 36.8479 42.0437 36.9919C42.0437 37.136 41.9974 37.2762 41.9117 37.3919C41.726 37.6163 41.5168 37.8201 41.2877 37.9999C40.2797 38.8159 39.2664 39.6159 38.2477 40.3999L37.8237 40.8479Z" fill="white"/>
<path d="M22.7448 6.69618C22.3541 6.69503 21.964 6.66831 21.5768 6.61618C21.4725 6.6017 21.3729 6.56375 21.2854 6.5052C21.1979 6.44664 21.1249 6.369 21.0717 6.27813C21.0186 6.18725 20.9868 6.0855 20.9786 5.98055C20.9705 5.87559 20.9863 5.77016 21.0248 5.67218C21.0554 5.54394 21.1262 5.42888 21.227 5.34392C21.3278 5.25896 21.4532 5.20858 21.5848 5.20018C22.4568 5.20018 23.3288 5.14418 24.1928 5.20018C24.3697 5.2189 24.5333 5.30241 24.6523 5.43461C24.7712 5.56681 24.837 5.73835 24.837 5.91618C24.837 6.09402 24.7712 6.26556 24.6523 6.39776C24.5333 6.52996 24.3697 6.61346 24.1928 6.63218C23.7368 6.66418 23.2808 6.67218 22.7448 6.69618Z" fill="white"/>
<path d="M14.5759 3.60012C15.0639 3.60012 15.5519 3.60012 16.0399 3.60012C16.1639 3.59079 16.2884 3.60806 16.4051 3.65077C16.5218 3.69348 16.628 3.76065 16.7167 3.84777C16.8053 3.93489 16.8743 4.03995 16.919 4.15591C16.9637 4.27187 16.9831 4.39604 16.9759 4.52012C17.0159 5.29827 17.0159 6.07796 16.9759 6.85612C16.9774 6.98004 16.9531 7.10291 16.9046 7.21696C16.8561 7.33101 16.7845 7.43376 16.6942 7.51872C16.604 7.60368 16.4972 7.669 16.3804 7.71055C16.2637 7.7521 16.1395 7.76898 16.0159 7.76012C15.1439 7.83212 14.2639 7.88812 13.3839 7.91212C12.5039 7.93612 12.2319 7.60012 12.2079 6.80012C12.1839 6.00012 12.2079 5.36812 12.2079 4.65612C12.2079 3.94412 12.4719 3.65612 13.1999 3.60012H14.5759ZM15.3839 5.11212C14.8486 5.05252 14.307 5.08772 13.7839 5.21612C13.7839 5.58412 13.6639 5.92812 13.9119 6.25612C14.4145 6.28209 14.9183 6.2363 15.4079 6.12012L15.3839 5.11212Z" fill="white"/>
<path d="M15.6005 5.20022V6.00022C15.5998 6.09893 15.564 6.19417 15.4995 6.26891C15.435 6.34366 15.3461 6.39303 15.2485 6.40822C14.8391 6.44786 14.4278 6.46388 14.0165 6.45622C13.9286 6.4571 13.8429 6.42839 13.7733 6.37471C13.7036 6.32102 13.6541 6.24548 13.6325 6.16022C13.5964 5.86264 13.5964 5.5618 13.6325 5.26422C13.636 5.17897 13.6678 5.0973 13.7228 5.03211C13.7779 4.96692 13.8531 4.92192 13.9365 4.90422C14.3627 4.83974 14.7939 4.81564 15.2245 4.83222C15.3211 4.83773 15.4124 4.87804 15.4816 4.9457C15.5507 5.01336 15.593 5.10378 15.6005 5.20022Z" fill="#007BFF"/>
</svg>
