<svg width="52" height="50" viewBox="0 0 52 50" fill="none" xmlns="http://www.w3.org/2000/svg">
<path d="M12.7115 2.25146C13.8876 2.25146 14.841 3.20487 14.841 4.38096C14.841 5.55704 13.8876 6.51045 12.7115 6.51045C11.5354 6.51045 10.582 5.55704 10.582 4.38096C10.582 3.20487 11.5354 2.25146 12.7115 2.25146Z" stroke="white" stroke-width="1.5"/>
<path d="M39.3307 2.25146C40.5067 2.25146 41.4602 3.20487 41.4602 4.38096C41.4602 5.55704 40.5067 6.51045 39.3307 6.51045C38.1546 6.51045 37.2012 5.55704 37.2012 4.38096C37.2012 3.20487 38.1546 2.25146 39.3307 2.25146Z" stroke="white" stroke-width="1.5"/>
<path d="M45.7193 7.5752C46.8954 7.5752 47.8488 8.5286 47.8488 9.70469C47.8488 10.8808 46.8954 11.8342 45.7193 11.8342C44.5432 11.8342 43.5898 10.8808 43.5898 9.70469C43.5898 8.5286 44.5432 7.5752 45.7193 7.5752Z" stroke="white" stroke-width="1.5"/>
<path d="M26.5533 7.5752C27.7294 7.5752 28.6828 8.5286 28.6828 9.70469C28.6828 10.8808 27.7294 11.8342 26.5533 11.8342C25.3772 11.8342 24.4238 10.8808 24.4238 9.70469C24.4238 8.5286 25.3772 7.5752 26.5533 7.5752Z" stroke="white" stroke-width="1.5"/>
<path d="M18.0357 18.2227C19.2118 18.2227 20.1652 19.1761 20.1652 20.3521C20.1652 21.5282 19.2118 22.4816 18.0357 22.4816C16.8597 22.4816 15.9062 21.5282 15.9062 20.3521C15.9062 19.1761 16.8597 18.2227 18.0357 18.2227Z" stroke="white" stroke-width="1.5"/>
<path d="M3.12949 19.2871C4.30558 19.2871 5.25898 20.2405 5.25898 21.4166C5.25898 22.5927 4.30558 23.5461 3.12949 23.5461C1.95341 23.5461 1 22.5927 1 21.4166C1 20.2405 1.95341 19.2871 3.12949 19.2871Z" stroke="white" stroke-width="1.5"/>
<path d="M13.776 41.647C14.9521 41.647 15.9055 42.6004 15.9055 43.7765C15.9055 44.9525 14.9521 45.906 13.776 45.906C12.5999 45.906 11.6465 44.9525 11.6465 43.7765C11.6465 42.6004 12.5999 41.647 13.776 41.647Z" stroke="white" stroke-width="1.5"/>
<path d="M39.3307 42.7119C40.5067 42.7119 41.4602 43.6653 41.4602 44.8414C41.4602 46.0175 40.5067 46.9709 39.3307 46.9709C38.1546 46.9709 37.2012 46.0175 37.2012 44.8414C37.2012 43.6653 38.1546 42.7119 39.3307 42.7119Z" stroke="white" stroke-width="1.5"/>
<path d="M38.2662 24.6108C39.4423 24.6108 40.3957 25.5642 40.3957 26.7403C40.3957 27.9164 39.4423 28.8698 38.2662 28.8698C37.0901 28.8698 36.1367 27.9164 36.1367 26.7403C36.1367 25.5642 37.0901 24.6108 38.2662 24.6108Z" stroke="white" stroke-width="1.5"/>
<path d="M5.25977 20.8846C8.24105 20.0328 13.6003 19.8198 15.9072 19.8198" stroke="white" stroke-width="1.5"/>
<path d="M20.166 20.3521C26.5545 20.7779 33.8302 23.7237 36.6696 25.1434" stroke="white" stroke-width="1.5"/>
<path d="M40.3965 27.2729C42.1001 28.1247 46.43 31.8868 48.3821 33.6614" stroke="white" stroke-width="1.5"/>
<path d="M16.4394 22.4814C13.884 27.5922 12.7128 36.8555 13.2452 41.1145" stroke="white" stroke-width="1.5"/>
<path d="M19.1016 18.2226C22.0828 13.9636 24.7802 11.6567 25.49 11.3018" stroke="white" stroke-width="1.5"/>
<path d="M28.6836 9.17241C32.5167 6.19112 35.9594 5.62326 37.2016 5.4458" stroke="white" stroke-width="1.5"/>
<path d="M14.8401 5.28456C20.3391 5.97311 23.2922 8.30841 24.3319 9.17338" stroke="white" stroke-width="1.5"/>
<path d="M45.1862 11.834C43.4826 18.2225 40.3948 23.0138 39.3301 24.6109" stroke="white" stroke-width="1.5"/>
<path d="M36.6696 28.3379C29.2164 37.9206 20.1661 41.6472 16.4395 43.2443" stroke="white" stroke-width="1.5"/>
<path d="M28.1504 11.3018C33.2612 15.1348 36.6684 21.7718 37.7331 24.6111" stroke="white" stroke-width="1.5"/>
<path d="M39.3301 28.8701C40.1819 31.4255 40.3948 33.1291 40.3948 33.6615" stroke="white" stroke-width="1.5"/>
<path d="M40.3965 36.3232C40.9289 39.5175 40.0356 42.2077 39.8641 42.7117" stroke="white" stroke-width="1.5"/>
<path d="M15.375 45.3735C24.4253 50.6973 32.4109 48.0354 37.2023 45.9059" stroke="white" stroke-width="1.5"/>
<path d="M14.3086 4.38088C23.8913 -1.47512 34.5388 1.71912 37.2006 3.31619" stroke="white" stroke-width="1.5"/>
<path d="M46.2523 11.3018C55.3026 24.6111 47.317 38.9851 41.4609 43.7765" stroke="white" stroke-width="1.5"/>
<path d="M43.5904 8.10752L41.4609 5.97803" stroke="white" stroke-width="1.5"/>
<path d="M11.115 6.51025L8.45312 9.17212" stroke="white" stroke-width="1.5"/>
<path d="M6.85635 11.3018C4.72685 14.7089 3.83957 17.6902 3.66211 18.755" stroke="white" stroke-width="1.5"/>
<path d="M3.13032 23.5464C1.53316 33.6615 7.92161 41.6471 11.6483 43.2442" stroke="white" stroke-width="1.5"/>
</svg>
