<svg width="50" height="38" viewBox="0 0 50 38" fill="none" xmlns="http://www.w3.org/2000/svg">
<path d="M1 34V4C1 2.34315 2.34315 1 4 1H46C47.6569 1 49 2.34314 49 4V34C49 35.6569 47.6569 37 46 37H4C2.34315 37 1 35.6569 1 34Z" stroke="white" stroke-width="1.5"/>
<path d="M29.5 13H43.5" stroke="white" stroke-width="1.5"/>
<path d="M29.5 19H43.5" stroke="white" stroke-width="1.5"/>
<path d="M29.5 25H43.5" stroke="white" stroke-width="1.5"/>
<path d="M22.2622 28.8412C19.7496 18.649 8.47524 21.069 7.11885 28.9471C7.02144 29.5129 7.48301 29.9998 8.0571 29.9998H21.3195C21.9375 29.9998 22.4101 29.4412 22.2622 28.8412Z" stroke="white" stroke-width="1.5"/>
<path d="M14.7496 9C17.1342 9 19.1039 10.8694 19.2361 13.2504C19.3792 15.8258 17.3298 18 14.7504 18C12.3658 18 10.3961 16.1306 10.2639 13.7496C10.1208 11.1742 12.1702 9 14.7496 9Z" stroke="white" stroke-width="1.5"/>
</svg>
