<svg width="60" height="60" viewBox="0 0 60 60" fill="none" xmlns="http://www.w3.org/2000/svg">
<path d="M0 8.5H1.5" stroke="#007BFF" stroke-width="1.5"/>
<path d="M4 8.5H18" stroke="#007BFF" stroke-width="1.5"/>
<path d="M8 46H2C1.44772 46 1 45.5523 1 45V13.5C1 12.9477 1.44772 12.5 2 12.5H7" stroke="#007BFF" stroke-width="1.5"/>
<path d="M1 41.5H6.5" stroke="#007BFF" stroke-width="1.5"/>
<path d="M21.5 41H39.5" stroke="#007BFF" stroke-width="1.5"/>
<path d="M14.5 44.5V46" stroke="#007BFF" stroke-width="1.5"/>
<path d="M49 44.5V46" stroke="#007BFF" stroke-width="1.5"/>
<path d="M56 41H60" stroke="#007BFF" stroke-width="1.5"/>
<path d="M37.5 45.5H43" stroke="#007BFF" stroke-width="1.5"/>
<path d="M48.5 51C51.5376 51 54 48.5376 54 45.5C54 42.4624 51.5376 40 48.5 40C45.4624 40 43 42.4624 43 45.5C43 48.5376 45.4624 51 48.5 51Z" stroke="#007BFF" stroke-width="1.5"/>
<path d="M4 11.5H5.5" stroke="white" stroke-width="1.5"/>
<path d="M4 15H5.5" stroke="white" stroke-width="1.5"/>
<path d="M4 19H5.5" stroke="white" stroke-width="1.5"/>
<path d="M4 23H5.5" stroke="white" stroke-width="1.5"/>
<path d="M24 22C24 23.1046 24.8954 24 26 24C27.1046 24 28 23.1046 28 22C28 20.8954 27.1046 20 26 20C24.8954 20 24 20.8954 24 22Z" stroke="white" stroke-width="1.5"/>
<path d="M39 19C39 20.1046 39.8954 21 41 21C42.1046 21 43 20.1046 43 19C43 17.8954 42.1046 17 41 17C39.8954 17 39 17.8954 39 19Z" stroke="white" stroke-width="1.5"/>
<path d="M33 13C33 14.1046 33.8954 15 35 15C36.1046 15 37 14.1046 37 13C37 11.8954 36.1046 11 35 11C33.8954 11 33 11.8954 33 13Z" stroke="white" stroke-width="1.5"/>
<path d="M36 14.5L39 17.5" stroke="white" stroke-width="1.5"/>
<path d="M42.5 17.5L49.5 10.5" stroke="white" stroke-width="1.5"/>
<path d="M27 20.5L33.5 14" stroke="white" stroke-width="1.5"/>
<path d="M7.5 11.5H21" stroke="white" stroke-width="1.5"/>
<path d="M7.5 15H21" stroke="white" stroke-width="1.5"/>
<path d="M7.5 19H21" stroke="white" stroke-width="1.5"/>
<path d="M7.5 23H21" stroke="white" stroke-width="1.5"/>
<path d="M7.5 19H21" stroke="white" stroke-width="1.5"/>
<path d="M53 7L1 7.5V45H53V7Z" stroke="white" stroke-width="1.5"/>
<path d="M9 33H4.5V41H9V33Z" stroke="white" stroke-width="1.5"/>
<path d="M16 35H11V41H16V35Z" stroke="white" stroke-width="1.5"/>
<path d="M23 27H18V41H23V27Z" stroke="white" stroke-width="1.5"/>
<path d="M30 31H25V41H30V31Z" stroke="white" stroke-width="1.5"/>
<path d="M48 6.5C48 9.53757 50.4624 12 53.5 12C56.5376 12 59 9.53757 59 6.5C59 3.46243 56.5376 1 53.5 1C50.4624 1 48 3.46243 48 6.5Z" fill="#007BFF" stroke="white" stroke-width="1.5"/>
<path d="M30 44.5C30 52.5081 36.4919 59 44.5 59C52.5081 59 59 52.5081 59 44.5C59 36.4919 52.5081 30 44.5 30C36.4919 30 30 36.4919 30 44.5Z" fill="#007BFF"/>
<path d="M44.5 30V30C36.4919 30 30 36.4919 30 44.5V44.5C30 52.5081 36.4919 59 44.5 59V59C52.5081 59 59 52.5081 59 44.5V44.5C59 36.4919 52.5081 30 44.5 30V30ZM44.5 30V37" stroke="white" stroke-width="1.5"/>
<path d="M31 51.5L37.5 47.5" stroke="white" stroke-width="1.5"/>
<path d="M37 44.5C37 48.6421 40.3579 52 44.5 52C48.6421 52 52 48.6421 52 44.5C52 40.3579 48.6421 37 44.5 37C40.3579 37 37 40.3579 37 44.5Z" stroke="white" stroke-width="1.5"/>
<path d="M40 44.5C40 46.9853 42.0147 49 44.5 49C46.9853 49 49 46.9853 49 44.5C49 42.0147 46.9853 40 44.5 40C42.0147 40 40 42.0147 40 44.5Z" stroke="white" stroke-width="1.5"/>
<path d="M51.5 47.5L57 51" stroke="white" stroke-width="1.5"/>
</svg>
