<svg width="50" height="45" viewBox="0 0 50 45" fill="none" xmlns="http://www.w3.org/2000/svg">
<path d="M18.6738 0V8.23816" stroke="white" stroke-width="1.5"/>
<path d="M41.1902 4.39355H47.8791C48.4314 4.39355 48.8791 4.84127 48.8791 5.39355V42.3875C48.8791 42.9398 48.4314 43.3875 47.8791 43.3875H10.3359C9.78365 43.3875 9.33594 42.9398 9.33594 42.3875V37.8954" stroke="white" stroke-width="1.5"/>
<path d="M48.8797 18.1238C47.305 29.6721 41.8838 35.8688 39.809 37.6731C39.6376 37.8221 39.4195 37.8954 39.1924 37.8954H2.41421C1.52331 37.8954 1.13028 36.8773 1.76533 36.2525C5.00833 33.0617 10.4894 25.7379 9.40005 5.4725C9.36906 4.89598 9.8251 4.39355 10.4024 4.39355H41.74" stroke="white" stroke-width="1.5"/>
<path d="M9.33594 13.7305H48.3299" stroke="white" stroke-width="1.5"/>
<path d="M29.6582 0V8.23816" stroke="white" stroke-width="1.5"/>
<path d="M40.6406 0V8.23816" stroke="white" stroke-width="1.5"/>
</svg>
