<svg width="40" height="57" viewBox="0 0 40 57" fill="none" xmlns="http://www.w3.org/2000/svg">
<path d="M38 6.09521H2C1.44772 6.09521 1 6.54293 1 7.09521V54.3765C1 54.9287 1.44772 55.3765 2 55.3765H38C38.5523 55.3765 39 54.9287 39 54.3765V7.09521C39 6.54293 38.5523 6.09521 38 6.09521Z" stroke="white" stroke-width="1.5"/>
<path d="M1 14.4077H39" stroke="white" stroke-width="1.5"/>
<path d="M8.125 10.8452H31.875" stroke="white" stroke-width="1.5"/>
<path d="M14.6562 22.7202H34.25" stroke="white" stroke-width="1.5"/>
<path d="M14.6562 31.0327H34.25" stroke="white" stroke-width="1.5"/>
<path d="M14.6562 39.3452H34.25" stroke="white" stroke-width="1.5"/>
<path d="M14.6562 47.6577H34.25" stroke="white" stroke-width="1.5"/>
<path d="M6.9375 21.5327L8.06667 23.0383C8.41769 23.5063 9.09377 23.5744 9.53103 23.1857L14.0625 19.1577" stroke="white" stroke-width="1.5"/>
<path d="M6.9375 29.8452L8.06667 31.3508C8.41769 31.8188 9.09377 31.8869 9.53103 31.4982L14.0625 27.4702" stroke="white" stroke-width="1.5"/>
<path d="M6.9375 38.1577L8.06667 39.6633C8.41769 40.1313 9.09377 40.1994 9.53103 39.8107L14.0625 35.7827" stroke="white" stroke-width="1.5"/>
<path d="M6.9375 46.4702L8.06667 47.9758C8.41769 48.4438 9.09377 48.5119 9.53103 48.1232L14.0625 44.0952" stroke="white" stroke-width="1.5"/>
<path d="M14.6562 6.09502C17.625 -2.81122 24.75 1.93875 25.3438 5.50128" stroke="white" stroke-width="1.5"/>
</svg>
