<svg width="56" height="45" viewBox="0 0 56 45" fill="none" xmlns="http://www.w3.org/2000/svg">
<path d="M1 41V4C1 2.34315 2.34315 1 4 1H51.9649C53.6354 1 54.9841 2.3645 54.9647 4.03488L54.5345 41.0349C54.5154 42.678 53.1779 44 51.5347 44H4C2.34315 44 1 42.6569 1 41Z" stroke="white" stroke-width="1.5"/>
<path d="M32.5 4.5H5.5C4.94772 4.5 4.5 4.94772 4.5 5.5V32.5C4.5 33.0523 4.94772 33.5 5.5 33.5H32.5C33.0523 33.5 33.5 33.0523 33.5 32.5V5.5C33.5 4.94772 33.0523 4.5 32.5 4.5Z" stroke="white" stroke-width="1.5"/>
<path d="M37 10V5C37 4.44772 37.4477 4 38 4H50C50.5523 4 51 4.44772 51 5V10C51 10.5523 50.5523 11 50 11H38C37.4477 11 37 10.5523 37 10Z" stroke="white" stroke-width="1.5"/>
<path d="M37 21.5V16.5C37 15.9477 37.4477 15.5 38 15.5H50C50.5523 15.5 51 15.9477 51 16.5V21.5C51 22.0523 50.5523 22.5 50 22.5H38C37.4477 22.5 37 22.0523 37 21.5Z" stroke="white" stroke-width="1.5"/>
<path d="M37 33V28C37 27.4477 37.4477 27 38 27H50C50.5523 27 51 27.4477 51 28V33C51 33.5523 50.5523 34 50 34H38C37.4477 34 37 33.5523 37 33Z" stroke="white" stroke-width="1.5"/>
<path d="M47 8H48.5" stroke="white" stroke-width="1.5"/>
<path d="M47 18.5H48.5" stroke="white" stroke-width="1.5"/>
<path d="M47 30H48.5" stroke="white" stroke-width="1.5"/>
<path d="M8 23L8 34" stroke="white" stroke-width="1.5"/>
<path d="M11.5 26V33.5" stroke="white" stroke-width="1.5"/>
<path d="M15 23L15 33" stroke="white" stroke-width="1.5"/>
<path d="M19 27V33.5" stroke="white" stroke-width="1.5"/>
<path d="M22.5 26V33.5" stroke="white" stroke-width="1.5"/>
<path d="M26 29V33" stroke="white" stroke-width="1.5"/>
<path d="M30 26V33.5" stroke="white" stroke-width="1.5"/>
<path d="M4.5 16.0482C8.5 16.0482 8 15.5482 9.5 17.0482C12 19.0482 13 16.3816 14 15.5482C15.6483 14.1746 16.6537 15.7359 17.3234 16.3928C17.4342 16.5015 17.5354 16.6217 17.609 16.7584C18.3447 18.1258 19.0706 18.4485 19.5871 18.5246C19.8495 18.5633 20.1033 18.4375 20.3051 18.2654C21.8583 16.9412 22.8803 17.8588 23.6379 18.3493C23.8605 18.4934 24.0565 18.6885 24.1734 18.9265C25.6257 21.8833 27.4739 20.5572 28.45 19.5976C28.4838 19.5645 28.5143 19.5291 28.5426 19.4912L29.7 17.9482C29.8889 17.6964 30.1852 17.5482 30.5 17.5482H33" stroke="white" stroke-width="1.5"/>
<path d="M40 8H41.5" stroke="white" stroke-width="1.5"/>
<path d="M40 18.5H41.5" stroke="white" stroke-width="1.5"/>
<path d="M40 30H41.5" stroke="white" stroke-width="1.5"/>
<path d="M43.5 8H45" stroke="white" stroke-width="1.5"/>
<path d="M43.5 18.5H45" stroke="white" stroke-width="1.5"/>
<path d="M43.5 30H45" stroke="white" stroke-width="1.5"/>
</svg>
