<svg width="29" height="29" viewBox="0 0 29 29" fill="none" xmlns="http://www.w3.org/2000/svg">
<path d="M28.1732 19.8965L26.2632 16.0006V14.3505C26.2632 11.581 24.5755 8.1301 21.2978 6.41972C19.7029 2.89003 16.0979 0 11.1105 0C4.98495 0 0 4.7302 0 10.545C0 13.4536 1.2383 16.1791 3.43158 18.1653L1.9637 23.651C1.71213 24.5896 2.06628 25.5885 2.8625 26.1957C3.32412 26.5503 3.90785 26.7427 4.5038 26.7427C4.9068 26.7427 5.31468 26.6523 5.67616 26.4785L10.1555 24.3463L9.22253 27.8342C9.12728 28.1888 9.25917 28.5643 9.56203 28.7937C9.86 29.0232 10.2752 29.0649 10.6171 28.9003L16.7842 25.9616H24.9907C25.6917 25.9616 26.2632 25.4216 26.2632 24.7588V21.447L27.8874 20.6706C28.1903 20.5292 28.3148 20.1862 28.1732 19.8965ZM22.2113 16.8674L20.5871 17.6438V20.951C20.5871 21.6162 20.0204 22.1585 19.3194 22.1585H11.1105L10.6855 22.3601L4.94343 25.0949C4.59661 25.2594 4.18384 25.2177 3.88587 24.9859C3.58301 24.7565 3.45601 24.3834 3.54638 24.0311L5.26095 17.6183C3.05301 15.9728 1.63397 13.4188 1.63397 10.545C1.63397 5.57612 5.87643 1.55047 11.1081 1.55047C14.7692 1.55047 17.4022 3.33038 18.9482 5.57612C20.0326 7.15208 20.5871 8.96212 20.5871 10.545V12.1952L22.4995 16.0887C22.6436 16.3784 22.5141 16.726 22.2113 16.8674Z" fill="#007BFF"/>
<path d="M22.2101 16.8674L20.5859 17.6438V20.951C20.5859 21.6161 20.0193 22.1584 19.3183 22.1584H11.1094L10.6844 22.3601L4.94228 25.0948C4.59545 25.2594 4.18269 25.2176 3.88471 24.9859C3.58185 24.7564 3.45485 24.3833 3.54522 24.031L5.25979 17.6183C3.05185 15.9728 1.63281 13.4188 1.63281 10.545C1.63281 5.57608 5.87528 1.55042 11.1069 1.55042C14.7681 1.55042 17.401 3.33033 18.947 5.57608C20.0315 7.15204 20.5859 8.96207 20.5859 10.545V12.1951L22.4983 16.0887C22.6424 16.3784 22.513 16.726 22.2101 16.8674Z" fill="white"/>
</svg>
