<svg width="65" height="62" viewBox="0 0 65 62" fill="none" xmlns="http://www.w3.org/2000/svg">
<path d="M28.0553 46.6479C28.2473 49.2639 28.4713 51.7359 28.6153 54.1999C28.7593 56.6639 28.9353 59.1439 28.9273 61.6799C28.7088 61.7287 28.4868 61.7608 28.2633 61.7759C26.5753 61.7759 24.8953 61.7759 23.2073 61.7759C18.7193 61.7759 14.2313 61.7759 9.74334 61.7759C9.39934 61.7759 9.05534 61.7759 8.69534 61.7759C8.61103 61.3265 8.61103 60.8653 8.69534 60.4159C8.99934 57.4079 9.30868 54.4053 9.62334 51.4079C9.71934 50.5199 9.82334 49.6399 9.91134 48.7519C10.0154 48.2415 10.045 47.7188 9.99934 47.1999C9.71001 47.6682 9.47388 48.1673 9.29534 48.6879C9.09534 49.1599 8.91934 49.6319 8.73534 50.1119C8.55134 50.5919 8.36734 51.0559 8.19934 51.5359C8.03134 52.0159 7.84734 52.4879 7.67934 52.9679C7.51134 53.4479 7.34334 53.9279 7.18334 54.4079C7.02334 54.8879 6.87135 55.3759 6.71935 55.8639C6.56735 56.3519 6.41534 56.8319 6.27134 57.3199C6.12734 57.8079 5.99134 58.2959 5.85534 58.7919L5.47134 60.2639L5.09534 61.7039C3.57556 61.8365 2.04713 61.8365 0.527344 61.7039C0.575344 61.4319 0.615343 61.1519 0.679343 60.9039C1.83528 55.9824 3.49191 51.1921 5.62334 46.6079C6.36441 45.0229 7.2006 43.4841 8.12734 41.9999C9.04042 40.5507 10.1139 39.2089 11.3273 37.9999C12.6991 36.6646 14.3651 35.67 16.1913 35.0959C16.3078 35.0405 16.4318 35.0027 16.5593 34.9839C17.5746 34.9279 18.5921 34.9279 19.6073 34.9839C20.4234 35.1283 21.2261 35.3396 22.0073 35.6159C22.9513 35.9038 23.8218 36.3923 24.5593 37.0479C25.3593 37.7599 26.1593 38.4799 26.9193 39.2719C28.1558 40.5997 29.5502 41.771 31.0713 42.7599C32.3131 43.602 33.7029 44.2018 35.1673 44.5279C35.8946 44.7191 36.66 44.71 37.3825 44.5016C38.105 44.2932 38.7577 43.8931 39.2713 43.3439C39.8473 42.7519 40.3673 42.1039 40.8713 41.4639C41.3753 40.8239 41.8873 40.1599 42.4073 39.5199C42.7802 39.0395 43.2488 38.6418 43.7833 38.3519C44.1521 38.1412 44.5727 38.0384 44.9971 38.0554C45.4215 38.0724 45.8326 38.2084 46.1833 38.4479C46.441 38.6083 46.6544 38.8308 46.8039 39.0949C46.9534 39.359 47.0344 39.6564 47.0393 39.9599C47.0763 40.4076 47.0049 40.8576 46.8313 41.2719C46.5951 41.8514 46.3171 42.4129 45.9993 42.9519C44.8187 44.8124 43.3054 46.4396 41.5353 47.7519C40.5157 48.5199 39.355 49.0798 38.1193 49.3999C36.6851 49.7259 35.1923 49.6901 33.7753 49.2959C32.0795 48.8451 30.4613 48.1412 28.9753 47.2079C28.7113 47.0319 28.4393 46.8799 28.0553 46.6479Z" fill="white"/>
<path d="M38.0864 36.8004C38.0129 36.5023 38.0469 36.1878 38.1824 35.9124C38.6784 34.2004 39.1664 32.4884 39.6624 30.7844C39.7956 30.4915 39.8374 30.1653 39.7824 29.8484C39.378 29.7425 38.957 29.7154 38.5424 29.7684C37.8421 29.7656 37.1481 29.6355 36.4944 29.3844C35.9151 29.1977 35.3986 28.8546 35.0019 28.393C34.6052 27.9314 34.3438 27.3692 34.2464 26.7684C34.1492 26.27 34.0957 25.7641 34.0864 25.2564C34.0864 22.1364 34.0384 19.0244 34.0224 15.9044C34.0062 14.7883 34.2073 13.6797 34.6144 12.6404C34.8416 12.008 35.2175 11.4396 35.7103 10.9829C36.2032 10.5263 36.7986 10.1948 37.4464 10.0164C37.9008 9.87719 38.3666 9.77814 38.8384 9.72037C39.7584 9.63237 40.6784 9.56837 41.5984 9.56037C47.1984 9.56037 52.7344 9.50437 58.3024 9.47237C59.2589 9.45703 60.2118 9.59201 61.1264 9.87237C62.1306 10.1985 63.0231 10.8 63.7024 11.6084C64.1355 12.1227 64.4131 12.7499 64.5024 13.4164C64.6237 14.5213 64.6612 15.6338 64.6144 16.7444V22.4644C64.7461 23.8861 64.6733 25.3193 64.3984 26.7204C64.2245 27.4547 63.8407 28.1225 63.2938 28.6424C62.7469 29.1623 62.0605 29.5118 61.3184 29.6484C60.6287 29.7634 59.9289 29.8063 59.2304 29.7764L52.3984 29.7604C51.2464 29.7604 50.1024 29.7604 48.9584 29.7604C48.5141 29.7489 48.0793 29.8901 47.7264 30.1604C44.7824 32.2084 41.8277 34.2537 38.8624 36.2964C38.6304 36.4564 38.3664 36.6164 38.0864 36.8004ZM49.3504 18.9844H39.5104C39.3854 18.9722 39.2594 18.9722 39.1344 18.9844C38.9623 19.0151 38.8049 19.1013 38.6865 19.2299C38.568 19.3585 38.4949 19.5223 38.4784 19.6964C38.478 19.8732 38.5405 20.0444 38.6549 20.1792C38.7692 20.3141 38.9279 20.4038 39.1024 20.4324C39.4141 20.4858 39.7304 20.5072 40.0464 20.4964H58.5744C58.7664 20.4964 58.9584 20.4964 59.1504 20.4964C59.3059 20.4844 59.4592 20.4522 59.6064 20.4004C59.7586 20.3453 59.8875 20.24 59.9719 20.1018C60.0562 19.9637 60.091 19.8009 60.0704 19.6404C60.062 19.48 59.9972 19.3278 59.8874 19.2107C59.7776 19.0935 59.6299 19.019 59.4704 19.0004C59.1544 18.9642 58.8364 18.9482 58.5184 18.9524L49.3504 18.9844ZM48.9104 15.6724V15.6244H57.9984C58.2834 15.6445 58.5694 15.6445 58.8544 15.6244C59.029 15.6011 59.1893 15.5154 59.3055 15.383C59.4217 15.2506 59.486 15.0805 59.4864 14.9044C59.4932 14.7279 59.4364 14.5548 59.3263 14.4168C59.2161 14.2787 59.06 14.1849 58.8864 14.1524C58.6202 14.1301 58.3526 14.1301 58.0864 14.1524L39.7824 14.2724C39.5264 14.2724 39.2704 14.2724 38.9824 14.3124C38.8716 14.3209 38.7646 14.3568 38.671 14.4168C38.5775 14.4769 38.5003 14.5592 38.4464 14.6564C38.3877 14.7518 38.3519 14.8594 38.3416 14.9709C38.3314 15.0824 38.347 15.1948 38.3872 15.2993C38.4275 15.4038 38.4913 15.4976 38.5737 15.5734C38.6561 15.6492 38.7549 15.705 38.8624 15.7364C39.1724 15.803 39.4896 15.8299 39.8064 15.8164L48.9104 15.6724ZM44.8384 25.3764V25.4884H49.8944C50.1467 25.4952 50.3989 25.4737 50.6464 25.4244C50.8085 25.3837 50.9518 25.2885 51.052 25.1547C51.1522 25.0209 51.2033 24.8567 51.1968 24.6896C51.1902 24.5226 51.1263 24.3629 51.0159 24.2374C50.9055 24.1119 50.7552 24.0282 50.5904 24.0004C50.3067 23.9615 50.0207 23.9428 49.7344 23.9444L45.3504 23.8884H40.0064C39.7563 23.8643 39.5045 23.8643 39.2544 23.8884C39.0836 23.9255 38.9314 24.0215 38.8243 24.1597C38.7173 24.2978 38.6623 24.4692 38.6689 24.6438C38.6756 24.8185 38.7436 24.9852 38.8609 25.1147C38.9781 25.2443 39.1373 25.3284 39.3104 25.3524C39.5768 25.3699 39.844 25.3699 40.1104 25.3524L44.8384 25.3764Z" fill="white"/>
<path d="M18.3508 32.8001C16.7992 32.7937 15.2843 32.327 13.9981 31.4592C12.7119 30.5914 11.712 29.3615 11.1252 27.9251C10.5385 26.4887 10.3911 24.9105 10.7017 23.3903C11.0124 21.8701 11.7672 20.4763 12.8705 19.3853C13.9738 18.2944 15.376 17.5553 16.8996 17.2617C18.4232 16.9682 19.9997 17.1333 21.4293 17.7362C22.859 18.3391 24.0777 19.3527 24.931 20.6486C25.7843 21.9445 26.2338 23.4645 26.2228 25.0161C26.2038 27.0899 25.3655 29.072 23.8908 30.5302C22.4161 31.9884 20.4247 32.8044 18.3508 32.8001V32.8001Z" fill="white"/>
<path d="M60.2466 2.71213C59.8226 2.32013 59.5666 2.08813 59.3186 1.84813C59.1548 1.69649 59.0049 1.53049 58.8706 1.35213C58.7877 1.23272 58.7474 1.08892 58.7561 0.943822C58.7648 0.798728 58.822 0.660774 58.9186 0.552132C59.0093 0.432706 59.1366 0.346191 59.281 0.305755C59.4254 0.265318 59.5791 0.273176 59.7186 0.328133C59.8961 0.392804 60.0612 0.487516 60.2066 0.608132C61.0066 1.28013 61.7266 1.96813 62.5026 2.62413C62.6429 2.7195 62.7576 2.84772 62.837 2.99762C62.9163 3.14751 62.9578 3.31453 62.9578 3.48413C62.9578 3.65373 62.9163 3.82075 62.837 3.97065C62.7576 4.12055 62.6429 4.24877 62.5026 4.34413C62.1586 4.67213 61.8066 4.99213 61.4546 5.31213L60.3986 6.26413C60.2619 6.39471 60.1053 6.50273 59.9346 6.58413C59.8024 6.64725 59.6536 6.66654 59.5097 6.6392C59.3658 6.61186 59.2344 6.53932 59.1346 6.43213C59.0172 6.3199 58.9443 6.16892 58.9296 6.00713C58.9149 5.84534 58.9593 5.68371 59.0546 5.55213C59.2324 5.33146 59.4277 5.12546 59.6386 4.93613L60.1346 4.41613C59.9186 4.16013 59.6786 4.25613 59.4706 4.25613L40.8546 4.50413H37.2226C36.9703 4.51097 36.7181 4.48951 36.4706 4.44013C36.3321 4.40003 36.2098 4.31745 36.1208 4.20405C36.0318 4.09065 35.9807 3.95216 35.9746 3.80813C35.9746 3.67559 36.0153 3.54624 36.0911 3.43752C36.1669 3.3288 36.2742 3.24595 36.3986 3.20013C36.6556 3.10665 36.9254 3.0527 37.1986 3.04013C38.8546 3.04013 40.5106 3.04013 42.1666 2.98413L59.2546 2.76813C59.5106 2.76813 59.7586 2.74413 60.2466 2.71213Z" fill="white"/>
<path d="M49.3505 18.984H58.5185C58.8365 18.9799 59.1545 18.9959 59.4705 19.032C59.63 19.0507 59.7777 19.1252 59.8875 19.2424C59.9973 19.3595 60.0622 19.5117 60.0705 19.672C60.0911 19.8326 60.0563 19.9954 59.972 20.1335C59.8876 20.2717 59.7587 20.377 59.6065 20.432C59.4594 20.4838 59.3061 20.5161 59.1505 20.528C58.9585 20.528 58.7665 20.528 58.5745 20.528H40.0465C39.7305 20.5389 39.4142 20.5174 39.1025 20.464C38.928 20.4355 38.7694 20.3458 38.655 20.2109C38.5407 20.076 38.4781 19.9049 38.4785 19.728C38.495 19.554 38.5681 19.3901 38.6866 19.2615C38.8051 19.133 38.9624 19.0467 39.1345 19.016C39.2596 19.0038 39.3855 19.0038 39.5105 19.016H49.3505V18.984Z" fill="#007BFF"/>
<path d="M48.9105 15.672L39.8545 15.752C39.5377 15.7655 39.2205 15.7386 38.9105 15.672C38.803 15.6406 38.7042 15.5848 38.6218 15.509C38.5394 15.4332 38.4756 15.3394 38.4354 15.2349C38.3951 15.1304 38.3795 15.018 38.3898 14.9065C38.4 14.795 38.4359 14.6874 38.4945 14.592C38.5484 14.4948 38.6256 14.4125 38.7192 14.3525C38.8127 14.2924 38.9197 14.2565 39.0305 14.248C39.2865 14.248 39.5425 14.208 39.8305 14.208L58.1345 14.088C58.4007 14.0657 58.6683 14.0657 58.9345 14.088C59.1081 14.1205 59.2642 14.2143 59.3744 14.3524C59.4845 14.4904 59.5414 14.6635 59.5345 14.84C59.5341 15.0161 59.4698 15.1862 59.3536 15.3186C59.2374 15.451 59.0771 15.5368 58.9025 15.56C58.6175 15.5801 58.3315 15.5801 58.0465 15.56H48.9105V15.672Z" fill="#007BFF"/>
<path d="M44.8396 25.3761H40.0396C39.7733 25.3936 39.506 25.3936 39.2396 25.3761C39.0665 25.3522 38.9074 25.268 38.7901 25.1385C38.6728 25.0089 38.6049 24.8422 38.5982 24.6676C38.5915 24.493 38.6465 24.3215 38.7536 24.1834C38.8606 24.0453 39.0129 23.9492 39.1836 23.9121C39.4337 23.888 39.6856 23.888 39.9356 23.9121H45.2796L49.6636 23.9681C49.9499 23.9666 50.236 23.9853 50.5196 24.0241C50.6888 24.0477 50.8442 24.13 50.9588 24.2566C51.0734 24.3832 51.1399 24.5461 51.1466 24.7167C51.1532 24.8873 51.0997 25.0549 50.9954 25.1901C50.891 25.3252 50.7424 25.4194 50.5756 25.4561C50.3282 25.5055 50.0759 25.527 49.8236 25.5201H44.8396V25.3761Z" fill="#007BFF"/>
</svg>
