<svg width="76" height="75" viewBox="0 0 76 75" fill="none" xmlns="http://www.w3.org/2000/svg">
<path d="M25.4481 27.6079C25.8801 25.2079 26.6321 23.0159 27.2161 20.7279C26.8463 20.5884 26.4467 20.5471 26.0561 20.6079C25.3544 20.609 24.6573 20.4955 23.9921 20.2719C23.3284 20.0863 22.7363 19.7043 22.2937 19.176C21.8511 18.6477 21.5787 17.9979 21.5121 17.3119C21.4483 16.8399 21.4162 16.3642 21.4161 15.8879C21.4161 12.8319 21.3601 9.78392 21.3281 6.72792C21.3335 5.87342 21.4519 5.02339 21.6801 4.19992C21.8903 3.22534 22.4125 2.34586 23.1675 1.69477C23.9225 1.04369 24.8692 0.656511 25.8641 0.59192C26.7474 0.474645 27.6371 0.41319 28.5281 0.40792C34.1921 0.35992 39.8535 0.322587 45.5121 0.295921C46.5316 0.274964 47.5477 0.420889 48.5201 0.72792C49.5204 1.06496 50.4051 1.67785 51.0721 2.49592C51.5586 3.05531 51.8406 3.76329 51.8721 4.50392C51.9201 5.55192 51.9441 6.59992 51.9281 7.64792C51.9281 9.59192 51.8721 11.5199 52.0001 13.4639C52.1202 14.8279 52.023 16.2024 51.7121 17.5359C51.5139 18.3776 51.0418 19.1297 50.37 19.6741C49.6982 20.2185 48.8646 20.5244 48.0001 20.5439C45.2961 20.5439 42.5921 20.5919 39.8961 20.6079C38.6801 20.6079 37.4961 20.6079 36.2641 20.6079C35.8535 20.598 35.4511 20.7246 35.1201 20.9679C32.1601 23.0159 29.2001 25.0559 26.2401 27.0879L25.4481 27.6079ZM36.5921 11.3359H45.8401C46.1604 11.3541 46.4817 11.3434 46.8001 11.3039C46.9746 11.2754 47.1333 11.1857 47.2476 11.0508C47.362 10.9159 47.4245 10.7447 47.4241 10.5679C47.4199 10.3924 47.3531 10.2242 47.2357 10.0936C47.1183 9.96308 46.9582 9.87877 46.7841 9.85592C46.4395 9.80938 46.0917 9.79065 45.7441 9.79992H27.4241C27.2001 9.79992 26.9761 9.79992 26.7521 9.79992C26.596 9.8079 26.4422 9.8403 26.2961 9.89592C26.1454 9.94903 26.0157 10.0493 25.9264 10.1819C25.837 10.3144 25.7928 10.4722 25.8001 10.6319C25.8123 10.7926 25.878 10.9446 25.9868 11.0636C26.0956 11.1825 26.2411 11.2615 26.4001 11.2879C26.7127 11.3336 27.0283 11.355 27.3441 11.3519L36.5921 11.3359ZM36.3201 6.49592H40.3201C42.0401 6.49592 43.7601 6.49592 45.4721 6.49592C45.7577 6.50001 46.0427 6.46775 46.3201 6.39992C46.4692 6.3428 46.5954 6.23825 46.6793 6.10237C46.7631 5.96648 46.8 5.8068 46.7841 5.64792C46.7731 5.48766 46.7075 5.33601 46.5984 5.21814C46.4892 5.10027 46.3431 5.02327 46.1841 4.99992C45.9001 4.96647 45.614 4.9531 45.3281 4.95992L35.9841 4.99992L27.1841 5.05592C26.8676 5.05075 26.5513 5.07755 26.2401 5.13592C26.0779 5.1758 25.9343 5.27026 25.8335 5.40344C25.7327 5.53663 25.6807 5.70044 25.6863 5.8674C25.692 6.03435 25.7548 6.19429 25.8644 6.32039C25.974 6.44648 26.1236 6.53105 26.2881 6.55992C26.6011 6.59983 26.9167 6.61587 27.2321 6.60792L36.3201 6.49592ZM32.1841 16.1999V16.2959H37.1441C37.4322 16.2972 37.7195 16.265 38.0001 16.1999C38.1566 16.164 38.2951 16.0733 38.3905 15.9442C38.4858 15.8151 38.5318 15.656 38.5201 15.4959C38.5265 15.3506 38.4843 15.2073 38.4003 15.0886C38.3163 14.9698 38.1952 14.8824 38.0561 14.8399C37.7962 14.7635 37.527 14.7231 37.2561 14.7199L27.1041 14.6799C26.9153 14.6598 26.7249 14.6598 26.5361 14.6799C26.385 14.7326 26.2532 14.8293 26.1576 14.9577C26.0621 15.086 26.0072 15.2401 26.0001 15.3999C25.9969 15.56 26.0448 15.7169 26.1369 15.8478C26.2289 15.9787 26.3604 16.0769 26.5121 16.1279C26.7586 16.1843 27.0114 16.2085 27.2641 16.1999H32.1841Z" fill="white"/>
<path d="M11.4073 58.84C9.29865 58.8383 7.23792 58.2106 5.4864 57.0364C3.73487 55.8622 2.37142 54.1944 1.56888 52.2444C0.76635 50.2944 0.560873 48.15 0.978501 46.0831C1.39613 44.0162 2.41806 42.1198 3.91473 40.6344C5.41141 39.1489 7.31544 38.1413 9.38545 37.7393C11.4555 37.3372 13.5982 37.5589 15.5421 38.3761C17.486 39.1933 19.1435 40.5693 20.3045 42.3296C21.4654 44.0899 22.0776 46.1553 22.0633 48.2639C22.0613 49.659 21.7836 51.0398 21.2464 52.3272C20.7092 53.6147 19.9229 54.7833 18.9328 55.766C17.9426 56.7487 16.7681 57.5261 15.4767 58.0536C14.1852 58.5812 12.8023 58.8484 11.4073 58.84ZM11.0953 56.7119C11.9636 56.7357 12.8315 56.6524 13.6793 56.4639C15.4467 56.0079 17.0221 54.9988 18.1753 53.584C18.313 53.4484 18.3969 53.2676 18.4116 53.0749C18.4263 52.8823 18.3708 52.6908 18.2553 52.5359C18.2039 52.458 18.1478 52.3832 18.0873 52.3119C17.3381 51.3673 16.4347 50.5559 15.4153 49.9119C13.6532 48.8498 11.5441 48.5229 9.54315 49.0018C7.54217 49.4808 5.80964 50.7271 4.71934 52.4719C4.59876 52.6413 4.53396 52.844 4.53396 53.052C4.53396 53.2599 4.59876 53.4626 4.71934 53.6319C4.8041 53.7652 4.90337 53.8886 5.01534 53.9999C5.78313 54.8516 6.72084 55.5329 7.76804 56C8.81524 56.4672 9.94869 56.7097 11.0953 56.7119ZM11.2633 41.3759C10.6433 41.387 10.0405 41.5811 9.53051 41.934C9.02057 42.2868 8.62636 42.7825 8.39745 43.3588C8.16853 43.9351 8.11515 44.5663 8.24402 45.1728C8.37288 45.7794 8.67824 46.3343 9.12167 46.7677C9.56511 47.2012 10.1268 47.4938 10.7362 47.6089C11.3455 47.7239 11.9752 47.6562 12.5462 47.4142C13.1171 47.1723 13.6038 46.7669 13.9449 46.249C14.286 45.7312 14.4664 45.124 14.4633 44.5039C14.4624 44.0874 14.3784 43.6751 14.2163 43.2914C14.0543 42.9076 13.8174 42.5599 13.5195 42.2687C13.2216 41.9775 12.8686 41.7486 12.4812 41.5953C12.0939 41.442 11.6798 41.3674 11.2633 41.3759Z" fill="white"/>
<path d="M37.112 74.0881C35.0107 74.0833 32.9578 73.4565 31.2123 72.2866C29.4668 71.1166 28.1067 69.4561 27.3037 67.5142C26.5007 65.5724 26.2906 63.4363 26.7 61.3752C27.1093 59.3142 28.1198 57.4205 29.604 55.933C31.0882 54.4454 32.9796 53.4307 35.0398 53.0167C37.0999 52.6027 39.2365 52.8079 41.1801 53.6066C43.1238 54.4053 44.7874 55.7616 45.9612 57.5044C47.135 59.2473 47.7665 61.2988 47.776 63.4001C47.7866 64.8046 47.5182 66.1972 46.9863 67.4972C46.4545 68.7971 45.6698 69.9785 44.6777 70.9728C43.6857 71.9671 42.506 72.7544 41.2073 73.2892C39.9085 73.824 38.5165 74.0955 37.112 74.0881ZM36.544 71.9441C39.664 71.9441 41.928 70.9921 43.744 68.9521C44.224 68.4081 44.256 68.0801 43.816 67.5281C43.1061 66.5791 42.2307 65.7661 41.232 65.1281C40.278 64.5185 39.202 64.1252 38.0798 63.9759C36.9575 63.8266 35.8162 63.925 34.736 64.2641C32.9852 64.8829 31.4867 66.0609 30.472 67.6161C30.3325 67.7926 30.2566 68.0111 30.2566 68.2361C30.2566 68.4611 30.3325 68.6795 30.472 68.8561C30.5479 68.9602 30.6307 69.0591 30.72 69.1521C31.4536 69.9846 32.3473 70.6609 33.3479 71.1406C34.3485 71.6203 35.4355 71.8935 36.544 71.9441ZM37.008 62.8321C37.6237 62.8179 38.2216 62.6223 38.7266 62.2697C39.2316 61.9171 39.6213 61.4233 39.8468 60.8502C40.0723 60.2771 40.1236 59.6501 39.9942 59.048C39.8649 58.4458 39.5606 57.8952 39.1196 57.4653C38.6787 57.0353 38.1206 56.7451 37.5153 56.631C36.9101 56.517 36.2846 56.5841 35.7174 56.824C35.1501 57.064 34.6664 57.466 34.3267 57.9798C33.987 58.4936 33.8066 59.0962 33.808 59.7121C33.8045 60.1296 33.8855 60.5434 34.0461 60.9288C34.2067 61.3142 34.4436 61.6631 34.7426 61.9546C35.0415 62.246 35.3963 62.474 35.7856 62.6248C36.1749 62.7756 36.5907 62.8461 37.008 62.8321Z" fill="white"/>
<path d="M54.2871 47.3999C54.284 45.2896 54.9075 43.226 56.0786 41.4705C57.2497 39.7149 58.9157 38.3467 60.8653 37.5391C62.815 36.7316 64.9605 36.5211 67.0299 36.9344C69.0993 37.3476 70.9994 38.366 72.4894 39.8605C73.9793 41.3549 74.992 43.2581 75.399 45.3287C75.806 47.3994 75.5891 49.5443 74.7757 51.4915C73.9622 53.4387 72.589 55.1005 70.83 56.2663C69.0709 57.4321 67.0054 58.0494 64.8951 58.0399C62.0788 58.0315 59.3807 56.9067 57.3922 54.9122C55.4037 52.9178 54.2871 50.2163 54.2871 47.3999ZM65.6471 55.6959C66.7653 55.6233 67.8567 55.3225 68.8542 54.8121C69.8517 54.3016 70.7341 53.5923 71.4471 52.7279C71.9431 52.1599 71.9911 51.8559 71.5511 51.3039C70.2166 49.4478 68.2048 48.1919 65.9511 47.8079C62.6391 47.3199 60.1191 48.6719 58.1431 51.4719C58.0299 51.6277 57.969 51.8154 57.969 52.0079C57.969 52.2005 58.0299 52.3881 58.1431 52.5439C58.2255 52.6791 58.3221 52.8052 58.4311 52.9199C60.1751 54.6879 62.2551 55.7199 65.6471 55.6799V55.6959ZM64.7431 46.5999C65.5464 46.5593 66.3034 46.2116 66.8576 45.6287C67.4117 45.0458 67.7208 44.2722 67.7208 43.4679C67.7208 42.6636 67.4117 41.8901 66.8576 41.3071C66.3034 40.7242 65.5464 40.3765 64.7431 40.3359C64.3185 40.3145 63.894 40.3796 63.4953 40.5273C63.0966 40.675 62.7321 40.9022 62.424 41.1951C62.1159 41.4881 61.8705 41.8406 61.7029 42.2313C61.5352 42.622 61.4488 43.0428 61.4488 43.4679C61.4488 43.8931 61.5352 44.3138 61.7029 44.7045C61.8705 45.0952 62.1159 45.4478 62.424 45.7407C62.7321 46.0336 63.0966 46.2609 63.4953 46.4086C63.894 46.5563 64.3185 46.6214 64.7431 46.5999Z" fill="white"/>
<path d="M22.0957 41.7519L36.1677 33.8399C36.3096 33.4904 36.3592 33.1102 36.3117 32.7359C36.3117 29.8079 36.3117 26.8799 36.3677 23.9359C36.3677 23.5919 36.3677 23.2479 36.4077 22.8639C36.8571 22.8162 37.3103 22.8162 37.7597 22.8639C37.8789 23.5694 37.9084 24.2871 37.8477 24.9999C37.8477 25.6959 37.8477 26.3999 37.8477 27.0959V29.2879C37.8477 29.9919 37.8477 30.6879 37.8477 31.3919C37.8477 32.0959 37.8477 32.7839 37.8477 33.5199C38.6957 34.0479 39.5837 34.4559 40.4557 34.9119C41.3277 35.3679 42.2077 35.8239 43.0797 36.2799L45.7837 37.6879L48.3997 39.0799L51.0237 40.4399C51.8957 40.8959 52.7757 41.3199 53.6317 41.8239C53.5077 42.2891 53.2959 42.7263 53.0077 43.1119C52.6877 42.9679 52.3757 42.8319 52.0797 42.6719C47.669 40.3893 43.2664 38.1039 38.8717 35.8159L37.9997 35.3999C37.7117 35.5279 37.7677 35.7439 37.7677 35.9199C37.7677 37.3519 37.8157 38.7839 37.8237 40.2079C37.8557 43.4879 37.8824 46.7626 37.9037 50.0319V51.0079C37.4341 51.1477 36.9387 51.1778 36.4557 51.0959C36.3948 50.3536 36.3761 49.6084 36.3997 48.8639C36.3997 48.1279 36.3997 47.3999 36.3997 46.6719C36.3997 45.9439 36.3997 45.2079 36.3997 44.4719C36.3997 43.7359 36.3997 43.0079 36.3997 42.2799C36.3997 41.5519 36.3997 40.8159 36.3997 40.0879C36.3997 39.3599 36.3997 38.6239 36.3997 37.8959C36.3997 37.1679 36.3997 36.4399 36.3357 35.6959C35.9597 35.6159 35.7437 35.8399 35.5357 35.9679C33.1517 37.2959 30.7677 38.6293 28.3837 39.9679L23.5997 42.6399L22.7997 43.0719C22.4725 42.6879 22.2324 42.2376 22.0957 41.7519Z" fill="white"/>
<path d="M36.5916 11.336H27.3436C27.0278 11.3392 26.7122 11.3178 26.3996 11.272C26.2406 11.2456 26.0951 11.1666 25.9863 11.0477C25.8775 10.9288 25.8118 10.7768 25.7996 10.616C25.7923 10.4564 25.8365 10.2985 25.9259 10.166C26.0152 10.0334 26.1448 9.93315 26.2956 9.88004C26.4417 9.82442 26.5955 9.79202 26.7516 9.78404C26.9756 9.78404 27.1996 9.78404 27.4236 9.78404H45.7276C46.0752 9.77477 46.423 9.7935 46.7676 9.84004C46.9417 9.86289 47.1018 9.9472 47.2192 10.0778C47.3366 10.2083 47.4034 10.3765 47.4076 10.552C47.408 10.7289 47.3455 10.9 47.2311 11.0349C47.1168 11.1698 46.9581 11.2595 46.7836 11.288C46.4729 11.3533 46.157 11.3908 45.8396 11.4H36.5916V11.336Z" fill="#007BFF"/>
<path d="M36.3192 6.49596L27.2552 6.59996C26.9398 6.60791 26.6242 6.59186 26.3112 6.55196C26.1467 6.52309 25.997 6.43852 25.8875 6.31243C25.7779 6.18633 25.715 6.02639 25.7094 5.85944C25.7038 5.69248 25.7557 5.52867 25.8566 5.39548C25.9574 5.2623 26.101 5.16784 26.2632 5.12796C26.5744 5.06959 26.8906 5.04279 27.2072 5.04796L36.0072 4.99196H45.3512C45.6371 4.98515 45.9232 4.99851 46.2072 5.03196C46.3661 5.05531 46.5123 5.13231 46.6214 5.25018C46.7306 5.36805 46.7961 5.5197 46.8072 5.67996C46.823 5.83884 46.7862 5.99852 46.7023 6.13441C46.6185 6.27029 46.4923 6.37485 46.3432 6.43196C46.0657 6.49979 45.7808 6.53205 45.4952 6.52796C43.7832 6.52796 42.0632 6.52796 40.3432 6.52796H36.3432L36.3192 6.49596Z" fill="#007BFF"/>
<path d="M32.1825 16.1999H27.2305C26.9778 16.2084 26.725 16.1842 26.4785 16.1279C26.3328 16.0714 26.2083 15.971 26.1222 15.8405C26.0362 15.7101 25.993 15.556 25.9985 15.3999C26.0142 15.2417 26.0766 15.0919 26.1777 14.9693C26.2789 14.8468 26.4142 14.7572 26.5665 14.7119C26.7553 14.6917 26.9457 14.6917 27.1345 14.7119L37.1985 14.7519C37.4694 14.7551 37.7386 14.7954 37.9985 14.8719C38.1376 14.9143 38.2587 15.0018 38.3427 15.1205C38.4267 15.2393 38.4689 15.3826 38.4625 15.5279C38.4697 15.6753 38.4282 15.821 38.3443 15.9424C38.2604 16.0639 38.1389 16.1544 37.9985 16.1999C37.7195 16.2562 37.435 16.2804 37.1505 16.2719H32.1905L32.1825 16.1999Z" fill="#007BFF"/>
<path d="M11.0962 56.712C9.95221 56.7075 8.82183 56.4639 7.77755 55.9968C6.73327 55.5298 5.79814 54.8496 5.03217 54C4.9202 53.8886 4.82092 53.7652 4.73616 53.632C4.61558 53.4626 4.55078 53.2599 4.55078 53.052C4.55078 52.8441 4.61558 52.6413 4.73616 52.472C5.8226 50.7231 7.5534 49.4718 9.55469 48.9883C11.556 48.5048 13.6671 48.828 15.4322 49.888C16.4516 50.5319 17.3549 51.3433 18.1042 52.288C18.1646 52.3592 18.2207 52.434 18.2722 52.512C18.3876 52.6669 18.4431 52.8583 18.4284 53.051C18.4137 53.2436 18.3298 53.4244 18.1922 53.56C17.0389 54.9748 15.4636 55.9839 13.6962 56.44C12.8441 56.6378 11.9707 56.7292 11.0962 56.712Z" fill="#007BFF"/>
<path d="M11.263 41.3761C11.8838 41.3699 12.4925 41.5476 13.0124 41.8868C13.5323 42.226 13.9402 42.7115 14.1846 43.2821C14.429 43.8527 14.499 44.483 14.3858 45.0933C14.2726 45.7037 13.9813 46.2669 13.5485 46.7119C13.1157 47.1569 12.5608 47.4639 11.9539 47.5941C11.3469 47.7242 10.715 47.6718 10.1377 47.4434C9.5605 47.215 9.06381 46.8208 8.71026 46.3106C8.35672 45.8003 8.16213 45.1968 8.15105 44.5761C8.14256 44.161 8.21661 43.7482 8.36891 43.3619C8.5212 42.9756 8.7487 42.6234 9.03821 42.3257C9.32771 42.028 9.67346 41.7908 10.0554 41.6278C10.4373 41.4648 10.8478 41.3792 11.263 41.3761Z" fill="#007BFF"/>
<path d="M36.5436 71.9438C35.4348 71.8995 34.3462 71.6323 33.3428 71.1581C32.3394 70.6839 31.4419 70.0125 30.7036 69.1839C30.6144 69.0909 30.5315 68.992 30.4556 68.8878C30.3161 68.7113 30.2402 68.4929 30.2402 68.2678C30.2402 68.0428 30.3161 67.8244 30.4556 67.6478C31.4704 66.0926 32.9688 64.9147 34.7196 64.2959C35.7975 63.9592 36.9359 63.8621 38.0552 64.0114C39.1745 64.1606 40.2476 64.5526 41.1996 65.1598C42.1984 65.7978 43.0737 66.6109 43.7836 67.5598C44.2236 68.1118 44.1916 68.4399 43.7116 68.9839C41.9276 70.9919 39.6636 71.9358 36.5436 71.9438Z" fill="#007BFF"/>
<path d="M37.0066 62.8321C36.3901 62.8367 35.7859 62.6589 35.2701 62.3212C34.7542 61.9834 34.3497 61.5008 34.1073 60.9338C33.8649 60.3669 33.7955 59.741 33.9077 59.1347C34.02 58.5284 34.3089 57.9689 34.7382 57.5263C35.1675 57.0837 35.718 56.7779 36.3206 56.6472C36.9232 56.5166 37.5509 56.5669 38.125 56.7919C38.699 57.0169 39.1938 57.4066 39.5471 57.9119C39.9004 58.4172 40.0964 59.0157 40.1106 59.6321C40.1235 60.0477 40.0527 60.4617 39.9025 60.8494C39.7523 61.2372 39.5257 61.5908 39.2362 61.8893C38.9466 62.1878 38.6001 62.425 38.2171 62.587C37.8341 62.7489 37.4225 62.8323 37.0066 62.8321Z" fill="#007BFF"/>
<path d="M65.6465 55.6799C62.2545 55.7199 60.1745 54.6879 58.4465 52.9039C58.3374 52.7891 58.2409 52.663 58.1585 52.5279C58.0453 52.3721 57.9844 52.1844 57.9844 51.9919C57.9844 51.7993 58.0453 51.6117 58.1585 51.4559C60.1345 48.6559 62.6545 47.3039 65.9665 47.7919C68.2201 48.1758 70.2319 49.4317 71.5665 51.2879C72.0065 51.8399 71.9585 52.1439 71.4625 52.7119C70.7477 53.5782 69.8627 54.2886 68.8623 54.7991C67.8619 55.3096 66.7674 55.6094 65.6465 55.6799Z" fill="#007BFF"/>
<path d="M64.7436 46.6C64.3189 46.6215 63.8944 46.5564 63.4957 46.4087C63.097 46.261 62.7326 46.0338 62.4244 45.7408C62.1163 45.4479 61.871 45.0953 61.7033 44.7046C61.5357 44.3139 61.4492 43.8932 61.4492 43.468C61.4492 43.0429 61.5357 42.6222 61.7033 42.2314C61.871 41.8407 62.1163 41.4882 62.4244 41.1953C62.7326 40.9023 63.097 40.6751 63.4957 40.5274C63.8944 40.3797 64.3189 40.3146 64.7436 40.336C65.5468 40.3766 66.3038 40.7243 66.858 41.3073C67.4122 41.8902 67.7212 42.6637 67.7212 43.468C67.7212 44.2723 67.4122 45.0459 66.858 45.6288C66.3038 46.2117 65.5468 46.5594 64.7436 46.6Z" fill="#007BFF"/>
</svg>
