<svg width="88" height="75" viewBox="0 0 88 75" fill="none" xmlns="http://www.w3.org/2000/svg">
<path d="M55.1273 60.256C55.8393 57.28 56.7913 54.456 57.6633 51.544C57.4153 51.504 57.2393 51.448 57.0633 51.44C56.4633 51.44 55.8553 51.392 55.2553 51.336C54.9397 51.2982 54.6288 51.2285 54.3273 51.128C53.52 50.9338 52.7959 50.4867 52.2606 49.8521C51.7252 49.2175 51.4066 48.4284 51.3513 47.6C51.2961 47.0685 51.2801 46.5338 51.3033 46C51.3833 43.744 51.4633 41.488 51.5753 39.232C51.6713 37.232 51.7833 35.232 51.9353 33.232C52.0341 32.2515 52.2711 31.29 52.6393 30.376C53.0199 29.3068 53.6922 28.3655 54.5801 27.6586C55.4679 26.9516 56.536 26.5074 57.6633 26.376C59.1424 26.1385 60.6373 26.0128 62.1353 26C66.3353 25.92 70.5353 25.864 74.7353 25.8L80.9433 25.696C81.8995 25.6846 82.8518 25.8195 83.7673 26.096C85.0605 26.4938 86.1659 27.3463 86.8793 28.496C87.2421 29.0253 87.4474 29.6467 87.4713 30.288C87.5113 30.954 87.5113 31.6219 87.4713 32.288C87.3753 33.52 87.1833 34.744 87.0793 35.976C86.8713 38.48 86.6873 40.984 86.5033 43.488C86.442 44.8866 86.189 46.2702 85.7513 47.6C85.5083 48.3948 85.0831 49.1219 84.5095 49.7233C83.9359 50.3247 83.2297 50.7838 82.4473 51.064C82.0854 51.1837 81.7082 51.251 81.3273 51.264C77.3273 51.44 73.3273 51.264 69.3273 51.328C68.9113 51.328 68.5273 51.328 68.0873 51.272C67.6393 51.2518 67.199 51.3938 66.8473 51.672C63.2153 54.3386 59.5753 57.0053 55.9273 59.672C55.6473 59.912 55.3993 60.08 55.1273 60.256ZM69.3113 41.296L57.9513 41.064C57.7275 41.048 57.503 41.048 57.2793 41.064C57.0891 41.0807 56.9112 41.1649 56.7777 41.3014C56.6442 41.4378 56.5639 41.6175 56.5513 41.808C56.5512 42.0012 56.6262 42.1869 56.7606 42.3258C56.895 42.4646 57.0781 42.5457 57.2713 42.552C57.5193 42.552 57.7753 42.552 58.0713 42.552L69.9113 42.792L80.6073 43.008C80.7993 43.008 80.9913 43.008 81.1833 43.008C81.3407 43.0009 81.4966 42.974 81.6473 42.928C81.801 42.8796 81.9339 42.7804 82.024 42.6467C82.1141 42.513 82.1561 42.3527 82.1433 42.192C82.1358 42.0318 82.075 41.8787 81.9707 41.757C81.8664 41.6353 81.7244 41.5519 81.5673 41.52C81.3792 41.4917 81.1894 41.4757 80.9993 41.472L78.3273 41.4L69.3113 41.296ZM70.3593 37.56L80.5673 37.752C80.8522 37.772 81.1383 37.772 81.4233 37.752C81.6 37.7428 81.7674 37.6694 81.894 37.5458C82.0207 37.4221 82.0979 37.2565 82.1113 37.08C82.1251 36.888 82.0647 36.6981 81.9427 36.5492C81.8207 36.4004 81.6462 36.304 81.4553 36.28C81.2663 36.2641 81.0763 36.2641 80.8873 36.28L74.5993 36.088L58.2953 35.808C58.0714 35.796 57.8471 35.796 57.6233 35.808C57.4316 35.808 57.2476 35.8836 57.1113 36.0184C56.975 36.1532 56.8974 36.3363 56.8953 36.528C56.8877 36.627 56.8999 36.7265 56.9314 36.8207C56.9629 36.9149 57.0129 37.0019 57.0785 37.0764C57.1442 37.151 57.224 37.2117 57.3135 37.2549C57.4029 37.2981 57.5001 37.3229 57.5993 37.328C57.8641 37.3662 58.1317 37.3823 58.3993 37.376L70.3593 37.56ZM69.8793 30.544V30.464H58.8073C58.5273 30.464 58.2393 30.464 57.9513 30.464C57.7588 30.4661 57.5749 30.5434 57.4388 30.6795C57.3027 30.8156 57.2253 30.9995 57.2233 31.192C57.2317 31.3828 57.3081 31.5643 57.4387 31.7037C57.5692 31.8431 57.7454 31.9311 57.9353 31.952C58.2015 31.9736 58.469 31.9736 58.7353 31.952L81.0633 32.032C81.3296 32.0493 81.5969 32.0493 81.8633 32.032C81.9585 32.033 82.053 32.0152 82.1412 31.9795C82.2295 31.9438 82.3098 31.8909 82.3776 31.8239C82.4453 31.757 82.499 31.6772 82.5357 31.5894C82.5724 31.5015 82.5913 31.4072 82.5913 31.312C82.595 31.1343 82.5337 30.9613 82.4187 30.8257C82.3038 30.6902 82.1432 30.6013 81.9673 30.576C81.6522 30.5292 81.3336 30.5104 81.0153 30.52L69.8793 30.544ZM60.5113 47.416L63.5673 47.512C63.7561 47.5321 63.9465 47.5321 64.1353 47.512C64.2952 47.4895 64.4422 47.4115 64.5505 47.2916C64.6587 47.1716 64.7213 47.0174 64.7273 46.856C64.7472 46.6963 64.71 46.5348 64.6221 46.4C64.5342 46.2653 64.4014 46.166 64.2473 46.12C64.0063 46.0445 63.7557 46.0041 63.5033 46C61.5913 45.912 59.6873 45.84 57.7753 45.768C57.5089 45.7502 57.2416 45.7502 56.9753 45.768C56.7992 45.7753 56.6319 45.8469 56.5051 45.9693C56.3783 46.0917 56.3008 46.2563 56.2873 46.432C56.2688 46.6115 56.3162 46.7917 56.4207 46.9389C56.5252 47.086 56.6796 47.1902 56.8553 47.232C57.0414 47.2766 57.2319 47.3007 57.4233 47.304L60.5113 47.416Z" fill="white"/>
<path d="M36.1119 25.0718C36.2216 24.3476 36.3983 23.6352 36.6399 22.9438C36.8399 22.2398 37.0479 21.5358 37.2559 20.8318C37.4819 20.1672 37.6636 19.4884 37.7999 18.7998C37.3999 18.7998 37.0959 18.7998 36.7839 18.7998C36.1766 18.8214 35.5715 18.7151 35.0079 18.4878C34.6225 18.3371 34.2774 18.099 33.9997 17.7922C33.7221 17.4854 33.5195 17.1183 33.4079 16.7198C33.2459 16.1343 33.1784 15.5266 33.2079 14.9198C33.2559 13.1758 33.3119 11.4238 33.3599 9.67981C33.3599 8.72781 33.3599 7.76781 33.4399 6.81581C33.4887 6.00622 33.6119 5.20283 33.8079 4.41581C34.3119 2.57581 35.2479 1.21581 38.0079 0.855812C39.0079 0.727812 40.0319 0.695812 41.0479 0.663812C44.8639 0.519812 48.6879 0.399812 52.5039 0.271812L54.2239 0.231813C54.828 0.217461 55.4311 0.287468 56.0159 0.439812C56.8182 0.654631 57.5356 1.10964 58.0719 1.74381C58.5537 2.26412 58.8222 2.94667 58.8239 3.65581C58.8373 4.577 58.8026 5.49825 58.7199 6.41581C58.5119 8.18381 58.4159 9.95981 58.3359 11.7438C58.3503 13.0459 58.1834 14.3437 57.8399 15.5998C57.6902 16.1173 57.4343 16.598 57.0886 17.0112C56.7429 17.4244 56.3149 17.7611 55.8319 17.9998C55.4859 18.1598 55.1154 18.2599 54.7359 18.2958C53.0891 18.4344 51.4361 18.4851 49.7839 18.4478C48.3199 18.4478 46.8559 18.4478 45.3919 18.4478C44.9467 18.473 44.5247 18.6543 44.1999 18.9598C41.7999 20.7998 39.3999 22.6318 36.9999 24.4558C36.7279 24.6478 36.4639 24.8238 36.1119 25.0718ZM45.7119 9.07181V9.01581H38.8559C38.5386 9.01128 38.2218 9.04349 37.9119 9.11181C37.7655 9.15437 37.637 9.24328 37.5454 9.36518C37.4539 9.48708 37.4045 9.63539 37.4045 9.78781C37.4045 9.94024 37.4539 10.0885 37.5454 10.2104C37.637 10.3323 37.7655 10.4213 37.9119 10.4638C38.1906 10.5229 38.4751 10.5497 38.7599 10.5438C39.9359 10.5438 41.1119 10.5438 42.2879 10.5438L52.5839 10.5838C52.9002 10.5923 53.2165 10.5682 53.5279 10.5118C53.6964 10.4863 53.8501 10.4013 53.9612 10.2721C54.0724 10.1429 54.1335 9.9782 54.1335 9.80781C54.1335 9.63742 54.0724 9.47268 53.9612 9.3435C53.8501 9.21433 53.6964 9.12928 53.5279 9.10381C53.2447 9.06101 52.9583 9.04227 52.6719 9.04781L45.7119 9.07181ZM45.9119 5.93581H52.3119C52.5783 5.95315 52.8455 5.95315 53.1119 5.93581C53.2936 5.91059 53.4611 5.82371 53.5863 5.68972C53.7116 5.55573 53.787 5.38277 53.7999 5.19981C53.8024 5.00806 53.7359 4.8218 53.6125 4.67496C53.4892 4.52812 53.3172 4.43048 53.1279 4.39981C52.8456 4.37987 52.5622 4.37987 52.2799 4.39981H44.0399C42.4879 4.39981 40.9279 4.39981 39.3679 4.39981C39.0977 4.39698 38.8284 4.43199 38.5679 4.50381C38.4157 4.55716 38.2861 4.66061 38.2003 4.79723C38.1146 4.93385 38.0778 5.09554 38.0959 5.25581C38.1152 5.41407 38.1859 5.56162 38.2972 5.6758C38.4085 5.78997 38.5542 5.86446 38.7119 5.88781C38.9969 5.90761 39.2829 5.90761 39.5679 5.88781L45.9119 5.93581ZM41.8319 15.4238V15.5038H44.4959C44.7621 15.5261 45.0297 15.5261 45.2959 15.5038C45.4549 15.4856 45.6027 15.4126 45.7136 15.2972C45.8246 15.1819 45.8919 15.0314 45.9039 14.8718C45.9329 14.6953 45.8936 14.5144 45.7941 14.3658C45.6945 14.2173 45.5422 14.1121 45.3679 14.0718C45.0889 14.0144 44.8048 13.985 44.5199 13.9838L39.0079 13.9118C38.8191 13.8917 38.6287 13.8917 38.4399 13.9118C38.2811 13.9325 38.1339 14.0062 38.0222 14.1209C37.9104 14.2355 37.8405 14.3845 37.8239 14.5438C37.8017 14.7025 37.835 14.864 37.9181 15.001C38.0012 15.138 38.129 15.2421 38.2799 15.2958C38.5207 15.372 38.7714 15.4124 39.0239 15.4158C39.9359 15.4158 40.8879 15.4078 41.8399 15.4078L41.8319 15.4238Z" fill="white"/>
<path d="M22.096 74.2957C22.168 73.9437 22.184 73.7277 22.248 73.4957C22.744 72.0797 23.248 70.6797 23.744 69.2717C23.824 69.0317 23.896 68.7917 23.984 68.4717C23.776 68.4237 23.6 68.3757 23.424 68.3517C22.9183 68.3063 22.416 68.2288 21.92 68.1197C21.3214 67.9896 20.7869 67.6547 20.4087 67.1728C20.0305 66.6909 19.8322 66.0921 19.848 65.4797C19.8307 64.9084 19.8494 64.3366 19.904 63.7677C20.072 61.5517 20.264 59.3357 20.44 57.1117C20.5078 56.1819 20.696 55.2649 21 54.3837C21.2564 53.5554 21.7666 52.8286 22.4586 52.306C23.1505 51.7835 23.9892 51.4916 24.856 51.4717C25.656 51.4157 26.512 51.3917 27.336 51.4077C31.56 51.4797 35.792 51.5757 40.024 51.6557C40.6583 51.6485 41.2906 51.7265 41.904 51.8877C42.3977 52.0226 42.8599 52.2537 43.264 52.5677C43.7091 52.8793 44.0675 53.2992 44.3055 53.7877C44.5434 54.2761 44.653 54.8171 44.624 55.3597C44.584 56.0557 44.512 56.7517 44.416 57.4397C44.216 58.9837 43.984 60.5197 43.784 62.0637C43.672 62.8637 43.616 63.7117 43.536 64.5277C43.4652 65.2583 43.2732 65.9721 42.968 66.6397C42.7632 67.0971 42.4938 67.5228 42.168 67.9037C41.8927 68.214 41.5536 68.4611 41.1739 68.6282C40.7941 68.7952 40.3828 68.8783 39.968 68.8717C38.792 68.8717 37.616 68.8717 36.44 68.8717C34.944 68.8317 33.448 68.7917 31.96 68.6957C30.224 68.5837 30.792 68.5037 29.432 69.4157C27.288 70.8477 25.168 72.3037 23.032 73.7517C22.752 73.8877 22.488 74.0477 22.096 74.2957ZM32.496 57.0077L39.552 57.1437C39.8358 57.1492 40.1195 57.1305 40.4 57.0877C40.5586 57.0565 40.7022 56.9734 40.8083 56.8515C40.9144 56.7297 40.977 56.576 40.9861 56.4147C40.9953 56.2534 40.9506 56.0936 40.8589 55.9606C40.7673 55.8275 40.634 55.7287 40.48 55.6797C40.2182 55.6134 39.95 55.5759 39.68 55.5677L35.864 55.5117L25.48 55.3117C25.1952 55.2876 24.9089 55.2876 24.624 55.3117C24.4581 55.3403 24.3068 55.4243 24.1948 55.55C24.0829 55.6758 24.0168 55.8357 24.0075 56.0038C23.9983 56.172 24.0463 56.3382 24.1437 56.4755C24.2412 56.6128 24.3823 56.713 24.544 56.7597C24.7617 56.8095 24.9849 56.831 25.208 56.8237L32.496 57.0077ZM32.2 61.1357V61.1997C33 61.1997 33.72 61.1997 34.488 61.1997C35.984 61.1997 37.472 61.3037 38.968 61.3437C39.2834 61.3536 39.5986 61.3186 39.904 61.2397C40.0438 61.1957 40.1651 61.1067 40.249 60.9866C40.333 60.8665 40.3748 60.7221 40.368 60.5757C40.3693 60.4158 40.3185 60.2598 40.2233 60.1313C40.128 60.0028 39.9935 59.9089 39.84 59.8637C39.5925 59.8133 39.3407 59.7866 39.088 59.7837C37.752 59.7357 36.416 59.7037 35.088 59.6637L25.264 59.3517C24.9794 59.3236 24.6927 59.3236 24.408 59.3517C24.2656 59.3777 24.1347 59.4469 24.0331 59.55C23.9314 59.653 23.864 59.7849 23.84 59.9277C23.8154 60.0288 23.813 60.134 23.8329 60.2361C23.8528 60.3382 23.8946 60.4347 23.9555 60.5191C24.0163 60.6035 24.0947 60.6737 24.1852 60.7249C24.2758 60.7761 24.3764 60.8071 24.48 60.8157C25.048 60.8797 25.624 60.9117 26.192 60.9277L32.2 61.1357ZM28.8 65.1997L31.896 65.3677C32.1167 65.3918 32.3394 65.3918 32.56 65.3677C32.7329 65.3327 32.8894 65.2416 33.0052 65.1085C33.1209 64.9754 33.1894 64.8078 33.2 64.6317C33.1989 64.4553 33.1357 64.285 33.0217 64.1504C32.9076 64.0159 32.7499 63.9257 32.576 63.8957C32.2966 63.84 32.0129 63.8079 31.728 63.7997L25.064 63.4957C24.8726 63.4757 24.6795 63.4757 24.488 63.4957C24.3301 63.517 24.1834 63.5896 24.0707 63.7024C23.958 63.8151 23.8854 63.9617 23.864 64.1197C23.8404 64.2775 23.8711 64.4386 23.951 64.5767C24.031 64.7148 24.1554 64.8216 24.304 64.8797C24.541 64.9636 24.789 65.0121 25.04 65.0237C26.216 65.0877 27.4 65.1357 28.8 65.1997Z" fill="white"/>
<path d="M13.8477 34.6076L13.9117 33.3196C14.1917 33.0876 14.4877 33.1676 14.7677 33.1676L30.5997 33.2876L46.4397 33.3916C46.7917 33.3916 47.1357 33.3916 47.4637 33.3916C47.6745 33.8289 47.7444 34.3209 47.6637 34.7996C47.3709 34.96 47.0316 35.0138 46.7037 34.9516C43.3277 34.9516 39.9543 34.9303 36.5837 34.8876L14.9277 34.7116C14.5643 34.7501 14.197 34.7147 13.8477 34.6076Z" fill="white"/>
<path d="M25.6951 27.7117L0.895074 27.6157C0.733287 27.6057 0.57268 27.5816 0.415074 27.5437C0.325222 27.0109 0.352522 26.4649 0.495074 25.9437C0.727074 25.9437 0.943074 25.8877 1.15107 25.8877L24.8151 25.9997C25.0631 25.9997 25.3111 25.9997 25.5751 26.0477C25.7646 26.5814 25.8061 27.1564 25.6951 27.7117Z" fill="white"/>
<path d="M26.3102 48.1278C26.22 48.1736 26.1225 48.2034 26.0222 48.2158C19.0568 48.1145 12.0888 48.0052 5.11817 47.8878C5.01556 47.8695 4.91596 47.8372 4.82217 47.7918C4.77864 47.334 4.80835 46.8722 4.91017 46.4238C5.81417 46.3278 25.3982 46.6398 26.2942 46.7678C26.4035 47.2139 26.409 47.6792 26.3102 48.1278Z" fill="white"/>
<path d="M47.8792 41.6317C47.7808 41.6682 47.679 41.695 47.5752 41.7117C43.0526 41.6477 38.5379 41.5783 34.0312 41.5037C33.9042 41.494 33.7783 41.4726 33.6552 41.4397C33.4552 40.9837 33.6552 40.5517 33.6072 40.0797C33.7976 40.0191 33.9931 39.9763 34.1912 39.9517L47.4472 40.1837C47.5823 40.1924 47.7162 40.2138 47.8472 40.2477C47.9778 40.6984 47.9888 41.1754 47.8792 41.6317Z" fill="white"/>
<path d="M29.5432 16.4397V17.9437C29.2872 17.9437 29.0792 18.0317 28.8632 18.0397C25.9291 18.1869 22.9881 18.1227 20.0632 17.8477C19.9867 17.3761 19.9867 16.8953 20.0632 16.4237C20.2403 16.3664 20.4225 16.3262 20.6072 16.3037L29.1912 16.3997C29.3095 16.4025 29.4273 16.4159 29.5432 16.4397Z" fill="white"/>
<path d="M24.8862 41.7037C24.8076 41.2082 24.8714 40.7005 25.0702 40.2397C26.3662 40.2397 27.6622 40.2397 28.9502 40.2397C29.2622 40.7117 29.1182 41.1757 29.1102 41.6877C28.4212 41.811 27.7181 41.8353 27.0222 41.7597C26.31 41.8037 25.5952 41.785 24.8862 41.7037Z" fill="white"/>
<path d="M14.7502 16.4399C15.4199 16.3241 16.1045 16.3241 16.7742 16.4399C16.9336 16.9259 16.9336 17.45 16.7742 17.9359C16.1861 18.0997 15.57 18.1378 14.9662 18.0479C14.8704 18.0335 14.7825 17.9868 14.717 17.9155C14.6515 17.8441 14.6124 17.7526 14.6062 17.6559C14.5573 17.2449 14.6067 16.8282 14.7502 16.4399Z" fill="white"/>
<path d="M69.3117 41.2956L78.2877 41.4476L80.9597 41.5196C81.1499 41.5233 81.3396 41.5394 81.5277 41.5676C81.6848 41.5995 81.8268 41.6829 81.9312 41.8046C82.0355 41.9264 82.0962 42.0795 82.1037 42.2396C82.1166 42.4003 82.0745 42.5606 81.9844 42.6943C81.8943 42.828 81.7615 42.9272 81.6077 42.9756C81.457 43.0216 81.3011 43.0485 81.1437 43.0556C80.9517 43.0556 80.7597 43.0556 80.5677 43.0556L69.8717 42.8396L58.0317 42.5996C57.7757 42.5996 57.5197 42.5996 57.2317 42.5996C57.0386 42.5934 56.8555 42.5122 56.7211 42.3734C56.5867 42.2345 56.5116 42.0488 56.5117 41.8556C56.5243 41.6651 56.6047 41.4855 56.7382 41.349C56.8717 41.2126 57.0496 41.1284 57.2397 41.1116C57.4634 41.0956 57.688 41.0956 57.9117 41.1116L69.2717 41.3436L69.3117 41.2956Z" fill="#007BFF"/>
<path d="M70.3597 37.5596L58.3597 37.3436C58.0922 37.3499 57.8246 37.3339 57.5597 37.2956C57.4605 37.2905 57.3633 37.2657 57.2739 37.2225C57.1845 37.1793 57.1046 37.1186 57.039 37.0441C56.9734 36.9695 56.9234 36.8826 56.8919 36.7884C56.8604 36.6942 56.8481 36.5946 56.8557 36.4956C56.8578 36.3039 56.9354 36.1208 57.0717 35.986C57.208 35.8512 57.392 35.7756 57.5837 35.7756C57.8075 35.7636 58.0319 35.7636 58.2557 35.7756L74.5597 36.0556L80.8557 36.1916C81.0447 36.1757 81.2347 36.1757 81.4237 36.1916C81.6146 36.2157 81.7891 36.312 81.9111 36.4609C82.0332 36.6097 82.0935 36.7996 82.0797 36.9916C82.0663 37.1681 81.9891 37.3337 81.8625 37.4574C81.7358 37.5811 81.5685 37.6544 81.3917 37.6636C81.1067 37.6837 80.8207 37.6837 80.5357 37.6636L70.3597 37.5596Z" fill="#007BFF"/>
<path d="M69.8782 30.5438H80.9502C81.2686 30.5343 81.5872 30.553 81.9022 30.5998C82.0781 30.6251 82.2387 30.714 82.3537 30.8496C82.4686 30.9851 82.53 31.1581 82.5262 31.3358C82.5262 31.431 82.5073 31.5253 82.4706 31.6132C82.434 31.7011 82.3802 31.7808 82.3125 31.8478C82.2448 31.9147 82.1645 31.9676 82.0762 32.0033C81.9879 32.039 81.8934 32.0569 81.7982 32.0558C81.5318 32.0731 81.2646 32.0731 80.9982 32.0558L58.6702 31.9758C58.404 31.9974 58.1364 31.9974 57.8702 31.9758C57.6803 31.955 57.5042 31.8669 57.3736 31.7275C57.243 31.5881 57.1666 31.4066 57.1582 31.2158C57.1603 31.0234 57.2377 30.8394 57.3737 30.7033C57.5098 30.5672 57.6938 30.4899 57.8862 30.4878C58.1742 30.4878 58.4622 30.4878 58.7422 30.4878H69.8782V30.5438Z" fill="#007BFF"/>
<path d="M60.5102 47.4159L57.4622 47.2959C57.2708 47.2926 57.0803 47.2685 56.8942 47.2239C56.7186 47.1821 56.5641 47.078 56.4596 46.9308C56.3551 46.7836 56.3077 46.6034 56.3262 46.4239C56.3397 46.2482 56.4172 46.0836 56.544 45.9612C56.6708 45.8388 56.8381 45.7672 57.0142 45.7599C57.2805 45.7422 57.5478 45.7422 57.8142 45.7599C59.7262 45.8319 61.6302 45.9039 63.5422 45.9919C63.7946 45.996 64.0452 46.0364 64.2862 46.1119C64.4403 46.158 64.5731 46.2572 64.661 46.3919C64.7489 46.5267 64.7862 46.6882 64.7662 46.8479C64.7602 47.0093 64.6976 47.1635 64.5894 47.2835C64.4812 47.4034 64.3342 47.4814 64.1742 47.5039C63.9854 47.524 63.795 47.524 63.6062 47.5039L60.5502 47.4079L60.5102 47.4159Z" fill="#007BFF"/>
<path d="M45.7195 9.05586H52.6795C52.9659 9.05032 53.2523 9.06905 53.5355 9.11186C53.704 9.13733 53.8578 9.22237 53.9689 9.35155C54.08 9.48073 54.1411 9.64547 54.1411 9.81586C54.1411 9.98625 54.08 10.151 53.9689 10.2802C53.8578 10.4093 53.704 10.4944 53.5355 10.5199C53.2242 10.5762 52.9078 10.6003 52.5915 10.5919L42.2955 10.5519C41.1195 10.5519 39.9435 10.5519 38.7675 10.5519C38.4827 10.5577 38.1982 10.5309 37.9195 10.4719C37.7732 10.4293 37.6446 10.3404 37.5531 10.2185C37.4616 10.0966 37.4121 9.94828 37.4121 9.79586C37.4121 9.64343 37.4616 9.49513 37.5531 9.37323C37.6446 9.25133 37.7732 9.16242 37.9195 9.11986C38.2294 9.05154 38.5462 9.01932 38.8635 9.02386H45.7195V9.05586Z" fill="#007BFF"/>
<path d="M45.9195 5.91973H39.5195C39.2345 5.93952 38.9485 5.93952 38.6635 5.91973C38.5058 5.89637 38.3601 5.82189 38.2488 5.70771C38.1375 5.59354 38.0668 5.44599 38.0475 5.28773C38.0293 5.12745 38.0662 4.96576 38.1519 4.82914C38.2377 4.69253 38.3673 4.58907 38.5195 4.53572C38.8041 4.4453 39.1009 4.39942 39.3995 4.39973C40.9995 4.39973 42.5195 4.39973 44.0715 4.39973H52.2395C52.5218 4.37978 52.8052 4.37978 53.0875 4.39973C53.2841 4.42148 53.4656 4.51527 53.5971 4.66301C53.7286 4.81075 53.8007 5.00195 53.7995 5.19973C53.7748 5.37264 53.6941 5.53271 53.5699 5.65549C53.4457 5.77828 53.2847 5.85703 53.1115 5.87972C52.8451 5.89706 52.5779 5.89706 52.3115 5.87972H45.9115L45.9195 5.91973Z" fill="#007BFF"/>
<path d="M41.8399 15.4078C40.8879 15.4078 39.9358 15.4078 38.9918 15.4078C38.7393 15.4043 38.4887 15.3639 38.2478 15.2878C38.0969 15.2341 37.9691 15.1299 37.886 14.9929C37.803 14.8559 37.7697 14.6944 37.7918 14.5358C37.8085 14.3765 37.8783 14.2275 37.9901 14.1128C38.1019 13.9981 38.2491 13.9245 38.4079 13.9038C38.5966 13.8836 38.7871 13.8836 38.9759 13.9038L44.4878 13.9758C44.7727 13.9769 45.0568 14.0064 45.3358 14.0638C45.5101 14.1041 45.6625 14.2092 45.762 14.3578C45.8616 14.5064 45.9008 14.6873 45.8718 14.8638C45.8598 15.0234 45.7926 15.1738 45.6816 15.2892C45.5706 15.4045 45.4229 15.4776 45.2638 15.4958C44.9976 15.518 44.7301 15.518 44.4639 15.4958H41.8399V15.4078Z" fill="#007BFF"/>
<path d="M32.4555 57.0079L25.2075 56.8479C24.9843 56.8552 24.7612 56.8337 24.5435 56.7839C24.3817 56.7372 24.2406 56.6371 24.1432 56.4998C24.0457 56.3625 23.9977 56.1962 24.007 56.0281C24.0163 55.86 24.0823 55.7 24.1943 55.5743C24.3063 55.4486 24.4576 55.3645 24.6235 55.3359C24.9083 55.3119 25.1947 55.3119 25.4795 55.3359L35.7835 55.5199L39.5995 55.5759C39.8694 55.5841 40.1377 55.6217 40.3995 55.6879C40.5535 55.7369 40.6868 55.8357 40.7784 55.9688C40.87 56.1019 40.9148 56.2617 40.9056 56.423C40.8964 56.5843 40.8339 56.7379 40.7278 56.8598C40.6216 56.9816 40.478 57.0647 40.3195 57.0959C40.0389 57.1387 39.7552 57.1574 39.4715 57.1519L32.4155 57.0159L32.4555 57.0079Z" fill="#007BFF"/>
<path d="M32.199 61.1356L26.183 60.9916C25.615 60.9916 25.039 60.9436 24.471 60.8796C24.3673 60.871 24.2668 60.84 24.1762 60.7888C24.0857 60.7376 24.0073 60.6674 23.9464 60.583C23.8856 60.4986 23.8438 60.4021 23.8239 60.3C23.804 60.1979 23.8064 60.0927 23.831 59.9916C23.855 59.8488 23.9224 59.7169 24.024 59.6139C24.1257 59.5108 24.2566 59.4416 24.399 59.4156C24.6837 59.3875 24.9704 59.3875 25.255 59.4156L35.079 59.7276C36.415 59.7276 37.751 59.7996 39.079 59.8476C39.3316 59.8504 39.5834 59.8772 39.831 59.9276C39.9844 59.9728 40.119 60.0667 40.2142 60.1952C40.3095 60.3237 40.3603 60.4797 40.359 60.6396C40.3658 60.786 40.3239 60.9304 40.24 61.0505C40.1561 61.1706 40.0348 61.2596 39.895 61.3036C39.5895 61.3824 39.2744 61.4175 38.959 61.4076C37.463 61.4076 35.975 61.3036 34.479 61.2636C33.679 61.2636 32.951 61.2636 32.191 61.2636L32.199 61.1356Z" fill="#007BFF"/>
<path d="M28.7992 65.1999C27.3912 65.1359 26.2152 65.0879 25.0392 65.0239C24.7882 65.0123 24.5402 64.9638 24.3032 64.8799C24.1546 64.8219 24.0302 64.715 23.9502 64.5769C23.8703 64.4389 23.8396 64.2777 23.8632 64.1199C23.8846 63.962 23.9572 63.8153 24.0699 63.7026C24.1826 63.5899 24.3293 63.5173 24.4872 63.4959C24.6787 63.476 24.8718 63.476 25.0632 63.4959L31.7272 63.7999C32.0121 63.8082 32.2958 63.8403 32.5752 63.8959C32.7491 63.926 32.9068 64.0161 33.0208 64.1507C33.1349 64.2852 33.1981 64.4556 33.1992 64.6319C33.1886 64.808 33.1201 64.9756 33.0044 65.1087C32.8886 65.2419 32.7321 65.333 32.5592 65.3679C32.3386 65.3921 32.1159 65.3921 31.8952 65.3679L28.7992 65.1999Z" fill="#007BFF"/>
</svg>
