<svg width="202" height="644" viewBox="0 0 202 644" fill="none" xmlns="http://www.w3.org/2000/svg">
<path d="M124 66.6201L121 92.9801" stroke="#007BFF" stroke-opacity="0.6" stroke-width="2.157" stroke-miterlimit="10" stroke-linecap="round" stroke-linejoin="round"/>
<path d="M55.5301 126.1C65.2501 131.84 72.0101 142.53 54.6601 155.88C38.4901 168.33 29.4601 164.97 28.9801 158.29C28.3301 149.33 51.6301 136.56 70.7301 159.33C85.8301 177.33 62.8001 190.82 61.8601 186.67C60.9201 182.52 83.9101 167.65 118.02 198.43" stroke="#007BFF" stroke-opacity="0.6" stroke-width="2.157" stroke-miterlimit="10" stroke-linecap="round" stroke-linejoin="round"/>
<path d="M60.2194 34.06C69.669 34.06 77.3294 26.8831 77.3294 18.03C77.3294 9.17688 69.669 2 60.2194 2C50.7698 2 43.1094 9.17688 43.1094 18.03C43.1094 26.8831 50.7698 34.06 60.2194 34.06Z" stroke="#007BFF" stroke-opacity="0.6" stroke-width="2.157" stroke-miterlimit="10" stroke-linecap="round" stroke-linejoin="round"/>
<path d="M60.0699 24.2697C63.6045 24.2697 66.4699 21.5073 66.4699 18.0997C66.4699 14.6921 63.6045 11.9297 60.0699 11.9297C56.5353 11.9297 53.6699 14.6921 53.6699 18.0997C53.6699 21.5073 56.5353 24.2697 60.0699 24.2697Z" stroke="#007BFF" stroke-opacity="0.6" stroke-width="2.157" stroke-miterlimit="10" stroke-linecap="round" stroke-linejoin="round"/>
<path d="M66 375.32L79.65 303.51H113.65L127.11 231.62H200.79" stroke="#007BFF" stroke-opacity="0.6" stroke-width="2.157" stroke-miterlimit="10" stroke-linecap="round" stroke-linejoin="round"/>
<path d="M77.3301 18.0298H157.19L171.63 67.6698" stroke="#007BFF" stroke-opacity="0.6" stroke-width="2.157" stroke-miterlimit="10" stroke-linecap="round" stroke-linejoin="round"/>
<path d="M43.8096 250.66C44.6796 253.35 39.5996 257.39 32.4696 259.68C25.3396 261.98 18.8596 261.66 17.9896 258.97C17.1196 256.28 22.1996 252.24 29.3296 249.95C36.4596 247.65 42.9396 247.97 43.8096 250.66Z" stroke="#007BFF" stroke-opacity="0.6" stroke-width="2.157" stroke-miterlimit="10" stroke-linecap="round" stroke-linejoin="round"/>
<path d="M17.9902 258.97L18.0502 257.49L18.8102 239.41L19.6302 219.85L31.7202 235.26L42.8902 249.49L43.8102 250.66" stroke="#007BFF" stroke-opacity="0.6" stroke-width="2.157" stroke-miterlimit="10" stroke-linecap="round" stroke-linejoin="round"/>
<path d="M35.3698 65H10.0898V90.28H35.3698V65Z" stroke="#007BFF" stroke-opacity="0.6" stroke-width="2.157" stroke-miterlimit="10" stroke-linecap="round" stroke-linejoin="round"/>
<path d="M27.28 73.3203H2V98.6003H27.28V73.3203Z" stroke="#007BFF" stroke-opacity="0.6" stroke-width="2.157" stroke-miterlimit="10" stroke-linecap="round" stroke-linejoin="round"/>
<path d="M34.8094 403.05L19.4395 424.67" stroke="#007BFF" stroke-opacity="0.6" stroke-width="2.157" stroke-miterlimit="10" stroke-linecap="round" stroke-linejoin="round"/>
<path d="M55.5998 428.05L30.2598 435.9" stroke="#007BFF" stroke-opacity="0.6" stroke-width="2.157" stroke-miterlimit="10" stroke-linecap="round" stroke-linejoin="round"/>
<path d="M53.6393 570.62L27.2793 567.62" stroke="#007BFF" stroke-opacity="0.6" stroke-width="2.157" stroke-miterlimit="10" stroke-linecap="round" stroke-linejoin="round"/>
<path d="M42.8405 596.93L21.2305 581.56" stroke="#007BFF" stroke-opacity="0.6" stroke-width="2.157" stroke-miterlimit="10" stroke-linecap="round" stroke-linejoin="round"/>
<path d="M17.85 617.72L10 592.38" stroke="#007BFF" stroke-opacity="0.6" stroke-width="2.157" stroke-miterlimit="10" stroke-linecap="round" stroke-linejoin="round"/>
<path d="M32.86 497.45C32.86 502.33 28.64 506.28 23.43 506.28C18.22 506.28 14 502.33 14 497.45C14 492.57 18.22 488.62 23.43 488.62C28.64 488.62 32.86 492.58 32.86 497.45Z" stroke="#007BFF" stroke-opacity="0.6" stroke-width="2.157" stroke-miterlimit="10" stroke-linecap="round" stroke-linejoin="round"/>
<path d="M23.3501 500.9C25.2941 500.9 26.8701 499.378 26.8701 497.5C26.8701 495.622 25.2941 494.1 23.3501 494.1C21.406 494.1 19.8301 495.622 19.8301 497.5C19.8301 499.378 21.406 500.9 23.3501 500.9Z" stroke="#007BFF" stroke-opacity="0.6" stroke-width="2.157" stroke-miterlimit="10" stroke-linecap="round" stroke-linejoin="round"/>
<path d="M19.4399 344.42C21.384 344.42 22.9599 342.898 22.9599 341.02C22.9599 339.142 21.384 337.62 19.4399 337.62C17.4959 337.62 15.9199 339.142 15.9199 341.02C15.9199 342.898 17.4959 344.42 19.4399 344.42Z" stroke="#007BFF" stroke-opacity="0.6" stroke-width="2.157" stroke-miterlimit="10" stroke-linecap="round" stroke-linejoin="round"/>
</svg>
