<svg width="212" height="731" viewBox="0 0 212 731" fill="none" xmlns="http://www.w3.org/2000/svg">
<path d="M134 66.6201L131 92.9801" stroke="white" stroke-opacity="0.6" stroke-width="2.157" stroke-miterlimit="10" stroke-linecap="round" stroke-linejoin="round"/>
<path d="M65.5301 126.1C75.2501 131.84 82.0101 142.53 64.6601 155.88C48.4901 168.33 39.4601 164.97 38.9801 158.29C38.3301 149.33 61.6301 136.56 80.7301 159.33C95.8301 177.33 72.8001 190.82 71.8601 186.67C70.9201 182.52 93.9101 167.65 128.02 198.43" stroke="white" stroke-opacity="0.6" stroke-width="2.157" stroke-miterlimit="10" stroke-linecap="round" stroke-linejoin="round"/>
<path d="M70.2194 34.06C79.669 34.06 87.3294 26.8831 87.3294 18.03C87.3294 9.17688 79.669 2 70.2194 2C60.7698 2 53.1094 9.17688 53.1094 18.03C53.1094 26.8831 60.7698 34.06 70.2194 34.06Z" stroke="white" stroke-opacity="0.6" stroke-width="2.157" stroke-miterlimit="10" stroke-linecap="round" stroke-linejoin="round"/>
<path d="M70.0699 24.2697C73.6045 24.2697 76.4699 21.5073 76.4699 18.0997C76.4699 14.6921 73.6045 11.9297 70.0699 11.9297C66.5353 11.9297 63.6699 14.6921 63.6699 18.0997C63.6699 21.5073 66.5353 24.2697 70.0699 24.2697Z" stroke="white" stroke-opacity="0.6" stroke-width="2.157" stroke-miterlimit="10" stroke-linecap="round" stroke-linejoin="round"/>
<path d="M76 375.32L89.65 303.51H123.65L137.11 231.62H210.79" stroke="white" stroke-opacity="0.6" stroke-width="2.157" stroke-miterlimit="10" stroke-linecap="round" stroke-linejoin="round"/>
<path d="M87.3301 18.0298H167.19L181.63 67.6698" stroke="white" stroke-opacity="0.6" stroke-width="2.157" stroke-miterlimit="10" stroke-linecap="round" stroke-linejoin="round"/>
<path d="M53.8096 250.66C54.6796 253.35 49.5996 257.39 42.4696 259.68C35.3396 261.98 28.8596 261.66 27.9896 258.97C27.1196 256.28 32.1996 252.24 39.3296 249.95C46.4596 247.65 52.9396 247.97 53.8096 250.66Z" stroke="white" stroke-opacity="0.6" stroke-width="2.157" stroke-miterlimit="10" stroke-linecap="round" stroke-linejoin="round"/>
<path d="M27.9902 258.97L28.0502 257.49L28.8102 239.41L29.6302 219.85L41.7202 235.26L52.8902 249.49L53.8102 250.66" stroke="white" stroke-opacity="0.6" stroke-width="2.157" stroke-miterlimit="10" stroke-linecap="round" stroke-linejoin="round"/>
<path d="M45.3698 65H20.0898V90.28H45.3698V65Z" stroke="white" stroke-opacity="0.6" stroke-width="2.157" stroke-miterlimit="10" stroke-linecap="round" stroke-linejoin="round"/>
<path d="M37.28 73.3203H12V98.6003H37.28V73.3203Z" stroke="white" stroke-opacity="0.6" stroke-width="2.157" stroke-miterlimit="10" stroke-linecap="round" stroke-linejoin="round"/>
<path d="M44.8094 403.05L29.4395 424.67" stroke="white" stroke-opacity="0.6" stroke-width="2.157" stroke-miterlimit="10" stroke-linecap="round" stroke-linejoin="round"/>
<path d="M65.5998 428.05L40.2598 435.9" stroke="white" stroke-opacity="0.6" stroke-width="2.157" stroke-miterlimit="10" stroke-linecap="round" stroke-linejoin="round"/>
<path d="M63.6393 570.62L37.2793 567.62" stroke="white" stroke-opacity="0.6" stroke-width="2.157" stroke-miterlimit="10" stroke-linecap="round" stroke-linejoin="round"/>
<path d="M52.8405 596.93L31.2305 581.56" stroke="white" stroke-opacity="0.6" stroke-width="2.157" stroke-miterlimit="10" stroke-linecap="round" stroke-linejoin="round"/>
<path d="M27.85 617.72L20 592.38" stroke="white" stroke-opacity="0.6" stroke-width="2.157" stroke-miterlimit="10" stroke-linecap="round" stroke-linejoin="round"/>
<path d="M42.86 497.45C42.86 502.33 38.64 506.28 33.43 506.28C28.22 506.28 24 502.33 24 497.45C24 492.57 28.22 488.62 33.43 488.62C38.64 488.62 42.86 492.58 42.86 497.45Z" stroke="white" stroke-opacity="0.6" stroke-width="2.157" stroke-miterlimit="10" stroke-linecap="round" stroke-linejoin="round"/>
<path d="M33.3501 500.9C35.2941 500.9 36.8701 499.378 36.8701 497.5C36.8701 495.622 35.2941 494.1 33.3501 494.1C31.406 494.1 29.8301 495.622 29.8301 497.5C29.8301 499.378 31.406 500.9 33.3501 500.9Z" stroke="white" stroke-opacity="0.6" stroke-width="2.157" stroke-miterlimit="10" stroke-linecap="round" stroke-linejoin="round"/>
<path d="M29.4399 344.42C31.384 344.42 32.9599 342.898 32.9599 341.02C32.9599 339.142 31.384 337.62 29.4399 337.62C27.4959 337.62 25.9199 339.142 25.9199 341.02C25.9199 342.898 27.4959 344.42 29.4399 344.42Z" stroke="white" stroke-opacity="0.6" stroke-width="2.157" stroke-miterlimit="10" stroke-linecap="round" stroke-linejoin="round"/>
<path d="M107.62 687.54C110.172 687.54 112.24 685.543 112.24 683.08C112.24 680.617 110.172 678.62 107.62 678.62C105.068 678.62 103 680.617 103 683.08C103 685.543 105.068 687.54 107.62 687.54Z" fill="white"/>
<path d="M87.6 780.7L66.73 657.83H3.06L-6 617.62" stroke="white" stroke-opacity="0.6" stroke-width="2.157" stroke-miterlimit="10" stroke-linecap="round" stroke-linejoin="round"/>
</svg>
