<svg width="230" height="623" viewBox="0 0 230 623" fill="none" xmlns="http://www.w3.org/2000/svg">
<path d="M165.071 10.83C165.071 15.71 160.851 19.66 155.641 19.66C150.431 19.66 146.211 15.71 146.211 10.83C146.211 5.95 150.431 2 155.641 2C160.851 2 165.071 5.96 165.071 10.83Z" stroke="#007BFF" stroke-opacity="0.6" stroke-width="2.157" stroke-miterlimit="10" stroke-linecap="round" stroke-linejoin="round"/>
<path d="M11.43 172.24C16.638 172.24 20.86 168.287 20.86 163.41C20.86 158.533 16.638 154.58 11.43 154.58C6.22196 154.58 2 158.533 2 163.41C2 168.287 6.22196 172.24 11.43 172.24Z" stroke="#007BFF" stroke-opacity="0.6" stroke-width="2.157" stroke-miterlimit="10" stroke-linecap="round" stroke-linejoin="round"/>
<path d="M14.8701 163.461C14.8701 165.341 13.2901 166.861 11.3501 166.861C9.40008 166.861 7.83008 165.341 7.83008 163.461C7.83008 161.581 9.41008 160.061 11.3501 160.061C13.2901 160.061 14.8701 161.581 14.8701 163.461Z" stroke="#007BFF" stroke-opacity="0.6" stroke-width="2.157" stroke-miterlimit="10" stroke-linecap="round" stroke-linejoin="round"/>
<path d="M11.4297 154.58L25.0797 82.7704H59.0797L72.5397 10.8804H146.22" stroke="#007BFF" stroke-opacity="0.6" stroke-width="2.157" stroke-miterlimit="10" stroke-linecap="round" stroke-linejoin="round"/>
<path d="M136.573 130.11C120.563 114.34 132.043 79.16 151.423 72.23C180.273 61.91 151.353 139.88 147.873 104.77C145.013 75.84 182.113 37.15 185.883 63.44C188.113 79.02 174.673 86.51 172.593 74.6C170.553 62.92 178.383 44.46 201.853 35" stroke="#007BFF" stroke-opacity="0.6" stroke-width="2.157" stroke-miterlimit="10" stroke-linecap="round" stroke-linejoin="round"/>
<path d="M64 155C122.99 155 170.82 202.82 170.82 261.82" stroke="#007BFF" stroke-opacity="0.6" stroke-width="2.157" stroke-miterlimit="10" stroke-linecap="round" stroke-linejoin="round"/>
<path d="M188.11 192.06C197.56 192.06 205.22 184.883 205.22 176.03C205.22 167.177 197.56 160 188.11 160C178.66 160 171 167.177 171 176.03C171 184.883 178.66 192.06 188.11 192.06Z" stroke="#007BFF" stroke-opacity="0.6" stroke-width="2.157" stroke-miterlimit="10" stroke-linecap="round" stroke-linejoin="round"/>
<path d="M194.351 176.11C194.351 179.52 191.491 182.28 187.951 182.28C184.421 182.28 181.551 179.52 181.551 176.11C181.551 172.7 184.411 169.94 187.951 169.94C191.491 169.94 194.351 172.7 194.351 176.11Z" stroke="#007BFF" stroke-opacity="0.6" stroke-width="2.157" stroke-miterlimit="10" stroke-linecap="round" stroke-linejoin="round"/>
<path d="M185.969 498.382L227.016 380.706L171.258 349.965L182.738 310.378" stroke="#007BFF" stroke-opacity="0.6" stroke-width="2.157" stroke-miterlimit="10" stroke-linecap="round" stroke-linejoin="round"/>
<path d="M192.175 515.04C189.085 520.644 181.728 522.515 175.747 519.217C169.765 515.919 167.42 508.7 170.51 503.095C173.6 497.49 180.957 495.62 186.938 498.918C192.919 502.215 195.27 509.426 192.175 515.04Z" stroke="#007BFF" stroke-opacity="0.6" stroke-width="2.157" stroke-miterlimit="10" stroke-linecap="round" stroke-linejoin="round"/>
<path d="M179.071 512.964C181.306 514.196 184.081 513.446 185.27 511.289C186.46 509.132 185.612 506.384 183.378 505.152C181.143 503.921 178.368 504.671 177.179 506.828C175.989 508.985 176.837 511.732 179.071 512.964Z" stroke="#007BFF" stroke-opacity="0.6" stroke-width="2.157" stroke-miterlimit="10" stroke-linecap="round" stroke-linejoin="round"/>
<path d="M180.047 309.272C186.03 312.57 193.385 310.7 196.476 305.094C199.566 299.489 197.222 292.271 191.239 288.972C185.256 285.674 177.901 287.544 174.81 293.15C171.72 298.755 174.065 305.973 180.047 309.272Z" stroke="#007BFF" stroke-opacity="0.6" stroke-width="2.157" stroke-miterlimit="10" stroke-linecap="round" stroke-linejoin="round"/>
<path d="M188.91 300.981C187.935 302.751 185.622 303.405 183.73 302.362C181.838 301.319 181.156 299.014 182.132 297.244C183.108 295.474 185.42 294.821 187.313 295.864C189.205 296.907 189.886 299.211 188.91 300.981Z" stroke="#007BFF" stroke-opacity="0.6" stroke-width="1.5"/>
<path d="M179.552 598.036C179.322 598.816 179.632 599.606 180.262 599.796C180.892 599.986 181.582 599.496 181.822 598.716C182.052 597.936 181.742 597.146 181.112 596.956C180.482 596.766 179.782 597.246 179.552 598.036Z" stroke="#007BFF" stroke-opacity="0.6" stroke-width="2.157" stroke-miterlimit="10" stroke-linecap="round" stroke-linejoin="round"/>
<path d="M185.173 607.096C185.173 607.096 186.253 617.426 189.103 621.126C189.103 621.126 181.863 615.386 179.163 607.096C173.193 607.096 158.353 607.096 153.113 607.096C147.873 607.096 145.023 604.396 144.563 597.386C144.103 590.376 142.963 580.466 146.313 577.176C149.113 574.426 155.273 575.036 163.073 574.926C170.873 574.806 199.143 574.116 205.793 574.006C212.443 573.886 216.483 575.506 216.953 583.656C217.413 591.806 217.413 595.096 217.353 599.086C217.293 603.076 215.623 606.946 208.453 607.356C201.273 607.746 185.173 607.096 185.173 607.096Z" stroke="#007BFF" stroke-opacity="0.6" stroke-width="2.157" stroke-miterlimit="10" stroke-linecap="round" stroke-linejoin="round"/>
<path d="M173.444 587.476C173.444 587.476 172.714 581.616 178.994 581.616C182.384 581.616 183.894 584.436 183.004 587.476C181.844 591.406 177.184 591.756 178.994 595.026" stroke="#007BFF" stroke-opacity="0.6" stroke-width="2.157" stroke-miterlimit="10" stroke-linecap="round" stroke-linejoin="round"/>
<path d="M165.52 418.8C167.464 418.8 169.04 417.278 169.04 415.4C169.04 413.522 167.464 412 165.52 412C163.576 412 162 413.522 162 415.4C162 417.278 163.576 418.8 165.52 418.8Z" stroke="#007BFF" stroke-opacity="0.6" stroke-width="2.157" stroke-miterlimit="10" stroke-linecap="round" stroke-linejoin="round"/>
<path d="M213.52 261.8C215.464 261.8 217.04 260.278 217.04 258.4C217.04 256.522 215.464 255 213.52 255C211.576 255 210 256.522 210 258.4C210 260.278 211.576 261.8 213.52 261.8Z" stroke="#007BFF" stroke-opacity="0.6" stroke-width="2.157" stroke-miterlimit="10" stroke-linecap="round" stroke-linejoin="round"/>
</svg>
