<svg width="322" height="81" viewBox="0 0 322 81" fill="none" xmlns="http://www.w3.org/2000/svg">
<path d="M71 23C71 25.2106 69.21 27 67 27C64.79 27 63 25.2106 63 23C63 20.7894 64.79 19 67 19C69.21 19 71 20.7939 71 23Z" stroke="#007BFF" stroke-opacity="0.6" stroke-width="2.157" stroke-miterlimit="10" stroke-linecap="round" stroke-linejoin="round"/>
<path d="M2 88L8.17738 55.5181H23.5643L29.6557 23H63" stroke="#007BFF" stroke-opacity="0.6" stroke-width="2.157" stroke-miterlimit="10" stroke-linecap="round" stroke-linejoin="round"/>
<path d="M119.326 45C112.294 37.8703 117.337 21.9651 125.849 18.832C138.521 14.1662 125.818 49.4171 124.29 33.5436C123.034 20.4641 139.329 2.97203 140.985 14.858C141.965 21.9018 136.061 25.2881 135.148 19.9035C134.252 14.6229 137.691 6.27694 148 2" stroke="#007BFF" stroke-opacity="0.6" stroke-width="2.157" stroke-miterlimit="10" stroke-linecap="round" stroke-linejoin="round"/>
<path d="M63 45C89.5074 45 111 66.4881 111 93" stroke="#007BFF" stroke-opacity="0.6" stroke-width="2.157" stroke-miterlimit="10" stroke-linecap="round" stroke-linejoin="round"/>
<path d="M55.5 74C59.6421 74 63 70.6421 63 66.5C63 62.3579 59.6421 59 55.5 59C51.3579 59 48 62.3579 48 66.5C48 70.6421 51.3579 74 55.5 74Z" stroke="#007BFF" stroke-opacity="0.6" stroke-width="2.157" stroke-miterlimit="10" stroke-linecap="round" stroke-linejoin="round"/>
<path d="M58 66.5C58 67.8817 56.8828 69 55.5 69C54.1211 69 53 67.8817 53 66.5C53 65.1183 54.1172 64 55.5 64C56.8828 64 58 65.1183 58 66.5Z" stroke="#007BFF" stroke-opacity="0.6" stroke-width="2.157" stroke-miterlimit="10" stroke-linecap="round" stroke-linejoin="round"/>
<path d="M135 73C136.657 73 138 71.6569 138 70C138 68.3431 136.657 67 135 67C133.343 67 132 68.3431 132 70C132 71.6569 133.343 73 135 73Z" stroke="#007BFF" stroke-opacity="0.6" stroke-width="2.157" stroke-miterlimit="10" stroke-linecap="round" stroke-linejoin="round"/>
<path d="M185.515 158.081L211.312 84.1235L176.27 64.8036L183.484 39.9238" stroke="#007BFF" stroke-opacity="0.6" stroke-width="2.157" stroke-miterlimit="10" stroke-linecap="round" stroke-linejoin="round"/>
<path d="M182.051 39.3699C185.67 41.3649 190.178 40.1262 192.12 36.6033C194.062 33.0803 192.703 28.6072 189.085 26.6122C185.467 24.6172 180.959 25.8559 179.016 29.3788C177.074 32.9018 178.433 37.3749 182.051 39.3699Z" stroke="#007BFF" stroke-opacity="0.6" stroke-width="2.157" stroke-miterlimit="10" stroke-linecap="round" stroke-linejoin="round"/>
<path d="M187.798 34.0718C187.128 35.288 185.569 35.7387 184.313 35.0463C183.058 34.354 182.607 32.7956 183.277 31.5794C183.948 30.3633 185.506 29.9126 186.762 30.6049C188.018 31.2973 188.469 32.8557 187.798 34.0718Z" stroke="#007BFF" stroke-opacity="0.6" stroke-width="1.5"/>
<path d="M245.198 34.7114C245.029 35.2862 245.257 35.8683 245.722 36.0083C246.186 36.1483 246.694 35.7872 246.871 35.2125C247.041 34.6377 246.812 34.0556 246.348 33.9156C245.884 33.7756 245.368 34.1293 245.198 34.7114Z" stroke="#007BFF" stroke-opacity="0.6" stroke-width="2.157" stroke-miterlimit="10" stroke-linecap="round" stroke-linejoin="round"/>
<path d="M249.339 41.3874C249.339 41.3874 250.135 48.9992 252.235 51.7256C252.235 51.7256 246.9 47.496 244.911 41.3874C240.512 41.3874 229.576 41.3874 225.715 41.3874C221.854 41.3874 219.754 39.3978 219.415 34.2324C219.076 29.067 218.236 21.7646 220.705 19.3403C222.768 17.3139 227.307 17.7634 233.054 17.6824C238.802 17.5939 259.633 17.0855 264.533 17.0044C269.434 16.916 272.411 18.1097 272.757 24.1152C273.096 30.1207 273.096 32.545 273.052 35.4851C273.007 38.4252 271.777 41.2769 266.494 41.579C261.203 41.8663 249.339 41.3874 249.339 41.3874Z" stroke="#007BFF" stroke-opacity="0.6" stroke-width="2.157" stroke-miterlimit="10" stroke-linecap="round" stroke-linejoin="round"/>
<path d="M240.697 26.9301C240.697 26.9301 240.159 22.6121 244.786 22.6121C247.284 22.6121 248.397 24.69 247.741 26.9301C246.887 29.826 243.453 30.0839 244.786 32.4935" stroke="#007BFF" stroke-opacity="0.6" stroke-width="2.157" stroke-miterlimit="10" stroke-linecap="round" stroke-linejoin="round"/>
<path d="M320.158 38.2106L300.734 36" stroke="#007BFF" stroke-opacity="0.6" stroke-width="2.157" stroke-miterlimit="10" stroke-linecap="round" stroke-linejoin="round"/>
<path d="M312.199 57.5976L296.275 46.272" stroke="#007BFF" stroke-opacity="0.6" stroke-width="2.157" stroke-miterlimit="10" stroke-linecap="round" stroke-linejoin="round"/>
<path d="M293.784 72.9168L288 54.2446" stroke="#007BFF" stroke-opacity="0.6" stroke-width="2.157" stroke-miterlimit="10" stroke-linecap="round" stroke-linejoin="round"/>
</svg>
