<svg width="48" height="45" viewBox="0 0 48 45" fill="none" xmlns="http://www.w3.org/2000/svg">
<path d="M36.7246 37C38.1551 37.4768 42.3142 37.4989 46.166 35.7652C46.5114 35.6097 46.7246 35.2607 46.7246 34.882V17C46.7246 17 46.2246 15.5 42.7246 15" stroke="#F6F9FF" stroke-width="1.5"/>
<path d="M34.7246 28.5C38.2246 29 44.7246 28.5 46.7246 26.5" stroke="#F6F9FF" stroke-width="1.5"/>
<path d="M36.2246 31C39.7246 31.5 44.7246 31 46.7246 29" stroke="#F6F9FF" stroke-width="1.5"/>
<path d="M36.7246 34C40.2246 34.5 44.7246 34 46.7246 32" stroke="#F6F9FF" stroke-width="1.5"/>
<path d="M29.2236 33.5001C29.2236 30 24.2236 29.5002 23.2236 32.5001C23.2236 34.5002 25.2236 34.5002 25.2236 34.5002C29.7236 34 29.2236 37.1001 28.7236 37.5002C26.2236 39.5002 22.2236 38.0002 23.2236 36.0002" stroke="#F6F9FF" stroke-width="1.5"/>
<path d="M26.2246 28V30.3125" stroke="#F6F9FF" stroke-width="1.5"/>
<path d="M26.2246 39V41" stroke="#F6F9FF" stroke-width="1.5"/>
<path d="M21.2237 26.9997C31.2237 22.4996 35.7237 30.9998 35.2237 35.4997C34.6682 40.4998 30.7237 43.4997 26.2237 43.4997C15.2238 42.9998 15.7237 31.9998 20.2237 27.4997" stroke="#F6F9FF" stroke-width="1.5"/>
<path d="M41.7246 14.5001C39.2246 14 30.7246 14 28.2246 16.5V18M46.7246 23.5C45.7246 25.5 30.2246 27 28.2246 23V21M28.2246 18C32.7246 20.5 42.7246 20.5 46.2246 18M28.2246 18V21M28.2246 21C36.2246 24.5 44.7246 22 46.7246 21" stroke="#F6F9FF" stroke-width="1.5"/>
<path d="M26.7242 20C26.3242 16.4 22.2242 12.5 19.7242 10.4999C18.1242 9.6999 20.7242 4.83323 22.2242 2.4999C22.7242 0.5 18.2232 2 15.7242 2.4999C13.7242 2.89998 12.7242 2 7.72418 1C6.52418 1.4 10.0575 7.33333 11.2242 10C11.2242 10.7999 6.22418 13.5 4.22419 17C-2.27577 26.5 0.724183 40 16.2242 39" stroke="#F6F9FF" stroke-width="1.5"/>
<path d="M10.7246 10.5H17.2246" stroke="#F6F9FF" stroke-width="1.5"/>
<path d="M12.7246 8H19.2246" stroke="#F6F9FF" stroke-width="1.5"/>
</svg>
