<svg width="48" height="42" viewBox="0 0 48 42" fill="none" xmlns="http://www.w3.org/2000/svg">
<path d="M1 34.493V15.4366C1 9.85921 2.40815 8 8.04081 8H38.0816C42.3061 7.99995 46.249 8.55775 47 12.6479V34.493C47 36.3521 47 41 40.898 41H6.16327C4.12925 40.8451 1.00001 39.1408 1 34.493Z" stroke="#F6F9FF" stroke-width="1.5"/>
<path d="M20.9211 27.7692H20.0263M20.0263 27.7692H17C16.4477 27.7692 16 27.3215 16 26.7692V22.2308C16 21.6785 16.4477 21.2308 17 21.2308H20.3684C20.9207 21.2308 21.3684 20.7831 21.3684 20.2308V17C21.3684 16.4477 21.8161 16 22.3684 16H26.6316C27.1839 16 27.6316 16.4477 27.6316 17V20.2308C27.6316 20.7831 28.0793 21.2308 28.6316 21.2308H32C32.5523 21.2308 33 21.6785 33 22.2308V26.7692C33 27.3215 32.5523 27.7692 32 27.7692H28.6316C28.0793 27.7692 27.6316 28.2169 27.6316 28.7692V32C27.6316 32.5523 27.1839 33 26.6316 33H22.3684C21.8161 33 21.3684 32.5523 21.3684 32V28.7692C21.3684 28.2169 20.9207 27.7692 20.3684 27.7692H20.0263Z" stroke="#F6F9FF" stroke-width="1.5"/>
<path d="M16 8.00001V2.90896C16.4423 0.516506 29.3574 0.372901 31.6887 2.47789C31.9523 2.71588 32 3.09075 32 3.44586V8.00001" stroke="#F6F9FF" stroke-width="1.5"/>
</svg>
