<svg width="61" height="45" viewBox="0 0 61 45" fill="none" xmlns="http://www.w3.org/2000/svg">
<path d="M0 1.5H1.5" stroke="#F6F9FF" stroke-width="1.5"/>
<path d="M4 1.5H18" stroke="#F6F9FF" stroke-width="1.5"/>
<path d="M4 5.5H38.5C39.0523 5.5 39.5 5.94772 39.5 6.5V37.5C39.5 38.0523 39.0523 38.5 38.5 38.5H19.5" stroke="#F6F9FF" stroke-width="1.5"/>
<path d="M8 39H2C1.44772 39 1 38.5523 1 38V6.5C1 5.94772 1.44772 5.5 2 5.5H7" stroke="#F6F9FF" stroke-width="1.5"/>
<path d="M4 10H39" stroke="#F6F9FF" stroke-width="1.5"/>
<path d="M1 34.5H6.5" stroke="#F6F9FF" stroke-width="1.5"/>
<path d="M21.5 34H39.5" stroke="#F6F9FF" stroke-width="1.5"/>
<path d="M14.5 37.5V39" stroke="#F6F9FF" stroke-width="1.5"/>
<path d="M49 37.5V39" stroke="#F6F9FF" stroke-width="1.5"/>
<path d="M56 34H60" stroke="#F6F9FF" stroke-width="1.5"/>
<path d="M59.5 26.5L44.4688 26.0303C43.9289 26.0134 43.5 25.5709 43.5 25.0308V17.5C43.5 16.9477 43.9477 16.5 44.5 16.5H53" stroke="#F6F9FF" stroke-width="1.5"/>
<path d="M40 12.5H50.4437C50.7896 12.5 51.1109 12.6788 51.2934 12.9726L59.8496 26.7578C59.9479 26.9161 60 27.0988 60 27.2851V37.5C60 38.0523 59.5523 38.5 59 38.5H55" stroke="#F6F9FF" stroke-width="1.5"/>
<path d="M37.5 38.5H43" stroke="#F6F9FF" stroke-width="1.5"/>
<path d="M14.5 44C17.5376 44 20 41.5376 20 38.5C20 35.4624 17.5376 33 14.5 33C11.4624 33 9 35.4624 9 38.5C9 41.5376 11.4624 44 14.5 44Z" stroke="#F6F9FF" stroke-width="1.5"/>
<path d="M48.5 44C51.5376 44 54 41.5376 54 38.5C54 35.4624 51.5376 33 48.5 33C45.4624 33 43 35.4624 43 38.5C43 41.5376 45.4624 44 48.5 44Z" stroke="#F6F9FF" stroke-width="1.5"/>
</svg>
