<svg width="49" height="46" viewBox="0 0 49 46" fill="none" xmlns="http://www.w3.org/2000/svg">
<path d="M16.3027 10.8975V13.0835" stroke="#F6F9FF" stroke-width="1.5"/>
<path d="M21.2207 10.8975V13.0835" stroke="#F6F9FF" stroke-width="1.5"/>
<path d="M2.63867 45.3277V38.7695" stroke="#F6F9FF" stroke-width="1.5"/>
<path d="M46.3613 45.3277V38.7695" stroke="#F6F9FF" stroke-width="1.5"/>
<path d="M45.8028 39.2932L2.93301 38.8501C1.86222 38.8391 1 37.9679 1 36.897C1 35.8183 1.87447 34.9438 2.95319 34.9438H45.8252C47.0263 34.9438 48 35.9175 48 37.1186C48 38.3285 47.0126 39.3057 45.8028 39.2932Z" stroke="#F6F9FF" stroke-width="1.5"/>
<path d="M7.01172 34.9439V20.6416C7.01172 20.0893 7.45943 19.6416 8.01172 19.6416H30.0582C30.6105 19.6416 31.0582 20.0893 31.0582 20.6416V34.3974" stroke="#F6F9FF" stroke-width="1.5"/>
<path d="M31.0586 24.0137C34.5563 25.3253 34.1555 29.2966 33.7912 31.1183" stroke="#F6F9FF" stroke-width="1.5"/>
<path d="M7.01172 24.0137C3.14319 25.4262 3.87619 29.1565 4.27916 31.1183" stroke="#F6F9FF" stroke-width="1.5"/>
<path d="M30.5117 30.5718C32.9983 30.5718 35.6921 30.5718 34.656 34.9439" stroke="#F6F9FF" stroke-width="1.5"/>
<path d="M7.55859 30.5718C5.072 30.5718 2.37818 30.5718 3.41427 34.9439" stroke="#F6F9FF" stroke-width="1.5"/>
<path d="M19.5805 25.1064C11.9294 26.746 21.22 34.3971 21.22 26.1995" stroke="#F6F9FF" stroke-width="1.5"/>
<path d="M10.837 10.8977C8.65088 -1.67199 22.3137 -0.578926 21.2207 4.88604" stroke="#F6F9FF" stroke-width="1.5"/>
<path d="M21.2207 4.88614C23.844 -0.797583 29.4184 5.43232 26.6858 11.444" stroke="#F6F9FF" stroke-width="1.5"/>
<path d="M15.7568 19.6413C13.1335 17.4553 12.842 12.1723 13.0242 9.80413C13.0242 6.30646 24.5009 6.5251 24.5009 9.80413C24.9382 15.925 23.2257 18.9126 22.3149 19.6413" stroke="#F6F9FF" stroke-width="1.5"/>
<path d="M13.0236 14.7231C7.01191 15.2697 10.8375 9.25794 13.0236 10.8976" stroke="#F6F9FF" stroke-width="1.5"/>
<path d="M25.0461 10.9327C29.9647 10.3508 27.2322 16.3624 24.4996 14.723" stroke="#F6F9FF" stroke-width="1.5"/>
<path d="M18.4876 15.2695C19.0912 15.2695 19.5806 15.7589 19.5806 16.3626C19.5806 16.9662 19.0912 17.4556 18.4876 17.4556C17.8839 17.4556 17.3945 16.9662 17.3945 16.3626C17.3945 15.7589 17.8839 15.2695 18.4876 15.2695Z" fill="#F6F9FF" stroke="#F6F9FF" stroke-width="1.5"/>
<path d="M19.0352 16.9087H25.9521C26.6026 16.9087 27.08 16.2973 26.9222 15.6662L26.6863 14.7227" stroke="#F6F9FF" stroke-width="1.5"/>
<path d="M2 45H47" stroke="#F6F9FF" stroke-width="1.5"/>
</svg>
