<svg width="49" height="47" viewBox="0 0 49 47" fill="none" xmlns="http://www.w3.org/2000/svg">
<path d="M12.091 7.87227H47.6397C43.2645 22.7113 44.3583 26.9363 37.7955 26.9363H31.2326M31.2326 26.9363H17.56L10.9971 4.26556C8.80955 1.17384 3.88741 0.658789 2.24667 1.1741C0.934097 3.23508 0.0590712 3.75032 2.79357 3.75032C6.29379 4.16252 8.26265 4.26556 9.35646 8.38751L14.8255 27.4515C6.62194 30.0277 5.52813 36.2106 12.091 37.2411H41.0769C45.9991 37.2411 47.0929 34.6649 40.53 34.6649H12.091C9.90336 34.1497 10.9971 32.0887 12.091 31.5735L16.4662 29.5125H28.4981C31.1233 27.8637 31.4149 27.108 31.2326 26.9363Z" stroke="#F6F9FF" stroke-width="1.5"/>
<path d="M7.71484 5.29584L9.90246 3.23486" stroke="#F6F9FF" stroke-width="1.5"/>
<path d="M14.2793 14.0547H20.2952" stroke="#F6F9FF" stroke-width="1.5"/>
<path d="M15.373 20.7529H21.389" stroke="#F6F9FF" stroke-width="1.5"/>
<path d="M19.2012 7.87207L22.4826 26.9361" stroke="#F6F9FF" stroke-width="1.5"/>
<path d="M26.3105 7.87207L27.4044 26.9361" stroke="#F6F9FF" stroke-width="1.5"/>
<path d="M19.5 14.0547H45.4522" stroke="#F6F9FF" stroke-width="1.5"/>
<path d="M19.748 20.7529H44.3588" stroke="#F6F9FF" stroke-width="1.5"/>
<path d="M33.42 7.87207L32.3262 26.4208" stroke="#F6F9FF" stroke-width="1.5"/>
<path d="M40.5295 7.87207L37.248 26.9361" stroke="#F6F9FF" stroke-width="1.5"/>
<path d="M16.5302 43.9389H16.4035C15.8344 43.9389 15.373 43.4775 15.373 42.9084C15.373 42.3393 15.8344 41.8779 16.4035 41.8779H16.5302C17.0993 41.8779 17.5607 42.3393 17.5607 42.9084C17.5607 43.4775 17.0993 43.9389 16.5302 43.9389Z" fill="#F6F9FF"/>
<path d="M40.5927 43.9389H40.466C39.8969 43.9389 39.4355 43.4775 39.4355 42.9084C39.4355 42.3393 39.8969 41.8779 40.466 41.8779H40.5927C41.1618 41.8779 41.6232 42.3393 41.6232 42.9084C41.6232 43.4775 41.1618 43.9389 40.5927 43.9389Z" fill="#F6F9FF"/>
<path d="M16.6569 45.9998H16.277C14.5696 45.9998 13.1855 44.6157 13.1855 42.9084C13.1855 41.201 14.5696 39.8169 16.277 39.8169H16.6569C18.3643 39.8169 19.7484 41.201 19.7484 42.9084C19.7484 44.6157 18.3643 45.9998 16.6569 45.9998Z" stroke="#F6F9FF" stroke-width="1.5"/>
<path d="M40.7194 45.9998H40.3395C38.6321 45.9998 37.248 44.6157 37.248 42.9084C37.248 41.201 38.6321 39.8169 40.3395 39.8169H40.7194C42.4268 39.8169 43.8109 41.201 43.8109 42.9084C43.8109 44.6157 42.4268 45.9998 40.7194 45.9998Z" stroke="#F6F9FF" stroke-width="1.5"/>
</svg>
