<svg width="45" height="45" viewBox="0 0 45 45" fill="none" xmlns="http://www.w3.org/2000/svg">
<path d="M23.5 33.5V43C23.5 43.5523 23.0523 44 22.5 44H2C1.44772 44 1 43.5523 1 43V2C1 1.44772 1.44772 1 2 1H22.5C23.0523 1 23.5 1.44772 23.5 2V6" stroke="#F6F9FF" stroke-width="1.5"/>
<path d="M5.5 44V38C5.5 37.4477 5.94772 37 6.5 37H18C18.5523 37 19 37.4477 19 38V43.5" stroke="#F6F9FF" stroke-width="1.5"/>
<path d="M12 37.5V43.5" stroke="#F6F9FF" stroke-width="1.5"/>
<path d="M5.5 30.5V32.5C5.5 33.0523 5.94772 33.5 6.5 33.5H8.5C9.05228 33.5 9.5 33.0523 9.5 32.5V30.5C9.5 29.9477 9.05228 29.5 8.5 29.5H6.5C5.94772 29.5 5.5 29.9477 5.5 30.5Z" stroke="#F6F9FF" stroke-width="1.5"/>
<path d="M14.5 30.5V32.5C14.5 33.0523 14.9477 33.5 15.5 33.5H17.5C18.0523 33.5 18.5 33.0523 18.5 32.5V30.5C18.5 29.9477 18.0523 29.5 17.5 29.5H15.5C14.9477 29.5 14.5 29.9477 14.5 30.5Z" stroke="#F6F9FF" stroke-width="1.5"/>
<path d="M15 21V24.5C15 25.0523 15.4477 25.5 16 25.5H16.5" stroke="#F6F9FF" stroke-width="1.5"/>
<path d="M15 17.5V14.5C15 13.9477 15.4477 13.5 16 13.5H16.5" stroke="#F6F9FF" stroke-width="1.5"/>
<path d="M5.5 22.5V24.5C5.5 25.0523 5.94772 25.5 6.5 25.5H8.5C9.05228 25.5 9.5 25.0523 9.5 24.5V22.5C9.5 21.9477 9.05228 21.5 8.5 21.5H6.5C5.94772 21.5 5.5 21.9477 5.5 22.5Z" stroke="#F6F9FF" stroke-width="1.5"/>
<path d="M5.5 6.5V8.5C5.5 9.05228 5.94772 9.5 6.5 9.5H8.5C9.05228 9.5 9.5 9.05228 9.5 8.5V6.5C9.5 5.94772 9.05228 5.5 8.5 5.5H6.5C5.94772 5.5 5.5 5.94772 5.5 6.5Z" stroke="#F6F9FF" stroke-width="1.5"/>
<path d="M14.5 6.5V8.5C14.5 9.05228 14.9477 9.5 15.5 9.5H17.5C18.0523 9.5 18.5 9.05228 18.5 8.5V6.5C18.5 5.94772 18.0523 5.5 17.5 5.5H15.5C14.9477 5.5 14.5 5.94772 14.5 6.5Z" stroke="#F6F9FF" stroke-width="1.5"/>
<path d="M29.5 20L28 29L35 18L32 17.5L33.5 13.5L28 11.5L26.5 19.5L29.5 20Z" stroke="#F6F9FF" stroke-width="1.5"/>
<path d="M16.5 20.1144C16.5 12.633 22.7494 6.60592 30.2298 6.73271C37.5319 6.85647 43.5 12.8132 43.5 20.1164C43.5 27.5079 37.3926 33.5 30.001 33.5C22.6083 33.5 16.5 27.5071 16.5 20.1144Z" stroke="#F6F9FF" stroke-width="1.5"/>
<path d="M5.5 14.5V16.5C5.5 17.0523 5.94772 17.5 6.5 17.5H8.5C9.05228 17.5 9.5 17.0523 9.5 16.5V14.5C9.5 13.9477 9.05228 13.5 8.5 13.5H6.5C5.94772 13.5 5.5 13.9477 5.5 14.5Z" stroke="#F6F9FF" stroke-width="1.5"/>
</svg>
