<svg width="54" height="38" viewBox="0 0 54 38" fill="none" xmlns="http://www.w3.org/2000/svg">
<path d="M5.05078 36.7189V19.938H22.989V36.7189" stroke="#F6F9FF" stroke-width="1.5"/>
<path d="M5.05078 29.1968H22.989" stroke="#F6F9FF" stroke-width="1.5"/>
<path d="M11.9941 28.618V23.4102H16.0447V28.618" stroke="#F6F9FF" stroke-width="1.5"/>
<path d="M11.9941 36.719V32.6685H16.0447V36.719" stroke="#F6F9FF" stroke-width="1.5"/>
<path d="M29.9316 36.719V11.2583H48.4485V36.719" stroke="#F6F9FF" stroke-width="1.5"/>
<path d="M29.9316 19.938H47.8698" stroke="#F6F9FF" stroke-width="1.5"/>
<path d="M29.9316 29.1968H48.4485" stroke="#F6F9FF" stroke-width="1.5"/>
<path d="M37.4551 19.3597V14.7305H40.927V19.9383" stroke="#F6F9FF" stroke-width="1.5"/>
<path d="M37.4551 28.618V23.9888H40.927V28.618" stroke="#F6F9FF" stroke-width="1.5"/>
<path d="M37.4551 36.719V33.2471H40.927V36.719" stroke="#F6F9FF" stroke-width="1.5"/>
<path d="M1 23.9886L7.36517 17.3341L13.7303 11.2583L26.4607 23.9886" stroke="#F6F9FF" stroke-width="1.5"/>
<path d="M25.8828 14.7303L32.5373 8.07584L39.1918 2L52.5008 14.7303" stroke="#F6F9FF" stroke-width="1.5"/>
<path d="M5 37H49" stroke="#F6F9FF" stroke-width="1.5"/>
</svg>
