<svg width="29" height="8" viewBox="0 0 29 8" fill="none" xmlns="http://www.w3.org/2000/svg">
<path d="M21.75 3.625C21.75 1.62297 23.373 0 25.375 0C27.377 0 29 1.62297 29 3.625C29 5.62703 27.377 7.25 25.375 7.25C23.373 7.25 21.75 5.62703 21.75 3.625Z" fill="#F6F9FF"/>
<path d="M10.875 3.625C10.875 1.62297 12.498 0 14.5 0C16.502 0 18.125 1.62297 18.125 3.625C18.125 5.62703 16.502 7.25 14.5 7.25C12.498 7.25 10.875 5.62703 10.875 3.625Z" fill="#F6F9FF"/>
<path d="M0 3.625C0 1.62297 1.62297 0 3.625 0C5.62703 0 7.25 1.62297 7.25 3.625C7.25 5.62703 5.62703 7.25 3.625 7.25C1.62297 7.25 0 5.62703 0 3.625Z" fill="#F6F9FF"/>
</svg>
