<svg width="125" height="38" viewBox="0 0 125 38" fill="none" xmlns="http://www.w3.org/2000/svg">
<g clip-path="url(#clip0_2_16420)">
<path d="M100.046 13.7671C98.9869 13.7671 98.127 14.6175 98.127 15.6653V27.3823C98.127 28.4301 98.9869 29.2805 100.046 29.2805C101.106 29.2805 101.966 28.4301 101.966 27.3823V15.6653C101.966 14.6175 101.106 13.7671 100.046 13.7671Z" fill="#007BFF"/>
<path d="M124.985 21.4509C124.797 16.6371 120.786 12.7739 115.873 12.7739C110.959 12.7739 106.948 16.6371 106.761 21.4509C106.754 21.5086 106.742 21.5663 106.742 21.627V27.3823C106.742 28.4301 107.602 29.2805 108.662 29.2805C109.721 29.2805 110.581 28.4301 110.581 27.3823V21.8032C110.581 18.9179 112.955 16.5703 115.873 16.5703C118.79 16.5703 121.164 18.9179 121.164 21.8032V27.3823C121.164 28.4301 122.024 29.2805 123.084 29.2805C124.143 29.2805 125.003 28.4301 125.003 27.3823V21.627C125 21.5663 124.988 21.5086 124.985 21.4509Z" fill="#007BFF"/>
<path d="M93.7385 14.3169C92.8294 13.7763 91.6501 14.0648 91.1065 14.9638L85.6216 23.9779L80.1396 14.9638C80.1274 14.9425 80.1059 14.9243 80.0936 14.9031C80.0567 14.8454 80.0137 14.7937 79.9707 14.7391C79.9308 14.6935 79.8909 14.6449 79.8479 14.6054C79.8049 14.5629 79.7588 14.5234 79.7128 14.487C79.6605 14.4445 79.6053 14.4019 79.5469 14.3655C79.5254 14.3503 79.507 14.3321 79.4855 14.3199C79.4579 14.3048 79.4271 14.2956 79.3995 14.2805C79.3381 14.2501 79.2797 14.2197 79.2152 14.1954C79.1569 14.1711 79.0985 14.1529 79.0402 14.1347C78.9818 14.1165 78.9266 14.1043 78.8682 14.0922C78.8037 14.08 78.7392 14.0709 78.6747 14.0648C78.6164 14.0588 78.558 14.0588 78.4997 14.0557C78.4352 14.0557 78.3707 14.0588 78.3062 14.0648C78.2478 14.0709 78.1895 14.08 78.1311 14.0922C78.0666 14.1043 78.0052 14.1195 77.9438 14.1377C77.8885 14.1529 77.8332 14.1742 77.781 14.1954C77.7165 14.2228 77.652 14.2501 77.5906 14.2835C77.563 14.2987 77.5353 14.3048 77.5077 14.323C77.4862 14.3351 77.4678 14.3534 77.4463 14.3685C77.3879 14.408 77.3327 14.4475 77.2774 14.4931C77.2313 14.5295 77.1852 14.569 77.1453 14.6115C77.1023 14.654 77.0624 14.6996 77.0225 14.7482C76.9795 14.7998 76.9365 14.8545 76.8996 14.9091C76.8843 14.9304 76.8658 14.9486 76.8536 14.9729L71.3716 23.9839L65.8897 14.9729C65.3431 14.0739 64.1638 13.7854 63.2578 14.326C62.3487 14.8666 62.057 16.0329 62.6036 16.9288L69.7286 28.6459C70.0756 29.2168 70.6991 29.5661 71.3716 29.5661C72.0442 29.5661 72.6676 29.2168 73.0147 28.6459L78.4966 19.6348L83.9785 28.6459C84.3256 29.2168 84.949 29.5661 85.6216 29.5661C86.2941 29.5661 86.9176 29.2168 87.2646 28.6459L94.3896 16.9288C94.9393 16.0237 94.6445 14.8575 93.7385 14.3169Z" fill="#007BFF"/>
<path d="M58.261 24.7371C57.441 25.2261 56.4951 25.4873 55.5308 25.4873C52.6132 25.4873 50.2393 23.1396 50.2393 20.2544V17.5666H56.836C57.8955 17.5666 58.7554 16.7162 58.7554 15.6684C58.7554 14.6206 57.8955 13.7702 56.836 13.7702H50.2393V10.5813C50.2393 9.53349 49.3794 8.68311 48.3198 8.68311C47.2603 8.68311 46.4004 9.53349 46.4004 10.5813V20.4275C46.4004 20.4883 46.4127 20.546 46.4188 20.6037C46.6062 25.4174 50.617 29.2806 55.5308 29.2806C57.1953 29.2806 58.8261 28.8311 60.2449 27.9838C61.1509 27.4432 61.4426 26.2739 60.896 25.378C60.3463 24.482 59.167 24.1935 58.261 24.7371Z" fill="#007BFF"/>
<path d="M100.047 7.38916C98.8803 7.38916 97.9375 8.32458 97.9375 9.47564C97.9375 10.6297 98.8834 11.5621 100.047 11.5621C101.214 11.5621 102.157 10.6267 102.157 9.47564C102.157 8.32155 101.211 7.38916 100.047 7.38916Z" fill="#007BFF"/>
<path d="M35.4252 26.0734L33.0236 20.968V18.8056C33.0236 15.1763 30.9014 10.6541 26.78 8.41272C24.7746 3.78724 20.2416 0 13.9704 0C6.26812 0 0 6.19869 0 13.8187C0 17.6303 1.55705 21.2019 4.3149 23.8047L2.46917 30.9934C2.15284 32.2235 2.59815 33.5324 3.59933 34.3282C4.17977 34.7928 4.91376 35.0449 5.66311 35.0449C6.16984 35.0449 6.68272 34.9265 7.13724 34.6987L12.7696 31.9046L11.5965 36.4754C11.4767 36.9401 11.6425 37.4321 12.0234 37.7327C12.398 38.0334 12.9201 38.0881 13.3501 37.8724L21.1046 34.0214H31.4235C32.3049 34.0214 33.0236 33.3138 33.0236 32.4452V28.1052L35.0658 27.0878C35.4467 26.9025 35.6033 26.453 35.4252 26.0734ZM27.9286 22.1039L25.8863 23.1213V27.4552C25.8863 28.3269 25.1738 29.0376 24.2924 29.0376H13.9704L13.4361 29.3018L6.21591 32.8855C5.77981 33.1012 5.2608 33.0465 4.88612 32.7428C4.50531 32.4421 4.34561 31.9532 4.45924 31.4915L6.61515 23.0879C3.83888 20.9316 2.05457 17.5847 2.05457 13.8187C2.05457 7.30722 7.38907 2.03181 13.9674 2.03181C18.571 2.03181 21.8816 4.36429 23.8256 7.30722C25.1892 9.37244 25.8863 11.7444 25.8863 13.8187V15.9811L28.291 21.0834C28.4722 21.4631 28.3094 21.9186 27.9286 22.1039Z" fill="#007BFF"/>
<path d="M27.9287 22.1038L25.8864 23.1213V27.4552C25.8864 28.3268 25.1739 29.0375 24.2925 29.0375H13.9706L13.4362 29.3017L6.21603 32.8855C5.77993 33.1011 5.26092 33.0464 4.88624 32.7427C4.50543 32.4421 4.34573 31.9531 4.45936 31.4915L6.61527 23.0878C3.839 20.9315 2.05469 17.5846 2.05469 13.8187C2.05469 7.30715 7.38919 2.03174 13.9675 2.03174C18.5711 2.03174 21.8817 4.36422 23.8257 7.30715C25.1893 9.37237 25.8864 11.7443 25.8864 13.8187V15.9811L28.2911 21.0834C28.4723 21.463 28.3095 21.9186 27.9287 22.1038Z" fill="white"/>
</g>
<defs>
<clipPath id="clip0_2_16420">
<rect width="125" height="38" fill="white"/>
</clipPath>
</defs>
</svg>
