<svg width="125" height="38" viewBox="0 0 125 38" fill="none" xmlns="http://www.w3.org/2000/svg">
<g clip-path="url(#clip0_2_15736)">
<path d="M100.046 13.7671C98.9869 13.7671 98.127 14.6175 98.127 15.6653V27.3823C98.127 28.4301 98.9869 29.2805 100.046 29.2805C101.106 29.2805 101.966 28.4301 101.966 27.3823V15.6653C101.966 14.6175 101.106 13.7671 100.046 13.7671Z" fill="white"/>
<path d="M124.985 21.4509C124.797 16.6371 120.786 12.7739 115.873 12.7739C110.959 12.7739 106.948 16.6371 106.761 21.4509C106.754 21.5086 106.742 21.5663 106.742 21.627V27.3823C106.742 28.4301 107.602 29.2805 108.662 29.2805C109.721 29.2805 110.581 28.4301 110.581 27.3823V21.8032C110.581 18.9179 112.955 16.5703 115.873 16.5703C118.79 16.5703 121.164 18.9179 121.164 21.8032V27.3823C121.164 28.4301 122.024 29.2805 123.084 29.2805C124.143 29.2805 125.003 28.4301 125.003 27.3823V21.627C125 21.5663 124.988 21.5086 124.985 21.4509Z" fill="white"/>
<path d="M93.7385 14.3167C92.8294 13.7761 91.6501 14.0646 91.1065 14.9636L85.6216 23.9776L80.1396 14.9636C80.1274 14.9423 80.1059 14.9241 80.0936 14.9028C80.0567 14.8451 80.0137 14.7935 79.9707 14.7388C79.9308 14.6933 79.8909 14.6447 79.8479 14.6052C79.8049 14.5627 79.7588 14.5232 79.7128 14.4867C79.6605 14.4442 79.6053 14.4017 79.5469 14.3653C79.5254 14.3501 79.507 14.3318 79.4855 14.3197C79.4579 14.3045 79.4271 14.2954 79.3995 14.2802C79.3381 14.2498 79.2797 14.2195 79.2152 14.1952C79.1569 14.1709 79.0985 14.1527 79.0402 14.1344C78.9818 14.1162 78.9266 14.1041 78.8682 14.0919C78.8037 14.0798 78.7392 14.0707 78.6747 14.0646C78.6164 14.0585 78.558 14.0585 78.4997 14.0555C78.4352 14.0555 78.3707 14.0585 78.3062 14.0646C78.2478 14.0707 78.1895 14.0798 78.1311 14.0919C78.0666 14.1041 78.0052 14.1193 77.9438 14.1375C77.8885 14.1527 77.8332 14.1739 77.781 14.1952C77.7165 14.2225 77.652 14.2498 77.5906 14.2833C77.563 14.2984 77.5353 14.3045 77.5077 14.3227C77.4862 14.3349 77.4678 14.3531 77.4463 14.3683C77.3879 14.4078 77.3327 14.4473 77.2774 14.4928C77.2313 14.5293 77.1852 14.5687 77.1453 14.6113C77.1023 14.6538 77.0624 14.6993 77.0225 14.7479C76.9795 14.7996 76.9365 14.8542 76.8996 14.9089C76.8843 14.9302 76.8658 14.9484 76.8536 14.9727L71.3716 23.9837L65.8897 14.9727C65.3431 14.0737 64.1638 13.7852 63.2578 14.3258C62.3487 14.8664 62.057 16.0326 62.6036 16.9286L69.7286 28.6456C70.0756 29.2166 70.6991 29.5659 71.3716 29.5659C72.0442 29.5659 72.6676 29.2166 73.0147 28.6456L78.4966 19.6346L83.9785 28.6456C84.3256 29.2166 84.949 29.5659 85.6216 29.5659C86.2941 29.5659 86.9176 29.2166 87.2646 28.6456L94.3896 16.9286C94.9393 16.0235 94.6445 14.8573 93.7385 14.3167Z" fill="white"/>
<path d="M58.261 24.7369C57.441 25.2259 56.4951 25.487 55.5308 25.487C52.6132 25.487 50.2393 23.1394 50.2393 20.2542V17.5663H56.836C57.8955 17.5663 58.7554 16.7159 58.7554 15.6682C58.7554 14.6204 57.8955 13.77 56.836 13.77H50.2393V10.581C50.2393 9.53324 49.3794 8.68286 48.3198 8.68286C47.2603 8.68286 46.4004 9.53324 46.4004 10.581V20.4273C46.4004 20.488 46.4127 20.5457 46.4188 20.6034C46.6062 25.4172 50.617 29.2804 55.5308 29.2804C57.1953 29.2804 58.8261 28.8309 60.2449 27.9835C61.1509 27.4429 61.4426 26.2737 60.896 25.3777C60.3463 24.4818 59.167 24.1933 58.261 24.7369Z" fill="white"/>
<path d="M100.047 7.38916C98.8803 7.38916 97.9375 8.32458 97.9375 9.47564C97.9375 10.6297 98.8834 11.5621 100.047 11.5621C101.214 11.5621 102.157 10.6267 102.157 9.47564C102.157 8.32155 101.211 7.38916 100.047 7.38916Z" fill="white"/>
<path d="M35.4252 26.0734L33.0236 20.968V18.8056C33.0236 15.1763 30.9014 10.6541 26.78 8.41272C24.7746 3.78724 20.2416 0 13.9704 0C6.26812 0 0 6.19869 0 13.8187C0 17.6303 1.55705 21.2019 4.3149 23.8047L2.46917 30.9934C2.15284 32.2235 2.59815 33.5324 3.59933 34.3282C4.17977 34.7928 4.91376 35.0449 5.66311 35.0449C6.16984 35.0449 6.68272 34.9265 7.13724 34.6987L12.7696 31.9046L11.5965 36.4754C11.4767 36.9401 11.6425 37.4321 12.0234 37.7327C12.398 38.0334 12.9201 38.0881 13.3501 37.8724L21.1046 34.0214H31.4235C32.3049 34.0214 33.0236 33.3138 33.0236 32.4452V28.1052L35.0658 27.0878C35.4467 26.9025 35.6033 26.453 35.4252 26.0734ZM27.9286 22.1039L25.8863 23.1213V27.4552C25.8863 28.3269 25.1738 29.0376 24.2924 29.0376H13.9704L13.4361 29.3018L6.21591 32.8855C5.77981 33.1012 5.2608 33.0465 4.88612 32.7428C4.50531 32.4421 4.34561 31.9532 4.45924 31.4915L6.61515 23.0879C3.83888 20.9316 2.05457 17.5847 2.05457 13.8187C2.05457 7.30722 7.38907 2.03181 13.9674 2.03181C18.571 2.03181 21.8816 4.36429 23.8256 7.30722C25.1892 9.37244 25.8863 11.7444 25.8863 13.8187V15.9811L28.291 21.0834C28.4722 21.4631 28.3094 21.9186 27.9286 22.1039Z" fill="white"/>
</g>
<defs>
<clipPath id="clip0_2_15736">
<rect width="125" height="38" fill="white"/>
</clipPath>
</defs>
</svg>
