<svg xmlns="http://www.w3.org/2000/svg" viewBox="0 0 90 90"><defs><style>.cls-1{fill:#0180ff;}</style></defs><g id="_2" data-name="2"><path class="cls-1" d="M26.48,56.85,36.3,39.7c-.22-.36-.42-.67-.6-1a23.39,23.39,0,0,1-2.55-18.78A15,15,0,0,1,35.66,15a10.37,10.37,0,0,1,8.47-4.32,16.79,16.79,0,0,1,5.87.94,10.08,10.08,0,0,1,5.24,4.09,16.64,16.64,0,0,1,2.63,7.64,26.51,26.51,0,0,1-3.39,15.91L65.76,58.13a6.75,6.75,0,0,0,.58-.43,10.44,10.44,0,0,1,7.75-2.81,16.34,16.34,0,0,1,4.9.82,10.25,10.25,0,0,1,5.61,4.23,16.64,16.64,0,0,1,2.57,7.26,26.22,26.22,0,0,1-2.4,14.43,16.2,16.2,0,0,1-3.43,4.85,13.48,13.48,0,0,1-1.28,1.1A8.57,8.57,0,0,1,69.74,88a14,14,0,0,1-4-4,23.93,23.93,0,0,1-4.06-11.2c0-.17,0-.33-.05-.47l-.09-.09s-.05-.06-.08-.06a1,1,0,0,0-.29-.07l-29.22.08c-.19,0-.39,0-.68,0-.05.32-.11.64-.15,1a26.5,26.5,0,0,1-2.34,7.89,16.39,16.39,0,0,1-4.25,5.58,8.78,8.78,0,0,1-6.12,2.27,9.37,9.37,0,0,1-4.67-1.54,14,14,0,0,1-3.89-3.82,23.25,23.25,0,0,1-4-10.28,21.21,21.21,0,0,1,1-10.59,15.84,15.84,0,0,1,2.05-3.85,10.41,10.41,0,0,1,8.57-4.52,15.59,15.59,0,0,1,6.89,1.34C25,56,25.69,56.41,26.48,56.85Zm38.26,2.68L53.49,40.72c-5.14,6.24-11.33,5.76-16.16.38-3.24,5.67-6.46,11.3-9.71,17a15.44,15.44,0,0,1,3,5.84,24.7,24.7,0,0,1,.76,6.57H61.52A19.24,19.24,0,0,1,64.74,59.53Zm-35,9.9c0-.64-.09-1.5-.19-2.35a15.21,15.21,0,0,0-2.39-6.89A8.38,8.38,0,0,0,23,56.9,15.2,15.2,0,0,0,17.36,56a8.75,8.75,0,0,0-7.19,3.84A13.33,13.33,0,0,0,8,64.27a21.58,21.58,0,0,0,3.65,18.94,10.33,10.33,0,0,0,2.88,2.71,7,7,0,0,0,8.69-.36A13.92,13.92,0,0,0,26.92,81,26.07,26.07,0,0,0,29.74,69.43ZM56.37,25.74c0-.52,0-1.32-.13-2.11A15.74,15.74,0,0,0,54,16.88a8.57,8.57,0,0,0-4.27-3.58,14.79,14.79,0,0,0-5.46-1,8.65,8.65,0,0,0-7.58,4A18.25,18.25,0,0,0,35,19.8a19,19,0,0,0-.84,9.61,21.4,21.4,0,0,0,4.08,10,11.31,11.31,0,0,0,3.53,3.18,7,7,0,0,0,5,.88,8,8,0,0,0,3.58-1.88,15.18,15.18,0,0,0,4-5.55A26.18,26.18,0,0,0,56.37,25.74ZM85.71,70c0-.51,0-1.24-.11-2a15.71,15.71,0,0,0-2.33-7.12,8.45,8.45,0,0,0-4.15-3.42,14.71,14.71,0,0,0-6.76-.86A7.91,7.91,0,0,0,67,59.41a14.15,14.15,0,0,0-2.76,4.67,20.15,20.15,0,0,0-.77,9.62,21.45,21.45,0,0,0,3.94,9.77,11.9,11.9,0,0,0,3.3,3.14,7.26,7.26,0,0,0,5.13,1.12A7.43,7.43,0,0,0,79.39,86a14.67,14.67,0,0,0,4-5.37A26.19,26.19,0,0,0,85.71,70Z"/><path class="cls-1" d="M18,50.18c1.29.12,2.36.17,3.4.32a3.84,3.84,0,0,1,2.92,2.16.91.91,0,0,1,0,1.11.93.93,0,0,1-1.09.22c-.86-.24-1.71-.53-2.58-.72a12.32,12.32,0,0,0-6.37.49c-.22.07-.44.16-.66.22a1,1,0,0,1-1.18-.23,1,1,0,0,1,0-1.21,3.7,3.7,0,0,1,2.71-2.13C16.18,50.25,17.21,50.24,18,50.18Z"/><path class="cls-1" d="M44.88,6.58c1,.09,2.11.15,3.16.29a3.76,3.76,0,0,1,2.83,2c.25.41.45.84.1,1.28s-.8.35-1.26.18a13.82,13.82,0,0,0-4.07-.86,13.47,13.47,0,0,0-4.79.72l-.66.22a.92.92,0,0,1-1.08-.24,1,1,0,0,1,0-1.12A3.82,3.82,0,0,1,42.3,6.7c.85-.08,1.72,0,2.58,0Z"/><path class="cls-1" d="M74.12,50.77c1.16.11,2.25.17,3.33.32a3.79,3.79,0,0,1,2.84,2.11.93.93,0,0,1,0,1.19.92.92,0,0,1-1.1.16,12,12,0,0,0-5.44-.87c-1.21.14-2.4.46-3.6.71-.22,0-.43.16-.66.22a.89.89,0,0,1-1.11-1.26A3.77,3.77,0,0,1,71.21,51C72.19,50.83,73.19,50.83,74.12,50.77Z"/><path class="cls-1" d="M73.07,47.37a11.38,11.38,0,0,1,.27-1.58,1.34,1.34,0,0,1,1.56-1A1.45,1.45,0,0,1,76,46.27a4.89,4.89,0,0,1-1.31,3c-.55.64-1.36.37-1.53-.48A12.33,12.33,0,0,1,73.07,47.37Z"/><path class="cls-1" d="M43.72,3.27A12.4,12.4,0,0,1,44,1.64,1.38,1.38,0,0,1,45.51.52,1.45,1.45,0,0,1,46.7,2.1a4.92,4.92,0,0,1-1.33,3c-.55.6-1.29.36-1.49-.45A11.6,11.6,0,0,1,43.72,3.27Z"/><path class="cls-1" d="M17.09,46.72a10.47,10.47,0,0,1,.27-1.54,1.35,1.35,0,0,1,1.48-1A1.44,1.44,0,0,1,20,45.63a4.77,4.77,0,0,1-1.32,3.12.84.84,0,0,1-1.5-.44A12.64,12.64,0,0,1,17.09,46.72Z"/><path class="cls-1" d="M9.43,66.62a10.44,10.44,0,0,1,1.79-6,1.7,1.7,0,0,1,1.16-.77,34.18,34.18,0,0,1,12.06.23,1.59,1.59,0,0,1,1.1.82,19.26,19.26,0,0,1,2,7c.08.89-.39,1.25-1.39,1.19-2.15-.11-4.3-.28-6.46-.31-3.05,0-6.1,0-9.15.06A1.06,1.06,0,0,1,9.44,68C9.4,67.51,9.43,67.06,9.43,66.62Zm10.9-.43v0a1,1,0,0,0,1.58.31A3.12,3.12,0,0,0,22,63,.92.92,0,0,0,20.4,63a.8.8,0,0,0-.08.16A3.28,3.28,0,0,0,20.33,66.19Zm-4.28-3L16,63.1a1,1,0,0,0-1.5-.27,3,3,0,0,0,0,3.72,1,1,0,0,0,1.5-.27l.07-.12A3.29,3.29,0,0,0,16.05,63.21Z"/><path class="cls-1" d="M18.31,73.16a5.38,5.38,0,0,1-3.54-1.81.76.76,0,0,1,0-1.09.77.77,0,0,1,1.09-.07c.35.25.68.53,1,.78a2.29,2.29,0,0,0,2.86,0c.35-.25.67-.54,1-.79a.79.79,0,0,1,1.08,1.16A5.37,5.37,0,0,1,18.31,73.16Z"/><path class="cls-1" d="M36.11,22.81A10.22,10.22,0,0,1,37.88,17a1.7,1.7,0,0,1,1.18-.78,33.71,33.71,0,0,1,12.1.25,1.44,1.44,0,0,1,1,.75,18.6,18.6,0,0,1,2,7.11c.07.87-.36,1.22-1.3,1.18-2.36-.12-4.71-.28-7.07-.32-2.86,0-5.72,0-8.58,0-.77,0-1-.18-1.1-.93C36.07,23.81,36.11,23.31,36.11,22.81Zm6.47-.34a3.33,3.33,0,0,0,.1-2.66,2.53,2.53,0,0,0-.18-.37c-.43-.76-1.15-.76-1.68-.07a3.2,3.2,0,0,0,0,3.32,1,1,0,0,0,1.77-.17Zm6-2.91-.09-.16A1,1,0,0,0,47.39,19c-1.13.46-1.29,2.86-.45,3.83a.9.9,0,0,0,1.57-.07l0,0A3.28,3.28,0,0,0,48.61,19.56Z"/><path class="cls-1" d="M44.76,29.52a5.4,5.4,0,0,1-3.31-1.78.75.75,0,0,1-.05-1.08.8.8,0,0,1,1.16-.06c.22.14.41.33.62.49,1.36,1,2.25,1,3.6-.06.24-.18.45-.39.7-.55a.74.74,0,0,1,1,.09.77.77,0,0,1,.05,1.08A5.43,5.43,0,0,1,44.76,29.52Z"/><path class="cls-1" d="M74.42,69.3l-8,.18c-.67,0-1-.26-1-1a10.75,10.75,0,0,1,1.16-6.15c.21-.38.44-.75.64-1.12a1.42,1.42,0,0,1,1.12-.73,36.51,36.51,0,0,1,11.19,0,2.85,2.85,0,0,1,2.48,2,20.82,20.82,0,0,1,1.46,5.86c.1,1-.27,1.39-1.3,1.33Zm-2.27-5.78a1.86,1.86,0,0,0-.1-.2,1,1,0,0,0-1.57-.3,3.08,3.08,0,0,0-.11,3.54A.92.92,0,0,0,72,66.49a2.71,2.71,0,0,0,.2-.42A3.36,3.36,0,0,0,72.15,63.52Zm6-.16a.37.37,0,0,0-.05-.11A1,1,0,0,0,76.54,63a3.08,3.08,0,0,0-.07,3.58A.9.9,0,0,0,78,66.52v0A3.23,3.23,0,0,0,78.12,63.36Z"/><path class="cls-1" d="M74.29,73.73a5.22,5.22,0,0,1-3.51-1.79.74.74,0,0,1,0-1.08.73.73,0,0,1,1.07-.1c.22.15.42.33.63.49a2.54,2.54,0,0,0,3.68,0c.18-.14.34-.31.53-.44a.85.85,0,0,1,1.17,0,.8.8,0,0,1,0,1.16A5.3,5.3,0,0,1,74.29,73.73Z"/></g></svg>