<svg id="_1" data-name="1" xmlns="http://www.w3.org/2000/svg" viewBox="0 0 90 90"><defs><style>.cls-1{fill:#0180ff;}</style></defs><path class="cls-1" d="M82.77,56.84c-2.78,2.22-6.08,2.22-9.34-1.35-1.79,3.26-3.55,6.47-5.34,9.75,2.53,2.13,3.44,4.94,3.59,8.16.29,0,.57.06.84.06l4.31,0c.23,0,.45,0,.67,0,.61,0,.94.3.94.74s-.33.75-.93.77c-1.37,0-2.74,0-4.11,0H71.64a18.23,18.23,0,0,1-1.92,6.61c.2.3.39.59.59.87l4,5.64a6.38,6.38,0,0,1,.43.63c.27.48.23.87-.09,1.12s-.77.17-1.16-.28a4.21,4.21,0,0,1-.39-.55l-3.57-5.09-.72-1a6.43,6.43,0,0,1-.44.69,12.2,12.2,0,0,1-.85.91,5.64,5.64,0,0,1-7.59.46c-.59-.43-1.11-1-1.72-1.48a5.69,5.69,0,0,0-.4.6l-2.39,4.36a2,2,0,0,1-.49.69,1.06,1.06,0,0,1-.78.13.61.61,0,0,1-.41-.77,1.42,1.42,0,0,1,.16-.45l3.32-6.06a16.67,16.67,0,0,1-2.25-6.82l-20,.24a17.21,17.21,0,0,1-2.63,7.8l2,3.38c.38.63.77,1.25,1.12,1.9s.24,1-.18,1.24-.78.07-1.11-.46c-.77-1.25-1.5-2.52-2.26-3.77-.17-.3-.35-.59-.54-.89-3.29,3-6.46,2.74-9.79-.5l-.59,1c-.76,1.26-1.5,2.52-2.26,3.77a2.1,2.1,0,0,1-.51.68,1.07,1.07,0,0,1-.78.12.57.57,0,0,1-.38-.77,2.87,2.87,0,0,1,.35-.78q1.36-2.31,2.74-4.6c.16-.27.31-.55.47-.84a17.08,17.08,0,0,1-2.38-7h-1l-4.5,0c-.23,0-.45,0-.67,0-.54,0-.86-.3-.88-.7s.31-.74.89-.8a5,5,0,0,1,.67,0l4.4,0,1-.06a12.37,12.37,0,0,1,2.5-7.45l-5.49-9.23a5.53,5.53,0,0,1-5.38,1,8.73,8.73,0,0,1-4.27-3.54c-.33.6-.6,1.1-.86,1.59C4,57.67,3.42,58.83,2.8,60c-.37.68-.75.89-1.17.7s-.56-.67-.18-1.4c.91-1.76,1.82-3.51,2.77-5.25a1.42,1.42,0,0,0,.07-1.41,14.68,14.68,0,0,1-1.23-4.5c0-.19-.07-.37-.11-.61-.27,0-.51-.06-.76-.07-.41,0-.83,0-1.24,0S.1,47.1.07,46.71s.3-.76.89-.79,1.21,0,1.93,0A13.57,13.57,0,0,1,4.63,39.8L3,37.06Q1.71,34.89.42,32.71A4.42,4.42,0,0,1,.06,32a.71.71,0,0,1,.3-.92.7.7,0,0,1,.94.19,4.91,4.91,0,0,1,.48.71l3.28,5.51c.16.27.33.53.56.9a7,7,0,0,1,3.59-2.1,8,8,0,0,1,4.18.08c.14-.21.28-.38.38-.57l5.34-10.15c.2-.37.38-.69,0-1.12a15,15,0,0,1-2.73-6.35,2.77,2.77,0,0,0-.18-.47h-1c-2,0-3.89,0-5.84,0a2,2,0,0,1-.93-.14A.86.86,0,0,1,8.05,17a.86.86,0,0,1,.46-.63,2.41,2.41,0,0,1,.94-.1l5.65,0h1a14.11,14.11,0,0,1,1.27-6.53L14.85,6.06a4.54,4.54,0,0,1-.45-.72.72.72,0,0,1,.23-.94.69.69,0,0,1,.95.12,6.9,6.9,0,0,1,.53.68l2.08,3C21.38,4.5,25,4.32,29.12,6.59,29.41,6,29.7,5.52,30,5c.16-.28.29-.58.46-.84.29-.46.67-.6,1-.43s.5.63.28,1.16c-.12.27-.26.51-.4.77l-1,2A11.64,11.64,0,0,1,32.94,16c.75.2,17.24.25,18.91,0a13.21,13.21,0,0,1,1.61-7.73L51.5,5a4.57,4.57,0,0,1-.44-.85.63.63,0,0,1,.29-.82.67.67,0,0,1,.88.09,3.8,3.8,0,0,1,.5.69c.55.89,1.09,1.79,1.65,2.71,3.85-3.43,7.66-2.94,11.54,0C66.47,5.88,67,5,67.56,4.1a4,4,0,0,1,.49-.7.67.67,0,0,1,.88-.09.67.67,0,0,1,.3.83,4.64,4.64,0,0,1-.39.77C68.21,6,67.57,7,66.9,8.17A12.62,12.62,0,0,1,68.57,16c.32,0,.56.08.8.08h3.35a3.94,3.94,0,0,1,.77,0,.71.71,0,0,1,.63.72.7.7,0,0,1-.64.72,4,4,0,0,1-.85,0H68.38a16.1,16.1,0,0,1-3.22,7.08q4,6.54,7.85,13a16.4,16.4,0,0,1,2.77-1.51A9.13,9.13,0,0,1,79,35.71a16.48,16.48,0,0,1,3.12.73l1.76-3.21c.14-.25.27-.51.42-.75.36-.57.77-.74,1.17-.49s.44.62.18,1.18c-.12.26-.27.51-.41.76C84.62,35,84,36.11,83.38,37.27,86,39.43,87,42.35,87.06,45.74h1.28c.22,0,.45,0,.67,0,.64,0,1,.35,1,.8s-.36.69-1,.72-1.27,0-1.88,0A43.07,43.07,0,0,1,86,51.65a45.1,45.1,0,0,1-2,4.18c.51.86,1.14,1.89,1.76,2.93a5.45,5.45,0,0,1,.39.76.72.72,0,0,1-1.17.75,3.85,3.85,0,0,1-.51-.69C83.88,58.69,83.35,57.79,82.77,56.84ZM52.1,17.71H32.78a16.71,16.71,0,0,1-2.88,7.15l9.38,13.37A7.94,7.94,0,0,1,47.88,37l7.45-12.47A15.75,15.75,0,0,1,52.1,17.71ZM35,73.93l19.74-.24a33.75,33.75,0,0,1,.75-3.83,33.49,33.49,0,0,1,1.61-3.62L50,56.18c-.67.61-1.19,1.17-1.8,1.63a5.43,5.43,0,0,1-5.94.54A8,8,0,0,1,39.44,56l-.63-.76c-2.27,3.82-4.47,7.5-6.67,11.19A11,11,0,0,1,35,73.93ZM53.07,45.72h17c.08-.11.12-.14.12-.16,0-.19,0-.38,0-.57a11.36,11.36,0,0,1,1.48-5.19,1.09,1.09,0,0,0,0-1.29c-2.44-4-4.85-8-7.28-12-.12-.2-.28-.38-.45-.61-2.56,1.89-5,1.6-7.55-.18L49.22,37.77C51.88,39.81,52.82,42.58,53.07,45.72ZM28.86,26A6.13,6.13,0,0,1,24.7,27.8a7.32,7.32,0,0,1-4.13-1.61L14.9,37c3.54,1.92,4.63,5.18,4.89,8.82,1.45.18,15.69.1,16.38-.08a30.24,30.24,0,0,1,.68-3.17,33,33,0,0,1,1.36-3.18ZM19.73,47.45a16.42,16.42,0,0,1-3.46,8.9l5.46,9.17a8.22,8.22,0,0,1,9.14-.11,2.45,2.45,0,0,0,.31-.41c2.16-3.61,4.31-7.22,6.48-10.82a1.09,1.09,0,0,0,0-1.15,15.25,15.25,0,0,1-1.32-4.87,5.62,5.62,0,0,0-.16-.71Zm33.35-.09c-.08.53-.14.93-.19,1.34a15.46,15.46,0,0,1-1.67,5.35,1.1,1.1,0,0,0,.1,1.36c2.18,3.07,4.33,6.15,6.49,9.23a6.2,6.2,0,0,0,.46.54,7.93,7.93,0,0,1,8.45-.7c.14-.22.24-.35.31-.49,1.73-3.15,3.45-6.32,5.19-9.46a.93.93,0,0,0,0-1.05,15.67,15.67,0,0,1-1.78-5.41c0-.24-.12-.47-.18-.71Zm-19.67,27c-.1-.88-.13-1.78-.31-2.64a7,7,0,0,0-5.25-5.82,5.84,5.84,0,0,0-6.08,2,8.41,8.41,0,0,0-1.62,3.33,13.51,13.51,0,0,0,2.42,11.55,7.66,7.66,0,0,0,2,1.79,3.91,3.91,0,0,0,4.86-.36,8.91,8.91,0,0,0,2.17-2.76A15.69,15.69,0,0,0,33.41,74.31Zm-15.67-59a14.37,14.37,0,0,0,2.19,7.6,8,8,0,0,0,2.57,2.64,3.87,3.87,0,0,0,4.87-.38,10.34,10.34,0,0,0,1.93-2.34,14.28,14.28,0,0,0,1.87-9.64A7.59,7.59,0,0,0,28.7,8.38c-2.52-2.23-7.21-2.51-9.39,1.11A10.88,10.88,0,0,0,17.74,15.31ZM85.47,45.49c0-.42-.08-1.25-.24-2.05-.59-2.94-2.13-5.06-5.15-5.92a5.83,5.83,0,0,0-6.37,2.14,8.74,8.74,0,0,0-1.48,3.18,13.66,13.66,0,0,0,2.34,11.4,6.34,6.34,0,0,0,2.35,2.07,3.89,3.89,0,0,0,4.39-.4,8.29,8.29,0,0,0,2.15-2.53A15.72,15.72,0,0,0,85.47,45.49ZM4.55,46.65a13.85,13.85,0,0,0,2.6,7.83,7.63,7.63,0,0,0,2.14,2,3.85,3.85,0,0,0,4.86-.36,9.92,9.92,0,0,0,1.94-2.34A14.16,14.16,0,0,0,18,44.08C17.49,41.15,16.05,38.93,13,38a5.92,5.92,0,0,0-6.92,2.46A11.21,11.21,0,0,0,4.55,46.65Zm48.87-31.6c.09.64.17,1.78.4,2.89a12.58,12.58,0,0,0,2.26,5,7.28,7.28,0,0,0,2.24,2,4,4,0,0,0,4.94-.62,9.63,9.63,0,0,0,2-2.65,14.59,14.59,0,0,0,1.57-9.25c-.49-2.93-1.92-5.16-4.93-6.1A5.9,5.9,0,0,0,55,8.76,11.32,11.32,0,0,0,53.42,15.05Zm3,58.2a14.67,14.67,0,0,0,2.07,8A8.15,8.15,0,0,0,61.13,84a4,4,0,0,0,5-.37,8.64,8.64,0,0,0,2.1-2.7,14.6,14.6,0,0,0,1.63-9.23c-.52-3.22-2.15-5.58-5.52-6.32a5.55,5.55,0,0,0-5,1,7.25,7.25,0,0,0-2,2.56A10.39,10.39,0,0,0,56.47,73.25ZM51.41,46.52a10,10,0,0,0-.51-3.77A6.57,6.57,0,0,0,45.54,38a5.49,5.49,0,0,0-5.39,1.72,8.07,8.07,0,0,0-1.83,3.42,13.53,13.53,0,0,0,2.49,12,6.69,6.69,0,0,0,1.45,1.36,4,4,0,0,0,5.49-.33,9.62,9.62,0,0,0,2-2.75A14.14,14.14,0,0,0,51.41,46.52Z"/><path class="cls-1" d="M27.93,68.31l1.74.2a1.12,1.12,0,0,1,.89.57,8.12,8.12,0,0,1,1,3.35.86.86,0,0,1-.9,1c-2.77,0-5.54-.08-8.31-.12-.84,0-1.09-.31-1-1.13a8.65,8.65,0,0,1,1-2.87,1.31,1.31,0,0,1,1-.75l1.53-.19A12.63,12.63,0,0,1,27.93,68.31Zm-.36,2.57a1,1,0,1,0,1.89.08,1.1,1.1,0,0,0-1-1.12A1,1,0,0,0,27.57,70.88ZM25.46,71a1.07,1.07,0,0,0-.93-1.13,1.07,1.07,0,0,0-1,1,1,1,0,0,0,.94,1.08A.92.92,0,0,0,25.46,71Z"/><path class="cls-1" d="M26.5,76.8A4,4,0,0,1,24.35,76,.83.83,0,0,1,24,74.89c.22-.34.6-.41,1.1-.2.21.09.4.21.6.31a1.59,1.59,0,0,0,1.63-.09,4.8,4.8,0,0,1,.48-.3.74.74,0,0,1,1,.22.75.75,0,0,1-.14,1A3.49,3.49,0,0,1,26.5,76.8Z"/><path class="cls-1" d="M20.55,14.32c-1.06,0-1.4-.32-1.14-1.32a23.37,23.37,0,0,1,1-2.76,1.07,1.07,0,0,1,.87-.65,15.23,15.23,0,0,1,6.55,0,1.41,1.41,0,0,1,.76.63,7.47,7.47,0,0,1,1,3.17c.07.78-.17,1-1,1l-4.11-.17M21.6,11.85A1,1,0,0,0,22.53,13a1.09,1.09,0,0,0,.95-1,1.11,1.11,0,0,0-.9-1.16A1,1,0,0,0,21.6,11.85Zm5.84,0a1.06,1.06,0,0,0-.93-1.11,1.11,1.11,0,0,0,0,2.19A1,1,0,0,0,27.44,11.89Z"/><path class="cls-1" d="M26.08,17.33a3.68,3.68,0,0,1-3.75-.25l0,0c-.44-.32-.54-.7-.33-1.06s.62-.49,1.16-.26l.42.23a1.71,1.71,0,0,0,1.89-.07c.73-.47,1.12-.44,1.41,0s.11,1-.64,1.36Z"/><path class="cls-1" d="M74.69,44.91c-1.11,0-1.41-.3-1.15-1.38A22.57,22.57,0,0,1,74.41,41a1.36,1.36,0,0,1,1.14-.88,15.32,15.32,0,0,1,6.36,0,1.25,1.25,0,0,1,.73.53,7.56,7.56,0,0,1,1,3.34c.07.72-.2,1-1,.94-1.37,0-2.74-.12-4.11-.18m1.07-2.38a1.08,1.08,0,0,0,.93,1.13,1.11,1.11,0,0,0,.06-2.19A1,1,0,0,0,79.68,42.44Zm-2.11,0a1,1,0,0,0-1-1,1.12,1.12,0,0,0-.88,1.18.95.95,0,1,0,1.88-.13Z"/><path class="cls-1" d="M78.61,48.41a3.78,3.78,0,0,1-2.17-.74.79.79,0,1,1,.79-1.35c.23.1.45.24.68.35a1.49,1.49,0,0,0,1.46-.08c.19-.12.37-.25.56-.35a.72.72,0,0,1,1,.22.74.74,0,0,1-.13,1A3.31,3.31,0,0,1,78.61,48.41Z"/><path class="cls-1" d="M7.43,45.28c-1.16,0-1.49-.31-1.2-1.43a25.12,25.12,0,0,1,.94-2.59,1.19,1.19,0,0,1,.93-.72,15.23,15.23,0,0,1,6.55,0,1.16,1.16,0,0,1,.66.47,7.88,7.88,0,0,1,1.07,3.43c.06.65-.22.92-.92.9-1.4,0-2.8-.12-4.2-.19m-1.12-2.37A1.06,1.06,0,0,0,9.2,41.7a1.09,1.09,0,0,0-.06,2.15A1,1,0,0,0,10.14,42.81Zm2.11-.08a1,1,0,0,0,.91,1.12,1,1,0,0,0,1-1.08,1.08,1.08,0,0,0-.89-1.06A1,1,0,0,0,12.25,42.73Z"/><path class="cls-1" d="M11.29,48.8A4,4,0,0,1,9.12,48c-.45-.32-.55-.71-.35-1.06s.63-.5,1.16-.26c.23.1.45.24.68.34A1.56,1.56,0,0,0,12.08,47c.19-.12.37-.25.57-.35a.72.72,0,0,1,1,.25.71.71,0,0,1-.11,1A3.35,3.35,0,0,1,11.29,48.8Z"/><path class="cls-1" d="M56.16,13.66c-1,0-1.32-.32-1.07-1.28A26,26,0,0,1,56,9.69a1.23,1.23,0,0,1,1-.76,15.75,15.75,0,0,1,6.45,0,1.27,1.27,0,0,1,.73.54,7.87,7.87,0,0,1,1,3.35c.07.68-.23,1-1,.93-1.37,0-2.74-.13-4.11-.21M63,11.24a1.06,1.06,0,0,0-1-1.06,1.1,1.1,0,0,0-.89,1.16,1,1,0,0,0,.95,1A1.05,1.05,0,0,0,63,11.24Zm-4,0a1.06,1.06,0,0,0-.9-1.06,1.08,1.08,0,0,0-1,1.1,1,1,0,0,0,1,1A1,1,0,0,0,59,11.24Z"/><path class="cls-1" d="M61.48,16.87a3.39,3.39,0,0,1-2.67-.05,7.64,7.64,0,0,1-.71-.34c-.56-.3-.68-.78-.42-1.18s.63-.43,1.19-.17c.17.08.33.18.51.26A1.59,1.59,0,0,0,61,15.31,3.5,3.5,0,0,1,61.5,15a.77.77,0,0,1,.88,1.25A3.72,3.72,0,0,1,61.48,16.87Z"/><path class="cls-1" d="M59.39,72.77a3.62,3.62,0,0,1-.57,0c-.56-.07-.81-.33-.76-.89a7.48,7.48,0,0,1,1.2-3.39,1.15,1.15,0,0,1,.63-.39,14.67,14.67,0,0,1,6.72,0,1.39,1.39,0,0,1,.73.67,7.79,7.79,0,0,1,1,3.08c.08.77-.17,1.06-1,1-1.37,0-2.74-.12-4.11-.19m2.86-2.4a1,1,0,0,0-1-1.05,1.07,1.07,0,0,0-.9,1.15,1,1,0,1,0,1.89-.1Zm-4,0a1,1,0,0,0-1-1,1.06,1.06,0,0,0-.9,1.06,1,1,0,0,0,1,1.08A1,1,0,0,0,62.09,70.28Z"/><path class="cls-1" d="M63.26,76.31A4,4,0,0,1,61,75.53a.79.79,0,0,1-.33-1.07c.23-.4.62-.49,1.16-.24a4.37,4.37,0,0,1,.43.22,1.75,1.75,0,0,0,1.89-.08,2.14,2.14,0,0,1,.41-.25.73.73,0,0,1,1,.27.7.7,0,0,1-.12,1A3.36,3.36,0,0,1,63.26,76.31Z"/><path class="cls-1" d="M40.67,45.5c-1.09,0-1.41-.33-1.13-1.4a24.23,24.23,0,0,1,.93-2.59,1.24,1.24,0,0,1,1-.77,15.41,15.41,0,0,1,6.45,0,1.37,1.37,0,0,1,.77.62,7.63,7.63,0,0,1,1,3.16c.07.79-.18,1-1,1l-4.11-.17m2.93-2.36a1,1,0,0,0-1-1.06,1.1,1.1,0,0,0,0,2.17A1,1,0,0,0,47.52,43.06Zm-5.85,0a.95.95,0,1,0,1.87.06.95.95,0,1,0-1.87-.06Z"/><path class="cls-1" d="M44.56,49a3.65,3.65,0,0,1-2.18-.8.74.74,0,0,1-.25-1.08.76.76,0,0,1,1-.24,2.44,2.44,0,0,1,.43.21,1.67,1.67,0,0,0,2-.06,2.17,2.17,0,0,1,.33-.19.76.76,0,0,1,.88,1.24A3.27,3.27,0,0,1,44.56,49Z"/></svg>