<svg xmlns="http://www.w3.org/2000/svg" viewBox="0 0 90 90"><defs><style>.cls-1{fill:#0180ff;}</style></defs><g id="_3" data-name="3"><path class="cls-1" d="M20.35,51.79c-.92.06-1,.06-1,.8a56.64,56.64,0,0,0,0,5.68c.11,1.62.51,3.22.78,4.82a3,3,0,0,1,.09.49.83.83,0,0,1-1.3.77,3.17,3.17,0,0,1-.69-.58,13.35,13.35,0,0,1-3.56-5.7c0-.09-.09-.18-.17-.36l-1,.52A10.62,10.62,0,0,1,8.38,59.7,8.54,8.54,0,0,1,6,59.33,5.36,5.36,0,0,1,2.1,53.27,12,12,0,0,1,5.7,46c1.16-1.15,2.45-2.15,3.82-3.34-.07-.38-.14-.93-.28-1.47-.77-2.86-1.54-5.72-2.33-8.57A3.19,3.19,0,0,1,9.2,28.72c2.49-.61,5-1.18,7.49-1.76l.49-.12A2.91,2.91,0,0,1,21,29.11c.36,1.28.69,2.57,1,3.86.1.35.21.69.37,1.22.17-.32.28-.5.36-.68.31-.74.6-1.48.92-2.21A20.64,20.64,0,0,1,37.05,19.56a21.63,21.63,0,0,1,7.79-1.13c5,.32,9.84,1.39,14.14,4.16A23.11,23.11,0,0,1,67.87,34,42.68,42.68,0,0,1,70.3,44.57a53.06,53.06,0,0,1,.34,9.17A47.57,47.57,0,0,1,60.51,81.42,24.57,24.57,0,0,1,53,87.8a18.45,18.45,0,0,1-4.27,1.69A13,13,0,0,1,41,89a24.69,24.69,0,0,1-9.71-6.68,41,41,0,0,1-8.84-15.39,40.43,40.43,0,0,1-2.08-14.06C20.36,52.5,20.35,52.15,20.35,51.79Zm48.7-.45a58.73,58.73,0,0,0-.84-9.64,34,34,0,0,0-2.32-8.15c-1.89-4.28-4.61-7.92-8.82-10.14a25.26,25.26,0,0,0-17.22-2.83C33.1,22,28,25.54,25.18,32c-.57,1.31-1,2.67-1.53,4a4.54,4.54,0,0,1-.23.65,1.42,1.42,0,0,0-.08,1.24q1.2,4.38,2.35,8.78A7.69,7.69,0,0,1,25.93,48,2.61,2.61,0,0,1,24,50.77a7.75,7.75,0,0,1-1.26.32c-.52.07-.76.32-.73.85,0,.23,0,.47,0,.7a41.1,41.1,0,0,0,5.54,21.79,32.6,32.6,0,0,0,7.25,9,21.35,21.35,0,0,0,6.65,4,11.61,11.61,0,0,0,8.69-.12,23.49,23.49,0,0,0,4-2.13,26,26,0,0,0,7.35-7.81A47.57,47.57,0,0,0,69.05,51.34ZM11.23,40.55c.23-.21.39-.32.51-.46a10.65,10.65,0,0,1,3.92-2.7,4,4,0,0,1,.66-.23.84.84,0,0,1,1.09.45.83.83,0,0,1-.5,1.06c-.26.14-.55.23-.83.35a8.47,8.47,0,0,0-3.28,2.39c-.12.16-.21.34-.41.67.41-.18.62-.28.83-.36,1.26-.42,2.52-.88,3.79-1.26.78-.23,1.27,0,1.39.52s-.2.87-1,1.09c-.61.17-1.23.31-1.82.51a14.55,14.55,0,0,0-3.71,1.83c.55,2,1.07,4,1.64,6,.23.79.71,1,1.56.79l8.06-1.88.39-.1a.92.92,0,0,0,.74-1.13A9.27,9.27,0,0,0,24,46.61q-2-7.47-4-14.94c-.22-.8-.42-1.61-.7-2.39a1.12,1.12,0,0,0-1.55-.85c-2.57.59-5.13,1.18-7.69,1.8-1.33.33-1.7,1-1.37,2.27.4,1.52.81,3,1.22,4.53.05.2.13.4.24.7.16-.24.25-.34.31-.45a10.91,10.91,0,0,1,3.29-3.57,3.57,3.57,0,0,1,.68-.4.75.75,0,0,1,1,.26.72.72,0,0,1-.09,1c-.18.19-.43.32-.62.5-.77.73-1.58,1.43-2.27,2.23A5.23,5.23,0,0,0,11.23,40.55Zm-1.09,4a13.59,13.59,0,0,0-5.6,6.08,11.07,11.07,0,0,0-.76,3,3.69,3.69,0,0,0,3,4.27A5.6,5.6,0,0,0,9.29,58a12.88,12.88,0,0,0,5-2.19c.14-1,.27-1.86.4-2.81a3.06,3.06,0,0,1-3.05-2.71C11.22,48.37,10.67,46.48,10.14,44.52Z"/><path class="cls-1" d="M45,10.22a21.84,21.84,0,0,1,6.54.73,15.47,15.47,0,0,1,2,.79,7.17,7.17,0,0,1,4.21,6.42,1,1,0,0,1-1.38,1.17,6.55,6.55,0,0,1-.85-.29,36.55,36.55,0,0,0-10.44-2.19A25.83,25.83,0,0,0,33,19.59l-.26.14c-.89.41-1.46.09-1.46-.87a7.06,7.06,0,0,1,1.46-4.57A8.79,8.79,0,0,1,36,11.78a20,20,0,0,1,6.89-1.55C43.59,10.18,44.29,10.22,45,10.22Z"/><path class="cls-1" d="M84.31,20.68c1.8,3.21,1.46,6.52.66,9.85a14.19,14.19,0,0,1-5.33,8.1c-.74.57-1.51,1.1-2.3,1.69,0,.23,0,.49,0,.75.33,3.28-1,6-3,8.4a.84.84,0,0,1-1,.35.87.87,0,0,1-.57-.86c-.12-1.29-.22-2.58-.36-3.87A42.54,42.54,0,0,0,70.08,35c-.18-.5-.46-1,0-1.49s.94-.1,1.4.06a8.32,8.32,0,0,1,5.23,4.76s.09.08.22.18A15.49,15.49,0,0,0,80.9,35.1a14.54,14.54,0,0,0,2.83-11.3,4.9,4.9,0,0,0-2.53-3.65,13,13,0,0,0-4.29-1.57,2.11,2.11,0,0,1-.86-.24,1.12,1.12,0,0,1-.44-.79c0-.25.35-.53.62-.66a1.21,1.21,0,0,1,.77,0c1.25.31,2.5.65,3.84,1-.07-.21-.12-.42-.2-.61-.71-1.54-1.43-3.08-2.14-4.63a2,2,0,0,1-.28-.83,1.28,1.28,0,0,1,.44-.81.63.63,0,0,1,.89.17A3.74,3.74,0,0,1,80,12c.55,1.18,1.09,2.36,1.63,3.54a2.16,2.16,0,0,0,.54.74V15c0-1.13-.05-2.27-.07-3.4a1.49,1.49,0,0,1,.11-.77c.14-.22.45-.49.67-.48a1.13,1.13,0,0,1,.76.5,2.2,2.2,0,0,1,.14,1c0,1.8.08,3.59.13,5.62a7.94,7.94,0,0,0,.49-.66c.54-1.07,1.07-2.15,1.6-3.22.11-.21.2-.43.32-.63.35-.61.76-.8,1.19-.57s.57.69.27,1.31c-.59,1.27-1.23,2.51-1.85,3.77C85.39,18.49,84.85,19.59,84.31,20.68Z"/><path class="cls-1" d="M43.8,6.15a9.13,9.13,0,0,1,.65-3.32,3,3,0,0,1,2-1.89,1.63,1.63,0,0,1,2.14,1.24,4.59,4.59,0,0,1,.1,1.48A12.38,12.38,0,0,1,47,8.51c-.46.83-1.21.7-1.93.63S44.19,8.83,44,8C43.92,7.41,43.88,6.77,43.8,6.15Z"/><path class="cls-1" d="M27,43.94a38.06,38.06,0,0,1,1.55-11.22,1.21,1.21,0,0,1,1.08-1c2.3-.39,4.59-.84,6.9-1.14,1.92-.26,3.85-.37,5.78-.5A66.8,66.8,0,0,1,60.5,31.73a1.76,1.76,0,0,1,1.29,1.12,44.22,44.22,0,0,1,2.46,9.94c.15,1.25.27,2.51.35,3.77s-.3,1.68-1.64,1.53a172.66,172.66,0,0,0-19.56-1,142.93,142.93,0,0,0-15.06,1c-.91.11-1.27-.14-1.3-1S27,45,27,43.94Zm14.73-2.36a8.17,8.17,0,0,0,0-4c-.06-.22-.13-.44-.2-.66-.27-.75-.72-1.5-1.67-1.5s-1.37.75-1.67,1.51a7.14,7.14,0,0,0,0,5.43A3.2,3.2,0,0,0,39,43.39a1.28,1.28,0,0,0,1.85,0,3,3,0,0,0,.74-1.14C41.65,42,41.7,41.79,41.76,41.58ZM53,42.12a8.54,8.54,0,0,0,0-4.83v0a3.43,3.43,0,0,0-.67-1.17,1.4,1.4,0,0,0-2.15,0,3.85,3.85,0,0,0-.7,1.19,7.27,7.27,0,0,0,0,4.89,4.06,4.06,0,0,0,.76,1.28,1.38,1.38,0,0,0,2.07,0A3.32,3.32,0,0,0,53,42.24Z"/><path class="cls-1" d="M42,64.78c-.31.83-.52,1.48-.79,2.11s-.68,1.37-1.53,1.4a1.75,1.75,0,0,1-1.61-1.17c-.66-1.34-1.22-2.72-1.81-4.1a.84.84,0,0,1,0-.58c.11-.25.29-.57.52-.64a1,1,0,0,1,.79.21A3.26,3.26,0,0,1,38,63c.46,1.09.91,2.19,1.45,3.49a6,6,0,0,0,.43-.75c.21-.59.38-1.2.59-1.8.15-.43.31-.88.5-1.3a1.12,1.12,0,0,1,1-.72,1.14,1.14,0,0,1,1.09.74,9,9,0,0,1,.41,1c.21.6.39,1.2.6,1.8.1.26.24.51.41.87A14,14,0,0,0,46,63.07a9.29,9.29,0,0,1,.37-.92.74.74,0,0,1,.92-.41.77.77,0,0,1,.56.93,1.61,1.61,0,0,1-.12.48c-.45,1.11-.89,2.22-1.37,3.32a4.36,4.36,0,0,1-.64,1,1.45,1.45,0,0,1-2.65-.2,14.66,14.66,0,0,1-.64-1.46Z"/><path class="cls-1" d="M30,62V59.57c0-.47,0-.94,0-1.4,0-.7.34-1,.83-1.05s.79.36.81,1.05c0,.53,0,1.06,0,1.6V62h1.27a5.43,5.43,0,0,1,.7,0c.52.08.86.42.84.84a.79.79,0,0,1-.77.78c-.59.07-1.19.09-1.79.13a1.26,1.26,0,0,0-.09.31c.23,2.57.11,2.26,2.42,2.26a7.12,7.12,0,0,1,.8,0,.79.79,0,0,1,0,1.58,4.81,4.81,0,0,1-1,.07c-.63,0-1.27,0-1.9-.06a1.75,1.75,0,0,1-1.69-1.44c-.19-.87-.31-1.76-.47-2.69-.33,0-.66,0-1-.06a.82.82,0,0,1-.8-.76c-.05-.43.26-.75.8-.84C29.3,62.05,29.59,62,30,62Z"/><path class="cls-1" d="M56,62.92c.33-.14.63-.29.93-.41a2.37,2.37,0,0,1,3,.9,8.19,8.19,0,0,1,1.25,4.16.82.82,0,0,1-.73.92.87.87,0,0,1-.89-.77c-.13-.59-.19-1.18-.32-1.77a5.76,5.76,0,0,0-.4-1.12,1.09,1.09,0,0,0-2-.26,3.43,3.43,0,0,0-.71,2c0,.33,0,.67,0,1a.9.9,0,0,1-.8.88.92.92,0,0,1-.86-.82,3.94,3.94,0,0,1-.07-.69c0-1.36-.07-2.73-.11-4.09,0-1,.19-1.37.73-1.43s.79.29,1,1.27C55.88,62.76,55.91,62.79,56,62.92Z"/><path class="cls-1" d="M46.25,54.17a5.38,5.38,0,0,1-2.46,0,3.64,3.64,0,0,1-.47-.14,7.6,7.6,0,0,1-3.21-2.3.84.84,0,0,1,0-1.25.86.86,0,0,1,1.17.12c.36.31.68.65,1,.95a4,4,0,0,0,4.82.6,30.92,30.92,0,0,0,3-2c.69-.48,1.15-.56,1.49-.15s.22.89-.43,1.43a12,12,0,0,1-4.94,2.73Z"/><path class="cls-1" d="M52.07,67.48c0,.6-.31,1-.75,1a.87.87,0,0,1-.87-.91c-.09-1.72-.16-3.45-.21-5.18,0-.62.3-1,.75-1s.82.31.87.91c.07.89.09,1.79.13,2.69"/></g></svg>