<svg width="64" height="62" viewBox="0 0 64 62" fill="none" xmlns="http://www.w3.org/2000/svg">
<path d="M17.9531 40.519V47.019C17.9531 47.5713 17.5054 48.019 16.9531 48.019H13.9531" stroke="#F6F9FF" stroke-width="1.5"/>
<path d="M47.9531 41.019V47.019C47.9531 47.5713 48.4008 48.019 48.9531 48.019H51.9531" stroke="#F6F9FF" stroke-width="1.5"/>
<path d="M11.4531 45.019C12.8338 45.019 13.9531 46.1383 13.9531 47.519C13.9531 48.8998 12.8338 50.019 11.4531 50.019C10.0724 50.019 8.95312 48.8998 8.95312 47.519C8.95312 46.1383 10.0724 45.019 11.4531 45.019Z" stroke="#F6F9FF" stroke-width="1.5"/>
<path d="M54.4531 45.019C55.8338 45.019 56.9531 46.1383 56.9531 47.519C56.9531 48.8998 55.8338 50.019 54.4531 50.019C53.0724 50.019 51.9531 48.8998 51.9531 47.519C51.9531 46.1383 53.0724 45.019 54.4531 45.019Z" stroke="#F6F9FF" stroke-width="1.5"/>
<path d="M47.4531 52.019C48.8338 52.019 49.9531 53.1383 49.9531 54.519C49.9531 55.8998 48.8338 57.019 47.4531 57.019C46.0724 57.019 44.9531 55.8998 44.9531 54.519C44.9531 53.1383 46.0724 52.019 47.4531 52.019Z" stroke="#F6F9FF" stroke-width="1.5"/>
<path d="M18.4531 52.019C19.8338 52.019 20.9531 53.1383 20.9531 54.519C20.9531 55.8998 19.8338 57.019 18.4531 57.019C17.0724 57.019 15.9531 55.8998 15.9531 54.519C15.9531 53.1383 17.0724 52.019 18.4531 52.019Z" stroke="#F6F9FF" stroke-width="1.5"/>
<path d="M32.4531 56.019C33.8338 56.019 34.9531 57.1383 34.9531 58.519C34.9531 59.8998 33.8338 61.019 32.4531 61.019C31.0724 61.019 29.9531 59.8998 29.9531 58.519C29.9531 57.1383 31.0724 56.019 32.4531 56.019Z" stroke="#F6F9FF" stroke-width="1.5"/>
<path d="M24.9531 40.519V53.519C24.9531 54.0713 24.5054 54.519 23.9531 54.519H20.9531" stroke="#F6F9FF" stroke-width="1.5"/>
<path d="M40.4531 40.519V53.519C40.4531 54.0713 40.9008 54.519 41.4531 54.519H44.4531" stroke="#F6F9FF" stroke-width="1.5"/>
<path d="M32.9531 40.019V56.019" stroke="#F6F9FF" stroke-width="1.5"/>
<path d="M49.4527 14.5191C47.9527 0.0189552 14.9527 -8.98094 11.4527 20.519C0.952744 19.019 -5.54726 38.019 11.4527 40.519H47.9527C53.9527 40.519 62.4527 38.519 62.9527 26.019C62.4527 21.019 58.6527 13.7191 49.4527 14.5191Z" stroke="#F6F9FF" stroke-width="1.5"/>
</svg>
