<svg width="59" height="63" viewBox="0 0 59 63" fill="none" xmlns="http://www.w3.org/2000/svg">
<path d="M3.97266 37.6782L13.39 42.1391" stroke="#F6F9FF" stroke-width="1.5"/>
<path d="M3.97266 42.6348L9.42483 45.113" stroke="#F6F9FF" stroke-width="1.5"/>
<path d="M1 46.9684V15.5012C1 15.1199 1.21685 14.7717 1.5591 14.6036L28.8113 1.21658C29.0893 1.07999 29.415 1.07999 29.6931 1.21658L56.9546 14.6082C57.292 14.7739 57.5079 15.1148 57.5136 15.4906L57.9903 46.9531C57.9962 47.3423 57.7757 47.6996 57.4252 47.8688L29.6907 61.2578C29.4139 61.3915 29.091 61.3904 28.8151 61.2549L1.5591 47.8659C1.21685 47.6978 1 47.3497 1 46.9684Z" stroke="#F6F9FF" stroke-width="1.5"/>
<path d="M1 14.8784L28.8113 28.5401C29.0893 28.6767 29.415 28.6767 29.6931 28.5401L57.5043 14.8784" stroke="#F6F9FF" stroke-width="1.5"/>
<path d="M29.2539 28.7563V61.4694" stroke="#F6F9FF" stroke-width="1.5"/>
<path d="M12.8945 9.42615L39.5961 22.5342C39.9384 22.7023 40.1554 23.0504 40.1554 23.4319V33.5334C40.1554 34.2883 40.9599 34.771 41.626 34.4158L47.0608 31.5172C47.3866 31.3434 47.5902 31.0042 47.5902 30.6349V19.9572C47.5902 19.5785 47.3762 19.2322 47.0374 19.0628L19.8337 5.46094" stroke="#F6F9FF" stroke-width="1.5"/>
</svg>
