<svg width="217" height="146" viewBox="0 0 217 146" fill="none" xmlns="http://www.w3.org/2000/svg">
<path d="M11.43 80.2401C16.638 80.2401 20.86 76.2867 20.86 71.4101C20.86 66.5334 16.638 62.5801 11.43 62.5801C6.22196 62.5801 2 66.5334 2 71.4101C2 76.2867 6.22196 80.2401 11.43 80.2401Z" stroke="white" stroke-opacity="0.6" stroke-width="2.157" stroke-miterlimit="10" stroke-linecap="round" stroke-linejoin="round"/>
<path d="M14.8701 71.4606C14.8701 73.3406 13.2901 74.8606 11.3501 74.8606C9.40008 74.8606 7.83008 73.3406 7.83008 71.4606C7.83008 69.5806 9.41008 68.0605 11.3501 68.0605C13.2901 68.0605 14.8701 69.5806 14.8701 71.4606Z" stroke="white" stroke-opacity="0.6" stroke-width="2.157" stroke-miterlimit="10" stroke-linecap="round" stroke-linejoin="round"/>
<path d="M11.4302 62.5804L25.0802 -9.22961H59.0802L72.5402 -81.1196H146.22" stroke="white" stroke-opacity="0.6" stroke-width="2.157" stroke-miterlimit="10" stroke-linecap="round" stroke-linejoin="round"/>
<path d="M86.5729 110.11C70.5629 94.34 82.0429 59.16 101.423 52.23C130.273 41.91 101.353 119.88 97.8729 84.77C95.0129 55.84 132.113 17.15 135.883 43.44C138.113 59.02 124.673 66.51 122.593 54.6C120.553 42.92 128.383 24.46 151.853 15" stroke="white" stroke-opacity="0.6" stroke-width="2.157" stroke-miterlimit="10" stroke-linecap="round" stroke-linejoin="round"/>
<path d="M188.11 100.06C197.56 100.06 205.22 92.8831 205.22 84.03C205.22 75.1769 197.56 68 188.11 68C178.66 68 171 75.1769 171 84.03C171 92.8831 178.66 100.06 188.11 100.06Z" stroke="white" stroke-opacity="0.6" stroke-width="2.157" stroke-miterlimit="10" stroke-linecap="round" stroke-linejoin="round"/>
<path d="M194.35 84.1099C194.35 87.5199 191.49 90.2799 187.95 90.2799C184.42 90.2799 181.55 87.5199 181.55 84.1099C181.55 80.6999 184.41 77.9399 187.95 77.9399C191.49 77.9399 194.35 80.6999 194.35 84.1099Z" stroke="white" stroke-opacity="0.6" stroke-width="2.157" stroke-miterlimit="10" stroke-linecap="round" stroke-linejoin="round"/>
</svg>
