<svg width="326" height="66" viewBox="0 0 326 66" fill="none" xmlns="http://www.w3.org/2000/svg">
<path d="M5.00001 41C6.65686 41 8 39.6569 8 38C8 36.3431 6.65686 35 5.00001 35C3.34315 35 2 36.3431 2 38C2 39.6569 3.34315 41 5.00001 41Z" stroke="#F6F9FF" stroke-opacity="0.6" stroke-width="2.157" stroke-miterlimit="10" stroke-linecap="round" stroke-linejoin="round"/>
<path d="M39 53L46.6964 16.5203H65.867L73.4563 -20H115" stroke="#F6F9FF" stroke-opacity="0.6" stroke-width="2.157" stroke-miterlimit="10" stroke-linecap="round" stroke-linejoin="round"/>
<path d="M265.37 17L250 36.1232" stroke="#F6F9FF" stroke-opacity="0.6" stroke-width="2.157" stroke-miterlimit="10" stroke-linecap="round" stroke-linejoin="round"/>
<path d="M286.16 39.1133L260.82 46.0567" stroke="#F6F9FF" stroke-opacity="0.6" stroke-width="2.157" stroke-miterlimit="10" stroke-linecap="round" stroke-linejoin="round"/>
<path d="M291.231 59.0774L265 57.5812" stroke="#F6F9FF" stroke-opacity="0.6" stroke-width="2.157" stroke-miterlimit="10" stroke-linecap="round" stroke-linejoin="round"/>
<path d="M324 17C324 21.4213 320.42 25 316 25C311.58 25 308 21.4213 308 17C308 12.5787 311.58 9 316 9C320.42 9 324 12.5878 324 17Z" stroke="#F6F9FF" stroke-opacity="0.6" stroke-width="2.157" stroke-miterlimit="10" stroke-linecap="round" stroke-linejoin="round"/>
<path d="M43 58.5C43 61.5396 40.5387 64 37.5 64C34.4613 64 32 61.5396 32 58.5C32 55.4604 34.4613 53 37.5 53C40.5387 53 43 55.4666 43 58.5Z" stroke="#F6F9FF" stroke-opacity="0.6" stroke-width="2.157" stroke-miterlimit="10" stroke-linecap="round" stroke-linejoin="round"/>
<path d="M316 20C317.657 20 319 18.6568 319 17C319 15.3431 317.657 14 316 14C314.343 14 313 15.3431 313 17C313 18.6568 314.343 20 316 20Z" stroke="#F6F9FF" stroke-opacity="0.6" stroke-width="2.157" stroke-miterlimit="10" stroke-linecap="round" stroke-linejoin="round"/>
<path d="M37.5 60C38.3284 60 39 59.3284 39 58.5C39 57.6716 38.3284 57 37.5 57C36.6716 57 36 57.6716 36 58.5C36 59.3284 36.6716 60 37.5 60Z" stroke="#F6F9FF" stroke-opacity="0.6" stroke-width="1.5" stroke-miterlimit="10" stroke-linecap="round" stroke-linejoin="round"/>
<path d="M179 12H159V32H179V12Z" stroke="#F6F9FF" stroke-opacity="0.6" stroke-width="2.157" stroke-miterlimit="10" stroke-linecap="round" stroke-linejoin="round"/>
<path d="M172 19H152V39H172V19Z" stroke="#F6F9FF" stroke-opacity="0.6" stroke-width="2.157" stroke-miterlimit="10" stroke-linecap="round" stroke-linejoin="round"/>
<path d="M97.5 34C98.8807 34 100 32.8807 100 31.5C100 30.1193 98.8807 29 97.5 29C96.1193 29 95 30.1193 95 31.5C95 32.8807 96.1193 34 97.5 34Z" fill="#F6F9FF"/>
</svg>
