<svg width="200" height="146" viewBox="0 0 200 146" fill="none" xmlns="http://www.w3.org/2000/svg">
<path d="M90.5633 74C100.283 79.74 107.043 90.43 89.6933 103.78C73.5233 116.23 64.4933 112.87 64.0133 106.19C63.3633 97.23 86.6633 84.46 105.763 107.23C120.863 125.23 97.8333 138.72 96.8933 134.57C95.9533 130.42 118.943 115.55 153.053 146.33" stroke="#007BFF" stroke-opacity="0.6" stroke-width="2.157" stroke-miterlimit="10" stroke-linecap="round" stroke-linejoin="round"/>
<path d="M58.2201 32.06C67.6697 32.06 75.3301 24.8831 75.3301 16.03C75.3301 7.17688 67.6697 0 58.2201 0C48.7705 0 41.1101 7.17688 41.1101 16.03C41.1101 24.8831 48.7705 32.06 58.2201 32.06Z" stroke="#007BFF" stroke-opacity="0.6" stroke-width="2.157" stroke-miterlimit="10" stroke-linecap="round" stroke-linejoin="round"/>
<path d="M58.0699 22.2699C61.6045 22.2699 64.4699 19.5075 64.4699 16.0999C64.4699 12.6923 61.6045 9.92993 58.0699 9.92993C54.5353 9.92993 51.6699 12.6923 51.6699 16.0999C51.6699 19.5075 54.5353 22.2699 58.0699 22.2699Z" stroke="#007BFF" stroke-opacity="0.6" stroke-width="2.157" stroke-miterlimit="10" stroke-linecap="round" stroke-linejoin="round"/>
<path d="M75.3301 16.0298H155.19L169.63 65.6698" stroke="#007BFF" stroke-opacity="0.6" stroke-width="2.157" stroke-miterlimit="10" stroke-linecap="round" stroke-linejoin="round"/>
<path d="M33.3701 63H8.09009V88.28H33.3701V63Z" stroke="#007BFF" stroke-opacity="0.6" stroke-width="2.157" stroke-miterlimit="10" stroke-linecap="round" stroke-linejoin="round"/>
<path d="M25.28 71.3201H0V96.6001H25.28V71.3201Z" stroke="#007BFF" stroke-opacity="0.6" stroke-width="2.157" stroke-miterlimit="10" stroke-linecap="round" stroke-linejoin="round"/>
</svg>
