<svg width="326" height="64" viewBox="0 0 326 64" fill="none" xmlns="http://www.w3.org/2000/svg">
<path d="M5.00001 39C6.65686 39 8 37.6569 8 36C8 34.3431 6.65686 33 5.00001 33C3.34315 33 2 34.3431 2 36C2 37.6569 3.34315 39 5.00001 39Z" stroke="white" stroke-opacity="0.6" stroke-width="2.157" stroke-miterlimit="10" stroke-linecap="round" stroke-linejoin="round"/>
<path d="M39 51L46.6964 14.5203H65.867L73.4563 -22H115" stroke="white" stroke-opacity="0.6" stroke-width="2.157" stroke-miterlimit="10" stroke-linecap="round" stroke-linejoin="round"/>
<path d="M265.37 15L250 34.1232" stroke="white" stroke-opacity="0.6" stroke-width="2.157" stroke-miterlimit="10" stroke-linecap="round" stroke-linejoin="round"/>
<path d="M286.16 37.1133L260.82 44.0567" stroke="white" stroke-opacity="0.6" stroke-width="2.157" stroke-miterlimit="10" stroke-linecap="round" stroke-linejoin="round"/>
<path d="M291.231 57.0774L265 55.5812" stroke="white" stroke-opacity="0.6" stroke-width="2.157" stroke-miterlimit="10" stroke-linecap="round" stroke-linejoin="round"/>
<path d="M324 15C324 19.4213 320.42 23 316 23C311.58 23 308 19.4213 308 15C308 10.5787 311.58 7 316 7C320.42 7 324 10.5878 324 15Z" stroke="white" stroke-opacity="0.6" stroke-width="2.157" stroke-miterlimit="10" stroke-linecap="round" stroke-linejoin="round"/>
<path d="M43 56.5C43 59.5396 40.5387 62 37.5 62C34.4613 62 32 59.5396 32 56.5C32 53.4604 34.4613 51 37.5 51C40.5387 51 43 53.4666 43 56.5Z" stroke="white" stroke-opacity="0.6" stroke-width="2.157" stroke-miterlimit="10" stroke-linecap="round" stroke-linejoin="round"/>
<path d="M316 18C317.657 18 319 16.6568 319 15C319 13.3431 317.657 12 316 12C314.343 12 313 13.3431 313 15C313 16.6568 314.343 18 316 18Z" stroke="white" stroke-opacity="0.6" stroke-width="2.157" stroke-miterlimit="10" stroke-linecap="round" stroke-linejoin="round"/>
<path d="M37.5 58C38.3284 58 39 57.3284 39 56.5C39 55.6716 38.3284 55 37.5 55C36.6716 55 36 55.6716 36 56.5C36 57.3284 36.6716 58 37.5 58Z" stroke="white" stroke-opacity="0.6" stroke-width="1.5" stroke-miterlimit="10" stroke-linecap="round" stroke-linejoin="round"/>
<path d="M179 10H159V30H179V10Z" stroke="white" stroke-opacity="0.6" stroke-width="2.157" stroke-miterlimit="10" stroke-linecap="round" stroke-linejoin="round"/>
<path d="M172 17H152V37H172V17Z" stroke="white" stroke-opacity="0.6" stroke-width="2.157" stroke-miterlimit="10" stroke-linecap="round" stroke-linejoin="round"/>
<path d="M97.5 32C98.8807 32 100 30.8807 100 29.5C100 28.1193 98.8807 27 97.5 27C96.1193 27 95 28.1193 95 29.5C95 30.8807 96.1193 32 97.5 32Z" fill="white" fill-opacity="0.6"/>
</svg>
