<svg width="166" height="181" viewBox="0 0 166 181" fill="none" xmlns="http://www.w3.org/2000/svg">
<path d="M82.5694 87.5502C82.5694 87.5502 81.1419 101.133 77.3746 106C77.3746 106 86.9514 98.4491 90.5137 87.5502C98.4117 87.5502 118.021 87.5502 124.948 87.5502C131.874 87.5502 135.641 84.0049 136.256 74.7767C136.864 65.5485 138.371 52.5251 133.936 48.1906C130.235 44.5664 122.093 45.3754 111.776 45.2241C101.459 45.0729 64.0967 44.1586 55.3131 44.0073C46.5294 43.856 41.176 45.9871 40.5679 56.7084C39.9599 67.4297 39.9599 71.7642 40.0326 77.0131C40.1119 82.2619 42.326 87.3529 51.797 87.8856C61.2746 88.4118 82.5694 87.5502 82.5694 87.5502Z" stroke="white" stroke-opacity="0.6" stroke-width="2.157" stroke-miterlimit="10" stroke-linecap="round" stroke-linejoin="round"/>
<path d="M66.6984 65.2262L66.6985 65.2258C67.3161 63.251 69.1128 62.1729 70.5848 62.5915L70.5869 62.592C72.047 63.0004 72.922 64.8079 72.2993 66.7728L72.2988 66.7742C71.681 68.7438 69.8837 69.8273 68.4124 69.4089L68.4103 69.4083C66.9514 69.0003 66.0812 67.1936 66.6984 65.2262Z" stroke="white" stroke-opacity="0.6"/>
<path d="M85.6984 65.2262L85.6985 65.2258C86.3161 63.251 88.1128 62.1729 89.5848 62.5915L89.5869 62.592C91.047 63.0004 91.922 64.8079 91.2993 66.7728L91.2988 66.7742C90.681 68.7438 88.8837 69.8273 87.4124 69.4089L87.4103 69.4083C85.9514 69.0003 85.0812 67.1936 85.6984 65.2262Z" stroke="white" stroke-opacity="0.6"/>
<path d="M104.698 66.2262L104.699 66.2258C105.316 64.251 107.113 63.1729 108.585 63.5915L108.587 63.592C110.047 64.0004 110.922 65.8079 110.299 67.7728L110.299 67.7742C109.681 69.7438 107.884 70.8273 106.412 70.4089L106.41 70.4083C104.951 70.0003 104.081 68.1936 104.698 66.2262Z" stroke="white" stroke-opacity="0.6"/>
<path d="M134 19L132 36" stroke="white" stroke-opacity="0.6" stroke-width="2.157" stroke-miterlimit="10" stroke-linecap="round" stroke-linejoin="round"/>
<path d="M152 26L141 40" stroke="white" stroke-opacity="0.6" stroke-width="2.157" stroke-miterlimit="10" stroke-linecap="round" stroke-linejoin="round"/>
<path d="M165 42L149 47" stroke="white" stroke-opacity="0.6" stroke-width="2.157" stroke-miterlimit="10" stroke-linecap="round" stroke-linejoin="round"/>
<path d="M13.5 23C19.8513 23 25 18.299 25 12.5C25 6.70101 19.8513 2 13.5 2C7.14873 2 2 6.70101 2 12.5C2 18.299 7.14873 23 13.5 23Z" stroke="white" stroke-opacity="0.6" stroke-width="2.157" stroke-miterlimit="10" stroke-linecap="round" stroke-linejoin="round"/>
<path d="M13 16C15.2091 16 17 14.2091 17 12C17 9.79086 15.2091 8 13 8C10.7909 8 9 9.79086 9 12C9 14.2091 10.7909 16 13 16Z" stroke="white" stroke-opacity="0.6" stroke-width="2.157" stroke-miterlimit="10" stroke-linecap="round" stroke-linejoin="round"/>
<path d="M25 12H77.506L87 45" stroke="white" stroke-opacity="0.6" stroke-width="2.157" stroke-miterlimit="10" stroke-linecap="round" stroke-linejoin="round"/>
<path d="M147 131H127V151H147V131Z" stroke="white" stroke-opacity="0.6" stroke-width="2.157" stroke-miterlimit="10" stroke-linecap="round" stroke-linejoin="round"/>
<path d="M141 138H121V158H141V138Z" stroke="white" stroke-opacity="0.6" stroke-width="2.157" stroke-miterlimit="10" stroke-linecap="round" stroke-linejoin="round"/>
<path d="M82.62 180.92C85.1716 180.92 87.24 178.923 87.24 176.46C87.24 173.997 85.1716 172 82.62 172C80.0684 172 78 173.997 78 176.46C78 178.923 80.0684 180.92 82.62 180.92Z" fill="white" fill-opacity="0.6"/>
</svg>
