<svg width="167" height="174" viewBox="0 0 167 174" fill="none" xmlns="http://www.w3.org/2000/svg">
<path d="M24 34C25.6569 34 27 32.6569 27 31C27 29.3431 25.6569 28 24 28C22.3432 28 21 29.3431 21 31C21 32.6569 22.3432 34 24 34Z" stroke="white" stroke-opacity="0.6" stroke-width="2.157" stroke-miterlimit="10" stroke-linecap="round" stroke-linejoin="round"/>
<path d="M165.07 10.83C165.07 15.71 160.85 19.66 155.64 19.66C150.43 19.66 146.21 15.71 146.21 10.83C146.21 5.95 150.43 2 155.64 2C160.85 2 165.07 5.96 165.07 10.83Z" stroke="white" stroke-opacity="0.6" stroke-width="2.157" stroke-miterlimit="10" stroke-linecap="round" stroke-linejoin="round"/>
<path d="M155.56 14.2795C157.504 14.2795 159.08 12.7573 159.08 10.8795C159.08 9.00172 157.504 7.47949 155.56 7.47949C153.616 7.47949 152.04 9.00172 152.04 10.8795C152.04 12.7573 153.616 14.2795 155.56 14.2795Z" stroke="white" stroke-opacity="0.6" stroke-width="2.157" stroke-miterlimit="10" stroke-linecap="round" stroke-linejoin="round"/>
<path d="M11.43 172.24C16.638 172.24 20.86 168.287 20.86 163.41C20.86 158.533 16.638 154.58 11.43 154.58C6.22196 154.58 2 158.533 2 163.41C2 168.287 6.22196 172.24 11.43 172.24Z" stroke="white" stroke-opacity="0.6" stroke-width="2.157" stroke-miterlimit="10" stroke-linecap="round" stroke-linejoin="round"/>
<path d="M14.8701 163.46C14.8701 165.34 13.2901 166.86 11.3501 166.86C9.40008 166.86 7.83008 165.34 7.83008 163.46C7.83008 161.58 9.41008 160.06 11.3501 160.06C13.2901 160.06 14.8701 161.58 14.8701 163.46Z" stroke="white" stroke-opacity="0.6" stroke-width="2.157" stroke-miterlimit="10" stroke-linecap="round" stroke-linejoin="round"/>
<path d="M11.4307 154.58L25.0807 82.7699H59.0807L72.5407 10.8799H146.221" stroke="white" stroke-opacity="0.6" stroke-width="2.157" stroke-miterlimit="10" stroke-linecap="round" stroke-linejoin="round"/>
<path d="M58.62 151.92C61.1716 151.92 63.24 149.923 63.24 147.46C63.24 144.997 61.1716 143 58.62 143C56.0684 143 54 144.997 54 147.46C54 149.923 56.0684 151.92 58.62 151.92Z" fill="white" fill-opacity="0.6"/>
</svg>
