<svg width="332" height="54" viewBox="0 0 332 54" fill="none" xmlns="http://www.w3.org/2000/svg">
<path d="M56.9648 61.2042C56.9648 61.2042 55.9934 70.6243 53.4301 74C53.4301 74 59.9463 68.7631 62.3702 61.2042C67.7441 61.2042 81.0866 61.2042 85.7995 61.2042C90.5123 61.2042 93.0756 58.7454 93.4938 52.3452C93.9075 45.945 94.9329 36.9126 91.9154 33.9064C89.3971 31.3928 83.8568 31.9539 76.837 31.849C69.8172 31.7441 44.3957 31.11 38.4192 31.0051C32.4427 30.9001 28.8001 32.3782 28.3864 39.8139C27.9727 47.2496 27.9727 50.2558 28.0222 53.8962C28.0761 57.5365 29.5826 61.0673 36.0268 61.4368C42.4755 61.8018 56.9648 61.2042 56.9648 61.2042Z" stroke="white" stroke-opacity="0.6" stroke-width="2.157" stroke-miterlimit="10" stroke-linecap="round" stroke-linejoin="round"/>
<path d="M46.6287 45.0916L46.6289 45.0911C47.0329 43.9609 48.2369 43.3017 49.2518 43.5543L49.2537 43.5547C50.2243 43.7923 50.7675 44.809 50.3698 45.9071L50.3693 45.9086C49.9651 47.036 48.7604 47.6983 47.7462 47.4459L47.7443 47.4455C46.7754 47.2083 46.2341 46.1925 46.6287 45.0916Z" stroke="white" stroke-opacity="0.6"/>
<path d="M59.6287 45.0916L59.6289 45.0911C60.0329 43.9609 61.2369 43.3017 62.2518 43.5543L62.2537 43.5547C63.2243 43.7923 63.7675 44.809 63.3698 45.9071L63.3693 45.9086C62.9651 47.036 61.7604 47.6983 60.7462 47.4459L60.7443 47.4455C59.7754 47.2083 59.2341 46.1925 59.6287 45.0916Z" stroke="white" stroke-opacity="0.6"/>
<path d="M72.6287 45.0916L72.6289 45.0911C73.0329 43.9609 74.2369 43.3017 75.2518 43.5543L75.2537 43.5547C76.2243 43.7923 76.7675 44.809 76.3698 45.9071L76.3693 45.9086C75.9651 47.036 74.7604 47.6983 73.7462 47.4459L73.7443 47.4455C72.7754 47.2083 72.2341 46.1925 72.6287 45.0916Z" stroke="white" stroke-opacity="0.6"/>
<path d="M93 14L91 26" stroke="white" stroke-opacity="0.6" stroke-width="2.157" stroke-miterlimit="10" stroke-linecap="round" stroke-linejoin="round"/>
<path d="M104 18L97 28" stroke="white" stroke-opacity="0.6" stroke-width="2.157" stroke-miterlimit="10" stroke-linecap="round" stroke-linejoin="round"/>
<path d="M114 29L103 33" stroke="white" stroke-opacity="0.6" stroke-width="2.157" stroke-miterlimit="10" stroke-linecap="round" stroke-linejoin="round"/>
<path d="M9.5 17C13.6421 17 17 13.6421 17 9.5C17 5.35786 13.6421 2 9.5 2C5.35786 2 2 5.35786 2 9.5C2 13.6421 5.35786 17 9.5 17Z" stroke="white" stroke-opacity="0.6" stroke-width="2.157" stroke-miterlimit="10" stroke-linecap="round" stroke-linejoin="round"/>
<path d="M9.5 12C10.8807 12 12 10.8807 12 9.5C12 8.11929 10.8807 7 9.5 7C8.11929 7 7 8.11929 7 9.5C7 10.8807 8.11929 12 9.5 12Z" stroke="white" stroke-opacity="0.6" stroke-width="2.157" stroke-miterlimit="10" stroke-linecap="round" stroke-linejoin="round"/>
<path d="M17 9H53.4155L60 32" stroke="white" stroke-opacity="0.6" stroke-width="2.157" stroke-miterlimit="10" stroke-linecap="round" stroke-linejoin="round"/>
<path d="M168.125 21C172.927 23.9363 176.267 29.4047 167.695 36.2338C159.705 42.6025 155.244 40.8837 155.007 37.4666C154.685 32.8832 166.198 26.3508 175.635 37.9986C183.095 47.2064 171.717 54.1072 171.252 51.9842C170.788 49.8613 182.147 42.2547 199 58" stroke="white" stroke-opacity="0.6" stroke-width="2.157" stroke-miterlimit="10" stroke-linecap="round" stroke-linejoin="round"/>
<path d="M286.509 34.646C284.571 36.6132 287.305 42.4496 292.617 47.682C297.928 52.9144 303.805 55.5614 305.743 53.5942C307.681 51.6269 304.946 45.7905 299.635 40.5581C294.323 35.3257 288.446 32.6787 286.509 34.646Z" stroke="white" stroke-opacity="0.6" stroke-width="2.157" stroke-miterlimit="10" stroke-linecap="round" stroke-linejoin="round"/>
<path d="M286.509 34.646L287.831 34.0397L303.946 26.5668L321.388 18.4715L313.56 36.0382L306.33 52.2638L305.744 53.5942" stroke="white" stroke-opacity="0.6" stroke-width="2.157" stroke-miterlimit="10" stroke-linecap="round" stroke-linejoin="round"/>
</svg>
