<svg width="191" height="258" viewBox="0 0 191 258" fill="none" xmlns="http://www.w3.org/2000/svg">
<path d="M184.917 163.19C185.787 165.88 180.707 169.92 173.577 172.21C166.447 174.51 159.967 174.19 159.097 171.5C158.227 168.81 163.307 164.769 170.437 162.479C177.567 160.179 184.047 160.5 184.917 163.19Z" stroke="#007BFF" stroke-opacity="0.6" stroke-width="2.157" stroke-miterlimit="10" stroke-linecap="round" stroke-linejoin="round"/>
<path d="M159.097 171.5L159.157 170.02L159.917 151.94L160.737 132.38L172.827 147.79L183.997 162.02L184.917 163.19" stroke="#007BFF" stroke-opacity="0.6" stroke-width="2.157" stroke-miterlimit="10" stroke-linecap="round" stroke-linejoin="round"/>
<path d="M180.37 9.37988H155.09V34.6599H180.37V9.37988Z" stroke="#007BFF" stroke-opacity="0.6" stroke-width="2.157" stroke-miterlimit="10" stroke-linecap="round" stroke-linejoin="round"/>
<path d="M172.28 17.7002H147V42.9802H172.28V17.7002Z" stroke="#007BFF" stroke-opacity="0.6" stroke-width="2.157" stroke-miterlimit="10" stroke-linecap="round" stroke-linejoin="round"/>
<path d="M134.64 84L108.28 81" stroke="#007BFF" stroke-opacity="0.6" stroke-width="2.157" stroke-miterlimit="10" stroke-linecap="round" stroke-linejoin="round"/>
<path d="M123.84 110.309L102.23 94.9395" stroke="#007BFF" stroke-opacity="0.6" stroke-width="2.157" stroke-miterlimit="10" stroke-linecap="round" stroke-linejoin="round"/>
<path d="M98.85 131.1L91 105.76" stroke="#007BFF" stroke-opacity="0.6" stroke-width="2.157" stroke-miterlimit="10" stroke-linecap="round" stroke-linejoin="round"/>
<path d="M113.86 10.83C113.86 15.71 109.64 19.66 104.43 19.66C99.22 19.66 95 15.71 95 10.83C95 5.95 99.22 2 104.43 2C109.64 2 113.86 5.96 113.86 10.83Z" stroke="#007BFF" stroke-opacity="0.6" stroke-width="2.157" stroke-miterlimit="10" stroke-linecap="round" stroke-linejoin="round"/>
<path d="M113.86 216.83C113.86 221.71 109.64 225.66 104.43 225.66C99.22 225.66 95 221.71 95 216.83C95 211.95 99.22 208 104.43 208C109.64 208 113.86 211.96 113.86 216.83Z" stroke="#007BFF" stroke-opacity="0.6" stroke-width="2.157" stroke-miterlimit="10" stroke-linecap="round" stroke-linejoin="round"/>
<path d="M104.35 14.2805C106.294 14.2805 107.87 12.7582 107.87 10.8805C107.87 9.00269 106.294 7.48047 104.35 7.48047C102.406 7.48047 100.83 9.00269 100.83 10.8805C100.83 12.7582 102.406 14.2805 104.35 14.2805Z" stroke="#007BFF" stroke-opacity="0.6" stroke-width="2.157" stroke-miterlimit="10" stroke-linecap="round" stroke-linejoin="round"/>
<path d="M104.35 220.28C106.294 220.28 107.87 218.758 107.87 216.88C107.87 215.003 106.294 213.48 104.35 213.48C102.406 213.48 100.83 215.003 100.83 216.88C100.83 218.758 102.406 220.28 104.35 220.28Z" stroke="#007BFF" stroke-opacity="0.6" stroke-width="2.157" stroke-miterlimit="10" stroke-linecap="round" stroke-linejoin="round"/>
<path d="M189.418 220.334L76.3229 167.969L40.2738 220.451L2 205.152" stroke="#007BFF" stroke-opacity="0.6" stroke-width="2.157" stroke-miterlimit="10" stroke-linecap="round" stroke-linejoin="round"/>
</svg>
