<svg width="157" height="236" viewBox="0 0 157 236" fill="none" xmlns="http://www.w3.org/2000/svg">
<path d="M92.5633 92C102.283 97.74 109.043 108.43 91.6933 121.78C75.5233 134.23 66.4933 130.87 66.0133 124.19C65.3633 115.23 88.6633 102.46 107.763 125.23C122.863 143.23 99.8333 156.72 98.8933 152.57C97.9533 148.42 120.943 133.55 155.053 164.33" stroke="#007BFF" stroke-opacity="0.6" stroke-width="2.157" stroke-miterlimit="10" stroke-linecap="round" stroke-linejoin="round"/>
<path d="M20.2204 34.06C29.6699 34.06 37.3304 26.8831 37.3304 18.03C37.3304 9.17688 29.6699 2 20.2204 2C10.7708 2 3.11035 9.17688 3.11035 18.03C3.11035 26.8831 10.7708 34.06 20.2204 34.06Z" stroke="#007BFF" stroke-opacity="0.6" stroke-width="2.157" stroke-miterlimit="10" stroke-linecap="round" stroke-linejoin="round"/>
<path d="M20.0699 24.2697C23.6045 24.2697 26.4699 21.5073 26.4699 18.0997C26.4699 14.6921 23.6045 11.9297 20.0699 11.9297C16.5353 11.9297 13.6699 14.6921 13.6699 18.0997C13.6699 21.5073 16.5353 24.2697 20.0699 24.2697Z" stroke="#007BFF" stroke-opacity="0.6" stroke-width="2.157" stroke-miterlimit="10" stroke-linecap="round" stroke-linejoin="round"/>
<path d="M37.3301 18.0293H117.19L131.63 67.6693" stroke="#007BFF" stroke-opacity="0.6" stroke-width="2.157" stroke-miterlimit="10" stroke-linecap="round" stroke-linejoin="round"/>
<path d="M27.917 223.811C28.787 226.501 23.707 230.541 16.577 232.831C9.44699 235.131 2.96699 234.811 2.09699 232.121C1.22699 229.431 6.30699 225.391 13.437 223.101C20.567 220.801 27.047 221.121 27.917 223.811Z" stroke="#007BFF" stroke-opacity="0.6" stroke-width="2.157" stroke-miterlimit="10" stroke-linecap="round" stroke-linejoin="round"/>
<path d="M2.09766 232.12L2.15766 230.64L2.91766 212.56L3.73766 193L15.8277 208.41L26.9977 222.64L27.9177 223.81" stroke="#007BFF" stroke-opacity="0.6" stroke-width="2.157" stroke-miterlimit="10" stroke-linecap="round" stroke-linejoin="round"/>
<path d="M35.3698 65H10.0898V90.28H35.3698V65Z" stroke="#007BFF" stroke-opacity="0.6" stroke-width="2.157" stroke-miterlimit="10" stroke-linecap="round" stroke-linejoin="round"/>
<path d="M27.28 73.3201H2V98.6001H27.28V73.3201Z" stroke="#007BFF" stroke-opacity="0.6" stroke-width="2.157" stroke-miterlimit="10" stroke-linecap="round" stroke-linejoin="round"/>
<path d="M34.52 163.8C36.464 163.8 38.04 162.278 38.04 160.4C38.04 158.522 36.464 157 34.52 157C32.576 157 31 158.522 31 160.4C31 162.278 32.576 163.8 34.52 163.8Z" stroke="#007BFF" stroke-opacity="0.6" stroke-width="2.157" stroke-miterlimit="10" stroke-linecap="round" stroke-linejoin="round"/>
<path d="M92.37 195L77 216.62" stroke="#007BFF" stroke-opacity="0.6" stroke-width="2.157" stroke-miterlimit="10" stroke-linecap="round" stroke-linejoin="round"/>
<path d="M113.16 220L87.8203 227.85" stroke="#007BFF" stroke-opacity="0.6" stroke-width="2.157" stroke-miterlimit="10" stroke-linecap="round" stroke-linejoin="round"/>
</svg>
