<svg width="326" height="75" viewBox="0 0 326 75" fill="none" xmlns="http://www.w3.org/2000/svg">
<path d="M5.00001 50C6.65686 50 8 48.6569 8 47C8 45.3431 6.65686 44 5.00001 44C3.34315 44 2 45.3431 2 47C2 48.6569 3.34315 50 5.00001 50Z" stroke="#007BFF" stroke-opacity="0.6" stroke-width="2.157" stroke-miterlimit="10" stroke-linecap="round" stroke-linejoin="round"/>
<path d="M39 62L46.6964 25.5203H65.867L73.4563 -11H115" stroke="#007BFF" stroke-opacity="0.6" stroke-width="2.157" stroke-miterlimit="10" stroke-linecap="round" stroke-linejoin="round"/>
<path d="M265.37 26L250 45.1232" stroke="#007BFF" stroke-opacity="0.6" stroke-width="2.157" stroke-miterlimit="10" stroke-linecap="round" stroke-linejoin="round"/>
<path d="M286.16 48.1133L260.82 55.0567" stroke="#007BFF" stroke-opacity="0.6" stroke-width="2.157" stroke-miterlimit="10" stroke-linecap="round" stroke-linejoin="round"/>
<path d="M291.231 68.0774L265 66.5812" stroke="#007BFF" stroke-opacity="0.6" stroke-width="2.157" stroke-miterlimit="10" stroke-linecap="round" stroke-linejoin="round"/>
<path d="M324 26C324 30.4213 320.42 34 316 34C311.58 34 308 30.4213 308 26C308 21.5787 311.58 18 316 18C320.42 18 324 21.5878 324 26Z" stroke="#007BFF" stroke-opacity="0.6" stroke-width="2.157" stroke-miterlimit="10" stroke-linecap="round" stroke-linejoin="round"/>
<path d="M43 67.5C43 70.5396 40.5387 73 37.5 73C34.4613 73 32 70.5396 32 67.5C32 64.4604 34.4613 62 37.5 62C40.5387 62 43 64.4666 43 67.5Z" stroke="#007BFF" stroke-opacity="0.6" stroke-width="2.157" stroke-miterlimit="10" stroke-linecap="round" stroke-linejoin="round"/>
<path d="M316 29C317.657 29 319 27.6568 319 26C319 24.3431 317.657 23 316 23C314.343 23 313 24.3431 313 26C313 27.6568 314.343 29 316 29Z" stroke="#007BFF" stroke-opacity="0.6" stroke-width="2.157" stroke-miterlimit="10" stroke-linecap="round" stroke-linejoin="round"/>
<path d="M37.5 69C38.3284 69 39 68.3284 39 67.5C39 66.6716 38.3284 66 37.5 66C36.6716 66 36 66.6716 36 67.5C36 68.3284 36.6716 69 37.5 69Z" stroke="#007BFF" stroke-opacity="0.6" stroke-width="1.5" stroke-miterlimit="10" stroke-linecap="round" stroke-linejoin="round"/>
<path d="M179 21H159V41H179V21Z" stroke="#007BFF" stroke-opacity="0.6" stroke-width="2.157" stroke-miterlimit="10" stroke-linecap="round" stroke-linejoin="round"/>
<path d="M172 28H152V48H172V28Z" stroke="#007BFF" stroke-opacity="0.6" stroke-width="2.157" stroke-miterlimit="10" stroke-linecap="round" stroke-linejoin="round"/>
<path d="M97.5 43C98.8807 43 100 41.8807 100 40.5C100 39.1193 98.8807 38 97.5 38C96.1193 38 95 39.1193 95 40.5C95 41.8807 96.1193 43 97.5 43Z" fill="#007BFF" fill-opacity="0.6"/>
</svg>
