<svg width="32" height="10" viewBox="0 0 32 10" fill="none" xmlns="http://www.w3.org/2000/svg">
<path d="M23.5 4.75C23.5 2.67893 25.1789 1 27.25 1C29.3211 1 31 2.67893 31 4.75C31 6.82107 29.3211 8.5 27.25 8.5C25.1789 8.5 23.5 6.82107 23.5 4.75Z" stroke="#007BFF" stroke-width="1.5"/>
<path d="M12.25 4.75C12.25 2.67893 13.9289 1 16 1C18.0711 1 19.75 2.67893 19.75 4.75C19.75 6.82107 18.0711 8.5 16 8.5C13.9289 8.5 12.25 6.82107 12.25 4.75Z" stroke="#007BFF" stroke-width="1.5"/>
<path d="M1 4.75C1 2.67893 2.67893 1 4.75 1C6.82107 1 8.5 2.67893 8.5 4.75C8.5 6.82107 6.82107 8.5 4.75 8.5C2.67893 8.5 1 6.82107 1 4.75Z" stroke="#007BFF" stroke-width="1.5"/>
</svg>
