<svg width="27" height="27" viewBox="0 0 27 27" fill="none" xmlns="http://www.w3.org/2000/svg">
<path d="M8.23684 18.3077H6.92105M6.92105 18.3077H2C1.44772 18.3077 1 17.86 1 17.3077V9.69231C1 9.14002 1.44772 8.69231 2 8.69231H7.89474C8.44702 8.69231 8.89474 8.24459 8.89474 7.69231V2C8.89474 1.44772 9.34245 1 9.89474 1H17.1053C17.6575 1 18.1053 1.44772 18.1053 2V7.69231C18.1053 8.24459 18.553 8.69231 19.1053 8.69231H25C25.5523 8.69231 26 9.14002 26 9.69231V17.3077C26 17.86 25.5523 18.3077 25 18.3077H19.1053C18.553 18.3077 18.1053 18.7554 18.1053 19.3077V25C18.1053 25.5523 17.6575 26 17.1053 26H9.89473C9.34245 26 8.89474 25.5523 8.89474 25V19.3077C8.89474 18.7554 8.44702 18.3077 7.89474 18.3077H6.92105Z" stroke="#007BFF" stroke-width="1.5"/>
</svg>
