<svg width="32" height="21" viewBox="0 0 32 21" fill="none" xmlns="http://www.w3.org/2000/svg">
<path d="M2.99902 1.00012H19.7491C20.3014 1.00012 20.7491 1.44784 20.7491 2.00012V16.5002C20.7491 17.0525 20.3014 17.5002 19.7491 17.5002H10.7491" stroke="#007BFF" stroke-width="1.5"/>
<path d="M5.00148 17.7502H2.50146C1.94918 17.7502 1.50146 17.3025 1.50146 16.7502V2.00012C1.50146 1.44784 1.94918 1.00012 2.50146 1.00012H4.50148" stroke="#007BFF" stroke-width="1.5"/>
<path d="M31 12.0001L24.9643 11.7846C24.4263 11.7653 24 11.3236 24 10.7852V8.00012C24 7.44784 24.4477 7.00012 25 7.00012H28.1562" stroke="#007BFF" stroke-width="1.5"/>
<path d="M20.9993 4.50009H25.943C26.2889 4.50009 26.6102 4.67884 26.7927 4.97273L30.849 11.5079C30.9472 11.6662 30.9993 11.8489 30.9993 12.0352V16.5002C30.9993 17.0524 30.5516 17.5002 29.9993 17.5002H28.4993" stroke="#007BFF" stroke-width="1.5"/>
<path d="M19.75 17.5002H22.5" stroke="#007BFF" stroke-width="1.5"/>
<path d="M8.25001 20.2501C9.7688 20.2501 11 19.0189 11 17.5001C11 15.9813 9.7688 14.7501 8.25001 14.7501C6.73122 14.7501 5.5 15.9813 5.5 17.5001C5.5 19.0189 6.73122 20.2501 8.25001 20.2501Z" stroke="#007BFF" stroke-width="1.5"/>
<path d="M25.2493 20.2501C26.7681 20.2501 27.9993 19.0189 27.9993 17.5001C27.9993 15.9813 26.7681 14.7501 25.2493 14.7501C23.7305 14.7501 22.4993 15.9813 22.4993 17.5001C22.4993 19.0189 23.7305 20.2501 25.2493 20.2501Z" stroke="#007BFF" stroke-width="1.5"/>
</svg>
