<svg width="81" height="80" viewBox="0 0 81 80" fill="none" xmlns="http://www.w3.org/2000/svg">
<path d="M29.1695 19.3721H40.4175C40.9698 19.3721 41.4175 19.8198 41.4175 20.3721V41.6433C41.4175 42.1956 40.9698 42.6433 40.4175 42.6433H17.9762C17.6945 42.6433 17.4258 42.7622 17.2363 42.9706L12.9213 47.7172C12.3387 48.358 11.2725 48.0057 11.1863 47.144L10.8736 44.0168C10.8286 43.5676 10.4883 43.2042 10.0429 43.1299L7.95865 42.7826C7.47646 42.7022 7.12305 42.285 7.12305 41.7962V20.3721C7.12305 19.8198 7.57076 19.3721 8.12305 19.3721H10.1851" stroke="#007BFF" stroke-width="2"/>
<path d="M62.152 59.8653L61.5435 66.0872C61.4586 66.9554 60.3805 67.3062 59.8009 66.6543L53.308 59.351C53.1183 59.1376 52.8463 59.0155 52.5607 59.0155H21.5962C21.0439 59.0155 20.5962 58.5678 20.5962 58.0155V42.6431M67.1387 59.0155V27.7207C67.1387 27.1684 66.691 26.7207 66.1387 26.7207H40.8054" stroke="#007BFF" stroke-width="2"/>
<path d="M28.1704 63.4653H2C1.44772 63.4653 1 63.913 1 64.4653V73.4885C1 74.0408 1.44772 74.4885 2 74.4885H9.18601C9.7383 74.4885 10.186 74.9363 10.186 75.4885V77.5859C10.186 78.4768 11.2632 78.923 11.8931 78.293L15.4047 74.7814C15.5923 74.5939 15.8466 74.4885 16.1118 74.4885H28.1704C28.7227 74.4885 29.1704 74.0408 29.1704 73.4885V64.4653C29.1704 63.913 28.7227 63.4653 28.1704 63.4653Z" stroke="#007BFF" stroke-width="2"/>
<path d="M45.0918 17.1473V7.51172C45.0918 6.95943 45.5395 6.51172 46.0918 6.51172H72.8746C73.4269 6.51172 73.8746 6.95943 73.8746 7.51172V17.1473C73.8746 17.6996 73.4269 18.1473 72.8746 18.1473H65.6886C65.1363 18.1473 64.6886 18.595 64.6886 19.1473V21.8571C64.6886 22.748 63.6115 23.1942 62.9815 22.5642L58.8575 18.4402C58.67 18.2527 58.4156 18.1473 58.1504 18.1473H46.0918C45.5395 18.1473 45.0918 17.6996 45.0918 17.1473Z" stroke="#007BFF" stroke-width="2"/>
<path d="M16.828 7.0293L11.5058 1.70711C11.1153 1.31658 10.4821 1.31658 10.0916 1.70711L5.58 6.21871C5.39247 6.40625 5.28521 6.65853 5.29391 6.92361C5.62148 16.9065 17.7228 29.4416 28.7228 29.776C29.0083 29.7847 29.2793 29.6607 29.4691 29.4472L33.4435 24.976C33.7953 24.5802 33.7776 23.9789 33.4032 23.6045L28.0406 18.2419C27.6501 17.8514 27.017 17.8514 26.6264 18.2419L23.3818 21.4865C23.1697 21.6986 22.8739 21.8095 22.5803 21.748C20.4099 21.2934 16.2452 19.0041 13.5015 12.6332C13.3433 12.2658 13.4317 11.8398 13.7146 11.5569L16.828 8.44352C17.2185 8.05299 17.2185 7.41983 16.828 7.0293Z" stroke="#007BFF" stroke-width="2"/>
<path d="M66.0142 49.5455L62.2686 45.7999C61.8781 45.4094 61.2449 45.4094 60.8544 45.7999L57.6327 49.0215C57.4452 49.2091 57.3374 49.4619 57.3487 49.7269C57.6728 57.3255 66.8238 66.7995 75.1855 67.1303C75.4709 67.1416 75.7423 67.0171 75.932 66.8036L78.7598 63.6223C79.1116 63.2265 79.0939 62.6252 78.7195 62.2508L74.9336 58.4649C74.5431 58.0743 73.9099 58.0743 73.5194 58.4649L71.278 60.7062C71.066 60.9183 70.769 61.0298 70.4771 60.9606C68.8044 60.5643 65.7501 58.8143 63.6936 54.1453C63.5323 53.7792 63.6212 53.3527 63.9041 53.0698L66.0142 50.9597C66.4047 50.5692 66.4047 49.936 66.0142 49.5455Z" stroke="#007BFF" stroke-width="2"/>
</svg>
