<svg width="83" height="84" viewBox="0 0 83 84" fill="none" xmlns="http://www.w3.org/2000/svg">
<path d="M65.6332 3.25974L57.4977 1.90381C56.895 5.67029 56.5937 16.3671 48.4581 4.61567L42.1304 9.13545C43.9383 11.8473 51.6219 20.4349 37.1587 17.723L35.8027 25.4066C47.1022 25.8586 44.9327 31.1919 38.0626 34.4462L43.0344 40.7739C53.8818 34.4462 50.718 37.61 51.6219 46.1976L59.7575 47.1016C60.2095 43.4857 59.7575 33.0903 68.7971 44.8417L75.1248 39.8699C74.0702 36.8567 64.2773 29.9264 80.0965 31.7343L81.0005 23.5987C69.701 23.5987 72.8649 18.175 78.2886 14.5592L73.7688 7.77952C65.6332 16.8191 63.3734 8.68347 65.6332 3.25974Z" stroke="#007BFF" stroke-width="2"/>
<path d="M58.4017 15.0112C63.6437 15.0112 67.8932 19.2607 67.8932 24.5028C67.8932 29.7448 63.6437 33.9943 58.4017 33.9943C53.1597 33.9943 48.9102 29.7448 48.9102 24.5028C48.9102 19.2607 53.1597 15.0112 58.4017 15.0112Z" stroke="#007BFF" stroke-width="2"/>
<path d="M43.9371 8.23143C18.5986 5.5027 12.0882 27.3178 19.7663 44.0985C22.2125 49.4449 28.2554 52.5279 30.4565 57.9797C31.497 60.557 31.6727 63.2954 31.7055 65.5356C31.7325 67.382 31.3917 68.893 33.1613 69.4209V69.4209C39.9716 71.4526 50.1341 71.4825 50.4833 64.3842C50.75 58.9649 51.8732 52.0403 57.9484 51.6213" stroke="#007BFF" stroke-width="2"/>
<path d="M31.2829 17.271C25.7274 23.9758 24.3941 30.5183 24.9083 35.8316C25.7922 44.9643 40.7744 49.2255 40.7744 58.4009V58.4009" stroke="#007BFF" stroke-width="2"/>
<path d="M16.8192 31.7344L14.1026 37.1676C13.8556 37.6616 13.2549 37.8618 12.7609 37.6148L8.78442 35.6266C8.44564 35.4572 8.04023 35.4938 7.73721 35.721L3.52942 38.8769C3.11946 39.1843 3.00828 39.7519 3.27193 40.1914L4.91565 42.9309C5.23248 43.4589 5.00132 44.1451 4.42954 44.3739L1.62861 45.4942C1.24895 45.6461 1 46.0138 1 46.4227V50.8773C1 51.319 1.28967 51.7083 1.71265 51.8352L4.38099 52.6357C4.9756 52.8141 5.2657 53.4855 4.98807 54.0407L3.1127 57.7915C2.92883 58.1592 2.98879 58.602 3.26384 58.9076L6.33138 62.316C6.64842 62.6683 7.16918 62.7496 7.57855 62.5108L11.1486 60.4283C11.7242 60.0925 12.461 60.4031 12.6226 61.0496L13.466 64.4232C13.5773 64.8684 13.9773 65.1807 14.4361 65.1807H19.2023C19.6611 65.1807 20.0611 64.8684 20.1724 64.4232L21.0158 61.0496C21.1775 60.4031 21.9142 60.0925 22.4899 60.4283L26.1415 62.5585C26.5127 62.7749 26.9806 62.7302 27.3039 62.4473L30.3785 59.757" stroke="#007BFF" stroke-width="2"/>
<path d="M18.6273 42.582C3.71205 42.582 12.2996 65.1809 25.8589 52.5255" stroke="#007BFF" stroke-width="2"/>
<path d="M33.9941 69.7005V78.4901C33.9941 78.6542 34.0354 78.8198 34.1168 78.9623C37.7791 85.3782 46.9084 82.3833 47.973 78.8576C47.9966 78.7793 48.0054 78.6987 48.0054 78.617V69.7005M40.7738 61.5649V65.6327" stroke="#007BFF" stroke-width="2"/>
<path d="M33.9941 75.1245H48.4574" stroke="#007BFF" stroke-width="2"/>
<path d="M15.9153 1L19.0791 11.8475M4.16384 9.13559L13.2034 15.9153M1 25.8588L11.8475 22.6949" stroke="#007BFF" stroke-width="2"/>
<path d="M60.2096 72.4126V67.4408V62.8882M74.2209 67.4408L65.6334 60.2092M77.3848 53.4295H66.9893" stroke="#007BFF" stroke-width="2"/>
</svg>
