<svg width="82" height="82" viewBox="0 0 82 82" fill="none" xmlns="http://www.w3.org/2000/svg">
<path d="M45.2461 36.7541L50.6092 31.8379" stroke="#007BFF" stroke-width="2"/>
<path d="M58.6531 17.5361C62.3556 17.5361 65.357 20.5376 65.357 24.24C65.357 27.9425 62.3556 30.944 58.6531 30.944C54.9507 30.944 51.9492 27.9425 51.9492 24.24C51.9492 20.5376 54.9507 17.5361 58.6531 17.5361Z" stroke="#007BFF" stroke-width="2"/>
<path d="M29.6576 35.9605C29.5149 36.1815 29.3742 36.4035 29.2354 36.6264C29.1828 36.711 29.1434 36.8032 29.1182 36.8997L26.6266 46.4508C26.5331 46.8093 26.6454 47.1901 26.9185 47.4404L36.7374 56.4411C37.0207 56.7008 37.4278 56.7752 37.7846 56.6324L45.956 53.3638C46.0771 53.3154 46.1876 53.2438 46.281 53.1528C46.4924 52.947 46.7084 52.735 46.9289 52.5171M29.6576 35.9605C39.3119 16.8866 50.3265 5.31726 79.8568 1.15613C80.4553 1.07179 81.0007 1.53326 80.9825 2.13739C80.423 20.7342 66.301 44.078 46.9289 52.5171M29.6576 35.9605L46.9289 52.5171" stroke="#007BFF" stroke-width="2"/>
<path d="M63.123 5.46924L76.9778 19.324" stroke="#007BFF" stroke-width="2"/>
<path d="M37.2013 21.5585C26.4825 12.4887 17.2847 29.2786 16.9749 36.8486C16.9436 37.6126 17.8015 37.9175 18.3995 37.4411C25.1037 32.0998 28.3423 34.152 29.6035 35.4132" stroke="#007BFF" stroke-width="2"/>
<path d="M59.8338 43.664C69.7031 53.9386 53.7563 64.6899 46.2972 65.5737C45.548 65.6625 45.1792 64.844 45.5924 64.2129C50.3862 56.8916 48.0823 53.7249 46.7271 52.5299" stroke="#007BFF" stroke-width="2"/>
<path d="M9.04492 50.1619L15.7488 43.458" stroke="#007BFF" stroke-width="2"/>
<path d="M1 67.5921L13.514 55.0781" stroke="#007BFF" stroke-width="2"/>
<path d="M1.44727 81.0001L13.9612 68.9331" stroke="#007BFF" stroke-width="2"/>
<path d="M26.9225 68.4863L14.8555 80.5534" stroke="#007BFF" stroke-width="2"/>
<path d="M32.2852 72.5083L38.0952 66.6982" stroke="#007BFF" stroke-width="2"/>
<path d="M26.475 47.9272C20.1791 50.5781 17.3637 59.0638 16.748 63.85C16.6742 64.4237 17.134 64.9124 17.7121 64.8905C28.9501 64.466 32.7859 57.3898 34.5197 55.0781" stroke="#007BFF" stroke-width="2"/>
<path d="M42.5634 38.0952C43.3039 38.0952 43.9042 38.6955 43.9042 39.436C43.9042 40.1765 43.3039 40.7768 42.5634 40.7768C41.8229 40.7768 41.2227 40.1765 41.2227 39.436C41.2227 38.6955 41.8229 38.0952 42.5634 38.0952Z" fill="#007BFF"/>
</svg>
