<svg width="15" height="15" viewBox="0 0 15 15" fill="none" xmlns="http://www.w3.org/2000/svg">
<path d="M5.29097 12.8343C4.67295 12.8343 4.06881 12.651 3.55493 12.3077C3.04106 11.9644 2.64052 11.4764 2.40398 10.9054C2.16743 10.3344 2.10549 9.70615 2.226 9.09999C2.3465 8.49383 2.64403 7.93701 3.08097 7.49994L4.4066 6.17369L5.29035 7.05744L3.96472 8.38306C3.61306 8.73472 3.4155 9.21168 3.4155 9.709C3.4155 10.2063 3.61306 10.6833 3.96472 11.0349C4.31639 11.3866 4.79334 11.5842 5.29066 11.5842C5.78799 11.5842 6.26494 11.3866 6.6166 11.0349L7.9416 9.70931L8.82597 10.5937L7.50035 11.9193C7.21075 12.2103 6.86631 12.4411 6.48697 12.5981C6.10763 12.7552 5.70092 12.8355 5.29035 12.8343H5.29097ZM5.73285 10.1512L4.8491 9.26744L9.26785 4.84806L10.1522 5.73181L5.73347 10.1506L5.73285 10.1512ZM10.5947 8.82556L9.71035 7.94181L11.0353 6.61619C11.2145 6.44327 11.3574 6.23641 11.4557 6.00767C11.554 5.77894 11.6058 5.53291 11.608 5.28395C11.6102 5.03499 11.5628 4.78808 11.4686 4.55763C11.3744 4.32718 11.2352 4.1178 11.0592 3.94171C10.8832 3.76562 10.6739 3.62634 10.4435 3.53201C10.2131 3.43768 9.96619 3.39018 9.71723 3.39229C9.46827 3.39439 9.22222 3.44606 8.99344 3.54427C8.76466 3.64248 8.55773 3.78527 8.38472 3.96431L7.05848 5.28994L6.17472 4.40619L7.50035 3.07994C8.08891 2.50619 8.87982 2.18742 9.70174 2.19269C10.5237 2.19796 11.3104 2.52683 11.8916 3.10807C12.4727 3.68932 12.8015 4.47612 12.8067 5.29805C12.8118 6.11997 12.4929 6.91083 11.9191 7.49931L10.5941 8.82494L10.5947 8.82556Z" fill="white"/>
</svg>
