<svg width="15" height="13" viewBox="0 0 15 13" fill="none" xmlns="http://www.w3.org/2000/svg">
<path d="M7.51274 12.856C6.52341 12.856 5.62274 12.6973 4.81074 12.38C3.99874 12.0627 3.29874 11.6147 2.71074 11.036C2.12274 10.4573 1.67008 9.78067 1.35274 9.006C1.03541 8.222 0.876742 7.368 0.876742 6.444C0.876742 5.52 1.03541 4.67067 1.35274 3.896C1.67008 3.12133 2.12274 2.44933 2.71074 1.88C3.30808 1.31067 4.01741 0.867333 4.83874 0.55C5.66008 0.232666 6.57008 0.0739993 7.56874 0.0739993C8.53008 0.0739993 9.41208 0.227999 10.2147 0.535999C11.0174 0.834666 11.7081 1.25933 12.2867 1.81C12.8747 2.35133 13.3274 2.99533 13.6447 3.742C13.9714 4.48867 14.1347 5.31 14.1347 6.206C14.1347 7.00867 14.0274 7.704 13.8127 8.292C13.5981 8.87067 13.2901 9.314 12.8887 9.622C12.4967 9.93 12.0161 10.084 11.4467 10.084C10.8681 10.084 10.4061 9.91133 10.0607 9.566C9.72474 9.22067 9.55674 8.72133 9.55674 8.068V7.27L9.61274 6.472L9.48674 4.652V3.056H11.0407V7.816C11.0407 8.17067 11.1107 8.42267 11.2507 8.572C11.4001 8.712 11.5727 8.782 11.7687 8.782C12.0207 8.782 12.2354 8.684 12.4127 8.488C12.5901 8.292 12.7207 8.00267 12.8047 7.62C12.8981 7.23733 12.9447 6.77533 12.9447 6.234C12.9447 5.48733 12.8141 4.806 12.5527 4.19C12.3007 3.574 11.9321 3.04667 11.4467 2.608C10.9707 2.16 10.4014 1.81933 9.73874 1.586C9.08541 1.34333 8.36208 1.222 7.56874 1.222C6.75674 1.222 6.01941 1.35267 5.35674 1.614C4.69408 1.866 4.12474 2.22533 3.64874 2.692C3.17274 3.15867 2.80408 3.714 2.54274 4.358C2.29074 4.99267 2.16474 5.688 2.16474 6.444C2.16474 7.21867 2.29074 7.928 2.54274 8.572C2.79474 9.216 3.15408 9.76667 3.62074 10.224C4.09674 10.6907 4.66141 11.05 5.31474 11.302C5.96808 11.5633 6.70074 11.694 7.51274 11.694C7.94208 11.694 8.39474 11.6427 8.87074 11.54C9.34674 11.4467 9.79941 11.2927 10.2287 11.078L10.6067 12.198C10.1774 12.4127 9.68274 12.576 9.12274 12.688C8.56274 12.8 8.02608 12.856 7.51274 12.856ZM7.14874 10.084C6.50474 10.084 5.93074 9.93467 5.42674 9.636C4.92274 9.328 4.52141 8.908 4.22274 8.376C3.93341 7.83467 3.78874 7.214 3.78874 6.514C3.78874 5.82333 3.93341 5.212 4.22274 4.68C4.51208 4.13867 4.90874 3.71867 5.41274 3.42C5.92608 3.12133 6.50474 2.972 7.14874 2.972C7.77408 2.972 8.32008 3.112 8.78674 3.392C9.25341 3.66267 9.61741 4.05933 9.87874 4.582C10.1401 5.10467 10.2707 5.74867 10.2707 6.514C10.2707 7.27933 10.1447 7.928 9.89274 8.46C9.64074 8.992 9.28141 9.398 8.81474 9.678C8.34808 9.94867 7.79274 10.084 7.14874 10.084ZM7.44274 8.726C7.84408 8.726 8.19874 8.642 8.50674 8.474C8.81474 8.29667 9.05741 8.04 9.23474 7.704C9.42141 7.368 9.51474 6.97133 9.51474 6.514C9.51474 6.04733 9.42141 5.65533 9.23474 5.338C9.05741 5.01133 8.81474 4.764 8.50674 4.596C8.19874 4.41867 7.84408 4.33 7.44274 4.33C7.03208 4.33 6.66808 4.41867 6.35074 4.596C6.04274 4.77333 5.80008 5.02533 5.62274 5.352C5.45474 5.67867 5.37074 6.066 5.37074 6.514C5.37074 6.97133 5.45474 7.36333 5.62274 7.69C5.80008 8.01667 6.04274 8.27333 6.35074 8.46C6.66808 8.63733 7.03208 8.726 7.44274 8.726Z" fill="white"/>
</svg>
