<svg width="15" height="13" viewBox="0 0 15 13" fill="none" xmlns="http://www.w3.org/2000/svg">
<path d="M14.1164 0.43202L11.8837 11.6888C11.8837 11.6888 11.5715 12.4694 10.7128 12.0947L5.56065 8.14472L3.68721 7.23925L0.533497 6.17753C0.533497 6.17753 0.0495129 6.00585 0.00263794 5.63114C-0.0442371 5.25643 0.549122 5.05351 0.549122 5.05351L13.0858 0.135536C13.0858 0.135536 14.1163 -0.317198 14.1163 0.432216" fill="white"/>
<path d="M5.16504 11.5622C5.16504 11.5622 5.01465 11.5481 4.82715 10.9548C4.63994 10.3615 3.6875 7.23906 3.6875 7.23906L11.2596 2.43047C11.2596 2.43047 11.6968 2.16504 11.6812 2.43047C11.6812 2.43047 11.7592 2.47734 11.5249 2.6959C11.2908 2.91455 5.57666 8.05098 5.57666 8.05098" fill="#D2E5F1"/>
<path d="M7.53545 9.6584L5.49766 11.5164C5.49766 11.5164 5.33828 11.6373 5.16406 11.5615L5.5543 8.11035" fill="#B5CFE4"/>
</svg>
