<svg width="32" height="30" viewBox="0 0 32 30" fill="none" xmlns="http://www.w3.org/2000/svg">
<path d="M24.439 24.6195C25.3535 24.9244 27.9676 24.946 30.4388 23.8946C30.7873 23.7463 31 23.3961 31 23.0174V11.4975C31 11.4975 30.6719 10.5134 28.3756 10.1853" stroke="#007BFF"/>
<path d="M23.1272 19.0429C25.4236 19.371 29.6882 19.0429 31.0004 17.7307" stroke="#007BFF"/>
<path d="M24.1099 20.6831C26.4062 21.0111 29.6867 20.6831 30.9989 19.3708" stroke="#007BFF"/>
<path d="M24.439 22.6513C26.7353 22.9794 29.6878 22.6513 31 21.3391" stroke="#007BFF"/>
<path d="M19.5176 22.3233C19.5176 20.0269 16.237 19.6989 15.5809 21.6672C15.5809 22.9794 16.8931 22.9794 16.8931 22.9794C19.8456 22.6513 19.5176 24.6853 19.1895 24.9477C17.5492 26.26 14.9248 25.2758 15.5809 23.9636" stroke="#007BFF"/>
<path d="M17.5496 18.7148V20.2321" stroke="#007BFF"/>
<path d="M17.5496 25.9319V27.2441" stroke="#007BFF"/>
<path d="M14.2677 18.0587C20.8287 15.1061 23.7812 20.6831 23.4531 23.6355C23.0886 26.9161 20.5007 28.8844 17.5482 28.8844C10.3311 28.5563 10.6591 21.3392 13.6116 18.3867" stroke="#007BFF"/>
<path d="M27.7185 9.85748C26.0782 9.5294 20.5013 9.52937 18.8611 11.1697V12.1538M30.999 15.7623C30.3429 17.0745 20.1733 18.0587 18.8611 15.4343V14.1221M18.8611 12.1538C21.8135 13.794 28.3746 13.794 30.6709 12.1538M18.8611 12.1538V14.1221M18.8611 14.1221C24.1099 16.4184 29.6868 14.7782 30.999 14.1221" stroke="#007BFF"/>
<path d="M17.8777 13.4659C17.6152 11.104 14.9252 8.54517 13.285 7.2329C12.2352 6.70802 13.9411 3.51499 14.9252 1.98409C15.2533 0.671949 12.3002 1.6561 10.6606 1.98409C9.34838 2.24658 8.69226 1.6561 5.41175 1C4.62443 1.26244 6.94265 5.15531 7.70811 6.90492C7.70811 7.42974 4.4276 9.20127 3.1154 11.4976C-1.14924 17.7306 0.819036 26.588 10.9886 25.9319" stroke="#007BFF"/>
<path d="M7.3811 7.23291H11.6458" stroke="#007BFF"/>
<path d="M8.69263 5.59277H12.9573" stroke="#007BFF"/>
</svg>
