<svg width="32" height="30" viewBox="0 0 32 30" fill="none" xmlns="http://www.w3.org/2000/svg">
<path d="M10.7657 7.31763V8.713" stroke="#007BFF"/>
<path d="M13.9078 7.31763V8.713" stroke="#007BFF"/>
<path d="M2.04602 29.2948V25.1086" stroke="#007BFF"/>
<path d="M29.9559 29.2948V25.1086" stroke="#007BFF"/>
<path d="M29.598 25.4428L2.23386 25.1599C1.55036 25.1529 1 24.5968 1 23.9132C1 23.2247 1.55819 22.6665 2.24674 22.6665H29.6124C30.3791 22.6665 31.0006 23.288 31.0006 24.0547C31.0006 24.8269 30.3703 25.4507 29.598 25.4428Z" stroke="#007BFF"/>
<path d="M4.83679 22.6665V13.8989C4.83679 13.3466 5.28451 12.8989 5.83679 12.8989H19.1859C19.7382 12.8989 20.1859 13.3466 20.1859 13.8989V22.3177" stroke="#007BFF"/>
<path d="M20.1881 15.6897C22.4207 16.5269 22.1649 19.0619 21.9323 20.2247" stroke="#007BFF"/>
<path d="M4.83679 15.6897C2.36747 16.5913 2.83535 18.9724 3.09257 20.2247" stroke="#007BFF"/>
<path d="M19.8368 19.876C21.424 19.876 23.1435 19.876 22.4822 22.6667" stroke="#007BFF"/>
<path d="M5.18811 19.876C3.60089 19.876 1.8814 19.876 2.54275 22.6667" stroke="#007BFF"/>
<path d="M12.8625 16.3875C7.97874 17.434 13.909 22.3178 13.909 17.0851" stroke="#007BFF"/>
<path d="M7.27785 7.31777C5.88245 -0.705554 14.6036 -0.00784342 13.9059 3.4805" stroke="#007BFF"/>
<path d="M13.9078 3.48048C15.5823 -0.147491 19.1405 3.82912 17.3963 7.66644" stroke="#007BFF"/>
<path d="M10.4181 12.899C8.74368 11.5037 8.55763 8.13151 8.67391 6.61985C8.67391 4.38725 15.9996 4.52681 15.9996 6.61985C16.2787 10.5269 15.1857 12.4339 14.6043 12.899" stroke="#007BFF"/>
<path d="M8.67473 9.7596C4.83745 10.1084 7.27935 6.2711 8.67473 7.31769" stroke="#007BFF"/>
<path d="M16.3503 7.34003C19.4899 6.96863 17.7457 10.8059 16.0014 9.75945" stroke="#007BFF"/>
<path d="M12.1622 10.1084C12.5475 10.1084 12.8599 10.4208 12.8599 10.8061C12.8599 11.1914 12.5475 11.5038 12.1622 11.5038C11.7768 11.5038 11.4645 11.1914 11.4645 10.8061C11.4645 10.4208 11.7768 10.1084 12.1622 10.1084Z" fill="#F6F9FF" stroke="#007BFF"/>
<path d="M12.5105 11.1547H16.4624C17.1129 11.1547 17.5903 10.5433 17.4325 9.91212L17.3943 9.75928" stroke="#007BFF"/>
<path d="M1.63745 29.0857H30.3614" stroke="#007BFF"/>
</svg>
