<svg width="33" height="33" viewBox="0 0 33 33" fill="none" xmlns="http://www.w3.org/2000/svg">
<path d="M17.2795 24.4302V31C17.2795 31.5523 16.8318 32 16.2795 32H2.05859C1.50631 32 1.05859 31.5523 1.05859 31V2C1.05859 1.44772 1.50631 1 2.05859 1H16.2795C16.8318 1 17.2795 1.44772 17.2795 2V4.60465" stroke="#007BFF"/>
<path d="M4.30164 32.0001V27.9536C4.30164 27.4013 4.74935 26.9536 5.30164 26.9536H13.0342C13.5865 26.9536 14.0342 27.4013 14.0342 27.9536V31.6397" stroke="#007BFF"/>
<path d="M8.98828 27.314V31.6395" stroke="#007BFF"/>
<path d="M4.30164 22.5464V23.4301C4.30164 23.9824 4.74935 24.4301 5.30164 24.4301H6.18536C6.73764 24.4301 7.18536 23.9824 7.18536 23.4301V22.5464C7.18536 21.9941 6.73764 21.5464 6.18536 21.5464H5.30164C4.74935 21.5464 4.30164 21.9941 4.30164 22.5464Z" stroke="#007BFF"/>
<path d="M10.7896 22.5464V23.4301C10.7896 23.9824 11.2373 24.4301 11.7896 24.4301H12.6733C13.2256 24.4301 13.6733 23.9824 13.6733 23.4301V22.5464C13.6733 21.9941 13.2256 21.5464 12.6733 21.5464H11.7896C11.2373 21.5464 10.7896 21.9941 10.7896 22.5464Z" stroke="#007BFF"/>
<path d="M11.151 15.4185V17.6626C11.151 18.2149 11.5987 18.6626 12.151 18.6626H12.2324" stroke="#007BFF"/>
<path d="M11.151 12.8952V11.0115C11.151 10.4592 11.5987 10.0115 12.151 10.0115H12.2324" stroke="#007BFF"/>
<path d="M4.30164 16.7791V17.6628C4.30164 18.2151 4.74935 18.6628 5.30164 18.6628H6.18536C6.73764 18.6628 7.18536 18.2151 7.18536 17.6628V16.7791C7.18536 16.2268 6.73764 15.7791 6.18536 15.7791H5.30164C4.74935 15.7791 4.30164 16.2268 4.30164 16.7791Z" stroke="#007BFF"/>
<path d="M4.30164 5.24414V6.12786C4.30164 6.68014 4.74935 7.12786 5.30164 7.12786H6.18536C6.73764 7.12786 7.18536 6.68015 7.18536 6.12786V5.24414C7.18536 4.69186 6.73764 4.24414 6.18536 4.24414H5.30164C4.74935 4.24414 4.30164 4.69186 4.30164 5.24414Z" stroke="#007BFF"/>
<path d="M10.7896 5.24414V6.12786C10.7896 6.68014 11.2373 7.12786 11.7896 7.12786H12.6733C13.2256 7.12786 13.6733 6.68015 13.6733 6.12786V5.24414C13.6733 4.69186 13.2256 4.24414 12.6733 4.24414H11.7896C11.2373 4.24414 10.7896 4.69186 10.7896 5.24414Z" stroke="#007BFF"/>
<path d="M21.6049 14.6977L20.5235 21.1861L25.57 13.2559L23.4073 12.8954L24.4886 10.0117L20.5235 8.56982L19.4421 14.3373L21.6049 14.6977Z" stroke="#007BFF"/>
<path d="M12.2333 14.7801C12.2333 9.38654 16.7387 5.04145 22.1315 5.13285C27.3958 5.22208 31.6984 9.51646 31.6984 14.7815C31.6984 20.1103 27.2954 24.4302 21.9665 24.4302C16.6369 24.4302 12.2333 20.1097 12.2333 14.7801Z" stroke="#007BFF"/>
<path d="M4.30164 11.0115V11.8952C4.30164 12.4475 4.74935 12.8952 5.30164 12.8952H6.18536C6.73764 12.8952 7.18536 12.4475 7.18536 11.8952V11.0115C7.18536 10.4592 6.73764 10.0115 6.18536 10.0115H5.30164C4.74935 10.0115 4.30164 10.4592 4.30164 11.0115Z" stroke="#007BFF"/>
</svg>
