<svg width="32" height="28" viewBox="0 0 32 28" fill="none" xmlns="http://www.w3.org/2000/svg">
<path d="M1 22.8434V10.4154C1 6.77795 1.91836 5.56543 5.59183 5.56543H25.1837C27.9388 5.5654 30.5102 5.92918 31 8.59666V22.8434C31 24.0559 31 27.0872 27.0204 27.0872H4.36735C3.04082 26.9861 1.00001 25.8747 1 22.8434Z" stroke="#007BFF"/>
<path d="M13.9921 18.4583H13.4086M13.4086 18.4583H11.7827C11.2304 18.4583 10.7827 18.0106 10.7827 17.4583V15.1941C10.7827 14.6418 11.2304 14.1941 11.7827 14.1941H13.2839C13.8361 14.1941 14.2839 13.7464 14.2839 13.1941V11.7827C14.2839 11.2304 14.7316 10.7827 15.2839 10.7827H17.3685C17.9208 10.7827 18.3685 11.2304 18.3685 11.7827V13.1941C18.3685 13.7464 18.8162 14.1941 19.3685 14.1941H20.8697C21.422 14.1941 21.8697 14.6418 21.8697 15.1941V17.4583C21.8697 18.0106 21.422 18.4583 20.8697 18.4583H19.3685C18.8162 18.4583 18.3685 18.906 18.3685 19.4583V20.8697C18.3685 21.422 17.9208 21.8697 17.3685 21.8697H15.2839C14.7316 21.8697 14.2839 21.422 14.2839 20.8697V19.3336C14.2839 18.8502 13.892 18.4583 13.4086 18.4583V18.4583Z" stroke="#007BFF"/>
<path d="M10.7827 5.56522V2.24497C11.063 0.729075 19.0213 0.59754 20.8683 1.85022C21.1622 2.04955 21.2175 2.42676 21.2175 2.78188V5.56522" stroke="#007BFF"/>
</svg>
