<svg width="32" height="23" viewBox="0 0 32 23" fill="none" xmlns="http://www.w3.org/2000/svg">
<path d="M3.39917 22.2325V12.2939H14.0231V22.2325" stroke="#007BFF"/>
<path d="M3.39917 17.7773H14.0231" stroke="#007BFF"/>
<path d="M7.51038 17.4345V14.3501H9.90933V17.4345" stroke="#007BFF"/>
<path d="M7.51038 22.2324V19.8335H9.90933V22.2324" stroke="#007BFF"/>
<path d="M18.1357 22.2324V7.15332H29.1024V22.2324" stroke="#007BFF"/>
<path d="M18.1357 12.2939H28.7597" stroke="#007BFF"/>
<path d="M18.1357 17.7773H29.1024" stroke="#007BFF"/>
<path d="M22.5905 11.9511V9.20947H24.6467V12.2938" stroke="#007BFF"/>
<path d="M22.5905 17.4345V14.6929H24.6467V17.4345" stroke="#007BFF"/>
<path d="M22.5905 22.2323V20.176H24.6467V22.2323" stroke="#007BFF"/>
<path d="M1 14.6929L4.76978 10.7517L8.53956 7.15332L16.0791 14.6929" stroke="#007BFF"/>
<path d="M15.7366 9.20948L19.6777 5.26835L23.6188 1.66992L31.5011 9.20948" stroke="#007BFF"/>
<path d="M3.36877 22.3987H29.4278" stroke="#007BFF"/>
</svg>
