<svg width="31" height="23" viewBox="0 0 31 23" fill="none" xmlns="http://www.w3.org/2000/svg">
<path d="M0 1H0.750004" stroke="#007BFF"/>
<path d="M1.99927 1H8.9993" stroke="#007BFF"/>
<path d="M1.99927 3H18.7494C19.3016 3 19.7494 3.44772 19.7494 4V18.5001C19.7494 19.0524 19.3016 19.5001 18.7494 19.5001H9.74931" stroke="#007BFF"/>
<path d="M4.00148 19.7501H1.50146C0.94918 19.7501 0.501465 19.3024 0.501465 18.7501V4C0.501465 3.44772 0.94918 3 1.50146 3H3.50148" stroke="#007BFF"/>
<path d="M1.99927 5.25H19.4994" stroke="#007BFF"/>
<path d="M0.501465 17.5H3.25148" stroke="#007BFF"/>
<path d="M10.7507 17.2502H19.7508" stroke="#007BFF"/>
<path d="M7.24927 19V19.75" stroke="#007BFF"/>
<path d="M24.4993 19V19.75" stroke="#007BFF"/>
<path d="M27.9985 17.2502H29.9985" stroke="#007BFF"/>
<path d="M29.75 13.5L22.7188 13.2803C22.1789 13.2634 21.75 12.8209 21.75 12.2808V9.5C21.75 8.94771 22.1977 8.5 22.75 8.5H26.5" stroke="#007BFF"/>
<path d="M19.9993 6.5H24.943C25.2889 6.5 25.6102 6.67875 25.7927 6.97264L29.849 13.5078C29.9472 13.6661 29.9993 13.8488 29.9993 14.0352V18.5001C29.9993 19.0523 29.5516 19.5001 28.9993 19.5001H27.4993" stroke="#007BFF"/>
<path d="M18.75 19.5002H21.5" stroke="#007BFF"/>
<path d="M7.25001 22.25C8.7688 22.25 10 21.0188 10 19.5C10 17.9812 8.7688 16.75 7.25001 16.75C5.73122 16.75 4.5 17.9812 4.5 19.5C4.5 21.0188 5.73122 22.25 7.25001 22.25Z" stroke="#007BFF"/>
<path d="M24.2493 22.25C25.7681 22.25 26.9993 21.0188 26.9993 19.5C26.9993 17.9812 25.7681 16.75 24.2493 16.75C22.7305 16.75 21.4993 17.9812 21.4993 19.5C21.4993 21.0188 22.7305 22.25 24.2493 22.25Z" stroke="#007BFF"/>
</svg>
