<svg width="32" height="31" viewBox="0 0 32 31" fill="none" xmlns="http://www.w3.org/2000/svg">
<path d="M8.13401 5.68215H31C28.1857 15.227 28.8893 17.9447 24.6679 17.9447H20.4465M20.4465 17.9447H11.6519L7.43044 3.36222C6.02332 1.37354 2.85726 1.04224 1.80189 1.37371C0.957609 2.69938 0.394768 3.0308 2.15368 3.0308C4.40511 3.29594 5.67154 3.36222 6.37511 6.01357L9.89295 18.2761C4.61619 19.9332 3.91262 23.9102 8.13401 24.573H26.7786C29.9447 24.573 30.6482 22.9159 26.4268 22.9159H8.13401C6.72689 22.5845 7.43044 21.2588 8.13401 20.9274L10.9483 19.6017H18.6876C20.3761 18.5412 20.5637 18.0551 20.4465 17.9447Z" stroke="#007BFF"/>
<path d="M5.31921 4.02489L6.72635 2.69922" stroke="#007BFF"/>
<path d="M9.54236 9.65918H13.412" stroke="#007BFF"/>
<path d="M10.2462 13.9673H14.1158" stroke="#007BFF"/>
<path d="M12.7074 5.68188L14.8181 17.9444" stroke="#007BFF"/>
<path d="M17.2803 5.68188L17.9838 17.9444" stroke="#007BFF"/>
<path d="M12.8994 9.65918H29.5926" stroke="#007BFF"/>
<path d="M13.0593 13.9673H28.8896" stroke="#007BFF"/>
<path d="M21.8527 5.68188L21.1492 17.613" stroke="#007BFF"/>
<path d="M26.4274 5.68188L24.3167 17.9444" stroke="#007BFF"/>
<path d="M10.9905 28.8813H10.9091C10.543 28.8813 10.2462 28.5846 10.2462 28.2185C10.2462 27.8524 10.543 27.5557 10.9091 27.5557H10.9905C11.3566 27.5557 11.6534 27.8524 11.6534 28.2185C11.6534 28.5846 11.3566 28.8813 10.9905 28.8813Z" fill="#F6F9FF"/>
<path d="M26.4663 28.8813H26.3849C26.0188 28.8813 25.722 28.5846 25.722 28.2185C25.722 27.8524 26.0188 27.5557 26.3849 27.5557H26.4663C26.8324 27.5557 27.1292 27.8524 27.1292 28.2185C27.1292 28.5846 26.8324 28.8813 26.4663 28.8813Z" fill="#F6F9FF"/>
<path d="M11.0714 30.207H10.827C9.72879 30.207 8.8385 29.3167 8.8385 28.2185C8.8385 27.1203 9.72879 26.23 10.827 26.23H11.0714C12.1696 26.23 13.0599 27.1203 13.0599 28.2185C13.0599 29.3167 12.1696 30.207 11.0714 30.207Z" stroke="#007BFF"/>
<path d="M26.5495 30.207H26.3052C25.2069 30.207 24.3167 29.3167 24.3167 28.2185C24.3167 27.1203 25.2069 26.23 26.3052 26.23H26.5495C27.6478 26.23 28.5381 27.1203 28.5381 28.2185C28.5381 29.3167 27.6478 30.207 26.5495 30.207Z" stroke="#007BFF"/>
</svg>
