<svg width="30" height="8" viewBox="0 0 30 8" fill="none" xmlns="http://www.w3.org/2000/svg">
<path d="M22.5 3.75C22.5 1.67893 24.1789 0 26.25 0C28.3211 0 30 1.67893 30 3.75C30 5.82107 28.3211 7.5 26.25 7.5C24.1789 7.5 22.5 5.82107 22.5 3.75Z" fill="#007BFF"/>
<path d="M11.25 3.75C11.25 1.67893 12.9289 0 15 0C17.0711 0 18.75 1.67893 18.75 3.75C18.75 5.82107 17.0711 7.5 15 7.5C12.9289 7.5 11.25 5.82107 11.25 3.75Z" fill="#007BFF"/>
<path d="M0 3.75C0 1.67893 1.67893 0 3.75 0C5.82107 0 7.5 1.67893 7.5 3.75C7.5 5.82107 5.82107 7.5 3.75 7.5C1.67893 7.5 0 5.82107 0 3.75Z" fill="#007BFF"/>
</svg>
