<svg width="51" height="52" viewBox="0 0 51 52" fill="none" xmlns="http://www.w3.org/2000/svg">
<path d="M19.8399 22.8203L20.6235 22.0367C21.014 21.6462 21.6472 21.6462 22.0377 22.0367L22.8213 22.8203C23.2118 23.2108 23.2118 23.844 22.8213 24.2345L22.0377 25.0181C21.6472 25.4086 21.014 25.4086 20.6235 25.0181L19.8399 24.2345C19.4494 23.844 19.4494 23.2108 19.8399 22.8203Z" fill="#007BFF"/>
<path d="M20.3887 35.4575L21.1723 34.6739C21.5629 34.2834 22.196 34.2834 22.5865 34.6739L23.3701 35.4575C23.7607 35.848 23.7607 36.4812 23.3701 36.8717L22.5865 37.6553C22.196 38.0458 21.5629 38.0458 21.1723 37.6553L20.3887 36.8717C19.9982 36.4812 19.9982 35.848 20.3887 35.4575Z" fill="#007BFF"/>
<path d="M50.4505 1L37.2637 13.6374" stroke="#007BFF" stroke-width="1.5"/>
<path d="M14.1875 30.1211H28.4732" stroke="#007BFF" stroke-width="1.5"/>
<path d="M1.69631 32.1716L25.867 8.00087C26.1194 7.74854 26.4862 7.65294 26.835 7.72815C29.4738 8.29711 32.6869 8.06898 37.8132 7.04373C39.6447 6.67743 45.5055 8.69209 44.4066 14.1866C43.9784 16.3276 42.2987 18.9901 43.2282 25.2219C43.2753 25.5374 43.1758 25.8599 42.9527 26.088L19.3004 50.2658C18.907 50.668 18.2593 50.6666 17.8677 50.2627L1.68552 33.5748C1.30522 33.1827 1.31003 32.5579 1.69631 32.1716Z" stroke="#007BFF" stroke-width="1.5"/>
<path d="M34.5161 13.0879C36.6402 13.0879 38.3622 14.8099 38.3622 16.934C38.3622 19.0582 36.6402 20.7802 34.5161 20.7802C32.3919 20.7802 30.6699 19.0582 30.6699 16.934C30.6699 14.8099 32.3919 13.0879 34.5161 13.0879Z" stroke="#007BFF" stroke-width="1.5"/>
</svg>
