<svg width="56" height="47" viewBox="0 0 56 47" fill="none" xmlns="http://www.w3.org/2000/svg">
<path d="M42.8613 23.5V25.0698" stroke="#007BFF" stroke-width="1.5"/>
<path d="M42.8613 35.0117V33.4419" stroke="#007BFF" stroke-width="1.5"/>
<path d="M44.9534 27.1627C44.1422 25.5404 41.9556 25.097 40.8685 26.4988C40.7983 26.5894 40.7519 26.6967 40.7284 26.8089C40.3207 28.7517 41.6587 29.0862 42.3371 29.2558C45.3543 29.6868 44.821 31.538 44.2468 32.1772C44.0696 32.3745 43.81 32.5179 43.575 32.6407C42.495 33.2051 40.8732 32.1351 40.2441 31.3488" stroke="#007BFF" stroke-width="1.5"/>
<path d="M18.7901 20.3606C18.6231 20.3365 18.4594 20.312 18.2988 20.2871M18.2988 20.2871C13.1681 19.4935 12.2246 19.8374 10.9325 17.8751C9.29592 15.3897 11.9148 13.259 13.8791 14.3955C16.6291 15.9862 17.9714 18.986 18.2988 20.2871Z" stroke="#007BFF" stroke-width="1.5"/>
<path d="M18.79 20.3606C18.957 20.3365 19.1207 20.312 19.2813 20.2871M19.2813 20.2871C24.412 19.4935 25.3555 19.8374 26.6476 17.8751C28.2842 15.3897 25.6653 13.259 23.701 14.3955C20.951 15.9862 19.6087 18.986 19.2813 20.2871Z" stroke="#007BFF" stroke-width="1.5"/>
<path d="M4.66211 37.151V9.84863C4.66211 9.29635 5.10982 8.84863 5.66211 8.84863H50.2319C50.7842 8.84863 51.2319 9.29635 51.2319 9.84863V37.151C51.2319 37.7032 50.7842 38.151 50.2319 38.151H5.66211C5.10982 38.151 4.66211 37.7032 4.66211 37.151Z" stroke="#007BFF" stroke-width="1.5"/>
<path d="M18.791 8.32568V38.1513" stroke="#007BFF" stroke-width="1.5"/>
<path d="M5.18555 20.8838H51.2321" stroke="#007BFF" stroke-width="1.5"/>
<path d="M18.2672 20.8838C14.0811 23.814 11.8137 28.035 11.4648 29.7791" stroke="#007BFF" stroke-width="1.5"/>
<path d="M18.7916 20.3604C23.2997 23.463 25.7415 27.9322 26.1172 29.779" stroke="#007BFF" stroke-width="1.5"/>
<path d="M24.5469 38.1514L43.0271 45.6434C43.5204 45.8433 44.0839 45.6219 44.309 45.1395L47.5701 38.1514" stroke="#007BFF" stroke-width="1.5"/>
<path d="M51.7557 16.6978L54.5215 17.8831C55.0204 18.0969 55.2576 18.6697 55.056 19.1736L51.2324 28.7326" stroke="#007BFF" stroke-width="1.5"/>
<path d="M8.84961 8.84884L11.6194 1.92427C11.8239 1.41313 12.403 1.16337 12.9151 1.3655L31.8729 8.84884" stroke="#007BFF" stroke-width="1.5"/>
<path d="M4.66279 19.314L1.3303 27.8832C1.14313 28.3645 1.3532 28.9092 1.81509 29.1401L4.13953 30.3023" stroke="#007BFF" stroke-width="1.5"/>
</svg>
