<svg width="57" height="59" viewBox="0 0 57 59" fill="none" xmlns="http://www.w3.org/2000/svg">
<path d="M12.5126 17.4774L25.6249 11.4255C25.9007 11.2982 26.2194 11.3032 26.4911 11.4391L39.6381 18.0125C39.9769 18.1819 40.1909 18.5282 40.1909 18.907V32.8656C40.1909 33.2557 39.9641 33.6101 39.6099 33.7736L26.4803 39.8334C26.2144 39.9561 25.9081 39.9561 25.6422 39.8334L12.5126 33.7736C12.1584 33.6101 11.9316 33.2557 11.9316 32.8656V18.3853C11.9316 17.9953 12.1584 17.6408 12.5126 17.4774Z" stroke="#007BFF" stroke-width="1.5"/>
<path d="M11.9316 17.7451L25.5085 24.5335C25.8473 24.7029 26.0613 25.0492 26.0613 25.428V40.0264" stroke="#007BFF" stroke-width="1.5"/>
<path d="M26.0625 24.8104L40.1921 18.2891" stroke="#007BFF" stroke-width="1.5"/>
<path d="M18.998 21.5497L32.5842 15.0283" stroke="#007BFF" stroke-width="1.5"/>
<path d="M38.0176 9.05017L44.4844 9.974C45.0868 10.0601 45.6258 9.5926 45.6258 8.98406V2.52881" stroke="#007BFF" stroke-width="1.5"/>
<path d="M45.0827 9.59368C34.2139 -3.99247 17.3671 2.25722 14.6497 3.61576C-0.0235849 10.9515 -1.11045 28.0709 3.23729 35.6791" stroke="#007BFF" stroke-width="1.5"/>
<path d="M48.7753 15.1031C56.9741 33.0633 45.1569 43.1205 42.8903 45.0824C30.6517 55.6756 12.4749 50.352 7.04048 42.2003" stroke="#007BFF" stroke-width="1.5"/>
<path d="M5.41211 49.2655L6.35758 42.6472C6.43569 42.1004 6.94222 41.7205 7.48895 41.7986L14.1073 42.7441" stroke="#007BFF" stroke-width="1.5"/>
<path d="M15.7363 25.897L21.1708 28.6142" stroke="#007BFF" stroke-width="1.5"/>
</svg>
