<svg width="45" height="45" viewBox="0 0 45 45" fill="none" xmlns="http://www.w3.org/2000/svg">
<path d="M34 26.5H10.1273C9.88869 26.5 9.65799 26.5853 9.47679 26.7405L2.65047 32.5865C2.00171 33.1421 1 32.6812 1 31.827V2C1 1.44772 1.44772 1 2 1H34C34.5523 1 35 1.44772 35 2V25.5C35 26.0523 34.5523 26.5 34 26.5Z" stroke="#F6F9FF" stroke-width="1.5"/>
<path d="M8.5 10H27.5" stroke="#F6F9FF" stroke-width="1.5"/>
<path d="M8.5 15.5H22" stroke="#F6F9FF" stroke-width="1.5"/>
<path d="M13 31.5V37.5C13 38.0523 13.4477 38.5 14 38.5H36.6301C36.8688 38.5 37.0996 38.5854 37.2809 38.7407L42.3492 43.085C42.9979 43.641 44 43.1801 44 42.3258V14C44 13.4477 43.5523 13 43 13H38.5" stroke="#F6F9FF" stroke-width="1.5"/>
</svg>
