<svg width="45" height="46" viewBox="0 0 45 46" fill="none" xmlns="http://www.w3.org/2000/svg">
<path d="M44 10V17.5" stroke="#F6F9FF" stroke-width="1.5"/>
<path d="M37.5 8V19" stroke="#F6F9FF" stroke-width="1.5"/>
<path d="M1 10.5V17.5" stroke="#F6F9FF" stroke-width="1.5"/>
<path d="M7.5 8V19.5" stroke="#F6F9FF" stroke-width="1.5"/>
<path d="M7 23.5C9.82403 34.1444 16.2345 37.8047 22.5 37.5562M38 23.5C38.5655 30.2864 30.6556 37.2327 22.5 37.5562M22.5 37.5562V44" stroke="#F6F9FF" stroke-width="1.5"/>
<path d="M10.5 44.5H34.5" stroke="#F6F9FF" stroke-width="1.5"/>
<path d="M31.5 22V10C31.5 5.02944 27.4706 1 22.5 1C17.5294 1 13.5 5.02944 13.5 10V22C13.5 26.9706 17.5294 31 22.5 31C27.4706 31 31.5 26.9706 31.5 22Z" stroke="#F6F9FF" stroke-width="1.5"/>
</svg>
