<svg width="52" height="51" viewBox="0 0 52 51" fill="none" xmlns="http://www.w3.org/2000/svg">
<path d="M10.6866 15.2442L10.2796 14.6744M10.2796 14.6744L8.13687 11.6746C7.94916 11.4118 7.64609 11.2558 7.32314 11.2558H2.57031C2.01803 11.2558 1.57031 10.8081 1.57031 10.2558V2C1.57031 1.44771 2.01803 1 2.57031 1H41.0238C41.5761 1 42.0238 1.44772 42.0238 2V10.2558C42.0238 10.8081 41.5761 11.2558 41.0238 11.2558H13.4517C13.1448 11.2558 12.855 11.3967 12.6654 11.638L10.2796 14.6744Z" stroke="#F6F9FF" stroke-width="1.5"/>
<path d="M10.1163 50L9.7093 49.4303M9.7093 49.4303L7.56656 46.4304C7.37885 46.1676 7.07577 46.0117 6.75282 46.0117H2C1.44772 46.0117 1 45.564 1 45.0117V36.7559C1 36.2036 1.44772 35.7559 2 35.7559H40.4535C41.0058 35.7559 41.4535 36.2036 41.4535 36.7559V45.0117C41.4535 45.564 41.0058 46.0117 40.4535 46.0117H12.8814C12.5745 46.0117 12.2847 46.1526 12.0951 46.3939L9.7093 49.4303Z" stroke="#F6F9FF" stroke-width="1.5"/>
<path d="M11.2559 3.84863H30.0582" stroke="#F6F9FF" stroke-width="1.5"/>
<path d="M10.6855 38.6045H29.4879" stroke="#F6F9FF" stroke-width="1.5"/>
<path d="M32.3379 3.84863H37.4658" stroke="#F6F9FF" stroke-width="1.5"/>
<path d="M31.7676 38.6045H36.8955" stroke="#F6F9FF" stroke-width="1.5"/>
<path d="M32.3379 7.8374H37.4658" stroke="#F6F9FF" stroke-width="1.5"/>
<path d="M31.7676 42.5933H36.8955" stroke="#F6F9FF" stroke-width="1.5"/>
<path d="M11.2559 7.8374H30.0582" stroke="#F6F9FF" stroke-width="1.5"/>
<path d="M10.6855 42.5933H29.4879" stroke="#F6F9FF" stroke-width="1.5"/>
<path d="M7.26735 3.84863C8.52605 3.84863 9.54642 4.86901 9.54642 6.1277C9.54642 7.3864 8.52605 8.40677 7.26735 8.40677C6.00866 8.40677 4.98828 7.3864 4.98828 6.1277C4.98828 4.86901 6.00866 3.84863 7.26735 3.84863Z" stroke="#F6F9FF" stroke-width="1.5"/>
<path d="M6.69704 38.6045C7.95573 38.6045 8.97611 39.6249 8.97611 40.8836C8.97611 42.1423 7.95573 43.1626 6.69704 43.1626C5.43834 43.1626 4.41797 42.1423 4.41797 40.8836C4.41797 39.6249 5.43834 38.6045 6.69704 38.6045Z" stroke="#F6F9FF" stroke-width="1.5"/>
<path d="M29.4893 28.9185H11.1172C10.5649 28.9185 10.1172 28.4708 10.1172 27.9185V20.2324C10.1172 19.6801 10.5649 19.2324 11.1172 19.2324H49.5707C50.123 19.2324 50.5707 19.6801 50.5707 20.2324V28.4882C50.5707 29.0405 50.123 29.4882 49.5707 29.4882H44.2686C43.9343 29.4882 43.6221 29.6553 43.4366 29.9335L41.4544 32.9068L39.4632 29.4223C39.2852 29.1108 38.9539 28.9185 38.595 28.9185H32.9079" stroke="#F6F9FF" stroke-width="1.5"/>
<path d="M13.5352 22.6514H32.3375" stroke="#F6F9FF" stroke-width="1.5"/>
<path d="M35.1855 22.6514H39.1739" stroke="#F6F9FF" stroke-width="1.5"/>
<path d="M13.5352 26.0698H20.3724" stroke="#F6F9FF" stroke-width="1.5"/>
<path d="M23.791 26.0698H39.1747" stroke="#F6F9FF" stroke-width="1.5"/>
<path d="M43.1621 24.3606C43.1621 25.6193 44.1825 26.6397 45.4412 26.6397C46.6999 26.6397 47.7202 25.6193 47.7202 24.3606C47.7202 23.1019 46.6999 22.0815 45.4412 22.0815C44.1825 22.0815 43.1621 23.1019 43.1621 24.3606Z" stroke="#F6F9FF" stroke-width="1.5"/>
</svg>
