<svg width="75" height="48" viewBox="0 0 75 48" fill="none" xmlns="http://www.w3.org/2000/svg">
<path d="M69.8711 39.6799H72.7352C73.0614 39.6744 73.3877 39.6931 73.7112 39.7359C74.4392 39.8559 74.7672 40.2479 74.6392 40.9599C74.3942 42.782 73.5499 44.4707 72.2392 45.7599C71.0132 46.8553 69.4422 47.4865 67.7992 47.5439C67.5112 47.5439 67.2152 47.5439 66.9192 47.5439L9.31915 47.4959C7.97465 47.5472 6.62934 47.418 5.31915 47.1119C4.05273 46.8325 2.90108 46.1749 2.01676 45.2263C1.13243 44.2777 0.557161 43.0828 0.367151 41.7999C0.272727 41.387 0.213845 40.9668 0.191152 40.5439C0.166319 40.3975 0.17605 40.2474 0.219567 40.1055C0.263083 39.9636 0.339179 39.8338 0.441779 39.7266C0.544379 39.6193 0.67064 39.5375 0.810477 39.4878C0.950314 39.438 1.09985 39.4216 1.24715 39.4399C2.11915 39.4399 2.99915 39.4399 3.87915 39.4399C4.20715 39.4399 4.52715 39.4399 4.88715 39.4399C4.93793 39.2422 4.97799 39.0419 5.00715 38.8399C5.00715 38.5519 5.00715 38.2559 5.00715 37.9679C5.00715 27.8772 5.00715 17.7919 5.00715 7.71189C5.00556 6.80055 5.08049 5.89069 5.23115 4.99189C5.36725 3.96427 5.82915 3.00733 6.54906 2.2615C7.26897 1.51568 8.20899 1.02024 9.23115 0.847893C9.89851 0.702352 10.5802 0.632576 11.2632 0.639891L56.0632 0.375893C58.5992 0.375893 61.1432 0.271891 63.6791 0.311891C64.6105 0.322637 65.5282 0.53652 66.3683 0.93861C67.2084 1.3407 67.9506 1.9213 68.5432 2.63989C69.2123 3.44762 69.6049 4.44861 69.6632 5.49589C69.7272 6.29589 69.7752 7.09589 69.7752 7.83989C69.7752 17.9732 69.7752 28.1226 69.7752 38.2879C69.8472 38.7279 69.8632 39.1439 69.8711 39.6799ZM72.6312 41.4399L2.54315 41.1999C2.41916 41.2128 2.29621 41.2341 2.17515 41.2639C2.17515 41.3599 2.11915 41.4239 2.17515 41.4799C2.25722 42.2441 2.53628 42.9739 2.98502 43.598C3.43376 44.222 4.0368 44.7188 4.73515 45.0399C5.21327 45.2455 5.7085 45.4088 6.21515 45.5279C7.20412 45.7314 8.21443 45.812 9.22315 45.7679H57.0792C60.4632 45.7679 63.8472 45.7679 67.2312 45.7679C68.2776 45.7774 69.3104 45.5302 70.2392 45.0479C70.8846 44.6664 71.4352 44.1435 71.8495 43.5186C72.2638 42.8937 72.5311 42.183 72.6312 41.4399ZM6.88715 6.68789H8.11115H66.7752C67.0017 6.69994 67.2286 6.69994 67.4552 6.68789C67.6333 6.66896 67.8098 6.63687 67.9832 6.59189C68.1032 4.52789 67.3752 3.32789 65.5832 2.51989C64.8284 2.18558 64.0083 2.02432 63.1832 2.04789L22.9672 2.34389L11.1992 2.40789C10.45 2.40182 9.70554 2.52635 8.99915 2.77589C8.57323 2.92707 8.18861 3.17583 7.87605 3.50228C7.56349 3.82873 7.33168 4.2238 7.19915 4.65589C6.94762 5.30221 6.84111 5.99588 6.88715 6.68789ZM10.2872 35.7199C10.4952 35.7199 10.7112 35.7759 10.9352 35.7839C17.7432 35.9039 29.1992 35.8399 30.0472 35.6799C30.5192 32.9199 28.6072 29.0239 25.7432 27.1359C24.2084 26.0359 22.3815 25.4166 20.4942 25.3568C18.6069 25.297 16.7444 25.7993 15.1432 26.7999C13.6039 27.7099 12.3397 29.0196 11.4847 30.5901C10.6298 32.1605 10.2159 33.9332 10.2872 35.7199ZM19.9992 12.1199C18.8528 12.1008 17.7267 12.4239 16.7647 13.0477C15.8028 13.6716 15.0486 14.568 14.5984 15.6225C14.1483 16.677 14.0226 17.8418 14.2375 18.968C14.4523 20.0942 14.998 21.1309 15.8047 21.9456C16.6115 22.7603 17.6427 23.3161 18.7668 23.542C19.8909 23.7679 21.0568 23.6537 22.1156 23.2139C23.1745 22.7742 24.0783 22.0288 24.7116 21.073C25.3449 20.1173 25.6789 18.9944 25.6712 17.8479C25.6775 16.3365 25.0838 14.8843 24.0203 13.8103C22.9568 12.7363 21.5106 12.1284 19.9992 12.1199ZM49.6472 20.2239V20.1679H64.0952C64.3832 20.1679 64.6792 20.1679 64.9672 20.1679C65.1921 20.1753 65.4107 20.0931 65.575 19.9393C65.7393 19.7855 65.8357 19.5728 65.8432 19.3479C65.8506 19.123 65.7684 18.9043 65.6146 18.7401C65.4608 18.5758 65.2481 18.4793 65.0232 18.4719C64.7328 18.4519 64.4415 18.4519 64.1512 18.4719H48.1512L35.0711 18.5199C34.7475 18.5144 34.424 18.5331 34.1031 18.5759C33.891 18.5759 33.6875 18.6602 33.5375 18.8102C33.3874 18.9602 33.3032 19.1637 33.3032 19.3759C33.3032 19.5881 33.3874 19.7915 33.5375 19.9416C33.6875 20.0916 33.891 20.1759 34.1031 20.1759C34.4255 20.1959 34.7488 20.1959 35.0711 20.1759L49.6472 20.2239ZM49.3032 13.3679H63.8392C64.1642 13.388 64.4901 13.388 64.8151 13.3679C65.0326 13.3679 65.2412 13.2815 65.395 13.1277C65.5488 12.9739 65.6352 12.7654 65.6352 12.5479C65.6352 12.3304 65.5488 12.1218 65.395 11.9681C65.2412 11.8143 65.0326 11.7279 64.8151 11.7279C64.4929 11.7039 64.1694 11.7039 63.8471 11.7279H45.9832H34.7832C34.4592 11.7168 34.1349 11.7382 33.8152 11.7919C33.603 11.8025 33.4037 11.897 33.2612 12.0545C33.1187 12.212 33.0445 12.4197 33.0552 12.6319C33.0658 12.8441 33.1602 13.0433 33.3177 13.1859C33.4753 13.3284 33.683 13.4025 33.8952 13.3919C34.1856 13.4079 34.4767 13.4079 34.7672 13.3919L49.3032 13.3679ZM53.5032 28.5679C53.4738 29.9768 53.9103 31.3561 54.745 32.4916C55.5796 33.6271 56.7657 34.4554 58.1192 34.8479C59.0934 35.1864 60.139 35.2655 61.1531 35.0776C62.1672 34.8896 63.1149 34.441 63.9031 33.7759C65.0676 32.818 65.8878 31.5063 66.2392 30.0399C66.2681 29.9457 66.2895 29.8494 66.3032 29.7519C66.3203 29.5893 66.2789 29.426 66.1866 29.2911C66.0942 29.1563 65.9569 29.0587 65.7992 29.0159C65.6565 28.9786 65.5054 28.9916 65.3713 29.0528C65.2372 29.1141 65.1284 29.2197 65.0632 29.3519C64.9727 29.5603 64.8952 29.774 64.8312 29.9919C64.608 30.7077 64.2525 31.3752 63.7832 31.9599C63.3608 32.5204 62.8148 32.976 62.1876 33.2909C61.5604 33.6059 60.869 33.7719 60.1672 33.7759C59.4143 33.806 58.6642 33.6691 57.9705 33.3749C57.2769 33.0808 56.657 32.6367 56.1553 32.0746C55.6536 31.5125 55.2826 30.8463 55.0688 30.1238C54.8551 29.4013 54.804 28.6405 54.9192 27.8959C55.2152 25.3199 57.9672 23.0959 60.6231 23.7839C60.9032 23.8559 61.1912 23.9359 61.4792 23.9839C61.6668 24.0198 61.8595 24.0198 62.0471 23.9839C62.1429 23.9657 62.233 23.9251 62.31 23.8654C62.387 23.8056 62.4488 23.7285 62.4902 23.6402C62.5316 23.552 62.5514 23.4552 62.5481 23.3578C62.5448 23.2604 62.5184 23.1651 62.4711 23.0799C62.3695 22.9148 62.2183 22.786 62.0392 22.7119C60.9741 22.2954 59.8196 22.1604 58.6872 22.3199C57.2284 22.6022 55.9134 23.3832 54.9675 24.5291C54.0217 25.6749 53.5039 27.1141 53.5032 28.5999V28.5679ZM42.1591 33.8479H49.2872C49.5112 33.8479 49.7432 33.8479 49.9672 33.8479C50.0813 33.8522 50.1951 33.8338 50.3021 33.7938C50.4091 33.7537 50.5071 33.6929 50.5904 33.6148C50.6737 33.5367 50.7407 33.4428 50.7875 33.3387C50.8344 33.2345 50.8601 33.1221 50.8632 33.0079C50.855 32.7765 50.7583 32.557 50.5931 32.3948C50.4279 32.2325 50.2067 32.1398 49.9752 32.1359C49.7192 32.1359 49.4552 32.1359 49.1752 32.1359H35.3352C35.1031 32.1359 34.8712 32.1359 34.6472 32.1359C34.4545 32.1461 34.2651 32.1894 34.0872 32.2639C33.9218 32.3367 33.786 32.4632 33.7017 32.623C33.6175 32.7828 33.5898 32.9664 33.6231 33.1439C33.6478 33.306 33.7216 33.4566 33.8346 33.5754C33.9477 33.6942 34.0945 33.7753 34.2552 33.8079C34.5453 33.8318 34.837 33.8318 35.1272 33.8079L42.1591 33.8479ZM42.2232 26.7999C42.8072 26.7999 43.3912 26.7999 43.9752 26.7999C45.7672 26.7999 47.5512 26.8799 49.3432 26.9039C49.6657 26.919 49.9888 26.8894 50.3032 26.8159C50.4702 26.7616 50.6148 26.6539 50.7146 26.5093C50.8143 26.3647 50.8637 26.1913 50.8552 26.0159C50.8508 25.8285 50.7838 25.6479 50.6649 25.5029C50.5461 25.3579 50.3821 25.2569 50.1992 25.2159C50.0003 25.1893 49.7992 25.184 49.5992 25.1999H48.2392L35.0792 24.9599C34.7873 24.9467 34.4949 24.9654 34.2072 25.0159C34.0326 25.0628 33.8791 25.1674 33.7716 25.3126C33.6641 25.4579 33.609 25.6353 33.6152 25.8159C33.6098 25.9986 33.6673 26.1777 33.7779 26.3233C33.8885 26.4688 34.0457 26.5721 34.2232 26.6159C34.4872 26.6625 34.7551 26.6839 35.0232 26.6799L42.2232 26.7999ZM59.9512 29.6799C59.8733 29.6493 59.7983 29.6118 59.7272 29.5679L58.9272 28.8399C58.7352 28.6639 58.5512 28.4799 58.3432 28.3199C58.1945 28.1908 58.0007 28.1258 57.8043 28.1393C57.6078 28.1528 57.4248 28.2437 57.2952 28.3919C57.1728 28.5259 57.1084 28.7028 57.1159 28.8841C57.1234 29.0654 57.2022 29.2364 57.3352 29.3599C57.9991 30.0239 58.6872 30.6719 59.4072 31.2879C59.4933 31.3642 59.5938 31.4225 59.7027 31.4594C59.8117 31.4964 59.9269 31.5112 60.0417 31.503C60.1564 31.4948 60.2684 31.4638 60.371 31.4117C60.4736 31.3597 60.5648 31.2876 60.6392 31.1999C60.7541 31.0876 60.8611 30.9673 60.9591 30.8399L65.4072 25.5359C65.5383 25.3922 65.6562 25.2369 65.7591 25.0719C65.8522 24.9166 65.8841 24.7323 65.8486 24.5548C65.8131 24.3773 65.7128 24.2194 65.5672 24.1119C65.4432 24.0033 65.284 23.9435 65.1192 23.9435C64.9543 23.9435 64.7951 24.0033 64.6712 24.1119C64.4595 24.3144 64.2618 24.5309 64.0792 24.7599L60.5752 28.9439C60.3752 29.1999 60.1512 29.4559 59.9512 29.6799Z" fill="white"/>
<path d="M72.632 41.4398C72.5426 42.1977 72.2796 42.9248 71.8633 43.5645C71.447 44.2042 70.8888 44.7391 70.232 45.1278C69.3033 45.6101 68.2704 45.8573 67.224 45.8478C63.84 45.8478 60.456 45.8478 57.072 45.8478H9.21597C8.20725 45.8919 7.19693 45.8113 6.20797 45.6078C5.70132 45.4887 5.20609 45.3254 4.72797 45.1198C4.02962 44.7987 3.42657 44.3019 2.97784 43.6779C2.5291 43.0538 2.25004 42.324 2.16797 41.5598C2.16797 41.5038 2.16797 41.4398 2.16797 41.3438C2.28902 41.314 2.41198 41.2927 2.53597 41.2798L72.632 41.4398Z" fill="#007BFF"/>
<path d="M6.8874 6.68778C6.84136 5.99577 6.94787 5.3021 7.1994 4.65578C7.33514 4.22812 7.56841 3.83785 7.88078 3.51576C8.19315 3.19366 8.5761 2.94856 8.9994 2.79978C9.70433 2.54207 10.4488 2.40941 11.1994 2.40778L23.0074 2.35978L63.1994 2.06378C64.0246 2.0402 64.8446 2.20147 65.5994 2.53578C67.3914 3.33578 68.1194 4.54378 67.9994 6.60778C67.826 6.65276 67.6495 6.68485 67.4714 6.70378C67.2449 6.71583 67.0179 6.71583 66.7914 6.70378H8.1114L6.8874 6.68778Z" fill="#007BFF"/>
<path d="M10.2872 35.7199C10.216 33.9332 10.6298 32.1606 11.4847 30.5901C12.3397 29.0196 13.6039 27.7099 15.1432 26.7999C16.7444 25.7993 18.6069 25.297 20.4942 25.3568C22.3815 25.4167 24.2085 26.0359 25.7432 27.1359C28.6072 29.0239 30.5432 32.9199 30.0472 35.6799C29.1992 35.8399 17.7432 35.9039 10.9352 35.7839C10.7112 35.7759 10.4952 35.7439 10.2872 35.7199Z" fill="#007BFF"/>
<path d="M19.9999 12.1198C21.146 12.1104 22.269 12.4427 23.2256 13.0743C24.1821 13.7058 24.9287 14.6081 25.3702 15.6659C25.8117 16.7237 25.9281 17.889 25.7044 19.0132C25.4807 20.1374 24.9272 21.1694 24.1144 21.9776C23.3017 22.7859 22.2665 23.3336 21.1411 23.551C20.0157 23.7683 18.851 23.6455 17.7957 23.198C16.7404 22.7506 15.8424 21.9989 15.2162 21.0388C14.59 20.0788 14.264 18.9539 14.2798 17.8078C14.2819 17.0588 14.4316 16.3174 14.7202 15.6262C15.0088 14.935 15.4307 14.3073 15.9618 13.7792C16.493 13.251 17.123 12.8326 17.8158 12.5479C18.5086 12.2632 19.2508 12.1177 19.9999 12.1198Z" fill="#007BFF"/>
<path d="M49.6479 20.2239H35.1039C34.7816 20.2438 34.4583 20.2438 34.1359 20.2239C33.9238 20.2239 33.7203 20.1396 33.5703 19.9895C33.4202 19.8395 33.3359 19.636 33.3359 19.4239C33.3359 19.2117 33.4202 19.0082 33.5703 18.8582C33.7203 18.7081 33.9238 18.6239 34.1359 18.6239C34.4568 18.5811 34.7803 18.5624 35.1039 18.5679L48.1839 18.5199H64.1839C64.4743 18.4999 64.7656 18.4999 65.0559 18.5199C65.2808 18.5273 65.4936 18.6238 65.6474 18.788C65.8011 18.9523 65.8834 19.171 65.8759 19.3959C65.8685 19.6208 65.772 19.8335 65.6078 19.9873C65.4435 20.1411 65.2248 20.2233 64.9999 20.2159C64.7119 20.2159 64.4159 20.2159 64.1279 20.2159H49.6479V20.2239Z" fill="#007BFF"/>
<path d="M49.3039 13.368H34.7599C34.4694 13.384 34.1783 13.384 33.8879 13.368C33.6757 13.3786 33.468 13.3045 33.3105 13.162C33.1529 13.0194 33.0585 12.8202 33.0479 12.608C33.0373 12.3958 33.1114 12.1881 33.2539 12.0306C33.3964 11.8731 33.5957 11.7786 33.8079 11.768C34.1276 11.7144 34.4519 11.6929 34.7759 11.704H45.9759H63.8399C64.1621 11.68 64.4857 11.68 64.8079 11.704C65.0254 11.704 65.2339 11.7904 65.3877 11.9442C65.5415 12.098 65.6279 12.3065 65.6279 12.524C65.6279 12.7415 65.5415 12.95 65.3877 13.1038C65.2339 13.2576 65.0254 13.344 64.8079 13.344C64.4829 13.3641 64.1569 13.3641 63.8319 13.344H49.3039V13.368Z" fill="#007BFF"/>
<path d="M53.5031 28.5999C53.5186 27.1251 54.043 25.701 54.9876 24.5683C55.9322 23.4357 57.2391 22.664 58.6871 22.3839C59.8195 22.2244 60.974 22.3594 62.0391 22.7759C62.2182 22.85 62.3694 22.9788 62.4711 23.1439C62.5183 23.2291 62.5447 23.3244 62.548 23.4218C62.5513 23.5192 62.5315 23.616 62.4901 23.7042C62.4487 23.7925 62.3869 23.8696 62.3099 23.9294C62.2329 23.9891 62.1428 24.0297 62.0471 24.0479C61.8594 24.0838 61.6667 24.0838 61.4791 24.0479C61.1911 23.9999 60.9031 23.9199 60.6231 23.8479C57.9671 23.1279 55.2151 25.3839 54.9191 27.9599C54.8039 28.7045 54.855 29.4653 55.0687 30.1878C55.2825 30.9103 55.6535 31.5765 56.1552 32.1386C56.6569 32.7007 57.2768 33.1448 57.9704 33.4389C58.6641 33.7331 59.4142 33.87 60.1671 33.8399C60.8689 33.8359 61.5603 33.6699 62.1875 33.3549C62.8147 33.0399 63.3607 32.5844 63.7831 32.0239C64.2473 31.4199 64.5921 30.733 64.7991 29.9999C64.8631 29.782 64.9406 29.5682 65.0311 29.3599C65.0963 29.2277 65.2051 29.122 65.3392 29.0608C65.4733 28.9996 65.6244 28.9866 65.7671 29.0239C65.9248 29.0667 66.0621 29.1643 66.1545 29.2991C66.2468 29.434 66.2882 29.5973 66.2711 29.7599C66.2574 29.8574 66.236 29.9537 66.2071 30.0479C65.8557 31.5142 65.0355 32.8259 63.8711 33.7839C63.0828 34.449 62.1351 34.8976 61.121 35.0856C60.1069 35.2735 59.0613 35.1944 58.0871 34.8559C56.7436 34.4586 55.5676 33.6314 54.7395 32.5013C53.9114 31.3712 53.4771 30.0006 53.5031 28.5999Z" fill="#007BFF"/>
<path d="M42.1591 33.8478H35.1271C34.837 33.8717 34.5453 33.8717 34.2551 33.8478C34.0944 33.8152 33.9477 33.734 33.8346 33.6153C33.7216 33.4965 33.6477 33.3459 33.6231 33.1838C33.5898 33.0063 33.6175 32.8227 33.7017 32.6629C33.786 32.5031 33.9218 32.3765 34.0871 32.3038C34.2651 32.2293 34.4545 32.186 34.6471 32.1758C34.8711 32.1758 35.1031 32.1758 35.3351 32.1758H49.1911C49.4551 32.1758 49.7191 32.1758 49.9911 32.1758C50.2227 32.1797 50.4439 32.2724 50.6091 32.4346C50.7743 32.5969 50.871 32.8164 50.8791 33.0478C50.876 33.1619 50.8503 33.2744 50.8035 33.3786C50.7567 33.4827 50.6897 33.5766 50.6064 33.6547C50.5231 33.7328 50.4251 33.7936 50.3181 33.8336C50.2111 33.8737 50.0973 33.8921 49.9831 33.8878C49.7591 33.8878 49.5271 33.8878 49.3031 33.8878H42.1591V33.8478Z" fill="#007BFF"/>
<path d="M42.2237 26.8001L35.0237 26.6401C34.7556 26.6442 34.4877 26.6227 34.2237 26.5761C34.0462 26.5323 33.8891 26.429 33.7784 26.2835C33.6678 26.1379 33.6104 25.9589 33.6157 25.7761C33.6095 25.5955 33.6647 25.4181 33.7722 25.2729C33.8797 25.1276 34.0332 25.023 34.2077 24.9761C34.4955 24.9257 34.7879 24.9069 35.0797 24.9201L48.2557 25.2001H49.5997C49.7939 25.18 49.9896 25.18 50.1837 25.2001C50.3666 25.2411 50.5306 25.3422 50.6495 25.4871C50.7684 25.6321 50.8353 25.8127 50.8397 26.0001C50.8483 26.1756 50.7989 26.349 50.6991 26.4936C50.5994 26.6381 50.4548 26.7459 50.2877 26.8001C49.9733 26.8736 49.6502 26.9033 49.3277 26.8881C47.5357 26.8881 45.7517 26.8161 43.9597 26.7841C43.3917 26.8001 42.8077 26.8001 42.2237 26.8001Z" fill="#007BFF"/>
<path d="M59.9516 29.6798C60.1516 29.4558 60.3756 29.2238 60.5836 28.9838L64.0876 24.7998C64.2702 24.5708 64.468 24.3543 64.6796 24.1518C64.8036 24.0433 64.9628 23.9834 65.1276 23.9834C65.2924 23.9834 65.4516 24.0433 65.5756 24.1518C65.7213 24.2593 65.8216 24.4172 65.8571 24.5947C65.8926 24.7722 65.8607 24.9566 65.7676 25.1118C65.6646 25.2769 65.5468 25.4322 65.4156 25.5758L60.9676 30.8798C60.8695 31.0072 60.7626 31.1275 60.6476 31.2398C60.5732 31.3276 60.4821 31.3996 60.3795 31.4517C60.2769 31.5037 60.1649 31.5347 60.0501 31.5429C59.9354 31.5511 59.8201 31.5363 59.7112 31.4994C59.6022 31.4625 59.5017 31.4041 59.4156 31.3278C58.6956 30.7118 58.0076 30.0638 57.3436 29.3998C57.273 29.3383 57.2156 29.263 57.1751 29.1785C57.1346 29.094 57.1117 29.0021 57.108 28.9085C57.1042 28.8148 57.1196 28.7214 57.1533 28.6339C57.1869 28.5465 57.2381 28.4668 57.3036 28.3998C57.4332 28.2516 57.6163 28.1608 57.8128 28.1473C58.0092 28.1338 58.203 28.1987 58.3516 28.3278C58.5596 28.4878 58.7436 28.6718 58.9356 28.8478L59.7356 29.5758C59.8045 29.6166 59.8768 29.6514 59.9516 29.6798Z" fill="#007BFF"/>
</svg>
