<svg width="80" height="85" viewBox="0 0 80 85" fill="none" xmlns="http://www.w3.org/2000/svg">
<path d="M23.5196 59.0796L31.1276 52.6796C31.0156 52.4796 30.9196 52.2796 30.7996 52.1036C29.4562 50.1458 28.2532 48.0953 27.1996 45.9676C27.0121 45.5921 26.8569 45.2014 26.7356 44.7996C26.0156 42.6475 25.5144 40.4283 25.2396 38.1756C24.5676 31.8316 25.8476 25.9916 29.8796 20.9036C32.5649 17.4794 36.3429 15.0793 40.5836 14.1036C42.6627 13.6022 44.7837 13.2942 46.9196 13.1836C47.4316 13.1836 47.9516 13.2796 48.4636 13.2956C49.6306 13.3448 50.793 13.4704 51.9436 13.6716C54.6966 14.0879 57.3176 15.1292 59.6058 16.7156C61.8939 18.3021 63.7882 20.3915 65.1436 22.8236C66.6552 25.3693 67.6273 28.1985 67.9996 31.1356C68.5987 35.9482 67.9996 40.8343 66.2556 45.3596C64.5696 50.0479 61.7401 54.2413 58.0236 57.5596C55.765 59.619 53.1113 61.1977 50.2236 62.1996C48.9678 62.6406 47.6503 62.8809 46.3196 62.9116C44.3669 62.9149 42.4435 62.4368 40.7196 61.5196C39.0016 60.6117 37.4139 59.4761 35.9996 58.1436L35.1996 57.3996C34.5977 57.759 34.0575 58.2128 33.5996 58.7436C35.4156 59.8956 35.7116 60.4876 35.5916 62.7436C35.7265 62.7997 35.8656 62.8451 36.0076 62.8796C36.3776 62.9341 36.7291 63.0766 37.0326 63.2951C37.3361 63.5137 37.5827 63.8019 37.7516 64.1356C38.0053 64.552 38.1711 65.016 38.2385 65.499C38.3059 65.9819 38.2736 66.4736 38.1436 66.9436C38.0236 67.3836 37.8556 67.7996 37.6956 68.2396C37.7784 68.2919 37.8638 68.34 37.9516 68.3836C39.4076 68.8236 40.0636 70.7836 39.7276 72.0796C39.5842 72.6517 39.3104 73.1829 38.9276 73.6316C38.4103 74.2525 37.8546 74.8404 37.2636 75.3916C35.0983 77.3489 32.9196 79.2903 30.7276 81.2156C29.9276 81.9196 29.1276 82.6076 28.2556 83.2636C27.789 83.62 27.2909 83.9333 26.7676 84.1996C26.3214 84.4391 25.8196 84.5558 25.3135 84.5375C24.8074 84.5192 24.3153 84.3667 23.8876 84.0956C23.4382 83.8348 23.0125 83.5349 22.6156 83.1996C20.9596 81.7996 19.3116 80.3836 17.6636 78.9676C17.5133 78.844 17.3741 78.7074 17.2476 78.5596C17.138 78.419 17.0784 78.2459 17.0784 78.0676C17.0784 77.8893 17.138 77.7162 17.2476 77.5756C17.3601 77.4346 17.5169 77.3358 17.6926 77.2951C17.8683 77.2544 18.0526 77.2744 18.2156 77.3516C18.4415 77.4743 18.6511 77.6248 18.8396 77.7996C20.4396 79.1276 21.9436 80.4556 23.5036 81.7996C23.851 82.0864 24.2142 82.3535 24.5916 82.5996C24.8198 82.7717 25.0948 82.8707 25.3804 82.8835C25.666 82.8964 25.9488 82.8225 26.1916 82.6716C26.6227 82.4464 27.0301 82.1783 27.4076 81.8716C28.6796 80.8156 29.9276 79.7356 31.1756 78.6716C32.7756 77.2796 34.3489 75.8796 35.8956 74.4716C36.3276 74.0876 36.7596 73.6716 37.1596 73.2636C37.4392 72.9521 37.6884 72.6146 37.9036 72.2556C38.0346 72.0301 38.1154 71.779 38.1402 71.5194C38.1651 71.2598 38.1335 70.9978 38.0476 70.7516C38.0417 70.6084 37.9974 70.4694 37.9194 70.3491C37.8415 70.2289 37.7326 70.1318 37.6042 70.068C37.4758 70.0042 37.3327 69.9761 37.1897 69.9866C37.0468 69.9971 36.9093 70.0458 36.7916 70.1276C36.4635 70.2623 36.1454 70.42 35.8396 70.5996C35.6396 70.7116 35.4636 70.8636 35.2716 70.9676C35.118 71.0611 34.9373 71.1001 34.7588 71.0784C34.5802 71.0566 34.4142 70.9753 34.2876 70.8476C34.1432 70.7149 34.0497 70.5359 34.0234 70.3416C33.9971 70.1473 34.0396 69.9499 34.1436 69.7836C34.3063 69.5848 34.4799 69.3951 34.6636 69.2156C35.1415 68.7338 35.5928 68.2264 36.0156 67.6956C36.247 67.3473 36.4199 66.9636 36.5276 66.5596C36.6512 66.1487 36.6285 65.7077 36.4636 65.3116C36.1756 64.5596 35.7356 64.3996 35.1036 64.6396C34.6129 64.8269 34.1582 65.0975 33.7596 65.4396C33.468 65.6943 33.1578 65.927 32.8316 66.1356C32.6668 66.2437 32.4679 66.2872 32.273 66.2576C32.0781 66.2281 31.901 66.1277 31.7756 65.9756C31.6429 65.8286 31.5695 65.6376 31.5695 65.4396C31.5695 65.2416 31.6429 65.0506 31.7756 64.9036C32.0442 64.611 32.3387 64.3432 32.6556 64.1036C33.1819 63.7182 33.5916 63.195 33.8396 62.5916C33.9442 62.3533 33.9983 62.0959 33.9983 61.8356C33.9983 61.5753 33.9442 61.3179 33.8396 61.0796C33.8169 60.9921 33.7764 60.9102 33.7206 60.8391C33.6648 60.7679 33.5949 60.7091 33.5152 60.6663C33.4356 60.6235 33.348 60.5976 33.2579 60.5902C33.1678 60.5829 33.0771 60.5942 32.9916 60.6236C32.6137 60.7034 32.2479 60.8325 31.9036 61.0076C31.4486 61.2487 31.0079 61.5158 30.5836 61.8076C30.4399 61.9147 30.2724 61.9853 30.0954 62.0131C29.9183 62.041 29.7372 62.0254 29.5676 61.9676C29.4414 61.9343 29.3253 61.8706 29.2294 61.7822C29.1334 61.6937 29.0606 61.5831 29.0172 61.4601C28.9738 61.337 28.9612 61.2052 28.9804 61.0761C28.9997 60.9471 29.0502 60.8247 29.1276 60.7196C29.2476 60.5662 29.3786 60.4219 29.5196 60.2876C32.1542 57.7103 34.9519 55.3053 37.8956 53.0876C38.0561 52.9758 38.2084 52.8528 38.3516 52.7196C38.4859 52.5891 38.5926 52.433 38.6655 52.2606C38.7383 52.0881 38.7759 51.9028 38.7759 51.7156C38.7759 51.5284 38.7383 51.3431 38.6655 51.1706C38.5926 50.9982 38.4859 50.8421 38.3516 50.7116C38.19 50.5277 37.9718 50.4028 37.7314 50.3564C37.491 50.3101 37.242 50.345 37.0236 50.4556C36.6737 50.6236 36.3436 50.8302 36.0396 51.0716C34.2076 52.5116 32.3516 53.9356 30.5596 55.4316C27.6476 57.7996 24.8396 60.1996 22.0076 62.5996C21.7921 62.797 21.5651 62.9813 21.3276 63.1516C21.1667 63.2634 20.9755 63.3234 20.7796 63.3234C20.5837 63.3234 20.3924 63.2634 20.2316 63.1516C20.0719 63.037 19.96 62.8677 19.9172 62.6758C19.8745 62.484 19.9038 62.2832 19.9996 62.1116C20.0796 61.8956 20.1916 61.6956 20.2876 61.4956C21.0396 59.9436 21.7996 58.4076 22.5196 56.8556C22.8256 56.2111 23.0771 55.5421 23.2716 54.8556C23.5836 53.7196 23.2716 52.9596 22.2076 52.1356C22.0716 52.3036 21.9196 52.4556 21.7996 52.6316C20.0663 55.1116 18.3569 57.5943 16.6716 60.0796C16.4618 60.4039 16.3002 60.7569 16.1916 61.1276C15.5756 63.1756 14.9756 65.2236 14.1916 67.2156C13.8776 68.033 13.7123 68.9 13.7036 69.7756C13.7036 70.0396 13.7036 70.2956 13.7036 70.5756C13.7168 70.8022 13.6403 71.025 13.4906 71.1956C13.3409 71.3663 13.13 71.4712 12.9036 71.4876C12.7884 71.4887 12.6743 71.465 12.5692 71.418C12.464 71.3709 12.3703 71.3018 12.2943 71.2152C12.2183 71.1286 12.162 71.0266 12.1291 70.9162C12.0961 70.8058 12.0875 70.6897 12.1036 70.5756C12.1031 69.7732 12.1539 68.9715 12.2556 68.1756C12.3312 67.6615 12.4709 67.1589 12.6716 66.6796C13.4716 64.6876 14.0716 62.6796 14.6476 60.5916C14.753 60.1152 14.9398 59.6606 15.1996 59.2476C17.1036 56.5009 18.9969 53.7516 20.8796 50.9996C21.0076 50.8156 21.1356 50.6236 21.2796 50.4476C21.345 50.3429 21.4319 50.2533 21.5345 50.1846C21.6372 50.116 21.7532 50.07 21.8749 50.0496C21.9967 50.0291 22.1214 50.0348 22.2408 50.0662C22.3602 50.0976 22.4716 50.1539 22.5676 50.2316C24.2396 51.3596 25.5036 53.1036 24.8236 55.4396C24.5234 56.3634 24.1571 57.2644 23.7276 58.1356C23.5916 58.4236 23.4636 58.7116 23.3356 58.9916L23.5196 59.0796ZM61.4396 25.2476C58.3998 24.4316 55.307 23.8275 52.1836 23.4396C49.0343 23.0133 45.8493 22.9141 42.6796 23.1436C37.0796 23.5996 34.4156 24.0076 33.3996 24.4636C32.4476 26.9356 31.7996 33.2636 32.3196 35.1276C37.1719 34.5224 42.0663 34.3244 46.9516 34.5356C51.8311 34.8129 56.678 35.5061 61.4396 36.6076C61.9276 34.8716 61.9356 28.0716 61.4396 25.2476ZM44.6396 44.8956C44.5384 44.8875 44.4368 44.8875 44.3356 44.8956C43.402 45.2119 42.5758 45.7836 41.9508 46.5458C41.3258 47.308 40.9269 48.2302 40.7996 49.2076C40.64 50.0914 40.7316 51.0023 41.0639 51.8367C41.3962 52.6711 41.956 53.3955 42.6796 53.9276C43.3275 54.4694 44.0911 54.8553 44.9116 55.0556C45.4715 55.2219 46.0592 55.2736 46.6396 55.2076C47.7327 55.0872 48.7645 54.6416 49.6017 53.9286C50.4389 53.2155 51.0429 52.2676 51.3356 51.2076C51.6721 50.0811 51.6182 48.8739 51.1825 47.7819C50.7469 46.6899 49.9551 45.7771 48.9356 45.1916C48.7482 45.1128 48.5522 45.0564 48.3516 45.0236V46.6236C48.4876 46.7436 48.6156 46.8476 48.7276 46.9596C49.1268 47.3088 49.4467 47.7392 49.6658 48.2221C49.885 48.7051 49.9984 49.2293 49.9984 49.7596C49.9984 50.2899 49.885 50.8141 49.6658 51.297C49.4467 51.78 49.1268 52.2104 48.7276 52.5596C48.2661 52.9939 47.704 53.3069 47.0918 53.4707C46.4796 53.6345 45.8363 53.6439 45.2196 53.498C44.6029 53.3521 44.0319 53.0556 43.5579 52.6349C43.0839 52.2143 42.7217 51.6826 42.5036 51.0876C42.3904 50.7853 42.3282 50.4663 42.3196 50.1436C42.3017 49.5083 42.4378 48.8781 42.7165 48.3069C42.9951 47.7358 43.4079 47.2405 43.9196 46.8636C44.1436 46.6876 44.3996 46.5436 44.6476 46.3756L44.6396 44.8956ZM46.9596 39.6396C48.4309 39.6322 49.8721 39.2227 51.1276 38.4556L51.2876 38.3436C51.4493 38.2328 51.5647 38.0665 51.6118 37.8763C51.659 37.686 51.6347 37.4851 51.5436 37.3116C51.4927 37.2196 51.4241 37.1386 51.3419 37.0732C51.2596 37.0077 51.1653 36.9591 51.0642 36.9301C50.9632 36.9011 50.8574 36.8924 50.753 36.9043C50.6486 36.9162 50.5475 36.9486 50.4556 36.9996C50.2476 37.0876 50.0556 37.2156 49.8476 37.3036C49.4076 37.4876 48.9596 37.6796 48.5036 37.8316C47.5073 38.1617 46.4213 38.087 45.4796 37.6236C45.0156 37.3996 44.5756 37.1276 44.1276 36.8716C43.9403 36.7472 43.7452 36.635 43.5436 36.5356C43.3912 36.4772 43.2235 36.4723 43.068 36.5218C42.9125 36.5712 42.7783 36.672 42.6876 36.8076C42.5954 36.9177 42.5392 37.0533 42.5263 37.1963C42.5134 37.3393 42.5446 37.4828 42.6156 37.6076C42.6928 37.7484 42.7991 37.8712 42.9276 37.9676C44.0637 38.9328 45.4738 39.5176 46.9596 39.6396ZM47.2396 46.9516L47.3116 44.9116C47.3275 44.7173 47.3275 44.5219 47.3116 44.3276C47.2763 44.1534 47.184 43.996 47.0493 43.8801C46.9145 43.7642 46.7451 43.6965 46.5676 43.6876C46.3887 43.6947 46.2174 43.7617 46.0811 43.8777C45.9447 43.9938 45.8512 44.1522 45.8156 44.3276C45.8034 44.4553 45.8034 44.5839 45.8156 44.7116C45.7596 46.0716 45.6956 47.4316 45.6476 48.7916C45.6276 49.0178 45.6276 49.2454 45.6476 49.4716C45.6742 49.6402 45.7573 49.7948 45.8834 49.9098C46.0094 50.0249 46.1709 50.0937 46.3412 50.1049C46.5115 50.1161 46.6806 50.0689 46.8206 49.9713C46.9606 49.8737 47.0632 49.7313 47.1116 49.5676C47.1625 49.3444 47.1893 49.1165 47.1916 48.8876C47.1996 48.2476 47.1996 47.5996 47.2396 46.9516Z" fill="white"/>
<path d="M46.7357 6.1438C48.7789 6.06704 50.8233 6.26072 52.8157 6.71979C53.8257 6.955 54.8015 7.31792 55.7197 7.79979C56.6632 8.31404 57.4682 9.04906 58.0659 9.94207C58.6635 10.8351 59.0361 11.8595 59.1517 12.9278C59.1914 13.0786 59.1882 13.2374 59.1427 13.3865C59.0972 13.5356 59.0111 13.6692 58.894 13.7721C58.777 13.8751 58.6336 13.9434 58.4798 13.9695C58.3261 13.9956 58.1682 13.9784 58.0237 13.9198C57.7498 13.8353 57.4825 13.731 57.2237 13.6078C55.2505 12.7754 53.1812 12.1922 51.0637 11.8718C49.395 11.6331 47.7061 11.5661 46.0237 11.6718C43.5902 11.8681 41.18 12.2885 38.8237 12.9278C38.5785 13.0114 38.327 13.0756 38.0717 13.1198C37.9347 13.1415 37.7945 13.13 37.6629 13.0861C37.5312 13.0422 37.4122 12.9672 37.3156 12.8676C37.2191 12.7679 37.148 12.6465 37.1083 12.5135C37.0687 12.3806 37.0616 12.24 37.0877 12.1038C37.1006 12.0087 37.122 11.915 37.1517 11.8238C37.4404 10.6901 37.9397 9.62086 38.6237 8.67179C39.2966 7.747 40.2465 7.0605 41.3357 6.71179C42.4512 6.36693 43.6086 6.17584 44.7757 6.1438C45.4397 6.1198 46.0877 6.1438 46.7357 6.1438ZM39.1997 11.0558C39.9105 10.9541 40.6155 10.8152 41.3117 10.6398C41.9437 10.5198 42.5837 10.4078 43.2237 10.3118C43.8637 10.2158 44.5757 10.1198 45.2477 10.0638C45.9197 10.0078 46.5437 9.99979 47.1917 9.99179C47.8397 9.98379 48.5517 9.99179 49.2317 9.99179C49.9117 9.99179 50.5197 10.0958 51.1597 10.1838C51.7997 10.2718 52.5037 10.4078 53.1677 10.5598C53.8317 10.7118 54.4157 10.8878 55.0397 11.0558C55.6637 11.2238 56.2877 11.5358 56.9997 11.6558C56.9831 11.539 56.9564 11.4239 56.9197 11.3118C56.5609 10.5162 55.9586 9.85505 55.1997 9.4238C54.4755 8.98841 53.6911 8.66223 52.8717 8.45579C50.5774 7.87995 48.2102 7.64809 45.8477 7.76779C44.7448 7.76902 43.6442 7.87078 42.5597 8.07179C41.7832 8.22134 41.0613 8.5774 40.4701 9.10251C39.8788 9.62762 39.4399 10.3024 39.1997 11.0558Z" fill="white"/>
<path d="M10.7603 40.4077L1.60031 40.6397C1.33234 40.656 1.06339 40.6371 0.800307 40.5837C0.640573 40.5527 0.495403 40.4702 0.387035 40.3488C0.278666 40.2274 0.213074 40.0739 0.200307 39.9117C0.191201 39.7372 0.239448 39.5646 0.337679 39.4201C0.435909 39.2757 0.578722 39.1673 0.744307 39.1117C1.00584 39.0467 1.27491 39.0171 1.54431 39.0237L11.8323 38.7757L19.7843 38.5757C20.0745 38.5516 20.3661 38.5516 20.6563 38.5757C20.8352 38.599 20.9995 38.6864 21.1187 38.8218C21.2379 38.9572 21.3039 39.1313 21.3043 39.3117C21.3105 39.4923 21.2553 39.6697 21.1478 39.8149C21.0404 39.9602 20.8868 40.0648 20.7123 40.1117C20.4786 40.1652 20.24 40.1947 20.0003 40.1997L10.7843 40.4477L10.7603 40.4077Z" fill="white"/>
<path d="M62.9606 59.4C63.1357 59.4575 63.3046 59.5325 63.4646 59.624C63.6437 59.7632 63.8122 59.9156 63.9686 60.08L74.6726 70.392C74.8887 70.5867 75.0893 70.798 75.2726 71.024C75.3883 71.1814 75.4424 71.3756 75.4247 71.5702C75.407 71.7647 75.3188 71.946 75.1766 72.08C75.0433 72.199 74.874 72.27 74.6956 72.2816C74.5173 72.2932 74.3402 72.2447 74.1926 72.144C74.0112 72.0103 73.84 71.8633 73.6806 71.704L62.7686 61.16C62.5726 60.9898 62.3979 60.7964 62.2486 60.584C62.1815 60.4614 62.1477 60.3234 62.1506 60.1836C62.1534 60.0439 62.1928 59.9074 62.2648 59.7876C62.3368 59.6679 62.439 59.5691 62.561 59.501C62.6831 59.433 62.8209 59.3982 62.9606 59.4Z" fill="white"/>
<path d="M78.6324 57.6718L76.3444 57.2078L67.1444 55.2958C66.8574 55.2454 66.5741 55.176 66.2964 55.0878C66.1098 55.0287 65.9515 54.9032 65.8512 54.7351C65.751 54.5671 65.7158 54.3681 65.7524 54.1758C65.7944 53.9854 65.9046 53.8168 66.0623 53.7019C66.2199 53.587 66.4141 53.5336 66.6084 53.5518C66.8021 53.5596 66.9947 53.5837 67.1844 53.6238L78.4724 55.9598C78.6966 56.0036 78.9183 56.0597 79.1364 56.1278C79.2384 56.154 79.3342 56.1999 79.4184 56.2632C79.5026 56.3264 79.5735 56.4056 79.627 56.4963C79.6805 56.5869 79.7156 56.6873 79.7302 56.7915C79.7449 56.8958 79.7388 57.0019 79.7124 57.1038C79.6599 57.2915 79.5407 57.4536 79.3772 57.5597C79.2137 57.6658 79.0171 57.7085 78.8244 57.6798L78.6324 57.6718Z" fill="white"/>
<path d="M11.2408 27.2397C11.4008 27.2957 11.6808 27.3757 11.9448 27.4957C12.9448 27.9357 13.9448 28.3917 14.9448 28.8477L20.5448 31.3677C20.8247 31.4761 21.0927 31.6128 21.3448 31.7757C21.4943 31.8756 21.6026 32.0262 21.6497 32.1998C21.6968 32.3733 21.6794 32.558 21.6008 32.7197C21.5241 32.8806 21.3958 33.0113 21.2364 33.091C21.077 33.1707 20.8955 33.1949 20.7208 33.1597C20.5034 33.1055 20.2918 33.0305 20.0888 32.9357C17.1688 31.6157 14.2568 30.3037 11.3448 28.9357C11.1097 28.8331 10.887 28.7043 10.6808 28.5517C10.5551 28.4543 10.4613 28.3215 10.4114 28.1705C10.3616 28.0194 10.3578 27.8569 10.4008 27.7037C10.5608 27.3997 10.8008 27.2797 11.2408 27.2397Z" fill="white"/>
<path d="M60.4567 69.7438C60.4741 69.9349 60.4268 70.1264 60.3224 70.2875C60.2179 70.4485 60.0624 70.5698 59.8807 70.6318C59.7227 70.6696 59.557 70.6585 59.4056 70.6C59.2541 70.5414 59.124 70.4381 59.0327 70.3038C58.9316 70.1381 58.851 69.9608 58.7927 69.7758C58.2593 68.1758 57.726 66.5518 57.1927 64.9038C57.1265 64.7205 57.0835 64.5297 57.0647 64.3358C57.0606 64.1651 57.1112 63.9976 57.2091 63.8577C57.3071 63.7179 57.4472 63.613 57.609 63.5585C57.7707 63.504 57.9457 63.5026 58.1083 63.5547C58.2709 63.6067 58.4126 63.7094 58.5127 63.8478C58.6062 64.019 58.6838 64.1984 58.7447 64.3838C59.278 65.9838 59.8113 67.5838 60.3447 69.1838C60.3767 69.3758 60.4167 69.5998 60.4567 69.7438Z" fill="white"/>
<path d="M49.3049 5.07179C49.1767 5.09161 49.0455 5.07992 48.9228 5.03773C48.8 4.99553 48.6894 4.92411 48.6004 4.82962C48.5114 4.73512 48.4468 4.6204 48.412 4.49534C48.3773 4.37028 48.3735 4.23865 48.4009 4.11179C48.4421 3.95749 48.504 3.80948 48.585 3.67179C49.161 2.69579 49.7289 1.71979 50.3049 0.751795C50.39 0.613874 50.4892 0.48518 50.6009 0.367794C50.7242 0.236438 50.8905 0.153692 51.0696 0.134606C51.2488 0.11552 51.4288 0.161362 51.5769 0.263794C51.727 0.358241 51.8414 0.499845 51.9022 0.666366C51.963 0.832886 51.9668 1.01489 51.9129 1.18379C51.8551 1.3356 51.7855 1.48271 51.7049 1.6238C51.1529 2.5678 50.6009 3.51179 50.0329 4.45579C49.96 4.59719 49.8624 4.7245 49.7449 4.8318C49.6067 4.92636 49.4593 5.00676 49.3049 5.07179Z" fill="white"/>
<path d="M61.4396 25.2477C61.9356 28.0717 61.9276 34.8477 61.4396 36.6077C56.678 35.5061 51.8311 34.813 46.9516 34.5357C42.0663 34.3245 37.1719 34.5225 32.3196 35.1277C31.8316 33.2797 32.4476 26.9357 33.3996 24.4637C34.4156 24.0077 37.1116 23.5997 42.6796 23.1437C45.8494 22.9142 49.0343 23.0134 52.1836 23.4397C55.3071 23.8275 58.3998 24.4317 61.4396 25.2477ZM54.1676 29.7997C54.1798 29.6079 54.1798 29.4155 54.1676 29.2237C54.0971 28.608 53.8372 28.0293 53.4236 27.5677C53.3047 27.4244 53.1571 27.3075 52.9903 27.2246C52.8235 27.1417 52.6412 27.0946 52.4551 27.0864C52.2691 27.0781 52.0833 27.1088 51.9098 27.1765C51.7363 27.2442 51.5789 27.3475 51.4476 27.4797C51.1626 27.7405 50.9293 28.0526 50.7596 28.3997C50.5371 28.8498 50.4056 29.3395 50.3726 29.8406C50.3397 30.3416 50.406 30.8443 50.5676 31.3197C50.6914 31.6862 50.8842 32.0256 51.1356 32.3197C51.2541 32.4748 51.4049 32.6022 51.5776 32.6931C51.7503 32.784 51.9407 32.8362 52.1356 32.8461C52.3304 32.856 52.5252 32.8234 52.7062 32.7504C52.8872 32.6775 53.0501 32.566 53.1836 32.4237C53.4317 32.1728 53.6419 31.8872 53.8076 31.5757C54.0775 31.0242 54.2014 30.4127 54.1676 29.7997ZM40.7356 29.6557C40.7165 30.3023 40.8831 30.9408 41.2156 31.4957C41.3251 31.7341 41.4966 31.9387 41.7122 32.0881C41.9278 32.2376 42.1796 32.3263 42.4412 32.3452C42.7029 32.364 42.9647 32.3121 43.1995 32.1951C43.4343 32.078 43.6332 31.9 43.7756 31.6797C43.8431 31.6094 43.9021 31.5315 43.9516 31.4477C44.2957 30.8992 44.4997 30.2745 44.5458 29.6286C44.5918 28.9828 44.4784 28.3355 44.2156 27.7437C44.1229 27.4293 43.9358 27.1509 43.6797 26.9463C43.4236 26.7417 43.1108 26.6207 42.7836 26.5997C42.4743 26.6071 42.1729 26.6989 41.912 26.8653C41.6511 27.0317 41.4408 27.2663 41.3036 27.5437C40.9027 28.1819 40.7047 28.9266 40.7356 29.6797V29.6557Z" fill="#007BFF"/>
<path d="M44.6086 44.8958V46.3917C44.3606 46.5597 44.1046 46.7037 43.8806 46.8797C43.3689 47.2567 42.9561 47.7519 42.6775 48.3231C42.3989 48.8943 42.2627 49.5245 42.2806 50.1597C42.2892 50.4824 42.3514 50.8015 42.4646 51.1037C42.6827 51.6988 43.045 52.2304 43.519 52.6511C43.993 53.0718 44.5639 53.3683 45.1806 53.5142C45.7973 53.66 46.4406 53.6506 47.0528 53.4869C47.6651 53.3231 48.2271 53.0101 48.6886 52.5757C49.0878 52.2266 49.4077 51.7961 49.6269 51.3132C49.8461 50.8303 49.9595 50.3061 49.9595 49.7758C49.9595 49.2454 49.8461 48.7212 49.6269 48.2383C49.4077 47.7554 49.0878 47.3249 48.6886 46.9758C48.5766 46.8638 48.4486 46.7598 48.3126 46.6398V45.0398C48.5132 45.0726 48.7092 45.129 48.8966 45.2078C49.9161 45.7933 50.7079 46.7061 51.1435 47.7981C51.5792 48.8901 51.6331 50.0972 51.2966 51.2237C51.0039 52.2838 50.3999 53.2316 49.5627 53.9447C48.7256 54.6578 47.6937 55.1034 46.6006 55.2237C46.0203 55.2898 45.4325 55.2381 44.8726 55.0717C44.0521 54.8715 43.2885 54.4856 42.6406 53.9437C41.9215 53.4056 41.3679 52.6764 41.0426 51.8392C40.7173 51.0019 40.6335 50.0903 40.8006 49.2078C40.9281 48.2369 41.3235 47.3208 41.9424 46.562C42.5613 45.8032 43.3792 45.2318 44.3046 44.9117C44.4054 44.8983 44.507 44.8929 44.6086 44.8958Z" fill="#007BFF"/>
<path d="M46.9608 39.6399C45.4889 39.5182 44.0912 38.9423 42.9608 37.9919C42.8323 37.8954 42.7259 37.7727 42.6488 37.6319C42.5778 37.5071 42.5466 37.3636 42.5595 37.2206C42.5723 37.0776 42.6286 36.942 42.7208 36.8319C42.8115 36.6962 42.9456 36.5954 43.1012 36.546C43.2567 36.4966 43.4244 36.5015 43.5768 36.5599C43.7784 36.6593 43.9735 36.7715 44.1608 36.8959C44.6088 37.1519 45.0488 37.4239 45.5128 37.6479C46.4544 38.1112 47.5405 38.1859 48.5368 37.8559C48.9928 37.7039 49.4408 37.5119 49.8808 37.3279C50.0888 37.2399 50.2808 37.1119 50.4888 37.0239C50.6734 36.9202 50.8916 36.894 51.0956 36.951C51.2995 37.008 51.4726 37.1435 51.5768 37.3279C51.6679 37.5014 51.6922 37.7023 51.645 37.8925C51.5978 38.0828 51.4824 38.2491 51.3208 38.3599L51.1608 38.4719C49.8944 39.239 48.4414 39.6431 46.9608 39.6399Z" fill="#007BFF"/>
<path d="M47.2409 46.952C47.2409 47.6 47.2409 48.248 47.1769 48.888C47.1747 49.1169 47.1478 49.3448 47.0969 49.568C47.0696 49.7549 46.973 49.9247 46.8262 50.0437C46.6794 50.1626 46.4932 50.2219 46.3047 50.2098C46.1161 50.1977 45.9391 50.1151 45.8087 49.9784C45.6783 49.8417 45.6041 49.6609 45.6009 49.472C45.5809 49.2458 45.5809 49.0182 45.6009 48.792C45.6489 47.432 45.7129 46.072 45.7689 44.712C45.7567 44.5843 45.7567 44.4557 45.7689 44.328C45.8046 44.1526 45.8981 43.9941 46.0344 43.8781C46.1707 43.7621 46.342 43.6951 46.5209 43.688C46.6984 43.6969 46.8679 43.7646 47.0026 43.8805C47.1373 43.9964 47.2296 44.1538 47.2649 44.328C47.2809 44.5223 47.2809 44.7176 47.2649 44.912L47.1929 46.952H47.2409Z" fill="#007BFF"/>
<path d="M39.2012 11.0559C39.442 10.3015 39.8821 9.626 40.4749 9.10081C41.0676 8.57561 41.7912 8.22015 42.5692 8.07191C43.6537 7.8709 44.7542 7.76914 45.8572 7.76791C48.2197 7.6482 50.5868 7.88007 52.8812 8.45591C53.6978 8.66309 54.4795 8.98925 55.2012 9.42391C55.9621 9.86479 56.5621 10.5376 56.9132 11.3439C56.9498 11.456 56.9766 11.5711 56.9932 11.6879C56.2812 11.5679 55.6732 11.2559 55.0332 11.0879C54.3932 10.9199 53.7852 10.7279 53.1612 10.5919C52.5372 10.4559 51.8252 10.3199 51.1532 10.2159C50.4812 10.1119 49.8652 10.0639 49.2252 10.0239C48.5852 9.98391 47.8652 9.98391 47.1852 10.0239C46.5052 10.0639 45.8892 10.0239 45.2412 10.0959C44.5932 10.1679 43.8892 10.2479 43.2172 10.3439C42.5452 10.4399 41.9372 10.5519 41.3052 10.6719C40.611 10.8363 39.9087 10.9645 39.2012 11.0559Z" fill="#007BFF"/>
<path d="M54.1692 29.7996C54.1931 30.4154 54.0581 31.0271 53.7772 31.5756C53.6115 31.8871 53.4013 32.1728 53.1532 32.4236C53.0197 32.5659 52.8567 32.6774 52.6757 32.7503C52.4947 32.8233 52.3 32.856 52.1051 32.8461C51.9102 32.8362 51.7198 32.784 51.5472 32.693C51.3745 32.6021 51.2237 32.4747 51.1052 32.3196C50.8538 32.0256 50.661 31.6861 50.5372 31.3196C50.3755 30.8442 50.3093 30.3416 50.3422 29.8405C50.3752 29.3394 50.5067 28.8498 50.7292 28.3996C50.8988 28.0525 51.1322 27.7404 51.4172 27.4796C51.5485 27.3475 51.7059 27.2442 51.8794 27.1764C52.0529 27.1087 52.2386 27.078 52.4247 27.0863C52.6108 27.0946 52.7931 27.1417 52.9599 27.2246C53.1266 27.3075 53.2743 27.4243 53.3932 27.5676C53.8068 28.0292 54.0667 28.6079 54.1372 29.2236C54.1601 29.4147 54.1708 29.6071 54.1692 29.7996Z" fill="white"/>
<path d="M40.7369 29.6796C40.7092 28.932 40.9072 28.1933 41.3049 27.5596C41.4398 27.2792 41.6493 27.0414 41.9103 26.872C42.1713 26.7027 42.4739 26.6085 42.7849 26.5996C43.1131 26.6212 43.4266 26.7434 43.6828 26.9495C43.9391 27.1556 44.1256 27.4357 44.2169 27.7516C44.4797 28.3434 44.5931 28.9907 44.5471 29.6365C44.501 30.2824 44.297 30.9071 43.9529 31.4556C43.9034 31.5395 43.8443 31.6173 43.7769 31.6876C43.6345 31.9079 43.4355 32.0859 43.2008 32.203C42.966 32.32 42.7041 32.3719 42.4425 32.3531C42.1808 32.3343 41.9291 32.2455 41.7135 32.0961C41.4979 31.9466 41.3264 31.742 41.2169 31.5036C40.8873 30.9534 40.7208 30.3208 40.7369 29.6796Z" fill="white"/>
</svg>
