<svg width="73" height="77" viewBox="0 0 73 77" fill="none" xmlns="http://www.w3.org/2000/svg">
<g filter="url(#filter0_d_2_20381)">
<path d="M34.5361 41.3282V37.3282C34.5247 37.1832 34.4833 37.0422 34.4144 36.9141C34.3456 36.786 34.2508 36.6737 34.1361 36.5842L31.7361 34.1842C31.5761 34.0242 31.4081 33.8722 31.2641 33.6962C31.1263 33.5791 31.0166 33.4323 30.9435 33.2668C30.8703 33.1014 30.8355 32.9215 30.8416 32.7407C30.8478 32.5599 30.8948 32.3828 30.979 32.2227C31.0633 32.0626 31.1826 31.9236 31.3281 31.8162C32.1281 30.8642 33.0241 29.9362 33.8801 28.9922C34.0614 28.8071 34.2324 28.6121 34.3921 28.4082C34.4857 28.2794 34.5412 28.127 34.5521 27.9682C34.5521 26.9282 34.5521 25.8882 34.5521 24.8402C34.225 24.6705 33.8644 24.5749 33.4961 24.5602C30.5294 24.0587 27.8592 22.461 26.0149 20.0836C24.1705 17.7063 23.2866 14.7229 23.5382 11.7245C23.7898 8.72617 25.1586 5.93177 27.3734 3.89507C29.5882 1.85838 32.4873 0.728027 35.4961 0.728027C38.505 0.728027 41.4041 1.85838 43.6189 3.89507C45.8337 5.93177 47.2025 8.72617 47.4541 11.7245C47.7057 14.7229 46.8218 17.7063 44.9774 20.0836C43.1331 22.461 40.4629 24.0587 37.4962 24.5602L36.2001 24.7282C36.1558 24.9395 36.1238 25.1532 36.1041 25.3682C36.1041 26.1122 36.1041 26.8642 36.1041 27.6082C36.0932 27.7854 36.122 27.9629 36.1884 28.1276C36.2549 28.2923 36.3573 28.4401 36.4881 28.5602C37.4561 29.5602 38.4161 30.5762 39.3761 31.5922C39.5639 31.7741 39.7352 31.9722 39.8881 32.1842C40.0231 32.3317 40.0979 32.5243 40.0979 32.7242C40.0979 32.9241 40.0231 33.1167 39.8881 33.2642C39.72 33.4631 39.541 33.6528 39.3521 33.8322C38.4482 34.7202 37.5601 35.6242 36.6321 36.4962C36.4595 36.641 36.3232 36.8242 36.2343 37.0313C36.1454 37.2383 36.1063 37.4633 36.1201 37.6882C36.1761 38.8562 36.1761 40.0242 36.1921 41.1682C36.7601 41.7442 45.5042 47.9842 47.2402 49.0642C47.6082 49.0642 47.7521 48.7042 47.9761 48.4882C50.0942 46.3538 52.9428 45.102 55.9475 44.9852C58.9522 44.8685 61.8894 45.8955 64.1667 47.8591C66.4439 49.8227 67.8919 52.5768 68.2185 55.5659C68.5451 58.5551 67.7261 61.5569 65.9265 63.9659C64.127 66.375 61.4809 68.012 58.5219 68.5468C55.5629 69.0817 52.5112 68.4746 49.9822 66.8479C47.4532 65.2213 45.6351 62.6962 44.8946 59.7818C44.1542 56.8675 44.5464 53.7807 45.9921 51.1442C46.0961 50.9442 46.2081 50.7522 46.3121 50.5442C46.3121 50.5442 46.3121 50.4882 46.3121 50.4562C45.7761 49.9362 36.8321 43.5602 35.4881 42.7442C35.3213 42.8096 35.1606 42.8899 35.0081 42.9842L26.4241 49.3202C26.2961 49.4162 26.1761 49.5282 26.0081 49.6722L26.4641 50.4722C27.6909 52.6731 28.1906 55.2053 27.8921 57.7072C27.5935 60.2091 26.5119 62.5527 24.8018 64.4031C23.0917 66.2535 20.8405 67.5162 18.3698 68.0107C15.8992 68.5051 13.3355 68.2062 11.0449 67.1564C8.75431 66.1067 6.85408 64.3599 5.61564 62.1656C4.3772 59.9713 3.8639 57.4418 4.14908 54.9383C4.43425 52.4349 5.50331 50.0856 7.20354 48.226C8.90376 46.3665 11.1482 45.0919 13.6161 44.5842C15.5026 44.1674 17.4632 44.2271 19.3208 44.7579C21.1784 45.2886 22.8746 46.2737 24.2561 47.6242C24.4721 47.8162 24.6801 48.0242 24.8881 48.2242C24.9303 48.2538 24.9759 48.278 25.0241 48.2962C25.186 48.2247 25.3413 48.139 25.4881 48.0402C28.3681 45.9069 31.2401 43.7735 34.1041 41.6402C34.2641 41.5762 34.4001 41.4402 34.5361 41.3282ZM14.7681 57.3282C14.5361 57.5762 14.3521 57.8002 14.1441 58.0002L11.1521 60.9362C10.9599 61.1097 10.7832 61.2998 10.6241 61.5042C10.5016 61.6371 10.4335 61.8114 10.4335 61.9922C10.4335 62.173 10.5016 62.3472 10.6241 62.4802C10.7495 62.6091 10.9168 62.6888 11.0958 62.705C11.2749 62.7211 11.4538 62.6726 11.6001 62.5682C11.8112 62.4172 12.0068 62.2457 12.1841 62.0562L15.1761 59.1282C15.4081 58.9042 15.6481 58.6882 15.9121 58.4482L16.7121 59.1362C17.2801 59.6722 17.8401 60.2082 18.4161 60.7362C18.5733 60.9002 18.7447 61.0502 18.9281 61.1842C19.0728 61.298 19.2541 61.3548 19.4378 61.3439C19.6215 61.333 19.7948 61.2551 19.9249 61.1249C20.055 60.9948 20.1329 60.8215 20.1438 60.6378C20.1548 60.4541 20.0979 60.2728 19.9841 60.1282C19.8826 60.0013 19.7702 59.8835 19.6481 59.7762C19.3441 59.4802 19.0321 59.2002 18.7281 58.9122L17.0641 57.3122L17.7841 56.5922L21.4641 52.9682C21.6772 52.7683 21.8676 52.5456 22.0321 52.3042C22.1065 52.1572 22.1287 51.9893 22.0953 51.828C22.0619 51.6667 21.9748 51.5215 21.8482 51.4162C21.7422 51.3171 21.607 51.255 21.4628 51.2392C21.3186 51.2233 21.1731 51.2545 21.0481 51.3282C20.8107 51.4949 20.5885 51.6823 20.3841 51.8882L16.6001 55.6002C16.3921 55.8002 16.1761 55.9922 15.9281 56.2162C15.7121 56.0402 15.5041 55.8882 15.3201 55.7122L12.5441 53.1122C12.387 52.9481 12.2156 52.7982 12.0321 52.6642C11.8904 52.5295 11.7014 52.4561 11.5059 52.4597C11.3105 52.4633 11.1243 52.5437 10.9877 52.6835C10.851 52.8233 10.7749 53.0113 10.7757 53.2068C10.7766 53.4023 10.8543 53.5896 10.9921 53.7282C11.1379 53.9043 11.2985 54.0675 11.4721 54.2162L13.3121 55.9602L14.7681 57.3282ZM39.6481 9.25619C39.7037 8.21705 39.3522 7.19715 38.6681 6.41298C37.984 5.62881 37.0212 5.14211 35.9841 5.05619C35.1255 4.98366 34.2651 5.17449 33.5176 5.60326C32.7701 6.03202 32.171 6.67837 31.8001 7.45619C31.7177 7.63106 31.6611 7.81701 31.6321 8.00818C31.6048 8.17464 31.6362 8.34542 31.7208 8.49133C31.8054 8.63724 31.9381 8.74924 32.0961 8.80818C32.2477 8.86954 32.4152 8.87928 32.5728 8.8359C32.7304 8.79252 32.8694 8.69843 32.9681 8.56818C33.0819 8.41236 33.181 8.24632 33.2641 8.07219C33.5112 7.57157 33.9133 7.16409 34.4106 6.9104C34.9079 6.65671 35.4738 6.57035 36.0241 6.66419C36.5163 6.69334 36.9822 6.89567 37.3394 7.23535C37.6967 7.57504 37.9222 8.03017 37.9761 8.52019C38.1264 8.97089 38.1106 9.46045 37.9316 9.90054C37.7527 10.3406 37.4223 10.7023 37.0001 10.9202C36.7201 11.0882 36.4321 11.2482 36.1441 11.3922C35.6019 11.6591 35.1431 12.0694 34.8174 12.5784C34.4916 13.0875 34.3114 13.676 34.2961 14.2802C34.2646 14.5031 34.2646 14.7293 34.2961 14.9522C34.335 15.1172 34.4284 15.2642 34.5613 15.3694C34.6941 15.4747 34.8587 15.5319 35.0282 15.5319C35.1976 15.5319 35.3622 15.4747 35.495 15.3694C35.6279 15.2642 35.7213 15.1172 35.7601 14.9522C35.8123 14.7315 35.8444 14.5066 35.8561 14.2802C35.8698 13.9539 35.9745 13.6379 36.1583 13.3679C36.342 13.0979 36.5976 12.8846 36.8961 12.7522C37.2402 12.5762 37.5761 12.3762 37.9121 12.1762C38.4321 11.8844 38.8663 11.4611 39.171 10.9485C39.4757 10.436 39.6402 9.85238 39.6481 9.25619ZM56.9361 60.7362L56.0001 60.2882C54.8481 59.6882 53.7041 59.0722 52.5441 58.4802C52.3197 58.3562 52.0765 58.2697 51.8241 58.2242C51.6769 58.2026 51.5267 58.231 51.3976 58.305C51.2685 58.379 51.1679 58.4942 51.1121 58.6322C51.0438 58.7608 51.0186 58.9079 51.0402 59.052C51.0619 59.196 51.1291 59.3293 51.2321 59.4322C51.4281 59.6042 51.646 59.7494 51.8801 59.8642L56.4561 62.2642C56.5666 62.3307 56.6815 62.3896 56.8001 62.4402C56.921 62.5104 57.0559 62.5529 57.1951 62.5647C57.3344 62.5764 57.4745 62.5571 57.6054 62.5081C57.7363 62.4591 57.8546 62.3817 57.952 62.2814C58.0493 62.1811 58.1231 62.0605 58.1681 61.9282C58.2161 61.8402 58.2401 61.7442 58.2801 61.6562L61.9521 52.2162C62.0274 52.0359 62.0837 51.8482 62.1201 51.6562C62.1525 51.4867 62.1242 51.3113 62.0404 51.1606C61.9565 51.0098 61.8224 50.8933 61.6614 50.8314C61.5004 50.7694 61.3227 50.766 61.1595 50.8217C60.9962 50.8775 60.8577 50.9887 60.7681 51.1362C60.6139 51.4223 60.4802 51.719 60.3681 52.0242L57.3282 59.8242C57.2161 60.1202 57.0801 60.4002 56.9361 60.7362ZM35.3201 29.7602C34.3324 30.6788 33.4275 31.6826 32.6161 32.7602C33.446 33.7526 34.3793 34.6537 35.4001 35.4482C36.4231 34.6253 37.3491 33.6886 38.1601 32.6562C37.3189 31.5928 36.3669 30.622 35.3201 29.7602ZM36.0161 18.1442C36.0084 18.0385 35.9896 17.934 35.9601 17.8322C35.9007 17.6285 35.7628 17.4568 35.5768 17.3547C35.3908 17.2527 35.1718 17.2288 34.9681 17.2882C34.7692 17.3589 34.6063 17.5053 34.5148 17.6957C34.4234 17.886 34.411 18.1047 34.4801 18.3042C34.5197 18.4287 34.5763 18.5471 34.6481 18.6562C34.7388 18.7902 34.8703 18.8914 35.0231 18.9447C35.1759 18.998 35.3418 19.0006 35.4961 18.9522C35.6586 18.892 35.7972 18.7807 35.891 18.635C35.9847 18.4892 36.0287 18.317 36.0161 18.1442Z" fill="white"/>
<path d="M14.7678 57.328L13.3118 55.952L11.4718 54.208C11.2982 54.0594 11.1376 53.8961 10.9918 53.72C10.854 53.5814 10.7762 53.3941 10.7754 53.1986C10.7746 53.0031 10.8507 52.8152 10.9873 52.6754C11.124 52.5356 11.3102 52.4552 11.5056 52.4515C11.7011 52.4479 11.8901 52.5214 12.0318 52.656C12.2153 52.79 12.3866 52.9399 12.5438 53.104L15.3198 55.704C15.5038 55.88 15.7118 56.032 15.9278 56.208C16.1758 55.984 16.3918 55.792 16.5998 55.592L20.3598 51.904C20.5642 51.6981 20.7864 51.5107 21.0238 51.344C21.1488 51.2704 21.2943 51.2391 21.4385 51.255C21.5827 51.2709 21.7178 51.333 21.8238 51.432C21.9504 51.5374 22.0376 51.6826 22.071 51.8439C22.1044 52.0052 22.0821 52.173 22.0078 52.32C21.8433 52.5614 21.6528 52.7841 21.4398 52.984L17.7998 56.608L17.0798 57.328L18.7438 58.928C19.0478 59.216 19.3598 59.496 19.6638 59.792C19.7859 59.8993 19.8983 60.0171 19.9998 60.144C20.1399 60.2872 20.2173 60.4802 20.215 60.6805C20.2128 60.8808 20.131 61.072 19.9878 61.212C19.8446 61.352 19.6516 61.4295 19.4513 61.4272C19.251 61.425 19.0599 61.3432 18.9198 61.2C18.7363 61.066 18.565 60.9161 18.4078 60.752C17.8318 60.224 17.2718 59.688 16.7038 59.152L15.9038 58.464C15.6398 58.704 15.3998 58.92 15.1678 59.144L12.1998 62.056C12.0225 62.2455 11.8269 62.417 11.6158 62.568C11.4695 62.6724 11.2906 62.721 11.1115 62.7048C10.9325 62.6887 10.7651 62.6089 10.6398 62.48C10.5173 62.3471 10.4492 62.1728 10.4492 61.992C10.4492 61.8112 10.5173 61.637 10.6398 61.504C10.7989 61.2996 10.9756 61.1096 11.1678 60.936L14.1438 58C14.3518 57.8 14.5358 57.576 14.7678 57.328Z" fill="#007BFF"/>
<path d="M39.6477 9.25599C39.648 9.85234 39.4915 10.4383 39.1938 10.955C38.8961 11.4718 38.4678 11.9011 37.9517 12.2C37.6157 12.4 37.2797 12.6 36.9357 12.776C36.6372 12.9084 36.3816 13.1217 36.1978 13.3917C36.0141 13.6617 35.9094 13.9777 35.8957 14.304C35.884 14.5304 35.8518 14.7553 35.7997 14.976C35.7609 15.141 35.6675 15.288 35.5346 15.3932C35.4017 15.4985 35.2372 15.5557 35.0677 15.5557C34.8982 15.5557 34.7337 15.4985 34.6008 15.3932C34.468 15.288 34.3745 15.141 34.3357 14.976C34.3042 14.7531 34.3042 14.5269 34.3357 14.304C34.3509 13.6998 34.5312 13.1113 34.8569 12.6022C35.1827 12.0932 35.6415 11.6829 36.1837 11.416C36.4717 11.272 36.7597 11.112 37.0397 10.944C37.4619 10.7261 37.7922 10.3644 37.9712 9.92434C38.1502 9.48425 38.166 8.99469 38.0157 8.54399C37.9618 8.05398 37.7363 7.59884 37.379 7.25916C37.0218 6.91947 36.5558 6.71714 36.0637 6.68799C35.5134 6.59416 34.9475 6.68051 34.4502 6.9342C33.9529 7.1879 33.5508 7.59537 33.3037 8.09599C33.2206 8.27012 33.1215 8.43617 33.0077 8.59199C32.9089 8.72224 32.77 8.81632 32.6124 8.8597C32.4548 8.90308 32.2872 8.89334 32.1357 8.83199C31.9777 8.77305 31.845 8.66105 31.7604 8.51513C31.6757 8.36922 31.6444 8.19844 31.6717 8.03199C31.7006 7.84081 31.7572 7.65486 31.8397 7.47999C32.2106 6.70217 32.8097 6.05583 33.5572 5.62706C34.3047 5.1983 35.1651 5.00746 36.0237 5.07999C37.0492 5.1756 37.9984 5.66312 38.6734 6.44101C39.3485 7.2189 39.6975 8.22722 39.6477 9.25599Z" fill="#007BFF"/>
<path d="M56.9366 60.7361C57.0806 60.4001 57.2166 60.1201 57.3286 59.8241L60.3686 52.0241C60.4807 51.719 60.6143 51.4222 60.7686 51.1361C60.8582 50.9887 60.9967 50.8774 61.16 50.8217C61.3232 50.766 61.5009 50.7694 61.6619 50.8313C61.8229 50.8932 61.957 51.0097 62.0409 51.1605C62.1247 51.3112 62.1529 51.4867 62.1206 51.6561C62.0842 51.8481 62.0279 52.0358 61.9526 52.2161L58.2806 61.6561C58.2806 61.7441 58.2166 61.8401 58.1686 61.9281C58.1236 62.0604 58.0498 62.181 57.9524 62.2813C57.8551 62.3816 57.7368 62.4591 57.6059 62.508C57.475 62.557 57.3349 62.5763 57.1956 62.5646C57.0564 62.5528 56.9215 62.5103 56.8006 62.4401C56.682 62.3895 56.5671 62.3307 56.4566 62.2641L51.8806 59.8641C51.6465 59.7494 51.4286 59.6041 51.2326 59.4321C51.1296 59.3292 51.0623 59.1959 51.0407 59.0519C51.0191 58.9079 51.0443 58.7607 51.1126 58.6321C51.1684 58.4942 51.2689 58.3789 51.3981 58.305C51.5272 58.231 51.6774 58.2025 51.8246 58.2241C52.077 58.2696 52.3202 58.3561 52.5446 58.4801C53.7046 59.0721 54.8486 59.6881 56.0006 60.2881L56.9366 60.7361Z" fill="#007BFF"/>
<path d="M35.3203 29.7603C36.353 30.6243 37.2915 31.595 38.1203 32.6563C37.3217 33.6864 36.4092 34.6231 35.4003 35.4483C34.3933 34.6516 33.4735 33.7505 32.6562 32.7603C33.4549 31.6844 34.3464 30.6805 35.3203 29.7603Z" fill="#007BFF"/>
<path d="M36.0157 18.144C36.0265 18.3156 35.9817 18.486 35.888 18.6301C35.7944 18.7741 35.6568 18.8842 35.4957 18.944C35.3413 18.9925 35.1754 18.9899 35.0227 18.9366C34.8699 18.8832 34.7384 18.7821 34.6477 18.648C34.5758 18.539 34.5193 18.4205 34.4797 18.296C34.4105 18.0966 34.423 17.8778 34.5144 17.6875C34.6058 17.4972 34.7688 17.3507 34.9677 17.28C35.1714 17.2206 35.3904 17.2446 35.5764 17.3466C35.7624 17.4486 35.9003 17.6204 35.9597 17.824C35.9898 17.9284 36.0085 18.0357 36.0157 18.144Z" fill="#007BFF"/>
</g>
<defs>
<filter id="filter0_d_2_20381" x="0.0722656" y="0.728027" width="72.2168" height="76.0083" filterUnits="userSpaceOnUse" color-interpolation-filters="sRGB">
<feFlood flood-opacity="0" result="BackgroundImageFix"/>
<feColorMatrix in="SourceAlpha" type="matrix" values="0 0 0 0 0 0 0 0 0 0 0 0 0 0 0 0 0 0 127 0" result="hardAlpha"/>
<feOffset dy="4"/>
<feGaussianBlur stdDeviation="2"/>
<feComposite in2="hardAlpha" operator="out"/>
<feColorMatrix type="matrix" values="0 0 0 0 0 0 0 0 0 0 0 0 0 0 0 0 0 0 0.25 0"/>
<feBlend mode="normal" in2="BackgroundImageFix" result="effect1_dropShadow_2_20381"/>
<feBlend mode="normal" in="SourceGraphic" in2="effect1_dropShadow_2_20381" result="shape"/>
</filter>
</defs>
</svg>
