<svg width="66" height="60" viewBox="0 0 66 60" fill="none" xmlns="http://www.w3.org/2000/svg">
<path d="M55.792 33.6079C55.992 33.6799 56.112 33.7279 56.24 33.7599C60.64 34.8959 63.472 37.6879 64.832 41.9839C65.512 44.1279 65.632 46.3199 65.192 48.5279C64.552 51.7199 62.824 54.2079 60.12 55.9759C57.128 57.9279 53.84 58.5439 50.328 57.8159C48.936 57.5279 47.688 56.9119 46.552 56.0799C45.448 55.2719 44.472 54.3119 43.608 53.2559C43.4 53.0079 43.2 52.7519 43.016 52.5199C42.64 52.4559 42.344 52.5919 42.04 52.6799C35.616 54.5359 29.184 56.4079 22.752 58.2479C21.6 58.5759 20.424 58.8399 19.248 59.0799C18.352 59.2639 17.44 59.2479 16.536 59.0559C15.48 58.8319 14.6 58.3199 13.856 57.5599C13.28 56.9759 12.816 56.3119 12.416 55.5999C11.696 54.3119 11.168 52.9599 10.872 51.5199C10.792 51.1439 10.744 50.7519 10.536 50.4239C10.088 50.4239 9.67204 50.4159 9.25604 50.4239C8.62404 50.4319 8.03204 50.3039 7.47204 50.0159C6.40004 49.4559 5.94404 48.5359 6.17604 47.3519C6.36004 46.4159 6.86404 45.6719 7.60004 45.0959C8.00804 44.7759 8.45604 44.5119 8.93604 44.1919C9.04804 43.6239 8.68804 43.1199 8.64804 42.4959C8.38404 42.5199 8.20004 42.5439 8.02404 42.5599C7.50404 42.5919 6.99204 42.6319 6.47204 42.6559C6.31204 42.6639 6.14404 42.6479 5.98404 42.6079C3.72004 42.1279 3.14404 40.3919 4.02404 38.6639C4.45604 37.8239 5.13604 37.2319 5.93604 36.7759C6.27204 36.5839 6.61604 36.4159 6.97604 36.2319C6.97604 35.6159 6.80004 35.0719 6.56804 34.5119C6.10404 34.5679 5.65604 34.6399 5.20804 34.6799C4.52004 34.7439 3.84004 34.6879 3.20004 34.4159C1.86404 33.8559 1.32004 32.7119 1.72804 31.3279C1.94404 30.5919 2.35204 29.9599 2.95204 29.4879C3.38404 29.1439 3.86404 28.8719 4.33604 28.5839C4.55204 28.4479 4.78404 28.3439 5.03204 28.2159C4.95204 27.6079 4.85604 27.0479 4.58404 26.4719C4.34404 26.5039 4.12804 26.5359 3.90404 26.5679C3.08004 26.6879 2.28004 26.6079 1.52004 26.2639C0.272038 25.6959 -0.223963 24.6239 0.128037 23.3039C0.376037 22.3839 0.920036 21.6719 1.68004 21.1279C2.09604 20.8239 2.56004 20.5759 3.05604 20.2719C3.04804 20.1199 3.06404 19.9279 3.01604 19.7519C2.62404 18.2079 2.23204 16.6719 1.81604 15.1359C1.57604 14.2479 1.43204 13.3599 1.49604 12.4399C1.59204 11.0239 2.19204 9.89588 3.34404 9.05588C4.06404 8.52788 4.86404 8.18387 5.71204 7.93587C7.58404 7.39987 9.45604 6.84788 11.344 6.35988C17.04 4.90388 22.744 3.48788 28.448 2.04788C30.176 1.60788 31.896 1.11187 33.624 0.679874C34.44 0.479874 35.28 0.343877 36.12 0.247877C38.032 0.0238768 39.552 0.735875 40.672 2.29587C40.784 2.45587 40.888 2.62388 40.992 2.78388C41.096 2.94388 41.192 3.11188 41.32 3.31188C41.648 3.26388 41.968 3.23987 42.28 3.16788C43.048 2.99988 43.832 2.97588 44.608 3.04788C46.112 3.18388 47.28 3.87188 47.912 5.27188C48.232 5.97588 48.512 6.71988 48.688 7.47188C50.216 14.0159 52.064 20.4799 53.856 26.9599C54.408 28.9599 54.992 30.9599 55.568 32.9519C55.632 33.1439 55.712 33.3519 55.792 33.6079ZM53.144 56.5519C59.736 56.4079 64.128 51.2959 64 45.4319C63.896 40.5759 59.896 34.7679 52.896 34.9999C46.912 35.1999 42.336 40.2239 42.464 46.0399C42.6 51.8959 47.768 56.7119 53.144 56.5519ZM32.64 42.5999C32.952 42.5599 33.536 42.5119 34.112 42.4079C35.504 42.1599 36.8 41.6559 37.984 40.8879C38.648 40.4639 39.232 39.9519 39.664 39.2799C40.192 38.4639 40.216 37.6239 39.672 36.8079C39.424 36.4319 39.128 36.0639 38.784 35.7839C37.6 34.8239 36.376 33.9039 35.168 32.9759C34.656 32.5839 34.104 32.5599 33.512 32.7759C32.976 32.9679 32.544 33.2879 32.104 33.6319C31.592 34.0319 31.088 34.4399 30.552 34.7999C29.792 35.3119 28.968 35.3439 28.136 34.9839C27.72 34.7999 27.32 34.5759 26.952 34.3119C26.536 34.0079 26.136 33.6639 25.784 33.2879C24.472 31.8799 23.328 30.3439 22.376 28.6719C22.008 28.0239 21.72 27.3359 21.528 26.6079C21.28 25.6799 21.456 24.8639 22.192 24.2159C22.68 23.7839 23.184 23.3759 23.68 22.9599C24.048 22.6399 24.432 22.3359 24.776 21.9999C25.336 21.4559 25.48 20.7679 25.304 20.0239C25.24 19.7439 25.128 19.4639 25.016 19.1999C24.768 18.5999 24.488 18.0079 24.264 17.3999C23.896 16.4159 23.304 15.5599 22.712 14.7119C22.104 13.8399 20.944 13.7519 20.28 14.1439C19.296 14.7279 18.36 15.3599 17.536 16.1519C16.408 17.2399 15.656 18.5439 15.24 20.0479C14.856 21.4159 14.84 22.8079 15.08 24.1999C15.336 25.6479 15.816 27.0239 16.44 28.3519C17.512 30.6239 18.8 32.7599 20.328 34.7519C21.544 36.3279 22.888 37.7759 24.424 39.0399C25.832 40.1999 27.344 41.2079 29.048 41.8959C30.112 42.3279 31.216 42.5759 32.64 42.5999ZM54.032 33.3279C53.792 32.4719 53.56 31.6639 53.336 30.8479C51.184 23.1919 48.976 15.5519 47.152 7.79988C47 7.14388 46.728 6.50387 46.464 5.87987C46.184 5.19987 45.632 4.79988 44.92 4.66388C43.92 4.47188 42.928 4.51188 41.968 4.87188C42.104 5.90388 49.376 33.1679 49.728 33.9679C51.128 33.7599 52.528 33.5519 54.032 33.3279ZM5.43204 29.8479C4.72804 30.0399 4.21604 30.3759 3.80004 30.8399C3.58404 31.0719 3.40004 31.3599 3.28804 31.6479C3.02404 32.3199 3.25604 32.7759 3.95204 32.9919C4.48804 33.1599 5.04004 33.1199 5.58404 33.0239C5.79204 32.9919 5.98404 32.8639 6.20004 32.7759C5.95204 31.7919 5.78404 30.8399 5.43204 29.8479ZM8.19204 40.7999C7.96804 39.9039 7.77604 39.0879 7.56004 38.2719C7.52004 38.1279 7.42404 38.0079 7.34404 37.8639C6.75204 38.0399 6.28004 38.3279 5.90404 38.7359C5.66404 38.9919 5.45604 39.3039 5.32004 39.6239C5.04804 40.2559 5.24804 40.7039 5.91204 40.9279C6.63204 41.1679 7.36804 41.1439 8.19204 40.7999ZM3.52804 21.8719C2.88004 22.1119 2.43204 22.4159 2.10404 22.8639C1.89604 23.1439 1.74404 23.4799 1.64004 23.8079C1.51204 24.1919 1.64804 24.5039 2.02404 24.7039C2.74404 25.0799 3.47204 25.1679 4.24804 24.7519C4.00004 23.8079 3.77604 22.9039 3.52804 21.8719ZM9.43204 45.7919C8.66404 46.1439 8.16804 46.5759 7.85604 47.2079C7.78404 47.3519 7.74404 47.5119 7.71204 47.6719C7.64004 48.0879 7.76004 48.3759 8.12004 48.5679C8.74404 48.8959 9.39204 48.9439 10.072 48.6959C10.072 48.5519 10.088 48.4559 10.072 48.3599C9.88004 47.5519 9.67204 46.7359 9.43204 45.7919Z" fill="white"/>
<path d="M53.1434 56.5519C47.7754 56.7119 42.5994 51.8959 42.4714 46.0399C42.3434 40.2239 46.9194 35.1999 52.9034 34.9999C59.8954 34.7679 63.9034 40.5759 64.0074 45.4319C64.1274 51.2879 59.7354 56.4079 53.1434 56.5519ZM56.4394 46.5999C56.3034 46.8079 56.2794 46.8719 56.2314 46.9199C55.9914 47.1359 55.7434 47.3519 55.5034 47.5679C55.2394 47.8079 54.9594 48.0319 54.7194 48.2959C54.4634 48.5919 54.4874 49.0159 54.7194 49.2799C54.9594 49.5599 55.3754 49.6479 55.6874 49.3919C56.8074 48.4559 57.9274 47.5039 58.9914 46.5119C59.4474 46.0879 59.3754 45.5039 58.9514 45.0159C58.8634 44.9199 58.7674 44.8319 58.6714 44.7439C57.7034 43.9199 56.7434 43.0959 55.7754 42.2799C55.6074 42.1359 55.3994 42.0159 55.1914 41.9359C54.9194 41.8319 54.6794 41.9439 54.4874 42.1439C54.2954 42.3439 54.1994 42.5999 54.3274 42.8559C54.4234 43.0559 54.5674 43.2479 54.7274 43.3919C55.1594 43.7839 55.6154 44.1519 56.0554 44.5439C56.1674 44.6399 56.2394 44.7679 56.3994 44.9599C56.1434 44.9999 55.9914 45.0399 55.8394 45.0479C55.4154 45.0719 54.9914 45.0799 54.5754 45.0879C52.7194 45.1199 50.8714 45.1439 49.0154 45.1759C48.7274 45.1839 48.4314 45.1999 48.1514 45.2639C47.7514 45.3599 47.5514 45.6879 47.5994 46.0639C47.6474 46.3999 47.8794 46.6399 48.2474 46.6879C48.4714 46.7199 48.7034 46.7119 48.9274 46.7119C51.1354 46.6719 53.3514 46.6319 55.5594 46.5839C55.8074 46.5999 56.0554 46.5999 56.4394 46.5999Z" fill="#007BFF"/>
<path d="M32.6406 42.5998C31.2166 42.5838 30.1126 42.3278 29.0486 41.9038C27.3446 41.2158 25.8326 40.2078 24.4246 39.0478C22.8886 37.7838 21.5366 36.3358 20.3286 34.7598C18.8006 32.7678 17.5126 30.6318 16.4406 28.3598C15.8166 27.0318 15.3286 25.6558 15.0806 24.2078C14.8406 22.8158 14.8566 21.4238 15.2406 20.0558C15.6566 18.5598 16.4086 17.2478 17.5366 16.1598C18.3606 15.3678 19.2966 14.7358 20.2806 14.1518C20.9446 13.7598 22.0966 13.8478 22.7126 14.7198C23.3046 15.5678 23.9046 16.4238 24.2646 17.4078C24.4886 18.0158 24.7686 18.5998 25.0166 19.2078C25.1286 19.4798 25.2406 19.7518 25.3046 20.0318C25.4726 20.7758 25.3366 21.4558 24.7766 22.0078C24.4246 22.3438 24.0486 22.6558 23.6806 22.9678C23.1846 23.3918 22.6806 23.7998 22.1926 24.2238C21.4566 24.8718 21.2886 25.6878 21.5286 26.6158C21.7206 27.3438 22.0006 28.0318 22.3766 28.6798C23.3286 30.3518 24.4646 31.8878 25.7846 33.2958C26.1366 33.6718 26.5366 34.0158 26.9526 34.3198C27.3126 34.5838 27.7206 34.8078 28.1366 34.9918C28.9606 35.3518 29.7926 35.3278 30.5526 34.8078C31.0886 34.4478 31.5926 34.0398 32.1046 33.6398C32.5446 33.3038 32.9846 32.9758 33.5126 32.7838C34.1126 32.5678 34.6646 32.5918 35.1686 32.9838C36.3766 33.9118 37.6006 34.8318 38.7846 35.7918C39.1286 36.0718 39.4246 36.4398 39.6726 36.8158C40.2166 37.6238 40.1926 38.4638 39.6646 39.2878C39.2326 39.9598 38.6486 40.4638 37.9846 40.8958C36.7926 41.6558 35.4966 42.1598 34.1126 42.4158C33.5366 42.5118 32.9526 42.5598 32.6406 42.5998Z" fill="#007BFF"/>
<path d="M54.0328 33.3279C52.5288 33.5519 51.1288 33.7599 49.7288 33.9679C49.3768 33.1679 42.1048 5.90387 41.9688 4.87187C42.9288 4.51187 43.9208 4.47187 44.9208 4.66387C45.6328 4.79987 46.1848 5.19986 46.4648 5.87986C46.7288 6.50386 46.9928 7.14387 47.1528 7.79987C48.9688 15.5439 51.1847 23.1919 53.3367 30.8479C53.5607 31.6559 53.7848 32.4719 54.0328 33.3279Z" fill="#007BFF"/>
<path d="M5.43164 29.8477C5.78364 30.8397 5.95164 31.7917 6.19964 32.7837C5.98364 32.8717 5.79164 32.9917 5.58364 33.0317C5.03964 33.1197 4.48764 33.1597 3.95164 32.9997C3.25564 32.7837 3.02364 32.3277 3.28764 31.6557C3.40764 31.3597 3.59164 31.0797 3.79964 30.8477C4.21564 30.3837 4.72764 30.0477 5.43164 29.8477Z" fill="#007BFF"/>
<path d="M8.19132 40.7998C7.36733 41.1438 6.63932 41.1758 5.91132 40.9278C5.24732 40.7038 5.05532 40.2558 5.31932 39.6238C5.45532 39.3038 5.66332 38.9918 5.90332 38.7358C6.27932 38.3278 6.75132 38.0398 7.34332 37.8638C7.41532 37.9998 7.51932 38.1278 7.55932 38.2718C7.77532 39.0798 7.96732 39.9038 8.19132 40.7998Z" fill="#007BFF"/>
<path d="M3.52776 21.8721C3.78376 22.9041 4.00776 23.8081 4.23976 24.7441C3.47176 25.1681 2.73576 25.0721 2.01576 24.6961C1.64776 24.5041 1.50376 24.1841 1.63176 23.8001C1.74376 23.4721 1.89576 23.1361 2.09576 22.8561C2.42376 22.4161 2.87976 22.1121 3.52776 21.8721Z" fill="#007BFF"/>
<path d="M9.43217 45.792C9.67217 46.736 9.88017 47.544 10.0802 48.36C10.1042 48.448 10.0802 48.544 10.0802 48.696C9.40017 48.944 8.75217 48.896 8.12817 48.568C7.76817 48.376 7.64017 48.088 7.72017 47.672C7.75217 47.512 7.79218 47.352 7.86418 47.208C8.16817 46.576 8.66417 46.144 9.43217 45.792Z" fill="#007BFF"/>
<path d="M56.4408 46.5997C56.0648 46.5997 55.8088 46.5997 55.5608 46.5997C53.3528 46.6397 51.1368 46.6877 48.9288 46.7277C48.7048 46.7357 48.4728 46.7357 48.2488 46.7037C47.8808 46.6557 47.6488 46.4157 47.6008 46.0797C47.5528 45.7037 47.7528 45.3757 48.1528 45.2797C48.4328 45.2077 48.7288 45.1917 49.0168 45.1917C50.8728 45.1597 52.7208 45.1277 54.5768 45.1037C55.0008 45.0957 55.4248 45.0877 55.8408 45.0637C55.9928 45.0557 56.1448 45.0157 56.4008 44.9757C56.2488 44.7837 56.1688 44.6557 56.0568 44.5597C55.6168 44.1757 55.1608 43.8077 54.7288 43.4077C54.5688 43.2557 54.4248 43.0717 54.3288 42.8717C54.2008 42.6157 54.2968 42.3597 54.4888 42.1597C54.6808 41.9597 54.9208 41.8477 55.1928 41.9517C55.4008 42.0317 55.6008 42.1517 55.7768 42.2957C56.7448 43.1117 57.7128 43.9357 58.6728 44.7597C58.7688 44.8477 58.8728 44.9277 58.9528 45.0317C59.3688 45.5117 59.4408 46.1037 58.9928 46.5277C57.9208 47.5277 56.8088 48.4717 55.6888 49.4077C55.3768 49.6717 54.9608 49.5757 54.7208 49.2957C54.4888 49.0317 54.4648 48.6077 54.7208 48.3117C54.9528 48.0477 55.2408 47.8237 55.5048 47.5837C55.7448 47.3677 55.9928 47.1517 56.2328 46.9357C56.2728 46.8797 56.3048 46.8157 56.4408 46.5997Z" fill="white"/>
</svg>
