<svg width="80" height="79" viewBox="0 0 80 79" fill="none" xmlns="http://www.w3.org/2000/svg">
<path d="M0.967514 41.344C0.94588 39.2284 1.41409 37.1365 2.33551 35.232C3.40477 33.0244 5.21348 31.2609 7.44751 30.248C9.90063 29.1026 12.6183 28.6437 15.3115 28.92C17.0027 29.0275 18.6453 29.5291 20.108 30.3848C21.5707 31.2405 22.813 32.4265 23.7355 33.848C24.903 35.515 25.6974 37.4141 26.0647 39.4159C26.4319 41.4177 26.3633 43.4751 25.8635 45.448C25.0082 49.1486 22.9173 52.4473 19.9355 54.8C19.176 55.4108 18.3395 55.9192 17.4475 56.312C15.8748 57.0564 14.0762 57.1681 12.4235 56.624C7.85551 55.176 2.63951 51.024 1.32751 44.624C1.22351 44.12 1.12751 43.608 1.07151 43.096C1.01551 42.584 0.999514 41.928 0.967514 41.344ZM22.0395 42.392C21.6155 40.2 21.5275 37.944 21.0475 35.704C20.8475 35.648 20.6715 35.568 20.4875 35.536C17.2738 34.9093 13.9857 34.7556 10.7275 35.08C9.0547 35.2619 7.41203 35.6571 5.83951 36.256C5.63151 36.336 5.43951 36.448 5.19151 36.568C5.32751 38.864 5.26351 41.152 5.52751 43.408H5.68751L6.16751 43.328C9.58521 42.5988 13.0731 42.25 16.5675 42.288C18.0555 42.288 19.5435 42.416 21.0315 42.464C21.366 42.555 21.7214 42.5296 22.0395 42.392ZM13.5435 46.392C14.7867 46.4627 16.0096 46.0532 16.9595 45.248C17.0127 45.2081 17.0587 45.1594 17.0955 45.104C17.1581 45.0105 17.1915 44.9005 17.1915 44.788C17.1915 44.6755 17.1581 44.5655 17.0955 44.472C17.0223 44.384 16.9204 44.3247 16.8078 44.3042C16.6952 44.2837 16.579 44.3035 16.4795 44.36C16.2235 44.504 15.9835 44.672 15.7435 44.832C15.3145 45.129 14.8142 45.3063 14.2939 45.3456C13.7737 45.385 13.2523 45.285 12.7835 45.056C12.5195 44.936 12.2555 44.8 11.9835 44.672C11.844 44.5907 11.6965 44.5237 11.5435 44.472C11.4488 44.4557 11.3514 44.4668 11.2629 44.504C11.1743 44.5413 11.0982 44.603 11.0435 44.682C10.9889 44.7611 10.958 44.8541 10.9544 44.9501C10.9509 45.0461 10.9748 45.1411 11.0235 45.224C11.0962 45.3316 11.1918 45.4217 11.3035 45.488C11.9709 45.9619 12.7365 46.2791 13.5435 46.416V46.392Z" fill="white"/>
<path d="M79.3352 38.9438C79.3194 41.2412 78.6226 43.4822 77.3331 45.3836C76.0436 47.285 74.2192 48.7612 72.0906 49.6258C69.9621 50.4903 67.625 50.7042 65.3749 50.2405C63.1248 49.7767 61.0627 48.6562 59.4494 47.0205C57.8361 45.3849 56.7441 43.3076 56.3114 41.0513C55.8787 38.795 56.1248 36.4611 57.0185 34.3446C57.9123 32.2282 59.4136 30.4243 61.3325 29.1611C63.2515 27.8979 65.5019 27.2321 67.7992 27.2478C69.3247 27.2583 70.8331 27.5691 72.2384 28.1626C73.6438 28.756 74.9184 29.6205 75.9896 30.7066C77.0609 31.7926 77.9077 33.0791 78.4817 34.4924C79.0558 35.9058 79.3458 37.4184 79.3352 38.9438ZM60.2632 40.0958C61.9192 40.3918 63.5112 40.6878 65.0632 40.9518C65.4 40.9847 65.7217 41.1075 65.9947 41.3074C66.2678 41.5072 66.4821 41.7768 66.6152 42.0878C67.2472 43.4398 67.9752 44.7438 68.6632 46.0878C68.7592 46.2718 68.8872 46.4478 69.0632 46.7438C69.1592 46.4878 69.2232 46.3518 69.2632 46.1998C70.6312 40.7758 72.2952 33.4558 72.3032 32.7838C72.2092 32.787 72.1168 32.8087 72.0312 32.8478C68.1432 35.1625 64.2686 37.4852 60.4072 39.8158C60.3592 39.8478 60.3432 39.9278 60.2632 40.0958Z" fill="white"/>
<path d="M49.3998 78.1041C47.7437 78.1218 46.1044 77.7721 44.5998 77.0801C43.3271 76.5021 42.1904 75.6626 41.2638 74.6161C41.0238 74.3521 40.8078 74.0641 40.5518 73.8161C39.2432 72.4937 38.3719 70.8015 38.0558 68.9681C37.5714 66.7389 37.7545 64.4165 38.5822 62.2908C39.41 60.1651 40.8458 58.3304 42.7101 57.016C44.5745 55.7015 46.7848 54.9655 49.0651 54.8998C51.3453 54.8342 53.5943 55.4419 55.5312 56.647C57.4681 57.852 59.007 59.6011 59.9556 61.6756C60.9043 63.7502 61.2207 66.0583 60.8653 68.3116C60.5099 70.5649 59.4984 72.6635 57.9572 74.3454C56.4161 76.0272 54.4136 77.2177 52.1998 77.7681C51.2857 78.0048 50.3439 78.1178 49.3998 78.1041ZM43.7998 59.7041C43.4709 59.7757 43.1835 59.974 42.9998 60.2561C42.2937 61.2934 42.0078 62.5601 42.1998 63.8001C42.3991 64.7855 42.8144 65.7144 43.4158 66.5201C44.873 68.6253 46.6241 70.5111 48.6158 72.1201C49.3513 72.7073 50.2057 73.1277 51.1198 73.3521C51.9756 73.5637 52.8746 73.5204 53.7061 73.2276C54.5376 72.9348 55.2654 72.4052 55.7998 71.7041C54.7047 70.4965 53.5024 69.3907 52.2078 68.4001C52.0238 68.5681 51.8478 68.7521 51.6478 68.9121C51.4159 69.1144 51.134 69.2508 50.8315 69.3071C50.529 69.3634 50.2169 69.3375 49.9278 69.2321C49.3462 69.0222 48.8169 68.6893 48.3758 68.2561C47.5293 67.5416 46.9347 66.5741 46.6798 65.4961C46.6112 65.2474 46.6038 64.9859 46.6581 64.7338C46.7124 64.4817 46.8269 64.2464 46.9918 64.0481C47.1838 63.8241 47.4078 63.6241 47.3678 63.2481C46.2989 61.9576 45.1212 60.7612 43.8478 59.6721L43.7998 59.7041Z" fill="white"/>
<path d="M58.3268 11.856C58.3755 14.1373 57.7461 16.3818 56.5183 18.3052C55.2905 20.2286 53.5194 21.7443 51.4295 22.6604C49.3396 23.5765 47.0248 23.8517 44.7783 23.4513C42.5319 23.0508 40.4548 21.9927 38.8102 20.4108C37.1655 18.829 36.0273 16.7947 35.5397 14.5655C35.0521 12.3364 35.237 10.0126 36.0711 7.88863C36.9051 5.76463 38.3507 3.93594 40.2249 2.63416C42.099 1.33237 44.3173 0.616062 46.5988 0.575953C48.1096 0.546249 49.6115 0.814484 51.0186 1.36533C52.4257 1.91618 53.7105 2.73885 54.7996 3.78635C55.8887 4.83385 56.7608 6.08566 57.366 7.47027C57.9712 8.85487 58.2977 10.3451 58.3268 11.856ZM46.6948 13.344L54.0628 12.984C54.3323 12.9825 54.6007 12.9503 54.8628 12.888C55.0197 12.8437 55.1561 12.7458 55.2482 12.6113C55.3403 12.4768 55.3823 12.3142 55.3668 12.152C55.3668 11.9539 55.2887 11.7638 55.1494 11.623C55.0101 11.4822 54.8209 11.4021 54.6228 11.4C54.1108 11.4 53.5908 11.4 53.0708 11.4L41.0708 11.944C40.5188 11.944 39.9668 12.008 39.4228 12.048C39.259 12.0547 39.0959 12.0735 38.9348 12.104C38.7764 12.1622 38.6405 12.269 38.5465 12.4092C38.4525 12.5493 38.4052 12.7156 38.4114 12.8843C38.4176 13.0529 38.477 13.2153 38.5811 13.3481C38.6851 13.481 38.8286 13.5775 38.9908 13.624C39.5078 13.6519 40.0259 13.6519 40.5428 13.624L46.6948 13.344ZM46.4548 8.59995C47.6468 8.55195 49.2308 8.49595 50.8148 8.41595C51.138 8.40806 51.4596 8.36786 51.7748 8.29595C51.9359 8.26618 52.0815 8.18119 52.1866 8.05561C52.2918 7.93003 52.3498 7.77173 52.3508 7.60795C52.3721 7.42929 52.3278 7.24899 52.2263 7.10043C52.1248 6.95188 51.973 6.84513 51.7988 6.79995C51.5336 6.76076 51.264 6.76076 50.9988 6.79995C50.0628 6.79995 49.1268 6.88795 48.1828 6.92795L41.5028 7.25595C41.2778 7.25838 41.0532 7.2771 40.8308 7.31195C40.6415 7.34262 40.4695 7.44027 40.3462 7.5871C40.2228 7.73394 40.1563 7.9202 40.1588 8.11195C40.1695 8.29115 40.2439 8.46061 40.3686 8.58973C40.4933 8.71884 40.6601 8.79908 40.8388 8.81596C41.1051 8.83729 41.3726 8.83729 41.6388 8.81596L46.4548 8.59995ZM46.9508 17.792L50.9508 17.6C51.1454 17.5908 51.3384 17.5614 51.5268 17.512C51.6811 17.4593 51.8135 17.3568 51.9033 17.2207C51.9931 17.0846 52.0351 16.9225 52.0228 16.76C52.0196 16.5971 51.9619 16.4401 51.859 16.3139C51.756 16.1877 51.6137 16.0997 51.4548 16.064C51.231 16.0202 51.0026 16.004 50.7748 16.016L43.4948 16.304C43.226 16.314 42.9584 16.3461 42.6948 16.4C42.5121 16.4314 42.3486 16.5322 42.2383 16.6812C42.1281 16.8302 42.0795 17.016 42.1028 17.2C42.1073 17.3809 42.177 17.5541 42.299 17.6879C42.4209 17.8216 42.587 17.9068 42.7668 17.928C43.0568 17.956 43.3488 17.956 43.6388 17.928L46.9508 17.792Z" fill="white"/>
<path d="M54.2949 38.5117C54.4333 39.0361 54.4333 39.5874 54.2949 40.1117C54.1675 40.1521 54.0361 40.179 53.9029 40.1917C45.4283 40.6451 36.9509 41.0931 28.4709 41.5357C28.2773 41.0502 28.2355 40.5175 28.3509 40.0077C28.4376 39.9517 28.5319 39.9086 28.6309 39.8797C37.1589 39.3917 45.6949 38.9277 54.2949 38.5117Z" fill="white"/>
<path d="M18.6866 27.7998C17.8306 27.6238 17.0386 27.4398 16.2866 27.3118C13.591 26.8901 10.8319 27.1853 8.28661 28.1678C7.62261 28.4078 6.95061 28.6318 6.20661 28.8878C6.18373 28.7126 6.18373 28.5351 6.20661 28.3598C6.44002 27.4958 6.89963 26.7097 7.53805 26.0826C8.17648 25.4554 8.97062 25.0098 9.83861 24.7918C11.5889 24.2566 13.4374 24.1226 15.2466 24.3998C15.9145 24.5042 16.5499 24.7595 17.1044 25.1462C17.6589 25.533 18.1179 26.0411 18.4466 26.6318C18.5778 26.7927 18.6681 26.983 18.7099 27.1864C18.7517 27.3897 18.7437 27.6002 18.6866 27.7998Z" fill="white"/>
<path d="M36.6961 20.6958L37.6321 21.8398C37.5441 22.1998 37.2481 22.3678 37.0161 22.5758L29.4641 29.4318C28.3975 30.4185 27.3308 31.3971 26.2641 32.3678C26.0961 32.5118 25.9201 32.6478 25.6961 32.8238L24.7441 31.5998C24.8641 31.4463 24.9923 31.2994 25.1281 31.1598L36.2721 21.0238C36.3921 20.9198 36.5201 20.8318 36.6961 20.6958Z" fill="white"/>
<path d="M38.9506 58.0002C38.7569 58.4843 38.4686 58.9249 38.1026 59.2962C37.4386 58.9362 27.5186 51.6322 26.5586 50.7842C26.7092 50.2964 26.9019 49.8226 27.1346 49.3682C27.5028 49.4841 27.8376 49.6872 28.1106 49.9602C31.3586 52.3495 34.6066 54.7495 37.8546 57.1602L38.9506 58.0002Z" fill="white"/>
<path d="M13.3995 20.624C13.7595 20.624 14.0955 20.928 13.9995 21.184C13.7892 21.7876 13.5489 22.3804 13.2795 22.96C13.2209 23.0585 13.129 23.1329 13.0205 23.1695C12.9119 23.2062 12.7938 23.2029 12.6875 23.16C12.4795 23.064 12.2955 22.816 12.3675 22.616C12.5808 22.0187 12.8208 21.4267 13.0875 20.84C13.1035 20.72 13.3035 20.664 13.3995 20.624Z" fill="white"/>
<path d="M22.0392 42.3918C21.7262 42.5355 21.3738 42.5694 21.0392 42.4878C19.5512 42.4398 18.0632 42.3438 16.5752 42.3118C13.0808 42.2738 9.59292 42.6226 6.17522 43.3518L5.69522 43.4318H5.53522C5.27122 41.1758 5.33522 38.8878 5.19922 36.5918C5.44722 36.4718 5.63922 36.3598 5.84722 36.2798C7.41973 35.6809 9.0624 35.2857 10.7352 35.1038C13.9934 34.7794 17.2815 34.933 20.4952 35.5598C20.6792 35.5598 20.8552 35.6718 21.0552 35.7278C21.5272 37.9438 21.6152 40.1998 22.0392 42.3918ZM12.2472 39.1918C12.2399 38.6719 12.0404 38.1732 11.6872 37.7918C11.5861 37.6771 11.461 37.5862 11.3208 37.5254C11.1806 37.4646 11.0287 37.4354 10.8759 37.44C10.7232 37.4446 10.5733 37.4828 10.437 37.5519C10.3007 37.621 10.1812 37.7193 10.0872 37.8398C9.78058 38.2329 9.62352 38.7222 9.64404 39.2203C9.66455 39.7185 9.8613 40.1932 10.1992 40.5598C10.3046 40.6717 10.4337 40.7588 10.5771 40.8144C10.7205 40.8701 10.8745 40.893 11.0279 40.8815C11.1812 40.87 11.3301 40.8244 11.4635 40.7479C11.597 40.6715 11.7117 40.5662 11.7992 40.4398C12.085 40.0831 12.2428 39.6408 12.2472 39.1838V39.1918ZM14.9992 38.8558C14.9876 39.1227 15.0313 39.3891 15.1277 39.6383C15.2241 39.8875 15.371 40.1141 15.5592 40.3038C15.6651 40.4132 15.7934 40.4984 15.9353 40.5536C16.0772 40.6087 16.2293 40.6326 16.3813 40.6235C16.5333 40.6143 16.6815 40.5725 16.8157 40.5007C16.95 40.429 17.0672 40.329 17.1592 40.2078C17.4445 39.8107 17.5843 39.3274 17.5552 38.8393C17.5261 38.3513 17.3297 37.8881 16.9992 37.5278C16.8928 37.4188 16.7641 37.3342 16.6218 37.2796C16.4796 37.2251 16.3273 37.202 16.1753 37.2119C16.0233 37.2217 15.8753 37.2644 15.7413 37.3369C15.6073 37.4093 15.4906 37.5099 15.3992 37.6318C15.1175 37.9753 14.9747 38.4121 14.9992 38.8558Z" fill="#007BFF"/>
<path d="M13.5443 46.416C12.7421 46.2852 11.9795 45.9763 11.3123 45.512C11.2007 45.4457 11.105 45.3556 11.0323 45.248C10.9837 45.1651 10.9597 45.0701 10.9632 44.9741C10.9668 44.8781 10.9977 44.7851 11.0523 44.706C11.107 44.627 11.1831 44.5653 11.2717 44.528C11.3603 44.4908 11.4576 44.4797 11.5523 44.496C11.7054 44.5477 11.8528 44.6147 11.9923 44.696C12.2483 44.824 12.5123 44.96 12.7923 45.08C13.2611 45.309 13.7825 45.409 14.3027 45.3696C14.823 45.3303 15.3234 45.153 15.7523 44.856C15.9923 44.696 16.2323 44.528 16.4883 44.384C16.5878 44.3275 16.7041 44.3077 16.8167 44.3282C16.9293 44.3487 17.0311 44.4081 17.1043 44.496C17.1669 44.5895 17.2004 44.6995 17.2004 44.812C17.2004 44.9245 17.1669 45.0345 17.1043 45.128C17.0675 45.1834 17.0215 45.2321 16.9683 45.272C16.0164 46.0792 14.7903 46.4888 13.5443 46.416Z" fill="#007BFF"/>
<path d="M60.2637 40.0958C60.3437 39.9278 60.3597 39.8478 60.4077 39.8158C64.285 37.4798 68.173 35.1491 72.0717 32.8238C72.1572 32.7847 72.2497 32.7629 72.3437 32.7598C72.3437 33.4318 70.6717 40.7598 69.3037 46.1758C69.3037 46.3278 69.1997 46.4638 69.1037 46.7198C68.9277 46.4238 68.7997 46.2478 68.7037 46.0638C68.0157 44.7438 67.2877 43.4398 66.6557 42.0638C66.5225 41.7527 66.3082 41.4832 66.0352 41.2833C65.7621 41.0835 65.4404 40.9607 65.1037 40.9278C63.5117 40.6878 61.9197 40.3998 60.2637 40.0958Z" fill="#007BFF"/>
<path d="M43.8478 59.6719C45.1213 60.761 46.2989 61.9574 47.3678 63.2479C47.4078 63.5839 47.1838 63.7839 46.9918 64.0479C46.8269 64.2462 46.7125 64.4815 46.6581 64.7336C46.6038 64.9857 46.6112 65.2472 46.6798 65.4959C46.9347 66.5739 47.5293 67.5414 48.3758 68.2559C48.8199 68.6776 49.3491 68.9994 49.9278 69.1999C50.2169 69.3053 50.529 69.3312 50.8315 69.2749C51.1341 69.2186 51.4159 69.0822 51.6478 68.8799C51.8478 68.7199 52.0238 68.5359 52.2078 68.3679C53.5038 69.3686 54.7061 70.4852 55.7998 71.7039C55.2622 72.4168 54.5255 72.9546 53.6827 73.2493C52.8398 73.544 51.9285 73.5825 51.0638 73.3599C50.1638 73.1301 49.3236 72.71 48.5998 72.1279C46.6082 70.5189 44.8571 68.6331 43.3998 66.5279C42.7984 65.7223 42.3831 64.7933 42.1838 63.8079C42.0157 62.5429 42.3424 61.2618 43.0958 60.2319C43.2666 59.9568 43.5353 59.7567 43.8478 59.6719Z" fill="#007BFF"/>
<path d="M46.6954 13.3438L40.4874 13.6478C39.9705 13.6757 39.4524 13.6757 38.9354 13.6478C38.7732 13.6014 38.6297 13.5049 38.5257 13.372C38.4216 13.2391 38.3622 13.0768 38.356 12.9081C38.3498 12.7395 38.3971 12.5732 38.4911 12.433C38.5851 12.2929 38.721 12.1861 38.8794 12.1278C39.0405 12.0973 39.2036 12.0786 39.3674 12.0718C39.9114 12.0718 40.4634 11.9918 41.0154 11.9678L53.0154 11.4238C53.5354 11.4238 54.0554 11.3678 54.5674 11.4238C54.7655 11.4259 54.9547 11.5061 55.094 11.6469C55.2333 11.7877 55.3114 11.9778 55.3114 12.1758C55.3269 12.3381 55.2849 12.5007 55.1928 12.6352C55.1007 12.7697 54.9643 12.8676 54.8074 12.9118C54.5453 12.9741 54.2769 13.0063 54.0074 13.0078L46.6394 13.3678L46.6954 13.3438Z" fill="#007BFF"/>
<path d="M46.4558 8.59991L41.6558 8.83191C41.3896 8.85324 41.1221 8.85324 40.8558 8.83191C40.6771 8.81504 40.5103 8.73479 40.3856 8.60568C40.2609 8.47657 40.1865 8.3071 40.1758 8.12791C40.1734 7.93615 40.2399 7.74989 40.3632 7.60305C40.4866 7.45622 40.6585 7.35857 40.8478 7.32791C41.0702 7.29305 41.2948 7.27433 41.5198 7.27191L48.1998 6.94391C49.1278 6.87191 50.0638 6.79991 50.9998 6.79991C51.2651 6.76071 51.5346 6.76071 51.7998 6.79991C51.9784 6.83831 52.1366 6.94107 52.2443 7.0886C52.352 7.23613 52.4017 7.41812 52.3838 7.59991C52.3829 7.76368 52.3248 7.92198 52.2197 8.04756C52.1145 8.17314 51.9689 8.25813 51.8078 8.28791C51.4927 8.35982 51.171 8.40001 50.8478 8.4079C49.2318 8.4959 47.6478 8.55191 46.4558 8.59991Z" fill="#007BFF"/>
<path d="M46.951 17.792L43.655 17.952C43.365 17.98 43.073 17.98 42.783 17.952C42.5992 17.9304 42.4298 17.8417 42.3073 17.7029C42.1848 17.5642 42.1177 17.3851 42.119 17.2C42.0957 17.0161 42.1442 16.8303 42.2545 16.6813C42.3648 16.5322 42.5283 16.4315 42.711 16.4C42.9746 16.3462 43.2421 16.314 43.511 16.304L50.791 16.016C51.0188 16.0041 51.2471 16.0202 51.471 16.064C51.6299 16.0998 51.7722 16.1878 51.8751 16.3139C51.9781 16.4401 52.0358 16.5972 52.039 16.76C52.0513 16.9226 52.0092 17.0847 51.9195 17.2208C51.8297 17.3569 51.6973 17.4593 51.543 17.512C51.3546 17.5614 51.1615 17.5909 50.967 17.6L46.967 17.792H46.951Z" fill="#007BFF"/>
<path d="M12.2475 39.1838C12.2431 39.6409 12.0853 40.0832 11.7995 40.4398C11.712 40.5663 11.5973 40.6716 11.4638 40.748C11.3304 40.8245 11.1815 40.8701 11.0281 40.8816C10.8748 40.8931 10.7208 40.8702 10.5774 40.8145C10.434 40.7588 10.3049 40.6718 10.1995 40.5598C9.85363 40.1976 9.64831 39.7239 9.62045 39.2239C9.59259 38.7238 9.74401 38.2302 10.0475 37.8318C10.1415 37.7114 10.2609 37.6131 10.3973 37.544C10.5336 37.4749 10.6835 37.4367 10.8362 37.4321C10.989 37.4275 11.1409 37.4567 11.2811 37.5175C11.4213 37.5783 11.5464 37.6692 11.6475 37.7838C12.0153 38.1592 12.2294 38.6586 12.2475 39.1838Z" fill="white"/>
<path d="M14.9988 38.8561C14.9743 38.4124 15.117 37.9757 15.3988 37.6321C15.4902 37.5103 15.6069 37.4097 15.7409 37.3372C15.8748 37.2647 16.0229 37.2221 16.1749 37.2122C16.3269 37.2023 16.4792 37.2254 16.6214 37.2799C16.7636 37.3345 16.8924 37.4191 16.9988 37.5281C17.3293 37.8884 17.5256 38.3516 17.5548 38.8397C17.5839 39.3277 17.4441 39.811 17.1588 40.2081C17.0668 40.3293 16.9496 40.4293 16.8153 40.501C16.681 40.5728 16.5328 40.6147 16.3809 40.6238C16.2289 40.6329 16.0767 40.609 15.9348 40.5539C15.793 40.4987 15.6647 40.4135 15.5588 40.3041C15.3706 40.1144 15.2237 39.8879 15.1273 39.6387C15.0309 39.3895 14.9872 39.123 14.9988 38.8561Z" fill="white"/>
</svg>
