<svg width="76" height="70" viewBox="0 0 76 70" fill="none" xmlns="http://www.w3.org/2000/svg">
<path d="M21.4393 22.9281C21.7367 21.7005 22.1409 20.5013 22.6473 19.3441C23.8167 16.7153 25.7956 14.5289 28.2953 13.1041C29.7707 12.2833 31.3663 11.7001 33.0233 11.3761C35.3141 10.9017 37.6715 10.8421 39.9833 11.2001C45.3433 12.0001 49.0153 15.0001 51.2553 19.8481C51.5673 20.5201 51.7993 21.2321 52.0553 21.9281C52.1513 22.1681 52.2233 22.4161 52.2953 22.6481C52.6409 22.7728 53.0123 22.8085 53.3753 22.7521C57.0073 22.7521 60.6393 22.7041 64.2713 22.7521C65.1461 22.7571 66.0107 22.9415 66.8115 23.2937C67.6123 23.646 68.3324 24.1587 68.9273 24.8001C69.6251 25.4941 70.0725 26.4002 70.1993 27.3761C70.3166 28.2406 70.378 29.1118 70.3833 29.9841C70.3833 40.1921 70.3833 50.3975 70.3833 60.6001C70.3833 60.9921 70.3833 61.4001 70.3833 61.8081C70.6108 61.8507 70.8405 61.8801 71.0713 61.8961C71.8153 61.8961 72.5593 61.8961 73.3113 61.8961C73.6018 61.8802 73.8929 61.8802 74.1833 61.8961C74.9833 61.9761 75.3033 62.4001 75.1353 63.2241C74.9362 64.2764 74.5745 65.2912 74.0633 66.2321C73.9911 66.3778 73.911 66.5193 73.8233 66.6561C73.1988 67.6909 72.2717 68.5091 71.1673 69.0001C70.1366 69.4789 69.0157 69.7325 67.8793 69.7441C48.5193 69.7441 29.162 69.7441 9.80731 69.7441C8.60766 69.7617 7.41011 69.6382 6.23931 69.3761C4.93783 69.1234 3.74695 68.4727 2.83122 67.514C1.91549 66.5553 1.32009 65.3358 1.12731 64.0241C1.03417 63.6135 0.97266 63.1962 0.943307 62.7761C0.912207 62.6228 0.918421 62.4643 0.961423 62.3139C1.00443 62.1634 1.08296 62.0255 1.1904 61.9118C1.29784 61.7981 1.43104 61.7119 1.57878 61.6604C1.72652 61.609 1.88447 61.5938 2.03931 61.6161C2.91131 61.6161 3.79131 61.6161 4.66331 61.6161H5.66331C5.70539 61.4209 5.73479 61.2232 5.75131 61.0241C5.75131 60.7281 5.75131 60.4401 5.75131 60.1441C5.75131 50.1388 5.75131 40.1281 5.75131 30.1121C5.75464 29.309 5.81345 28.5071 5.92731 27.7121C6.27931 25.0321 7.93531 23.5201 10.5833 23.1361C10.9999 23.0843 11.4195 23.0602 11.8393 23.0641L20.3993 22.9761C20.7353 22.9681 21.0553 22.9441 21.4393 22.9281ZM37.5833 61.4161H48.7833C49.7513 61.4161 50.7273 61.4161 51.6953 61.4161C52.4876 61.4138 53.2689 61.2311 53.98 60.8818C54.6911 60.5325 55.3133 60.0258 55.7993 59.4001C56.5374 58.5239 57.0015 57.45 57.1338 56.312C57.2661 55.174 57.0607 54.0223 56.5433 53.0001C56.1124 51.9905 55.378 51.14 54.4419 50.5666C53.5058 49.9932 52.4145 49.7253 51.3193 49.8001C50.3193 49.8001 49.3113 49.8481 48.3113 49.8481C41.5753 49.8481 34.8366 49.8481 28.0953 49.8481C26.5753 49.8481 25.0553 49.9041 23.5273 49.9281C22.8125 49.9398 22.1089 50.1069 21.4651 50.4177C20.8214 50.7285 20.253 51.1757 19.7993 51.7281C19.254 52.3514 18.8455 53.0821 18.6002 53.8731C18.3549 54.6641 18.2783 55.4977 18.3753 56.3201C18.4698 57.6748 19.0639 58.9461 20.0424 59.8876C21.0208 60.8291 22.3141 61.3738 23.6713 61.4161C25.0313 61.4161 26.3913 61.4161 27.7513 61.4161H37.5833ZM73.0713 63.8161C72.6662 63.6996 72.2421 63.6643 71.8233 63.7121L5.30331 63.4481C4.68731 63.4481 4.07131 63.4481 3.45531 63.4481C3.2836 63.4601 3.11267 63.4815 2.94331 63.5121C2.94331 63.6481 2.87931 63.7121 2.89531 63.7681C3.01945 64.7081 3.43252 65.5864 4.07742 66.2814C4.72233 66.9765 5.56721 67.4541 6.49531 67.6481C7.63222 67.9183 8.79902 68.042 9.96731 68.0161H67.5673C67.7593 68.0161 67.9593 68.0161 68.1513 68.0161C70.2393 67.8561 71.8873 67.0161 72.7513 64.9921C72.9687 64.6331 73.0797 64.2198 73.0713 63.8001V63.8161ZM19.6553 29.1761C19.8393 30.1281 19.9913 30.9921 20.1753 31.8401C20.9348 35.5452 22.7008 38.9692 25.2793 41.7361C27.3027 43.9878 29.8036 45.759 32.5993 46.9201C34.8626 47.8533 37.3527 48.09 39.7513 47.6001C41.566 47.2184 43.2854 46.4757 44.8073 45.4161C49.5593 42.2161 53.7673 36.2321 54.2473 29.6801C54.2841 29.4787 54.3377 29.2807 54.4073 29.0881C55.5993 29.0881 56.7673 29.0881 57.9273 29.0881H61.3993C62.5673 29.0881 63.7353 29.0881 64.9033 29.0881C66.0713 29.0881 67.2233 29.1521 68.3673 29.0401C68.4939 28.4991 68.4872 27.9354 68.3479 27.3975C68.2085 26.8597 67.9407 26.3636 67.5673 25.9521C67.1583 25.5091 66.664 25.1532 66.1142 24.9058C65.5643 24.6584 64.9701 24.5245 64.3673 24.5121C60.6393 24.5121 56.9033 24.5121 53.1673 24.5521C53.0118 24.5732 52.8589 24.6108 52.7113 24.6641C52.7113 24.8401 52.7113 24.9681 52.7113 25.0961C52.9468 26.9596 52.8955 28.8482 52.5593 30.6961C51.6725 35.757 48.9244 40.303 44.8553 43.4401C43.4905 44.5421 41.9375 45.3877 40.2713 45.9361C38.7672 46.4865 37.1354 46.5866 35.5753 46.2241C33.8384 45.8183 32.1793 45.132 30.6633 44.1921C26.6275 41.6906 23.6023 37.8468 22.1193 33.3361C21.287 30.9072 20.9365 28.3393 21.0873 25.7761C21.1645 25.4577 21.145 25.1235 21.0313 24.8161C20.8877 24.803 20.7435 24.7977 20.5993 24.8001L11.2633 24.8801C10.6781 24.8943 10.1015 25.0248 9.56731 25.2641C8.86865 25.593 8.30312 26.1505 7.9642 26.8443C7.62527 27.5382 7.53324 28.3269 7.70331 29.0801C8.03131 29.0801 8.38331 29.0801 8.73531 29.0801H18.5913C18.9487 29.0318 19.3124 29.0646 19.6553 29.1761ZM26.7993 19.9441C26.7353 22.7361 26.5913 25.4801 26.5833 28.2321C26.5969 28.3967 26.6236 28.5599 26.6633 28.7201L27.2713 28.6641C29.5129 28.3149 31.7726 28.0932 34.0393 28.0001C38.3465 27.8917 42.6547 28.1728 46.9113 28.8401C47.0953 28.8401 47.2873 28.9441 47.5033 28.7361C47.5033 28.5601 47.5033 28.3361 47.5033 28.1201C47.4393 27.5121 47.3353 26.9041 47.2953 26.2881C47.1913 24.6881 47.1193 23.1281 47.0233 21.5441C47.0233 21.0961 46.9273 20.6481 46.8713 20.2001C46.713 20.1256 46.55 20.0615 46.3833 20.0081C42.0329 18.8188 37.5174 18.3486 33.0153 18.6161C30.892 18.77 28.8001 19.2169 26.7993 19.9441ZM37.4553 33.1841C38.7182 33.102 39.9301 32.6545 40.9433 31.8961L41.0153 31.8321C41.1335 31.7212 41.2088 31.5721 41.2278 31.4111C41.2469 31.2501 41.2084 31.0876 41.1193 30.9521C41.0308 30.8299 40.9016 30.7434 40.7548 30.7081C40.6081 30.6729 40.4536 30.6914 40.3193 30.7601C40.1433 30.8321 39.9913 30.9601 39.8153 31.0481C39.4183 31.2627 39.0097 31.455 38.5913 31.6241C37.9534 31.8772 37.2489 31.9082 36.5913 31.7121C35.9724 31.5296 35.3826 31.2603 34.8393 30.9121C34.6272 30.7688 34.4053 30.6405 34.1753 30.5281C34.0535 30.4813 33.92 30.4739 33.7937 30.5069C33.6674 30.5399 33.5547 30.6117 33.4713 30.7121C33.3818 30.8262 33.3331 30.9671 33.3331 31.1121C33.3331 31.2572 33.3818 31.398 33.4713 31.5121C33.6005 31.6589 33.7485 31.788 33.9113 31.8961C34.2953 32.1281 34.7113 32.3601 35.0873 32.5681C35.8262 32.9333 36.6321 33.143 37.4553 33.1841Z" fill="white"/>
<path d="M44.5999 10.152C44.1839 10.032 43.8719 9.95202 43.5759 9.84802C41.7086 9.21043 39.7562 8.85715 37.7839 8.80002C35.6801 8.73753 33.5795 9.00751 31.5599 9.60002C30.8159 9.81602 30.0719 10.032 29.3199 10.224C29.0822 10.2701 28.8416 10.2995 28.5999 10.312C28.5787 10.1742 28.5787 10.0339 28.5999 9.89602C28.9184 8.87095 29.4935 7.94421 30.2705 7.2036C31.0475 6.46299 32.0007 5.93306 33.0399 5.66402C35.307 5.08359 37.6722 4.9963 39.9759 5.40802C40.7402 5.5443 41.4743 5.81516 42.1439 6.20802C43.1364 6.77672 43.917 7.65278 44.3679 8.70402C44.5944 9.15066 44.6755 9.65697 44.5999 10.152Z" fill="white"/>
<path d="M54.9993 19.6722L54.4473 18.4002C54.6415 18.2689 54.8447 18.1513 55.0553 18.0482C57.8179 16.9175 60.5779 15.7975 63.3353 14.6882C63.502 14.6348 63.6734 14.5973 63.8473 14.5762L64.3433 15.8962C63.3507 16.392 62.3304 16.8301 61.2873 17.2082C60.2206 17.6508 59.1726 18.0748 58.1433 18.4802C57.1273 18.8482 56.1353 19.3282 54.9993 19.6722Z" fill="white"/>
<path d="M18.6629 19.76L12.4949 19.152C12.287 19.116 12.0813 19.0679 11.8789 19.008C11.8789 18.728 11.9509 18.48 12.0069 18.208C12.0629 17.936 12.1269 17.784 12.1909 17.584C14.3957 17.6724 16.5924 17.9049 18.7669 18.28C18.897 18.7712 18.8604 19.2918 18.6629 19.76Z" fill="white"/>
<path d="M17.127 11.0722C17.3844 10.6845 17.7032 10.3414 18.071 10.0562C19.1665 11.1269 20.1404 12.3155 20.975 13.6002C20.823 13.7762 20.663 13.9682 20.487 14.1522C20.311 14.3362 20.159 14.4402 19.999 14.5842C18.9349 13.5049 17.9735 12.3292 17.127 11.0722Z" fill="white"/>
<path d="M54.2001 11.48L55.0001 12.576C54.1701 13.6003 53.2283 14.5287 52.1921 15.344C51.8285 15.0549 51.5334 14.6888 51.3281 14.272C52.1896 13.2476 53.1518 12.3122 54.2001 11.48Z" fill="white"/>
<path d="M39.1106 1.29612C39.1189 1.35985 39.1189 1.42439 39.1106 1.48812C38.7986 2.16012 38.5106 2.84812 38.1506 3.48812C38.1049 3.58569 38.0341 3.66935 37.9454 3.73055C37.8567 3.79176 37.7534 3.8283 37.646 3.83644C37.5385 3.84458 37.4309 3.82402 37.334 3.77688C37.2371 3.72973 37.1545 3.65768 37.0946 3.56812C37.038 3.49357 36.9968 3.40848 36.9734 3.31782C36.9501 3.22716 36.945 3.13275 36.9586 3.04012C37.2786 2.30412 37.6226 1.57612 37.9986 0.864119C38.0656 0.75065 38.171 0.664891 38.2957 0.622342C38.4204 0.579793 38.5562 0.583262 38.6786 0.63212C38.8103 0.684788 38.9224 0.776848 38.9998 0.895707C39.0771 1.01457 39.1158 1.15442 39.1106 1.29612Z" fill="white"/>
<path d="M37.5837 61.416H27.7997C26.4397 61.416 25.0797 61.416 23.7197 61.416C22.3624 61.3737 21.0692 60.829 20.0907 59.8875C19.1122 58.9459 18.5182 57.6746 18.4237 56.32C18.3202 55.501 18.3891 54.6693 18.6261 53.8785C18.863 53.0877 19.2628 52.3552 19.7997 51.728C20.2557 51.1775 20.8261 50.7327 21.4712 50.4247C22.1164 50.1166 22.8208 49.9526 23.5357 49.944C25.0637 49.944 26.5837 49.872 28.1037 49.864C34.8397 49.864 41.5783 49.864 48.3197 49.864C49.3197 49.864 50.3277 49.816 51.3277 49.816C52.4229 49.7412 53.5142 50.0091 54.4503 50.5825C55.3863 51.1559 56.1208 52.0064 56.5517 53.016C57.0691 54.0382 57.2744 55.1899 57.1421 56.3279C57.0098 57.4659 56.5458 58.5398 55.8077 59.416C55.3134 60.0422 54.6821 60.5467 53.9623 60.8906C53.2425 61.2346 52.4534 61.4088 51.6557 61.4C50.6877 61.4 49.7117 61.4 48.7437 61.4L37.5837 61.416ZM38.1997 58.016C38.5277 58.48 38.9517 58.376 39.4397 58.264C39.4397 57.528 39.4397 56.824 39.4397 56.112C39.5025 55.3687 39.4621 54.6203 39.3197 53.888C39.0637 53.888 38.8397 53.888 38.6157 53.888C38.3917 53.888 38.3437 54.208 38.1517 54.304C37.9837 54.208 37.8237 54.104 37.6477 54.024C37.3916 53.9018 37.1124 53.8355 36.8287 53.8294C36.545 53.8234 36.2633 53.8778 36.0022 53.989C35.7412 54.1003 35.5068 54.2658 35.3146 54.4746C35.1224 54.6834 34.9769 54.9306 34.8877 55.2C34.6548 55.844 34.6719 56.552 34.9357 57.184C35.0278 57.4268 35.1672 57.6489 35.3456 57.8375C35.524 58.0262 35.7379 58.1777 35.9752 58.2833C36.2124 58.3889 36.4682 58.4465 36.7277 58.4528C36.9873 58.4591 37.2456 58.414 37.4877 58.32C37.7277 58.264 37.9437 58.128 38.1997 58.016ZM29.0317 54.944C28.9515 54.7834 28.8606 54.6284 28.7597 54.48C28.3541 54.1343 27.8621 53.9055 27.3365 53.8181C26.8108 53.7308 26.2712 53.7881 25.7757 53.984C25.5206 54.0678 25.2991 54.231 25.1436 54.4499C24.9881 54.6687 24.9068 54.9316 24.9117 55.2C24.9034 55.4793 24.991 55.753 25.1598 55.9757C25.3286 56.1984 25.5685 56.3566 25.8397 56.424C26.1812 56.5152 26.5287 56.5821 26.8797 56.624C27.1665 56.6645 27.4499 56.726 27.7277 56.808C27.7975 56.8398 27.8567 56.8911 27.8982 56.9556C27.9397 57.0202 27.9618 57.0953 27.9618 57.172C27.9618 57.2488 27.9397 57.3239 27.8982 57.3884C27.8567 57.453 27.7975 57.5042 27.7277 57.536C27.48 57.6397 27.2102 57.6794 26.9432 57.6514C26.6762 57.6235 26.4205 57.5287 26.1997 57.376C25.6397 57.056 25.5997 57.064 24.8717 57.288C24.8988 57.3751 24.9308 57.4606 24.9677 57.544C25.5597 58.616 27.6637 58.736 28.5757 58.112C28.7642 57.9854 28.9156 57.8109 29.0143 57.6064C29.1131 57.402 29.1558 57.1749 29.1379 56.9486C29.1199 56.7222 29.0421 56.5047 28.9124 56.3183C28.7827 56.1319 28.6057 55.9834 28.3997 55.888C27.9737 55.7443 27.534 55.6451 27.0877 55.592C26.8322 55.5642 26.5803 55.5106 26.3357 55.432C26.2655 55.4004 26.2046 55.3515 26.1584 55.29C26.1122 55.2284 26.0824 55.1562 26.0717 55.08C26.0864 55.0052 26.1188 54.935 26.1661 54.8751C26.2134 54.8153 26.2743 54.7676 26.3437 54.736C26.5515 54.6435 26.7794 54.6052 27.0061 54.6248C27.2328 54.6444 27.4508 54.7212 27.6397 54.848C27.8532 54.9572 28.0866 55.0219 28.3258 55.0384C28.5651 55.0549 28.8052 55.0228 29.0317 54.944ZM46.4237 52.12C46.1197 52.672 46.4237 53.296 46.1757 53.816L45.0877 53.968V54.768L46.1437 54.92C46.1802 54.9964 46.2071 55.077 46.2237 55.16C46.2237 55.544 46.2237 55.96 46.2237 56.32C46.2248 56.641 46.2462 56.9617 46.2877 57.28C46.3148 57.559 46.4427 57.8185 46.6474 58.0099C46.8521 58.2013 47.1195 58.3116 47.3997 58.32C47.85 58.344 48.3013 58.344 48.7517 58.32C48.8397 58.32 48.9197 58.232 49.0317 58.168L48.9677 57.368C48.6317 57.368 48.3517 57.368 48.0637 57.312C47.6157 57.312 47.4157 57.088 47.3837 56.648C47.3517 56.208 47.3837 55.848 47.3837 55.392C47.4083 55.2076 47.4485 55.0257 47.5037 54.848L48.8077 54.784C48.8637 54.784 48.9117 54.72 49.0077 54.664C49.0077 54.408 49.1277 54.12 48.8477 53.864C48.3917 53.736 47.8877 53.928 47.4637 53.728C47.2557 53.152 47.5277 52.568 47.2477 52.064L46.4237 52.12ZM30.9997 54.888C30.9997 55.144 31.0477 55.328 31.0557 55.512C31.0557 55.968 31.0557 56.424 31.0557 56.872C31.0557 57.872 31.4877 58.288 32.4637 58.344C32.8157 58.344 33.1757 58.344 33.5277 58.344C33.62 58.3253 33.7072 58.2871 33.7837 58.232C33.7837 57.936 33.9037 57.64 33.6477 57.432C33.5197 57.432 33.3917 57.432 33.2637 57.432C33.1357 57.432 32.9437 57.432 32.7837 57.432C32.7098 57.4331 32.6365 57.4193 32.5681 57.3916C32.4997 57.3638 32.4375 57.3226 32.3853 57.2704C32.3331 57.2182 32.2919 57.156 32.2641 57.0876C32.2363 57.0192 32.2226 56.9458 32.2237 56.872C32.2237 56.424 32.2237 55.968 32.2237 55.512C32.2522 55.3138 32.2977 55.1184 32.3597 54.928C32.7917 54.928 33.1597 54.928 33.5597 54.928C33.6477 54.928 33.7277 54.856 33.8477 54.8L33.7677 54L32.2957 53.888C32.1197 53.304 32.3437 52.728 32.1037 52.216C31.7991 52.1197 31.4722 52.1197 31.1677 52.216C30.9517 52.776 31.2157 53.36 30.9677 53.872L29.9037 54.024V54.824L30.9997 54.888ZM42.2557 54.336C42.134 54.1355 41.9398 53.9895 41.7134 53.9284C41.4869 53.8673 41.2456 53.8958 41.0397 54.008C40.8741 55.4219 40.8741 56.8502 41.0397 58.264C41.3542 58.3591 41.6927 58.3363 41.9917 58.2C41.9917 57.896 41.9917 57.576 41.9917 57.256C41.9917 56.936 41.9917 56.456 41.9917 56.096C41.9917 55.384 42.3037 55.112 42.9997 55.032C43.2557 55.032 43.5197 55.032 43.7997 55.032C44.0797 55.032 44.2317 54.976 44.4797 54.944C44.4797 54.584 44.5997 54.256 44.3277 53.936C43.9704 53.8618 43.6021 53.8589 43.2437 53.9276C42.8854 53.9962 42.5442 54.135 42.2397 54.336H42.2557Z" fill="#007BFF"/>
<path d="M73.0713 63.8001C73.0716 64.2256 72.9494 64.6421 72.7193 65.0001C71.8553 67.0241 70.2073 67.8641 68.1193 68.0241C67.9273 68.0241 67.7273 68.0241 67.5353 68.0241H9.93528C8.76699 68.0499 7.60019 67.9263 6.46328 67.6561C5.53519 67.462 4.6903 66.9844 4.0454 66.2893C3.40049 65.5943 2.98742 64.7161 2.86328 63.7761C2.86328 63.7201 2.86328 63.6561 2.91128 63.5201C3.08065 63.4894 3.25157 63.468 3.42328 63.4561C4.03928 63.4561 4.65528 63.4561 5.27128 63.4561L71.7913 63.7201C72.219 63.6601 72.6544 63.6873 73.0713 63.8001Z" fill="#007BFF"/>
<path d="M19.6556 29.1761C19.3127 29.0646 18.949 29.0318 18.5916 29.0801H8.76763C8.41563 29.0801 8.06363 29.0801 7.73563 29.0801C7.56557 28.3269 7.6576 27.5381 7.99653 26.8443C8.33545 26.1504 8.90098 25.593 9.59964 25.2641C10.1339 25.0248 10.7104 24.8942 11.2956 24.8801L20.5996 24.8001C20.7338 24.812 20.8673 24.8307 20.9996 24.8561C21.1133 25.1634 21.1328 25.4977 21.0556 25.8161C20.9048 28.3792 21.2553 30.9472 22.0876 33.3761C23.587 37.8769 26.6231 41.7062 30.6636 44.1921C32.1796 45.1319 33.8387 45.8183 35.5756 46.2241C37.1357 46.5865 38.7675 46.4864 40.2716 45.9361C41.9378 45.3877 43.4908 44.542 44.8556 43.4401C48.9397 40.3099 51.7026 35.763 52.5996 30.6961C52.9358 28.8481 52.9871 26.9596 52.7516 25.0961C52.7516 24.9681 52.7516 24.8401 52.7516 24.6641C52.8992 24.6107 53.0521 24.5732 53.2076 24.5521C56.9356 24.5521 60.6716 24.4801 64.4076 24.5121C65.0105 24.5244 65.6046 24.6583 66.1545 24.9058C66.7043 25.1532 67.1986 25.5091 67.6076 25.9521C67.981 26.3636 68.2489 26.8596 68.3882 27.3975C68.5276 27.9354 68.5342 28.4991 68.4076 29.0401C67.2636 29.1521 66.1036 29.0401 64.9436 29.0881C63.7836 29.1361 62.6076 29.0881 61.4396 29.0881H57.9276C56.7676 29.0881 55.5996 29.0881 54.4076 29.0881C54.338 29.2807 54.2845 29.4787 54.2476 29.6801C53.7676 36.2321 49.5596 42.2001 44.8076 45.4161C43.2857 46.4757 41.5663 47.2184 39.7516 47.6001C37.3531 48.09 34.8629 47.8532 32.5996 46.9201C29.8039 45.7589 27.303 43.9878 25.2796 41.7361C22.7011 38.9692 20.9351 35.5452 20.1756 31.8401C19.9916 30.9921 19.8396 30.1281 19.6556 29.1761Z" fill="#007BFF"/>
<path d="M26.8 19.9441C28.7896 19.2313 30.8677 18.7953 32.976 18.6481C37.4781 18.3805 41.9936 18.8507 46.344 20.0401C46.5106 20.0934 46.6736 20.1576 46.832 20.2321C46.888 20.6801 46.952 21.1281 46.984 21.5761C47.08 23.1761 47.152 24.7761 47.256 26.3201C47.296 26.9361 47.4 27.5441 47.464 28.1521C47.464 28.3681 47.464 28.5921 47.464 28.7681C47.248 28.9761 47.056 28.8961 46.872 28.8721C42.6295 28.1964 38.3348 27.9046 34.04 28.0001C31.7738 28.0826 29.5142 28.2936 27.272 28.6321L26.664 28.6881C26.6243 28.5278 26.5975 28.3646 26.584 28.2001C26.592 25.4801 26.736 22.7361 26.8 19.9441ZM42.2 23.8801C42.2274 23.2583 42.0123 22.6502 41.6 22.1841C41.4815 22.039 41.3333 21.9211 41.1654 21.8381C40.9975 21.7551 40.8137 21.709 40.6265 21.703C40.4393 21.6969 40.253 21.731 40.0801 21.8029C39.9072 21.8749 39.7516 21.983 39.624 22.1201C39.1917 22.5914 38.944 23.2028 38.9263 23.8421C38.9087 24.4814 39.1223 25.1056 39.528 25.6001C39.6518 25.7508 39.8075 25.8722 39.9839 25.9556C40.1602 26.039 40.3529 26.0822 40.548 26.0822C40.7431 26.0822 40.9357 26.039 41.1121 25.9556C41.2885 25.8722 41.4442 25.7508 41.568 25.6001C41.9978 25.1329 42.2251 24.5144 42.2 23.8801ZM32.216 23.7841C32.198 24.0827 32.2405 24.3818 32.3408 24.6636C32.4412 24.9454 32.5974 25.204 32.8 25.4241C32.9254 25.5737 33.0821 25.694 33.259 25.7766C33.4359 25.8592 33.6287 25.902 33.824 25.902C34.0192 25.902 34.2121 25.8592 34.389 25.7766C34.5659 25.694 34.7226 25.5737 34.848 25.4241C35.2378 24.9448 35.4506 24.3458 35.4506 23.7281C35.4506 23.1103 35.2378 22.5114 34.848 22.0321C34.7259 21.8787 34.5707 21.7549 34.3941 21.6698C34.2175 21.5847 34.024 21.5405 33.828 21.5405C33.632 21.5405 33.4384 21.5847 33.2618 21.6698C33.0852 21.7549 32.9301 21.8787 32.808 22.0321C32.5941 22.2685 32.4294 22.5453 32.3237 22.8461C32.2179 23.1469 32.1731 23.4658 32.192 23.7841H32.216Z" fill="#007BFF"/>
<path d="M37.4554 33.1843C36.6432 33.1388 35.8485 32.9293 35.1194 32.5683C34.7194 32.3603 34.3194 32.1283 33.9434 31.8963C33.7806 31.7882 33.6326 31.6591 33.5034 31.5123C33.4139 31.3982 33.3652 31.2574 33.3652 31.1123C33.3652 30.9673 33.4139 30.8264 33.5034 30.7123C33.5868 30.6119 33.6995 30.5401 33.8258 30.5071C33.9521 30.4741 34.0856 30.4815 34.2074 30.5283C34.4374 30.6407 34.6593 30.769 34.8714 30.9123C35.4147 31.2605 36.0045 31.5298 36.6234 31.7123C37.2811 31.9084 37.9855 31.8774 38.6234 31.6243C39.0255 31.4536 39.4181 31.2613 39.7994 31.0483C39.9754 30.9603 40.1274 30.8323 40.3034 30.7603C40.4377 30.6916 40.5922 30.6731 40.7389 30.7083C40.8857 30.7435 41.015 30.8301 41.1034 30.9523C41.1925 31.0878 41.231 31.2503 41.212 31.4113C41.1929 31.5723 41.1177 31.7214 40.9994 31.8323L40.9274 31.8963C39.9187 32.6518 38.7128 33.0992 37.4554 33.1843Z" fill="#007BFF"/>
<path d="M38.1988 58.0162C37.9668 58.1282 37.7508 58.2642 37.5108 58.3522C37.2688 58.4462 37.0105 58.4913 36.7509 58.485C36.4913 58.4787 36.2356 58.4211 35.9983 58.3155C35.7611 58.2099 35.5471 58.0584 35.3687 57.8697C35.1903 57.6811 35.051 57.459 34.9588 57.2162C34.6789 56.5779 34.6532 55.8569 34.8868 55.2002C34.9728 54.9291 35.1156 54.6794 35.3058 54.4678C35.4959 54.2562 35.729 54.0877 35.9894 53.9733C36.2499 53.859 36.5318 53.8016 36.8162 53.8048C37.1006 53.8081 37.3811 53.872 37.6388 53.9922C37.8148 54.0722 37.9748 54.1762 38.1428 54.2722C38.3348 54.1762 38.3108 53.8482 38.6068 53.8562C38.9028 53.8642 39.0548 53.8562 39.3108 53.8562C39.4533 54.5884 39.4937 55.3369 39.4308 56.0802C39.4308 56.7922 39.4308 57.4962 39.4308 58.2322C38.9268 58.4002 38.5028 58.4802 38.1988 58.0162ZM37.0948 57.5202C37.4147 57.5161 37.7204 57.3878 37.9473 57.1623C38.1743 56.9369 38.3046 56.632 38.3108 56.3122C38.3695 55.9908 38.3038 55.6591 38.127 55.3843C37.9502 55.1095 37.6757 54.9121 37.3588 54.8322C37.1365 54.7809 36.9039 54.7977 36.6913 54.8805C36.4787 54.9633 36.296 55.1081 36.1668 55.2962C36.0021 55.5267 35.9051 55.7987 35.8867 56.0814C35.8683 56.3641 35.9293 56.6463 36.0628 56.8962C36.1557 57.0841 36.2993 57.2422 36.4775 57.3525C36.6557 57.4628 36.8613 57.5209 37.0708 57.5202H37.0948Z" fill="white"/>
<path d="M29.0305 54.944C28.8075 55.0194 28.5717 55.0498 28.3369 55.0333C28.102 55.0169 27.8728 54.9538 27.6625 54.848C27.4737 54.7211 27.2557 54.6443 27.029 54.6247C26.8023 54.6051 26.5744 54.6434 26.3665 54.736C26.2971 54.7676 26.2363 54.8153 26.1889 54.8751C26.1416 54.9349 26.1093 55.0051 26.0945 55.08C26.1053 55.1561 26.1351 55.2284 26.1813 55.2899C26.2274 55.3515 26.2884 55.4003 26.3585 55.432C26.6031 55.5106 26.8551 55.5642 27.1105 55.592C27.5569 55.6451 27.9966 55.7443 28.4225 55.888C28.6286 55.9834 28.8056 56.1319 28.9353 56.3183C29.065 56.5046 29.1428 56.7222 29.1607 56.9485C29.1786 57.1749 29.136 57.4019 29.0372 57.6064C28.9384 57.8108 28.787 57.9853 28.5985 58.112C27.6865 58.736 25.5825 58.616 24.9905 57.544C24.9537 57.4605 24.9216 57.3751 24.8945 57.288C25.6225 57.064 25.6945 57.056 26.2225 57.376C26.4421 57.5154 26.6924 57.5992 26.9517 57.6201C27.211 57.6411 27.4714 57.5984 27.7105 57.496C27.7804 57.4642 27.8396 57.4129 27.8811 57.3484C27.9226 57.2838 27.9447 57.2087 27.9447 57.132C27.9447 57.0552 27.9226 56.9801 27.8811 56.9156C27.8396 56.851 27.7804 56.7998 27.7105 56.768C27.4328 56.6859 27.1493 56.6244 26.8625 56.584C26.5116 56.542 26.164 56.4752 25.8225 56.384C25.5611 56.3151 25.3298 56.1615 25.1648 55.9473C24.9999 55.7331 24.9104 55.4703 24.9105 55.2C24.9141 54.9384 24.9993 54.6844 25.1542 54.4736C25.3091 54.2628 25.526 54.1056 25.7745 54.024C26.2701 53.8281 26.8096 53.7707 27.3353 53.8581C27.861 53.9455 28.353 54.1743 28.7585 54.52C28.858 54.6554 28.9489 54.7971 29.0305 54.944Z" fill="white"/>
<path d="M46.4226 52.1201H47.3026C47.5826 52.6241 47.3026 53.2081 47.5186 53.7841C47.9426 53.9841 48.4466 53.7841 48.9026 53.9201C49.1826 54.1441 49.0866 54.4321 49.0626 54.7201C48.9666 54.7761 48.9186 54.8321 48.8626 54.8401L47.5586 54.9041C47.5034 55.0818 47.4632 55.2637 47.4386 55.4481C47.4386 55.8641 47.4386 56.2481 47.4386 56.7041C47.4386 57.1601 47.6706 57.3281 48.1186 57.3681C48.4066 57.3681 48.6866 57.3681 49.0226 57.4241L49.0866 58.2241C48.9746 58.2881 48.8946 58.3681 48.8066 58.3761C48.3562 58.4001 47.9049 58.4001 47.4546 58.3761C47.1744 58.3677 46.907 58.2574 46.7023 58.066C46.4976 57.8746 46.3697 57.6151 46.3426 57.3361C46.3011 57.0178 46.2797 56.6971 46.2786 56.3761C46.2786 55.9841 46.2786 55.5761 46.2786 55.2161C46.262 55.1331 46.2351 55.0525 46.1986 54.9761L45.1426 54.8241V54.0241L46.1986 53.8161C46.4546 53.2961 46.1186 52.6721 46.4226 52.1201Z" fill="white"/>
<path d="M30.9987 54.8884L29.8867 54.8004V54.0004L30.9507 53.8484C31.1987 53.3364 30.9507 52.7524 31.1507 52.1924C31.4553 52.096 31.7822 52.096 32.0867 52.1924C32.3267 52.7044 32.0867 53.2804 32.2787 53.8644L33.7507 53.9764L33.8307 54.7764C33.7107 54.8324 33.6307 54.9044 33.5427 54.9044C33.1587 54.9044 32.7427 54.9044 32.3427 54.9044C32.2808 55.0948 32.2353 55.2902 32.2067 55.4884C32.2067 55.9444 32.2067 56.4004 32.2067 56.8484C32.2056 56.9222 32.2194 56.9955 32.2471 57.0639C32.2749 57.1324 32.3161 57.1945 32.3683 57.2467C32.4206 57.299 32.4827 57.3402 32.5511 57.3679C32.6196 57.3957 32.6929 57.4094 32.7667 57.4084C32.9267 57.4084 33.0867 57.4084 33.2467 57.4084C33.4067 57.4084 33.5027 57.4084 33.6307 57.4084C33.8867 57.6564 33.7907 57.9524 33.7667 58.2084C33.6903 58.2634 33.603 58.3016 33.5107 58.3204C33.1587 58.3204 32.7987 58.3204 32.4467 58.3204C31.4707 58.2644 31.0787 57.8484 31.0387 56.8484C31.0387 56.4004 31.0387 55.9444 31.0387 55.4884C30.9987 55.3284 30.9987 55.1444 30.9987 54.8884Z" fill="white"/>
<path d="M42.2394 54.336C42.5469 54.1281 42.893 53.9841 43.2572 53.9126C43.6214 53.8412 43.9962 53.8437 44.3594 53.92C44.6314 54.24 44.4794 54.568 44.5114 54.928C44.2634 54.928 44.0474 55 43.8314 55.016C43.6154 55.032 43.3114 55.016 43.0314 55.016C42.3354 55.096 42.0634 55.368 42.0234 56.08C42.0234 56.464 42.0234 56.88 42.0234 57.24C42.0234 57.6 42.0234 57.88 42.0234 58.184C41.7244 58.3203 41.386 58.3431 41.0714 58.248C40.9059 56.8342 40.9059 55.4058 41.0714 53.992C41.2743 53.8954 41.5057 53.8771 41.7213 53.9406C41.9368 54.004 42.1213 54.1449 42.2394 54.336Z" fill="white"/>
<path d="M42.1991 23.8801C42.2242 24.5144 41.997 25.1329 41.5671 25.6001C41.4433 25.7508 41.2876 25.8722 41.1112 25.9556C40.9348 26.039 40.7422 26.0822 40.5471 26.0822C40.352 26.0822 40.1594 26.039 39.983 25.9556C39.8066 25.8722 39.6509 25.7508 39.5271 25.6001C39.1225 25.1096 38.9073 24.4903 38.9205 23.8547C38.9337 23.2191 39.1745 22.6093 39.5991 22.1361C39.7267 21.999 39.8823 21.8909 40.0552 21.8189C40.2281 21.747 40.4144 21.7129 40.6016 21.7189C40.7888 21.725 40.9726 21.7711 41.1405 21.8541C41.3084 21.9371 41.4566 22.055 41.5751 22.2001C41.9922 22.6585 42.2158 23.2605 42.1991 23.8801Z" fill="white"/>
<path d="M32.1917 23.7839C32.1729 23.4675 32.2169 23.1504 32.3213 22.8511C32.4256 22.5518 32.5883 22.2761 32.7998 22.0399C32.9219 21.8866 33.077 21.7628 33.2536 21.6776C33.4302 21.5925 33.6237 21.5483 33.8198 21.5483C34.0158 21.5483 34.2093 21.5925 34.3859 21.6776C34.5625 21.7628 34.7176 21.8866 34.8398 22.0399C35.2295 22.5192 35.4423 23.1181 35.4423 23.7359C35.4423 24.3537 35.2295 24.9526 34.8398 25.4319C34.7144 25.5816 34.5577 25.7019 34.3808 25.7845C34.2039 25.867 34.011 25.9098 33.8157 25.9098C33.6205 25.9098 33.4277 25.867 33.2507 25.7845C33.0738 25.7019 32.9171 25.5816 32.7917 25.4319C32.5853 25.2122 32.4256 24.9529 32.3224 24.6696C32.2193 24.3863 32.1748 24.0849 32.1917 23.7839Z" fill="white"/>
<path d="M37.0707 57.5201C36.8536 57.5225 36.6405 57.4618 36.4573 57.3454C36.2741 57.2289 36.1286 57.0617 36.0387 56.8641C35.9052 56.6142 35.8442 56.332 35.8626 56.0493C35.881 55.7665 35.978 55.4946 36.1427 55.2641C36.2718 55.076 36.4546 54.9311 36.6672 54.8484C36.8798 54.7656 37.1124 54.7488 37.3347 54.8001C37.6515 54.88 37.9261 55.0774 38.1029 55.3522C38.2796 55.627 38.3453 55.9587 38.2867 56.2801C38.2888 56.6055 38.1622 56.9185 37.9344 57.1508C37.7065 57.3831 37.3961 57.5159 37.0707 57.5201Z" fill="#007BFF"/>
</svg>
