<svg width="52" height="52" viewBox="0 0 52 52" fill="none" xmlns="http://www.w3.org/2000/svg">
<path d="M1.51226 30.2533L1.52491 29.741C1.79604 18.7604 10.7754 10 21.7594 10C32.938 10 42 19.062 42 30.2406V30.7531C42 41.9351 32.9351 51 21.753 51C10.3753 51 1.23142 41.6276 1.51226 30.2533Z" stroke="white" stroke-width="1.5"/>
<path d="M3.40234 24.0586H40.3925" stroke="white" stroke-width="1.5"/>
<path d="M2.92188 37.5098H40.3925" stroke="white" stroke-width="1.5"/>
<path d="M25.4607 12.5293C35.5489 26.4607 27.8431 49.0588 24 50.5" stroke="white" stroke-width="1.5"/>
<path d="M14.6947 9.51859L21.591 18.2299C22 18.7464 22.7879 18.7333 23.1794 18.2035L29.6121 9.49749C29.749 9.31223 29.8188 9.07842 29.8012 8.84874C28.996 -1.69823 15.63 -1.52256 14.4886 8.81403C14.4609 9.06468 14.5381 9.32088 14.6947 9.51859Z" fill="#007BFF" stroke="white" stroke-width="1.5"/>
<path d="M22.1364 6.76465C23.1977 6.76465 24.058 7.62496 24.058 8.68622C24.058 9.74747 23.1977 10.6078 22.1364 10.6078C21.0752 10.6078 20.2148 9.74747 20.2148 8.68622C20.2148 7.62496 21.0752 6.76465 22.1364 6.76465Z" fill="white"/>
<path d="M17.3332 13.0098C8.29572 27.1269 15.5572 49.0396 19 50.5" stroke="white" stroke-width="1.5"/>
<path d="M37.0293 8.20602C44.2352 7.72572 44.7156 13.4903 44.7156 15.8923" stroke="white" stroke-width="1.5"/>
<path d="M36.5488 2.01376C50.0599 1.11651 50.9606 11.8855 50.9606 16.3727" stroke="white" stroke-width="1.5"/>
</svg>
