<svg width="47" height="47" viewBox="0 0 47 47" fill="none" xmlns="http://www.w3.org/2000/svg">
<path d="M42.9997 1H28.6426C26.9857 1 25.6426 2.34315 25.6426 4V18.3571C25.6426 20.014 26.9857 21.3571 28.6426 21.3571H42.9997C44.6566 21.3571 45.9997 20.014 45.9997 18.3571V4C45.9997 2.34315 44.6566 1 42.9997 1Z" stroke="white" stroke-width="1.5"/>
<path d="M18.3571 1H4C2.34315 1 1 2.34315 1 4V18.3571C1 20.014 2.34315 21.3571 4 21.3571H18.3571C20.014 21.3571 21.3571 20.014 21.3571 18.3571V4C21.3571 2.34315 20.014 1 18.3571 1Z" stroke="white" stroke-width="1.5"/>
<path d="M18.3571 25.6431H4C2.34315 25.6431 1 26.9862 1 28.6431V43.0002C1 44.6571 2.34315 46.0002 4 46.0002H18.3571C20.014 46.0002 21.3571 44.6571 21.3571 43.0002V28.6431C21.3571 26.9862 20.014 25.6431 18.3571 25.6431Z" stroke="white" stroke-width="1.5"/>
<path d="M42.9997 25.6431H28.6426C26.9857 25.6431 25.6426 26.9862 25.6426 28.6431V43.0002C25.6426 44.6571 26.9857 46.0002 28.6426 46.0002H42.9997C44.6566 46.0002 45.9997 44.6571 45.9997 43.0002V28.6431C45.9997 26.9862 44.6566 25.6431 42.9997 25.6431Z" stroke="white" stroke-width="1.5"/>
<path d="M1.53516 11.1787H20.8209" stroke="white" stroke-width="1.5"/>
<path d="M11.1777 1V21.3571" stroke="white" stroke-width="1.5"/>
<path d="M35.8211 32.0713V35.7908C35.8211 36.1421 35.6369 36.4676 35.3356 36.6483L33.1426 37.9641" stroke="white" stroke-width="1.5"/>
<path d="M35.8217 28.8569C39.668 28.8569 42.786 31.975 42.786 35.8212C42.786 39.6675 39.668 42.7855 35.8217 42.7855C31.9754 42.7855 28.8574 39.6675 28.8574 35.8212C28.8574 31.975 31.9754 28.8569 35.8217 28.8569Z" stroke="white" stroke-width="1.5"/>
</svg>
