<svg width="31" height="32" viewBox="0 0 31 32" fill="none" xmlns="http://www.w3.org/2000/svg">
<path d="M27.5 10.5L29.6247 12.1998C29.8619 12.3895 30 12.6768 30 12.9806V29.5C30 30.0523 29.5523 30.5 29 30.5H2C1.44772 30.5 1 30.0523 1 29.5V12.9806C1 12.6768 1.13809 12.3895 1.3753 12.1998L3.5 10.5" stroke="#007BFF" stroke-width="1.5"/>
<path d="M12 4L14.8492 1.55782C15.2237 1.23683 15.7763 1.23683 16.1508 1.55782L19 4" stroke="#007BFF" stroke-width="1.5"/>
<path d="M3.5 14V5C3.5 4.44772 3.94772 4 4.5 4H26.5C27.0523 4 27.5 4.44772 27.5 5V14" stroke="#007BFF" stroke-width="1.5"/>
<path d="M1.5 30L13.5958 20.0642C14.7025 19.1551 16.2975 19.1551 17.4042 20.0642L29.5 30" stroke="#007BFF" stroke-width="1.5"/>
<path d="M1.5 12.5L11.5 21" stroke="#007BFF" stroke-width="1.5"/>
<path d="M19.5 21L30 12.5" stroke="#007BFF" stroke-width="1.5"/>
</svg>
