<svg width="32" height="27" viewBox="0 0 32 27" fill="none" xmlns="http://www.w3.org/2000/svg">
<path d="M1 12.0338V20.0832C1 21.5242 2.16817 22.6924 3.60918 22.6924C4.54551 22.6924 5.41004 23.1941 5.87459 24.007L6.15419 24.4963L7.09653 26.1454C7.13528 26.2133 7.23334 26.2125 7.27098 26.144L8.14519 24.5544C8.67243 23.5957 9.67977 23.0001 10.7739 23.0001H17.8436C19.5005 23.0001 20.8436 21.6569 20.8436 20.0001V18.0536L20.6692 11.9481C20.6228 10.3253 19.2939 9.03378 17.6704 9.03378H4C2.34315 9.03378 1 10.3769 1 12.0338Z" stroke="#007BFF" stroke-width="1.5"/>
<path d="M19.4263 3.36417C20.1994 4.91042 21.3591 4.65271 21.8745 3.36417" stroke="#007BFF" stroke-width="1.5"/>
<path d="M19.556 3.62166C17.4947 -0.759475 9.24737 1.56018 11.0509 8.77596" stroke="#007BFF" stroke-width="1.5"/>
<path d="M21.6167 3.87957C24.4515 -0.759187 30.3788 1.818 30.6365 5.68354C31.5 11.5 24.5 17.5 21 18.5" stroke="#007BFF" stroke-width="1.5"/>
</svg>
