<svg width="34" height="20" viewBox="0 0 34 20" fill="none" xmlns="http://www.w3.org/2000/svg">
<path d="M1 16.6738C1 17.9585 2.04148 19 3.32621 19C4.61094 19 5.65242 17.9585 5.65242 16.6738C5.65242 15.3891 4.61094 14.3476 3.32621 14.3476C2.04148 14.3476 1 15.3891 1 16.6738Z" stroke="#007BFF" stroke-width="1.5"/>
<path d="M18.4463 13.1846C18.4463 14.4693 19.4878 15.5108 20.7725 15.5108C22.0572 15.5108 23.0987 14.4693 23.0987 13.1846C23.0987 11.8999 22.0572 10.8584 20.7725 10.8584C19.4878 10.8584 18.4463 11.8999 18.4463 13.1846Z" stroke="#007BFF" stroke-width="1.5"/>
<path d="M28 3.32621C28 4.61094 29.0415 5.65242 30.3262 5.65242C31.6109 5.65242 32.6524 4.61094 32.6524 3.32621C32.6524 2.04148 31.6109 1 30.3262 1C29.0415 1 28 2.04148 28 3.32621Z" stroke="#007BFF" stroke-width="1.5"/>
<path d="M11.4678 6.20554C11.4678 7.49027 12.5093 8.53175 13.794 8.53175C15.0787 8.53175 16.1202 7.49027 16.1202 6.20554C16.1202 4.92081 15.0787 3.87933 13.794 3.87933C12.5093 3.87933 11.4678 4.92081 11.4678 6.20554Z" stroke="#007BFF" stroke-width="1.5"/>
<path d="M14.957 7.95023L18.9236 12.03" stroke="#007BFF" stroke-width="1.5"/>
<path d="M22.5176 11.4396L29 4.5" stroke="#007BFF" stroke-width="1.5"/>
<path d="M4.48926 14.9292L12.0494 7.36902" stroke="#007BFF" stroke-width="1.5"/>
</svg>
