<svg width="32" height="32" viewBox="0 0 32 32" fill="none" xmlns="http://www.w3.org/2000/svg">
<path d="M23.72 18.79H7.47939C7.24082 18.79 7.01012 18.8753 6.82892 19.0305L2.65047 22.6089C2.00171 23.1645 1 22.7035 1 21.8494V2C1 1.44772 1.44772 1 2 1H23.72C24.2723 1 24.72 1.44771 24.72 2V17.79C24.72 18.3423 24.2723 18.79 23.72 18.79Z" stroke="#007BFF" stroke-width="1.5"/>
<path d="M9.37311 18.5V26.1618C9.37311 26.7141 9.82082 27.1618 10.3731 27.1618H25.7467C25.9854 27.1618 26.2163 27.2472 26.3975 27.4026L29.3494 29.9327C29.9981 30.4888 31.0002 30.0278 31.0002 29.1735V10.3718C31.0002 9.81951 30.5525 9.3718 30.0002 9.3718H24.5" stroke="#007BFF" stroke-width="1.5"/>
</svg>
