<svg width="32" height="34" viewBox="0 0 32 34" fill="none" xmlns="http://www.w3.org/2000/svg">
<path d="M2.34543 7.20677H4.62384C4.94679 7.20677 5.24986 7.36274 5.43757 7.62553L6.86256 9.62051L7.95392 7.71063C8.13196 7.39906 8.4633 7.20677 8.82216 7.20677H24.8277C25.38 7.20677 25.8277 6.75905 25.8277 6.20677V2C25.8277 1.44772 25.38 1 24.8277 1H2.34543C1.79314 1 1.34543 1.44771 1.34543 2V6.20677C1.34543 6.75905 1.79314 7.20677 2.34543 7.20677Z" stroke="#007BFF" stroke-width="1.5"/>
<path d="M2 29.2408H4.27841C4.60136 29.2408 4.90443 29.3968 5.09214 29.6596L6.51713 31.6546L7.60849 29.7447C7.78653 29.4331 8.11788 29.2408 8.47673 29.2408H24.4823C25.0345 29.2408 25.4823 28.7931 25.4823 28.2408V24.0341C25.4823 23.4818 25.0345 23.0341 24.4823 23.0341H2C1.44772 23.0341 1 23.4818 1 24.0341V28.2408C1 28.7931 1.44772 29.2408 2 29.2408Z" stroke="#007BFF" stroke-width="1.5"/>
<path d="M7.5177 17.8963H20.3105H23.5232C23.8821 17.8963 24.2134 18.0885 24.3915 18.4001L25.4828 20.31L26.5652 18.6864C26.7507 18.4082 27.0629 18.2411 27.3973 18.2411H30C30.5522 18.2411 31 17.7934 31 17.2411V13.0343C31 12.482 30.5522 12.0343 30 12.0343H7.5177C6.96542 12.0343 6.5177 12.482 6.5177 13.0343V16.8963C6.5177 17.4485 6.96542 17.8963 7.5177 17.8963Z" stroke="#007BFF" stroke-width="1.5"/>
</svg>
