<svg width="31" height="29" viewBox="0 0 31 29" fill="none" xmlns="http://www.w3.org/2000/svg">
<path d="M6.0459 27.4998V14.4089" stroke="#007BFF" stroke-width="1.5"/>
<path d="M26.5002 27.4999H5.22754" stroke="#007BFF" stroke-width="1.5"/>
<path d="M25.6816 27.4999V14.4089" stroke="#007BFF" stroke-width="1.5"/>
<path d="M15.2002 1.08022L1.87377 12.7357C1.41367 13.1381 1.41905 13.8555 1.88513 14.251L3.33491 15.4811C3.716 15.8044 4.2773 15.7968 4.64943 15.4631L15.1896 6.01335C15.5722 5.67032 16.1525 5.67312 16.5318 6.01982L26.8499 15.4512C27.2215 15.7908 27.7876 15.8013 28.1715 15.4756L29.6216 14.2452C30.0853 13.8517 30.0934 13.1389 29.6387 12.735L16.5226 1.08528C16.146 0.750765 15.5794 0.748599 15.2002 1.08022Z" stroke="#007BFF" stroke-width="1.5"/>
<path d="M12.5908 27.4996V18.6814C12.5908 18.1292 13.0385 17.6814 13.5908 17.6814H18.1363C18.6885 17.6814 19.1363 18.1292 19.1363 18.6814V27.4996" stroke="#007BFF" stroke-width="1.5"/>
</svg>
