<svg width="30" height="30" viewBox="0 0 30 30" fill="none" xmlns="http://www.w3.org/2000/svg">
<path d="M0 1H3.38333L10.6333 19.85H26.5833L29 5.35H5.05641" stroke="#007BFF" stroke-width="1.5"/>
<path d="M10.1501 24.2C11.4848 24.2 12.5667 25.282 12.5667 26.6167C12.5667 27.9514 11.4848 29.0333 10.1501 29.0333C8.81538 29.0333 7.7334 27.9514 7.7334 26.6167C7.7334 25.282 8.81538 24.2 10.1501 24.2Z" stroke="#007BFF" stroke-width="1.5"/>
<path d="M24.6501 24.2C25.9848 24.2 27.0667 25.282 27.0667 26.6167C27.0667 27.9514 25.9848 29.0333 24.6501 29.0333C23.3154 29.0333 22.2334 27.9514 22.2334 26.6167C22.2334 25.282 23.3154 24.2 24.6501 24.2Z" stroke="#007BFF" stroke-width="1.5"/>
<path d="M11.1167 19.8499C2.90001 18.8833 5.31681 24.2 7.73336 24.1999L23.6833 24.1999" stroke="#007BFF" stroke-width="1.5"/>
</svg>
