<svg width="29" height="37" viewBox="0 0 29 37" fill="none" xmlns="http://www.w3.org/2000/svg">
<path d="M20.4159 21C24.5116 21 27.8318 24.3202 27.8318 28.4159C27.8318 32.5116 24.5116 35.8318 20.4159 35.8318C16.3202 35.8318 13 32.5116 13 28.4159C13 24.3202 16.3202 21 20.4159 21Z" stroke="#007BFF" stroke-width="1.5"/>
<path d="M16.33 30.614H17.771V32H19.234V30.614H23.128V29.58H19.234V28.766H22.028C23.777 28.766 24.723 27.919 24.723 26.467C24.723 25.026 23.777 24.19 22.028 24.19H17.771V27.732H16.33V28.755H17.771V29.58H16.33V30.614ZM21.951 25.499C22.798 25.499 23.216 25.884 23.216 26.555C23.216 27.215 22.798 27.677 21.951 27.677H19.234V25.499H21.951Z" fill="#007BFF"/>
<path d="M23.0558 21.472C23.6738 18.382 20.3605 11.5841 15.9923 9.40003C14.6948 8.75129 16.8032 4.80477 18.0196 2.9126C18.4251 1.29082 14.7751 2.50722 12.7486 2.9126C11.1267 3.23704 10.3158 2.50722 6.26111 1.69629C5.288 2.02066 8.15328 6.83217 9.09937 8.99465C9.09937 9.64333 5.04472 11.8329 3.42287 14.6712C-1.84814 22.375 1.42616 33.8318 13.786 32.5958" stroke="#007BFF" stroke-width="1.5"/>
</svg>
