<svg width="58" height="58" viewBox="0 0 58 58" fill="none" xmlns="http://www.w3.org/2000/svg">
<path d="M23.6154 1V6.38462L16.6154 9.07692L12.8462 5.84615L5.84615 12.3077L9.61539 16.6154L5.84615 24.1538H1V33.8462H5.84615L9.61539 41.3846L5.84615 45.1538L12.8462 52.1539L16.6154 48.3846L23.6154 51.6154V57H33.8462V51.6154L41.9231 48.3846L45.6923 51.6154L52.1539 45.1538L48.3846 41.3846L51.6154 33.8462H57V23.6154H51.6154L48.9231 16.6154L52.1539 12.3077L45.1538 5.84615L40.8462 9.07692L33.8462 6.38462V1H23.6154Z" stroke="#007BFF" stroke-width="1.5"/>
<path d="M24.1534 24.6922L27.3842 27.923L33.3072 21.4614L38.1534 25.7691L27.3842 36.5383L19.8457 28.9999L24.1534 24.6922Z" stroke="#007BFF" stroke-width="1.5"/>
<path d="M28.4611 12.8462C37.0852 12.8462 44.0765 19.8374 44.0765 28.4616C44.0765 37.0857 37.0852 44.077 28.4611 44.077C19.8369 44.077 12.8457 37.0857 12.8457 28.4616C12.8457 19.8374 19.8369 12.8462 28.4611 12.8462Z" stroke="#007BFF" stroke-width="1.5"/>
</svg>
