<svg width="54" height="59" viewBox="0 0 54 59" fill="none" xmlns="http://www.w3.org/2000/svg">
<path d="M16.5015 25.9653H11.5015C10.9492 25.9653 10.5015 25.5176 10.5015 24.9653V17.4653C9.50126 -0.0149527 38.9337 -8.51555 43.4862 17.3778C43.4961 17.4341 43.5015 17.4941 43.5015 17.5513V24.9653C43.5015 25.5176 43.0538 25.9653 42.5015 25.9653H38.0015" stroke="#007BFF" stroke-width="1.5"/>
<path d="M10 16.4653H15" stroke="#007BFF" stroke-width="1.5"/>
<path d="M38.5 16.4653H43" stroke="#007BFF" stroke-width="1.5"/>
<path d="M13 25.9653V29.9653C13 30.5176 13.4477 30.9653 14 30.9653H22" stroke="#007BFF" stroke-width="1.5"/>
<path d="M27 32.9653H24C22.8954 32.9653 22 32.0699 22 30.9653C22 29.8608 22.8954 28.9653 24 28.9653H27C28.1046 28.9653 29 29.8608 29 30.9653C29 32.0699 28.1046 32.9653 27 32.9653Z" stroke="#007BFF" stroke-width="1.5"/>
<path d="M15 18.5C17.0864 15.4863 19.4975 13.603 21.4156 12.5521C23.1698 11.591 25.1503 12.6571 26.8503 13.711C29.9247 15.617 35.0958 17.2393 38 17.9653" stroke="#007BFF" stroke-width="1.5"/>
<path d="M15.0742 17.1332L16.4155 29.2043C16.4715 29.7086 16.6026 30.2116 16.8265 30.6669C22.5337 42.2716 36.0288 37.2923 37.5 28.4651L38.5 16.4652C39.9818 6.09212 18.5295 -2.32886 15.1173 15.7869C15.0347 16.2253 15.025 16.6899 15.0742 17.1332Z" stroke="#007BFF" stroke-width="1.5"/>
<path d="M20.5 35.4653L18 40.9653" stroke="#007BFF" stroke-width="1.5"/>
<path d="M33 34.9653L36.5 41.9653" stroke="#007BFF" stroke-width="1.5"/>
<path d="M21 36.9653L32.5 48.9653" stroke="#007BFF" stroke-width="1.5"/>
<path d="M22 47.9653L33 35.9653" stroke="#007BFF" stroke-width="1.5"/>
<path d="M17.5 40.9653L27 57.4653" stroke="#007BFF" stroke-width="1.5"/>
<path d="M37 40.4653L27.5 57.4653" stroke="#007BFF" stroke-width="1.5"/>
<path d="M18.5 40.4653C7.43172 42.8715 1.45824 48.5198 1.02534 56.9644C0.997067 57.516 1.44772 57.9653 2 57.9653H51.9232C52.5046 57.9653 52.9653 57.4674 52.897 56.89C51.4154 44.3566 41.0263 42.411 36 40.4653" stroke="#007BFF" stroke-width="1.5"/>
<path d="M39 45.9653L41 46.9653" stroke="#007BFF" stroke-width="1.5"/>
<path d="M43 47.9653C46.2 50.3653 47.3333 52.632 47.5 53.4653" stroke="#007BFF" stroke-width="1.5"/>
</svg>
