<svg width="57" height="61" viewBox="0 0 57 61" fill="none" xmlns="http://www.w3.org/2000/svg">
<path d="M1 58V45C1 44.4477 1.44772 44 2 44H9.5C10.0523 44 10.5 44.4477 10.5 45V58C10.5 58.5523 10.0523 59 9.5 59H2C1.44772 59 1 58.5523 1 58Z" stroke="#007BFF" stroke-width="1.5"/>
<path d="M5 53.5V55" stroke="#007BFF" stroke-width="1.5"/>
<path d="M10.5 45.4999C14.1 41.8999 21.3747 41.5 22.5 42.4999C27 46.4996 31.1667 45.4999 34 45.4999C36 45.4999 36.5 48.4997 36.5 49.9996" stroke="#007BFF" stroke-width="1.5"/>
<path d="M26 52.9998C29.5486 51.4227 35.0082 51.0115 37.3982 51.0001C37.4674 50.9998 37.5346 50.9926 37.6023 50.9782C45.0504 49.3977 51.17 46.7369 53.4073 45.5494C53.4708 45.5157 53.5372 45.4888 53.6069 45.4707C56.076 44.8301 56.3058 47.0847 56.0736 48.6055C56.0346 48.8604 55.8802 49.0797 55.6657 49.2227L39.7519 59.832C39.5877 59.9416 39.3946 60 39.1972 60H15.5C12.3 59.6 10.8333 58.5 10.5 58" stroke="#007BFF" stroke-width="1.5"/>
<path d="M29 17V19.8889C29 20.1957 29.2487 20.4444 29.5556 20.4444H30.1333C30.6856 20.4444 31.1333 20.8922 31.1333 21.4444V25.5556C31.1333 26.1078 30.6856 26.5556 30.1333 26.5556H30C29.4477 26.5556 29 27.0033 29 27.5556V30C29 30.5523 29.4477 31 30 31H36C36.5523 31 37 30.5523 37 30V27.3556C37 26.9137 36.6418 26.5556 36.2 26.5556C35.7582 26.5556 35.4 26.1974 35.4 25.7556V17C35.4 16.4477 34.9523 16 34.4 16H30C29.4477 16 29 16.4477 29 17Z" stroke="#007BFF" stroke-width="1.5"/>
<path d="M32.5 7C33.8807 7 35 8.11929 35 9.5C35 10.8807 33.8807 12 32.5 12C31.1193 12 30 10.8807 30 9.5C30 8.11929 31.1193 7 32.5 7Z" stroke="#007BFF" stroke-width="1.5"/>
<path d="M32.5 1C42.7173 1 51 9.28273 51 19.5C51 29.7173 42.7173 38 32.5 38C22.2827 38 14 29.7173 14 19.5C14 9.28273 22.2827 1 32.5 1Z" stroke="#007BFF" stroke-width="1.5"/>
</svg>
