<svg width="52" height="41" viewBox="0 0 52 41" fill="none" xmlns="http://www.w3.org/2000/svg">
<path d="M40.9132 26.4324H50.0009C50.5532 26.4324 51.0009 25.9847 51.0009 25.4324V15.6513V4.87015V2C51.0009 1.44772 50.5532 1 50.0009 1H13.7988C13.2465 1 12.7988 1.44772 12.7988 2V25.4324C12.7988 25.9847 13.2465 26.4324 13.7988 26.4324H30.6231C31.1753 26.4324 31.6231 26.8801 31.6231 27.4324V33.3123C31.6231 34.2176 32.7299 34.657 33.3508 33.9982L40.1854 26.7465C40.3744 26.546 40.6377 26.4324 40.9132 26.4324Z" stroke="white" stroke-width="1.5"/>
<path d="M21.2246 7.7417H42.5728" stroke="white" stroke-width="1.5"/>
<path d="M21.2246 13.3594H42.5728" stroke="white" stroke-width="1.5"/>
<path d="M21.2246 18.9775H34.1459" stroke="white" stroke-width="1.5"/>
<path d="M12.2359 20.1011H2C1.44772 20.1011 1 20.5488 1 21.1011V34.2696C1 34.8218 1.44772 35.2696 2 35.2696H7.29618C7.57967 35.2696 7.84984 35.3899 8.03948 35.6006L11.0544 38.9505C11.6675 39.6317 12.7977 39.198 12.7977 38.2816V36.2696C12.7977 35.7173 13.2454 35.2696 13.7977 35.2696H23.5954C24.1477 35.2696 24.5954 34.8218 24.5954 34.2696V26.2808" stroke="white" stroke-width="1.5"/>
</svg>
