<svg width="52" height="51" viewBox="0 0 52 51" fill="none" xmlns="http://www.w3.org/2000/svg">
<path d="M14.6755 15.1026L10.6817 11.1088C10.2912 10.7183 10.2912 10.0851 10.6817 9.69459L15.2504 5.12591C15.6409 4.73538 16.2741 4.73538 16.6646 5.12591L19.3533 7.81462C19.6281 8.08935 20.037 8.18008 20.4022 8.04731L23.8463 6.79492C24.2414 6.65121 24.5045 6.27563 24.5045 5.85512V2C24.5045 1.44771 24.9522 1 25.5045 1H32.0515C32.6038 1 33.0515 1.44772 33.0515 2V5.90568C33.0515 6.30087 33.2842 6.65899 33.6454 6.81949L36.3612 8.02652C36.6924 8.17373 37.0774 8.13018 37.3673 7.9127L41.3057 4.95896C41.7151 4.6519 42.2902 4.70349 42.6384 5.07851L46.9257 9.69554C47.2917 10.0897 47.2803 10.7028 46.9 11.0831L44.1576 13.8255C43.8975 14.0856 43.8012 14.4676 43.9069 14.82L44.8336 17.9091C44.9456 18.2824 45.2643 18.5566 45.6501 18.6117L50.1416 19.2534C50.6343 19.3238 51.0002 19.7457 51.0002 20.2433V26.2011C51.0002 26.6987 50.6343 27.1206 50.1416 27.191L45.6041 27.8392C45.2423 27.8909 44.9375 28.1358 44.8092 28.4781L43.9485 30.7732C43.8175 31.1226 43.8919 31.5159 44.1415 31.7933L46.9467 34.9101C47.3025 35.3055 47.2866 35.9101 46.9105 36.2862L41.842 41.3547C41.4659 41.7308 40.8613 41.7467 40.466 41.3909L36.8977 38.1795" stroke="white" stroke-width="1.5"/>
<path d="M21.0855 16.3847C36.4701 4.41894 43.735 26.6411 35.6154 30.9146M5.51815 28.3495L4.67855 30.3086C4.52097 30.6762 4.15943 30.9146 3.7594 30.9146H2C1.44772 30.9146 1 31.3623 1 31.9146V36.7522C1 37.3045 1.44772 37.7522 2 37.7522H4.92007C5.37894 37.7522 5.77892 38.0645 5.89022 38.5097L6.41823 40.6218C6.50342 40.9625 6.40357 41.323 6.15519 41.5714L4.66569 43.0609C4.28824 43.4384 4.27379 44.0457 4.63285 44.4407L7.65291 47.7627C7.99987 48.1444 8.5802 48.1996 8.99285 47.8901L11.1893 46.2427C11.4923 46.0154 11.8978 45.9789 12.2365 46.1483L13.6951 46.8775C14.0338 47.0469 14.2479 47.3932 14.2479 47.772V49.1454C14.2479 49.6977 14.6956 50.1454 15.2479 50.1454H20.0855C20.6377 50.1454 21.0855 49.6977 21.0855 49.1454V47.8469C21.0855 47.4301 21.344 47.057 21.7343 46.9106L23.9597 46.0761C24.2963 45.9499 24.6748 46.014 24.951 46.2442L26.3325 47.3955C26.7439 47.7383 27.3524 47.6962 27.7127 47.2999L30.799 43.905C31.1157 43.5565 31.1465 43.0343 30.8728 42.6511L29.5011 40.7307C29.3151 40.4704 29.265 40.1368 29.3661 39.8332L29.8575 38.3592C29.9808 37.9892 30.3081 37.7247 30.6957 37.6816L33.0164 37.4237C33.5228 37.3675 33.906 36.9394 33.906 36.4298V31.9146C33.906 31.3623 33.4582 30.9146 32.906 30.9146H30.8141C30.3676 30.9146 29.9752 30.6187 29.8526 30.1894L29.3504 28.4318C29.2595 28.1136 29.3319 27.7711 29.5437 27.5169L30.7572 26.0606C31.0883 25.6633 31.0618 25.0791 30.6961 24.7134L27.7232 21.7404C27.3537 21.3709 26.762 21.3482 26.3653 21.6882L24.5495 23.2446C24.2602 23.4926 23.855 23.5546 23.5048 23.4045L21.6915 22.6274C21.3238 22.4698 21.0855 22.1083 21.0855 21.7082V19.0941C21.0855 18.5419 20.6377 18.0941 20.0855 18.0941H15.2479C14.6956 18.0941 14.2479 18.5419 14.2479 19.0941V21.7496C14.2479 22.1284 14.0338 22.4746 13.6951 22.644L12.2776 23.3528C11.9178 23.5327 11.4851 23.4794 11.1796 23.2176L9.3954 21.6882C8.99866 21.3482 8.40699 21.3709 8.0375 21.7404L4.92845 24.8494C4.62409 25.1538 4.54864 25.6188 4.74113 26.0038L5.49343 27.5084C5.62498 27.7715 5.63402 28.0791 5.51815 28.3495Z" stroke="white" stroke-width="1.5"/>
<path d="M17.6657 27.4956C21.442 27.4956 24.5033 30.5569 24.5033 34.3332C24.5033 38.1095 21.442 41.1708 17.6657 41.1708C13.8894 41.1708 10.8281 38.1095 10.8281 34.3332C10.8281 30.5569 13.8894 27.4956 17.6657 27.4956Z" stroke="white" stroke-width="1.5"/>
</svg>
