<svg width="52" height="57" viewBox="0 0 52 57" fill="none" xmlns="http://www.w3.org/2000/svg">
<path d="M34.1309 31.1513L48.7852 20.3198" stroke="white" stroke-width="1.5"/>
<path d="M36.6797 37.5225H51.3341" stroke="white" stroke-width="1.5"/>
<path d="M1 1.20536C13.117 -0.30926 28.7345 6.80242 25.3152 14.3676C25.2513 14.5091 25.2113 14.6662 25.2127 14.8214C25.234 17.0864 25.5432 20.2152 25.3195 21.745C25.2739 22.0565 25.317 22.3835 25.4962 22.6423L30.6613 30.103C30.8404 30.3618 30.8903 30.694 30.7735 30.9863C30.1274 32.6033 29.2672 33.177 28.4651 33.3197C27.651 33.4647 26.9595 34.1657 27.1123 34.9784C27.3464 36.2235 26.9766 36.7682 26.4905 37.0511C25.9055 37.3916 25.7716 37.9455 26.1899 38.4777C27.5175 40.1668 26.0416 41.1671 25.4138 41.7596C25.2702 41.8951 25.213 42.0911 25.2069 42.2884C25.0634 46.8932 21.6698 47.655 19.7352 47.7132C19.5653 47.7183 19.3941 47.67 19.244 47.5904C13.7429 44.6707 13.7429 49.6459 13.7429 50.9028V54.5658C13.7429 55.2616 13.0501 55.7447 12.3972 55.5042L1.63715 51.54" stroke="white" stroke-width="1.5"/>
<path d="M34.1309 43.894L48.7852 54.7255" stroke="white" stroke-width="1.5"/>
</svg>
