<svg width="52" height="53" viewBox="0 0 52 53" fill="none" xmlns="http://www.w3.org/2000/svg">
<path d="M34.8473 18.9868C43.7624 18.9868 50.9895 26.2139 50.9895 35.129C50.9895 44.0441 43.7624 51.2712 34.8473 51.2712C25.9322 51.2712 18.7051 44.0441 18.7051 35.129C18.7051 26.2139 25.9322 18.9868 34.8473 18.9868Z" stroke="white" stroke-width="1.5"/>
<path d="M25.9941 30.4425C28.077 26.7974 31.2013 28.8803 31.722 30.4425" stroke="white" stroke-width="1.5"/>
<path d="M8.29102 12.6807C10.3739 9.0357 13.4982 11.1186 14.0189 12.6807" stroke="white" stroke-width="1.5"/>
<path d="M19.7461 12.6807C21.829 9.0357 24.9533 11.1186 25.474 12.6807" stroke="white" stroke-width="1.5"/>
<path d="M32.243 18.466C32.243 1.28238 19.7458 0.240944 14.5386 1.28237C2.56215 2.32378 1.00007 13.2589 1 18.466C0.999845 29.9218 10.8936 33.5668 18.1836 33.5668" stroke="white" stroke-width="1.5"/>
<path d="M37.4512 30.4425C39.534 26.7974 42.6583 28.8803 43.1791 30.4425" stroke="white" stroke-width="1.5"/>
<path d="M26.5156 39.2944C33.2849 49.7088 41.0957 42.9394 42.6578 39.2944" stroke="white" stroke-width="1.5"/>
<path d="M9.33203 24.7148C14.0185 16.3834 22.3499 20.5491 23.9121 22.632" stroke="white" stroke-width="1.5"/>
</svg>
