<svg width="52" height="48" viewBox="0 0 52 48" fill="none" xmlns="http://www.w3.org/2000/svg">
<path d="M15.2625 14.5294C15.1118 14.0822 13.7827 12.3925 9.26167 8.13715C8.92068 7.8162 8.40042 7.77288 8.02899 8.05803C4.99552 10.3868 0.237141 15.7033 1.10379 21.897C1.1292 22.0786 1.20562 22.2442 1.32558 22.3829C8.23334 30.369 22.7256 45.9558 27.3608 46.6294C27.4568 46.6434 27.544 46.6359 27.6388 46.6148C30.5612 45.9641 36.5513 43.5605 38.9862 38.7659C39.1657 38.4125 39.0881 37.988 38.8177 37.6982L33.9298 32.4611C33.3889 31.8816 32.1895 32.0492 31.6139 32.5943C30.9742 33.2001 30.0052 33.901 28.5918 34.5909C28.2199 34.7724 27.7759 34.6879 27.4834 34.3953L12.9923 19.9042C12.6678 19.5798 12.6058 19.0761 12.8419 18.6826L15.2003 14.752L15.2025 14.7482C15.244 14.6792 15.2882 14.6055 15.2625 14.5294Z" stroke="white" stroke-width="1.5"/>
<path d="M12.9102 8.99988C17.8041 5.61178 19.9687 5.07846 20.4393 5.23532M20.4393 5.23532L16.6747 3.35303M20.4393 5.23532L18.557 8.5293" stroke="white" stroke-width="1.5"/>
<path d="M30.3223 5.24928C38.7925 7.11758 42.5023 15.5654 42.5571 16.0584M42.5571 16.0584L43.4981 13.235M42.5571 16.0584L39.7336 15.5879M43.0276 30.1755L40.2042 34.8812M40.2042 34.8812L39.7336 31.1167M40.2042 34.8812L43.9688 33.9401" stroke="white" stroke-width="1.5"/>
<path d="M25.1461 1C25.9258 1 26.5578 1.63204 26.5578 2.41171C26.5578 3.19138 25.9258 3.82342 25.1461 3.82342C24.3664 3.82342 23.7344 3.19138 23.7344 2.41171C23.7344 1.63204 24.3664 1 25.1461 1Z" stroke="white" stroke-width="1.5"/>
<path d="M43.9684 19.8228C44.748 19.8228 45.3801 20.4548 45.3801 21.2345C45.3801 22.0141 44.748 22.6462 43.9684 22.6462C43.1887 22.6462 42.5566 22.0141 42.5566 21.2345C42.5566 20.4548 43.1887 19.8228 43.9684 19.8228Z" stroke="white" stroke-width="1.5"/>
<path d="M22.793 6.17626V8.99968H27.4987V6.17626C26.5575 3.82341 24.2047 3.82341 22.793 6.17626Z" stroke="white" stroke-width="1.5"/>
<path d="M41.6152 24.4111V27.2345H46.3209V24.4111C45.3798 22.0583 43.0269 22.0583 41.6152 24.4111Z" stroke="white" stroke-width="1.5"/>
<path d="M23.2637 22.1758C26.0871 22.1758 26.0871 24.0581 26.0871 24.9992" stroke="white" stroke-width="1.5"/>
<path d="M23.2637 18.4111C29.3811 18.4111 29.8517 23.5874 29.8517 24.9991" stroke="white" stroke-width="1.5"/>
<path d="M23.2637 14.6463C31.2634 14.1758 34.5574 23.1166 33.1457 24.9989" stroke="white" stroke-width="1.5"/>
</svg>
