<svg width="52" height="48" viewBox="0 0 52 48" fill="none" xmlns="http://www.w3.org/2000/svg">
<path d="M41.1048 8.8125L35.8965 14.5417" stroke="white" stroke-width="1.5"/>
<path d="M22.3535 14.0208V2C22.3535 1.44771 22.8012 1 23.3535 1H49.9993C50.5516 1 50.9994 1.44772 50.9994 2V25C50.9994 25.5523 50.5516 26 49.9994 26H48.3535C47.8012 26 47.3535 26.4477 47.3535 27V27.9716C47.3535 28.7283 46.5456 29.2108 45.8794 28.8521L40.8047 26.1195C40.659 26.0411 40.4961 26 40.3306 26H36.416" stroke="white" stroke-width="1.5"/>
<path d="M35.4167 14.5415H3.29978H2C1.44772 14.5415 1 14.9892 1 15.5415V40.104C1 40.6563 1.44772 41.104 2 41.104H6.99006C7.44893 41.104 7.84891 41.4163 7.9602 41.8615L8.95537 45.8422C9.1321 46.5491 9.98124 46.8357 10.5502 46.3805L16.8719 41.3231C17.0492 41.1813 17.2695 41.104 17.4966 41.104H35.4167C35.969 41.104 36.4167 40.6563 36.4167 40.104V15.5415C36.4167 14.9892 35.969 14.5415 35.4167 14.5415Z" stroke="white" stroke-width="1.5"/>
<path d="M9.85417 26C11.2924 26 12.4583 27.1659 12.4583 28.6042C12.4583 30.0424 11.2924 31.2083 9.85417 31.2083C8.41593 31.2083 7.25 30.0424 7.25 28.6042C7.25 27.1659 8.41593 26 9.85417 26Z" stroke="white" stroke-width="1.5"/>
<path d="M19.2292 26C20.6674 26 21.8333 27.1659 21.8333 28.6042C21.8333 30.0424 20.6674 31.2083 19.2292 31.2083C17.7909 31.2083 16.625 30.0424 16.625 28.6042C16.625 27.1659 17.7909 26 19.2292 26Z" stroke="white" stroke-width="1.5"/>
<path d="M28.6042 26C30.0424 26 31.2083 27.1659 31.2083 28.6042C31.2083 30.0424 30.0424 31.2083 28.6042 31.2083C27.1659 31.2083 26 30.0424 26 28.6042C26 27.1659 27.1659 26 28.6042 26Z" stroke="white" stroke-width="1.5"/>
<path d="M30.6863 14.5416C30.2522 10.6325 32.7154 7.81012 36.2641 7.28256C37.7384 7.06338 39.2993 7.35639 40.4911 8.2515C41.0368 8.66137 41.5001 9.14735 41.894 9.68055C45.0961 14.0149 41.8044 19.7499 36.4155 19.7499V19.7499" stroke="white" stroke-width="1.5"/>
</svg>
