<svg width="51" height="50" viewBox="0 0 51 50" fill="none" xmlns="http://www.w3.org/2000/svg">
<path d="M30.5 39.7225L46 34.2225C48.957 33.2367 51.4282 35.6514 49.1045 38.1149C49.0374 38.186 48.9562 38.246 48.87 38.2922L28.8272 49.0469C28.6161 49.1602 28.3714 49.1939 28.1375 49.1419L10.9166 45.315C10.6505 45.2559 10.3718 45.308 10.1449 45.4592L5.58936 48.4962C5.04073 48.862 4.29449 48.6059 4.08598 47.9804L1.21793 39.3763C1.08671 38.9826 1.21098 38.5505 1.52488 38.2792C3.58538 36.4978 7.61652 32.6441 9.91904 30.7875C9.97386 30.7433 10.0319 30.7064 10.0951 30.6753C13.0675 29.2143 16.2296 28.8478 19 31.2225C20.8333 32.7225 22.5 35.2224 27.5 34.7225C30.5 34.7225 33 36.2224 30.5 39.7225ZM30.5 39.7225H19.5" stroke="white" stroke-width="1.5"/>
<path d="M32.5 31.7222H38.5" stroke="white" stroke-width="1.5"/>
<path d="M30.5 28.2222H41" stroke="white" stroke-width="1.5"/>
<path d="M41.0008 24.7221H31.0008C30.4485 24.7221 30.0008 24.2744 30.0008 23.7221V22.1905C30.0008 21.8937 29.8661 21.6114 29.6417 21.4172C23.9817 16.5191 23.5415 11.6307 25.5008 7.22214C27.0513 3.73328 36.4411 -4.22701 44.9198 6.12266C44.9723 6.18672 45.0169 6.2574 45.0523 6.3323C46.0988 8.55107 49.289 14.1898 42.2957 21.4223C42.1113 21.613 42.0008 21.8711 42.0008 22.1364V23.7221C42.0008 24.2744 41.5531 24.7221 41.0008 24.7221Z" stroke="white" stroke-width="1.5"/>
</svg>
