<svg width="58" height="58" viewBox="0 0 58 58" fill="none" xmlns="http://www.w3.org/2000/svg">
<path d="M22.4991 28C19.8681 31.3828 22.6054 33.9179 24.5516 34.7558C25.4189 35.1292 26.5746 35.3 26.7786 36.2219C27.132 37.8183 26.6304 40.3936 26.999 41.5" stroke="white" stroke-width="1.5"/>
<path d="M35.5001 28C37.4281 31.5349 35.8019 33.4098 34.156 34.1706C32.954 34.7261 31.1723 35.0973 30.8616 36.3846C30.546 37.6916 31 39.1418 31 41.5" stroke="white" stroke-width="1.5"/>
<path d="M51.5 50C52.3284 50 53 50.6716 53 51.5C53 52.3284 52.3284 53 51.5 53C50.6716 53 50 52.3284 50 51.5C50 50.6716 50.6716 50 51.5 50Z" stroke="white" stroke-width="1.5"/>
<path d="M6.5 44C7.32843 44 8 44.6716 8 45.5C8 46.3284 7.32843 47 6.5 47C5.67157 47 5 46.3284 5 45.5C5 44.6716 5.67157 44 6.5 44Z" stroke="white" stroke-width="1.5"/>
<path d="M2.5 24C3.32843 24 4 24.6716 4 25.5C4 26.3284 3.32843 27 2.5 27C1.67157 27 1 26.3284 1 25.5C1 24.6716 1.67157 24 2.5 24Z" stroke="white" stroke-width="1.5"/>
<path d="M55.5 24C56.3284 24 57 24.6716 57 25.5C57 26.3284 56.3284 27 55.5 27C54.6716 27 54 26.3284 54 25.5C54 24.6716 54.6716 24 55.5 24Z" stroke="white" stroke-width="1.5"/>
<path d="M29 1C30.1046 1 31 1.89543 31 3C31 4.10457 30.1046 5 29 5C27.8954 5 27 4.10457 27 3C27 1.89543 27.8954 1 29 1Z" stroke="white" stroke-width="1.5"/>
<path d="M29 4.5V10" stroke="white" stroke-width="1.5"/>
<path d="M17 16C16.696 16 12.5217 16 8.99926 16C7.3424 16 6 14.6569 6 13V10.5" stroke="white" stroke-width="1.5"/>
<path d="M50.5 12L47.3787 15.1213C46.8161 15.6839 46.053 16 45.2574 16H40.5" stroke="white" stroke-width="1.5"/>
<path d="M44.5 25.5H53.5" stroke="white" stroke-width="1.5"/>
<path d="M13.5 25.5H4" stroke="white" stroke-width="1.5"/>
<path d="M22.5002 41.4999C21.5 38.5 20.3047 38.5 19.0002 36.9999C8.99997 25.4998 16.0836 16.4998 19.0002 13.9999C29.5001 4.99985 41.1667 14.0001 43 19.5C46.2893 29.3683 41.1876 34.5256 38.9015 37.0474C38.633 37.3436 38.3092 37.5821 37.9766 37.804C36.3521 38.8879 35.6513 40.7433 35.5 41.4999" stroke="white" stroke-width="1.5"/>
<path d="M24.9999 23.5C16.9997 19.9999 26 10.5 29 19" stroke="white" stroke-width="1.5"/>
<path d="M29.0005 19.4998C30.6811 11.2482 40.6431 17.9877 33.236 22.5369" stroke="white" stroke-width="1.5"/>
<path d="M33.3689 22.4215C39.8947 20.7228 39.4394 30.8322 33.1665 26.9145" stroke="white" stroke-width="1.5"/>
<path d="M24.9995 23.5C20.3546 18.3684 15.9101 28.3312 23.4996 28.4999" stroke="white" stroke-width="1.5"/>
<path d="M22.4999 50C22 58.5 35.4999 60.5 35.4999 50" stroke="white" stroke-width="1.5"/>
<path d="M36.9997 46H20.4997C17.9995 46 16.9997 49.5 20.9997 50H36.9997C39.9999 50 39.9999 46 36.9997 46Z" stroke="white" stroke-width="1.5"/>
<path d="M36.9997 42H20.4997C17.9995 42 16.9997 45.5 20.9997 46H36.9997C39.9999 46 39.9999 42 36.9997 42Z" stroke="white" stroke-width="1.5"/>
<path d="M51.5 46C54.5376 46 57 48.4624 57 51.5C57 54.5376 54.5376 57 51.5 57C48.4624 57 46 54.5376 46 51.5C46 48.4624 48.4624 46 51.5 46Z" stroke="white" stroke-width="1.5"/>
<path d="M6.5 40C9.53757 40 12 42.4624 12 45.5C12 48.5376 9.53757 51 6.5 51C3.46243 51 1 48.5376 1 45.5C1 42.4624 3.46243 40 6.5 40Z" stroke="white" stroke-width="1.5"/>
<path d="M6 2C8.20914 2 10 3.79086 10 6C10 8.20914 8.20914 10 6 10C3.79086 10 2 8.20914 2 6C2 3.79086 3.79086 2 6 2Z" stroke="white" stroke-width="1.5"/>
<path d="M53 5C55.2091 5 57 6.79086 57 9C57 11.2091 55.2091 13 53 13C50.7909 13 49 11.2091 49 9C49 6.79086 50.7909 5 53 5Z" stroke="white" stroke-width="1.5"/>
<path d="M6.5 39.5V37.6875C6.5 36.0306 7.84315 34.6875 9.5 34.6875H17.5" stroke="white" stroke-width="1.5"/>
<path d="M42 34H48C49.6569 34 51 35.3431 51 37V45.5" stroke="white" stroke-width="1.5"/>
</svg>
