<svg width="58" height="47" viewBox="0 0 58 47" fill="none" xmlns="http://www.w3.org/2000/svg">
<path d="M31.8893 17.5127H51.748C51.8752 17.5127 52.0037 17.5375 52.1212 17.5862C56.6737 19.4728 57.2483 22.2535 57.2483 23.9999L56.6586 35.7947C56.6586 38.3345 53.8102 39.1653 51.9468 39.3092C51.58 39.3376 51.2421 39.5352 51.0677 39.8591L47.9964 45.563C47.6424 46.2204 46.7188 46.272 46.2937 45.6581L42.2132 39.764C42.0264 39.4942 41.7192 39.3332 41.391 39.3332H29.7117C29.5918 39.3332 29.4715 39.3117 29.36 39.2675C25.7156 37.8239 24.4163 34.7909 24.2227 33.4358" stroke="white" stroke-width="1.5"/>
<path d="M33.6582 33.436H52.53" stroke="white" stroke-width="1.5"/>
<path d="M37.1973 28.1284H52.5306" stroke="white" stroke-width="1.5"/>
<path d="M41.3262 23.4102H52.5313" stroke="white" stroke-width="1.5"/>
<path d="M7.12044 33.4262L7.12046 37.7506C7.12046 38.6859 8.28989 39.1093 8.88866 38.3908L12.7183 33.7955C12.9083 33.5675 13.1897 33.4357 13.4865 33.4357H23.6335C30.6959 34.0242 40.1083 17.5785 25.4904 12.237C25.4339 12.2163 25.3756 12.2005 25.3163 12.1909C21.7128 11.6059 12.3902 11.0348 7.71021 12.2049C-0.953873 15.6706 -1.13227 27.6224 6.62159 32.5453C6.92454 32.7376 7.12044 33.0674 7.12044 33.4262Z" stroke="white" stroke-width="1.5"/>
<path d="M8.29883 22.4102V22.0513C8.29883 21.499 8.74654 21.0513 9.29883 21.0513H9.6578C10.2101 21.0513 10.6578 21.499 10.6578 22.0513V22.4102C10.6578 22.9625 10.2101 23.4102 9.6578 23.4102H9.29883C8.74654 23.4102 8.29883 22.9625 8.29883 22.4102Z" fill="white"/>
<path d="M16.5566 22.4102V22.0513C16.5566 21.499 17.0044 21.0513 17.5566 21.0513H17.9156C18.4679 21.0513 18.9156 21.499 18.9156 22.0513V22.4102C18.9156 22.9625 18.4679 23.4102 17.9156 23.4102H17.5566C17.0044 23.4102 16.5566 22.9625 16.5566 22.4102Z" fill="white"/>
<path d="M23.6328 22.4102V22.0513C23.6328 21.499 24.0805 21.0513 24.6328 21.0513H24.9918C25.5441 21.0513 25.9918 21.499 25.9918 22.0513V22.4102C25.9918 22.9625 25.5441 23.4102 24.9918 23.4102H24.6328C24.0805 23.4102 23.6328 22.9625 23.6328 22.4102Z" fill="white"/>
<path d="M18.3262 11.0256V4C18.3262 2.34315 19.6693 1 21.3262 1H47.7621C49.4189 1 50.7621 2.34315 50.7621 4V16.9231" stroke="white" stroke-width="1.5"/>
</svg>
