<svg width="46" height="45" viewBox="0 0 46 45" fill="none" xmlns="http://www.w3.org/2000/svg">
<path d="M32.2929 43.2929L22.7691 33.7691C22.5815 33.5816 22.3272 33.4762 22.062 33.4762H2C1.44772 33.4762 1 33.0285 1 32.4762V2C1 1.44772 1.44771 1 2 1H44C44.5523 1 45 1.44772 45 2V32.4762C45 33.0285 44.5523 33.4762 44 33.4762H35C34.4477 33.4762 34 33.9239 34 34.4762V42.5858C34 43.4767 32.9229 43.9229 32.2929 43.2929Z" stroke="white" stroke-width="1.5"/>
<path d="M7.80859 14.0952L10.973 19.9719C11.2456 20.4782 11.8879 20.6508 12.3775 20.3495L18.2848 16.7143" stroke="white" stroke-width="1.5"/>
<path d="M22.4766 11.4761V17.8094C22.4766 18.3617 22.9243 18.8094 23.4766 18.8094H28.7623" stroke="white" stroke-width="1.5"/>
<path d="M14.0956 24.0476C19.3337 29.8096 27.1908 30.3334 31.9051 23.5238C34.8286 18.0945 34.006 11.5205 27.2593 8.36513C27.2145 8.34413 27.1646 8.3256 27.117 8.31188C14.6139 4.70899 13.2192 15.5006 11.4766 19.8571" stroke="white" stroke-width="1.5"/>
</svg>
