<svg width="44" height="44" viewBox="0 0 44 44" fill="none" xmlns="http://www.w3.org/2000/svg">
<path d="M17.9839 1H2C1.44772 1 1 1.44772 1 2V34.7442C1 35.2965 1.44771 35.7442 2 35.7442H22.5317C23.1387 35.7442 23.6057 35.2078 23.5222 34.6066L18.9744 1.86243C18.9058 1.36805 18.4831 1 17.9839 1Z" stroke="white" stroke-width="1.5"/>
<path d="M15.5 35.4998L15.9482 39.9762C15.9556 40.0498 15.9713 40.1238 15.9959 40.1936C16.7311 42.2801 18.0528 42.6221 18.7341 42.5233C18.815 42.5116 18.896 42.4998 18.9778 42.4998H40.4467C40.5285 42.4998 40.6105 42.4905 40.6889 42.4674C42.134 42.0417 42.5 40.7136 42.5 40.087V11.2958C42.5 11.1883 42.4832 11.0804 42.4461 10.9795C41.6784 8.89142 40.0437 8.58561 39.2193 8.70413C39.1541 8.7135 39.089 8.72075 39.0231 8.72075H20.3024" stroke="white" stroke-width="1.5"/>
<path d="M31.8828 16.4419V20.7849" stroke="white" stroke-width="1.5"/>
<path d="M26.0938 20.3022H38.1577" stroke="white" stroke-width="1.5"/>
<path d="M36.2271 20.3022C34.6829 24.9348 29.793 29.6317 27.541 31.4011" stroke="white" stroke-width="1.5"/>
<path d="M28.5059 20.3022C28.5059 23.7767 33.9749 29.1491 36.7093 31.4011" stroke="white" stroke-width="1.5"/>
<path d="M6.79102 24.1628L9.52559 10.4899C9.61907 10.0225 10.0295 9.68604 10.5062 9.68604H11.7619C12.2386 9.68604 12.649 10.0225 12.7425 10.4899L15.4771 24.1628" stroke="white" stroke-width="1.5"/>
<path d="M8.23828 17.8896H14.029" stroke="white" stroke-width="1.5"/>
<path d="M16.9238 41.5351L23.6796 34.7793" stroke="white" stroke-width="1.5"/>
</svg>
