<svg width="30" height="29" viewBox="0 0 30 29" fill="none" xmlns="http://www.w3.org/2000/svg">
<path d="M28.8613 6.56372V11.2002" stroke="#007BFF"/>
<path d="M0 27.5825H30.0002" stroke="#007BFF"/>
<path d="M24.8521 5.32739V12.1276" stroke="#007BFF"/>
<path d="M2.27295 6.8728V11.2002" stroke="#007BFF"/>
<path d="M6.35156 5.32739V12.4367" stroke="#007BFF"/>
<path d="M6.04248 14.9094C7.78408 21.4898 11.7375 23.7525 15.6014 23.5989M25.1604 14.9094C25.5092 19.1048 20.6311 23.399 15.6014 23.5989M15.6014 23.5989V27.5825" stroke="#007BFF"/>
<path d="M21.152 13.9955V6.55037C21.152 3.48498 18.667 1 15.6016 1C12.5363 1 10.0513 3.48499 10.0513 6.55037V13.9955C10.0513 17.0609 12.5363 19.5459 15.6016 19.5459C18.667 19.5459 21.152 17.0609 21.152 13.9955Z" stroke="#007BFF"/>
</svg>
