<svg width="32" height="32" viewBox="0 0 32 32" fill="none" xmlns="http://www.w3.org/2000/svg">
<path d="M23.72 18.79H7.47939C7.24082 18.79 7.01012 18.8753 6.82892 19.0305L2.65047 22.6089C2.00171 23.1645 1 22.7035 1 21.8494V2C1 1.44772 1.44772 1 2 1H23.72C24.2723 1 24.72 1.44771 24.72 2V17.79C24.72 18.3423 24.2723 18.79 23.72 18.79Z" stroke="#007BFF"/>
<path d="M6.23193 7.27881H19.4872" stroke="#007BFF"/>
<path d="M6.23193 11.1157H15.6502" stroke="#007BFF"/>
<path d="M9.37305 22.2783V26.1619C9.37305 26.7141 9.82076 27.1619 10.373 27.1619H25.7467C25.9854 27.1619 26.2162 27.2472 26.3975 27.4026L29.3493 29.9328C29.998 30.4888 31.0001 30.0279 31.0001 29.1735V10.3718C31.0001 9.81954 30.5524 9.37183 30.0001 9.37183H27.1631" stroke="#007BFF"/>
</svg>
