<svg width="32" height="31" viewBox="0 0 32 31" fill="none" xmlns="http://www.w3.org/2000/svg">
<path d="M6.86234 9.62051L6.61604 9.27569M6.61604 9.27569L5.43736 7.62553C5.24964 7.36274 4.94657 7.20677 4.62362 7.20677H2.34522C1.79293 7.20677 1.34521 6.75905 1.34521 6.20677V2C1.34521 1.44771 1.79293 1 2.34521 1H24.8275C25.3798 1 25.8275 1.44772 25.8275 2V6.20677C25.8275 6.75905 25.3798 7.20677 24.8275 7.20677H8.72766C8.4208 7.20677 8.13093 7.34766 7.94134 7.58895L6.61604 9.27569Z" stroke="#007BFF"/>
<path d="M6.51713 30.6547L6.27083 30.3099M6.27083 30.3099L5.09214 28.6597C4.90443 28.3969 4.60136 28.2409 4.27841 28.2409H2C1.44772 28.2409 1 27.7932 1 27.2409V23.0342C1 22.4819 1.44772 22.0342 2 22.0342H24.4823C25.0345 22.0342 25.4823 22.4819 25.4823 23.0342V27.2409C25.4823 27.7932 25.0345 28.2409 24.4823 28.2409H8.38244C8.07558 28.2409 7.78571 28.3818 7.59613 28.6231L6.27083 30.3099Z" stroke="#007BFF"/>
<path d="M7.20654 2.72412H18.5856" stroke="#007BFF"/>
<path d="M6.86182 23.7581H18.2409" stroke="#007BFF"/>
<path d="M19.9653 2.72412H23.0687" stroke="#007BFF"/>
<path d="M19.6206 23.7581H22.724" stroke="#007BFF"/>
<path d="M19.9653 5.13794H23.0687" stroke="#007BFF"/>
<path d="M19.6206 26.1719H22.724" stroke="#007BFF"/>
<path d="M7.20654 5.13794H18.5856" stroke="#007BFF"/>
<path d="M6.86182 26.1719H18.2409" stroke="#007BFF"/>
<path d="M4.79286 2.72412C5.55461 2.72412 6.17214 3.34165 6.17214 4.1034C6.17214 4.86516 5.55461 5.48269 4.79286 5.48269C4.0311 5.48269 3.41357 4.86516 3.41357 4.1034C3.41357 3.34165 4.0311 2.72412 4.79286 2.72412Z" stroke="#007BFF"/>
<path d="M4.44813 23.7581C5.20989 23.7581 5.82741 24.3756 5.82741 25.1373C5.82741 25.8991 5.20989 26.5166 4.44813 26.5166C3.68637 26.5166 3.06885 25.8991 3.06885 25.1373C3.06885 24.3756 3.68637 23.7581 4.44813 23.7581Z" stroke="#007BFF"/>
<path d="M18.2415 17.8961H7.51758C6.96529 17.8961 6.51758 17.4484 6.51758 16.8961V13.0342C6.51758 12.4819 6.96529 12.0342 7.51758 12.0342H29.9998C30.5521 12.0342 30.9998 12.4819 30.9998 13.0342V17.2409C30.9998 17.7932 30.5521 18.2409 29.9998 18.2409H27.3972C27.0628 18.2409 26.7506 18.408 26.5651 18.6862L25.4827 20.3099L24.3913 18.4C24.2133 18.0884 23.882 17.8961 23.5231 17.8961H20.3104" stroke="#007BFF"/>
<path d="M8.58594 14.103H19.965" stroke="#007BFF"/>
<path d="M21.6895 14.103H24.1032" stroke="#007BFF"/>
<path d="M8.58594 16.1721H12.7238" stroke="#007BFF"/>
<path d="M14.793 16.1721H24.1031" stroke="#007BFF"/>
<path d="M26.5161 15.1376C26.5161 15.8993 27.1336 16.5169 27.8954 16.5169C28.6572 16.5169 29.2747 15.8993 29.2747 15.1376C29.2747 14.3758 28.6572 13.7583 27.8954 13.7583C27.1336 13.7583 26.5161 14.3758 26.5161 15.1376Z" stroke="#007BFF"/>
</svg>
