<svg width="75" height="249" viewBox="0 0 75 249" fill="none" xmlns="http://www.w3.org/2000/svg">
<path d="M34.0965 106.535C33.8036 107.611 34.2005 108.686 34.9755 108.947C35.7504 109.197 36.6105 108.54 36.9035 107.465C37.1964 106.389 36.7995 105.314 36.0245 105.053C35.2496 104.803 34.3895 105.46 34.0965 106.535Z" stroke="white" stroke-opacity="0.6" stroke-width="2.157" stroke-miterlimit="10" stroke-linecap="round" stroke-linejoin="round"/>
<path d="M40.1546 114.908C40.1546 114.908 41.1575 124.549 43.799 128C43.799 128 37.0893 122.642 34.5891 114.908C29.0518 114.908 15.3075 114.908 10.4482 114.908C5.589 114.908 2.9475 112.389 2.52373 105.842C2.09289 99.2963 1.04052 90.0533 4.14817 86.9723C6.74024 84.4036 12.447 84.9728 19.6794 84.8661C26.9117 84.7594 53.1008 84.1119 59.2596 84.0051C65.4184 83.8984 69.1688 85.4069 69.5996 93.0133C70.0304 100.62 70.0305 103.701 69.974 107.422C69.9175 111.143 68.3636 114.758 61.7246 115.135C55.0784 115.519 40.1546 114.908 40.1546 114.908Z" stroke="white" stroke-opacity="0.6" stroke-width="2.157" stroke-miterlimit="10" stroke-linecap="round" stroke-linejoin="round"/>
<path d="M29.0239 97.2393C29.0239 97.2393 28.3544 92 34.1011 92C37.2046 92 38.5855 94.5173 37.7696 97.2393C36.7095 100.76 32.4482 101.067 34.1011 104" stroke="white" stroke-opacity="0.6" stroke-width="2.157" stroke-miterlimit="10" stroke-linecap="round" stroke-linejoin="round"/>
<path d="M60.52 8.8C62.464 8.8 64.04 7.27777 64.04 5.4C64.04 3.52223 62.464 2 60.52 2C58.576 2 57 3.52223 57 5.4C57 7.27777 58.576 8.8 60.52 8.8Z" stroke="white" stroke-opacity="0.6" stroke-width="2.157" stroke-miterlimit="10" stroke-linecap="round" stroke-linejoin="round"/>
<path d="M36 24L34 41" stroke="white" stroke-opacity="0.6" stroke-width="2.157" stroke-miterlimit="10" stroke-linecap="round" stroke-linejoin="round"/>
<path d="M53 31L43 44" stroke="white" stroke-opacity="0.6" stroke-width="2.157" stroke-miterlimit="10" stroke-linecap="round" stroke-linejoin="round"/>
<path d="M66 47L50 52" stroke="white" stroke-opacity="0.6" stroke-width="2.157" stroke-miterlimit="10" stroke-linecap="round" stroke-linejoin="round"/>
<path d="M31.5988 170C38.0386 173.809 42.5172 180.903 31.0224 189.763C20.3094 198.025 14.3268 195.795 14.0088 191.362C13.5782 185.416 29.015 176.942 41.6692 192.052C51.6733 203.998 36.4154 212.95 35.7926 210.196C35.1698 207.442 50.4013 197.574 73 218" stroke="white" stroke-opacity="0.6" stroke-width="2.157" stroke-miterlimit="10" stroke-linecap="round" stroke-linejoin="round"/>
<path d="M27.62 248.92C30.1716 248.92 32.24 246.923 32.24 244.46C32.24 241.997 30.1716 240 27.62 240C25.0684 240 23 241.997 23 244.46C23 246.923 25.0684 248.92 27.62 248.92Z" fill="white" fill-opacity="0.6"/>
<path d="M61.62 156.92C64.1716 156.92 66.24 154.923 66.24 152.46C66.24 149.997 64.1716 148 61.62 148C59.0684 148 57 149.997 57 152.46C57 154.923 59.0684 156.92 61.62 156.92Z" fill="white" fill-opacity="0.6"/>
</svg>
