<svg width="76" height="245" viewBox="0 0 76 245" fill="none" xmlns="http://www.w3.org/2000/svg">
<path d="M17.62 117.92C20.1716 117.92 22.24 115.923 22.24 113.46C22.24 110.997 20.1716 109 17.62 109C15.0684 109 13 110.997 13 113.46C13 115.923 15.0684 117.92 17.62 117.92Z" fill="white" fill-opacity="0.6"/>
<path d="M74 139L60.1759 57.6291H18.0013L12 31" stroke="white" stroke-opacity="0.6" stroke-width="2.157" stroke-miterlimit="10" stroke-linecap="round" stroke-linejoin="round"/>
<path d="M10 31C14.4183 31 18 27.6421 18 23.5C18 19.3579 14.4183 16 10 16C5.58172 16 2 19.3579 2 23.5C2 27.6421 5.58172 31 10 31Z" stroke="white" stroke-opacity="0.6" stroke-width="2.157" stroke-miterlimit="10" stroke-linecap="round" stroke-linejoin="round"/>
<path d="M12 23.5C12 24.8789 10.8799 26 9.50001 26C8.12014 26 7 24.8789 7 23.5C7 22.1211 8.12014 21 9.50001 21C10.8799 21 12 22.1211 12 23.5Z" fill="white" fill-opacity="0.6"/>
<path d="M39 217H19V237H39V217Z" stroke="white" stroke-opacity="0.6" stroke-width="2.157" stroke-miterlimit="10" stroke-linecap="round" stroke-linejoin="round"/>
<path d="M33 223H13V243H33V223Z" stroke="white" stroke-opacity="0.6" stroke-width="2.157" stroke-miterlimit="10" stroke-linecap="round" stroke-linejoin="round"/>
<path d="M46.52 182.8C48.464 182.8 50.04 181.278 50.04 179.4C50.04 177.522 48.464 176 46.52 176C44.576 176 43 177.522 43 179.4C43 181.278 44.576 182.8 46.52 182.8Z" stroke="white" stroke-opacity="0.6" stroke-width="2.157" stroke-miterlimit="10" stroke-linecap="round" stroke-linejoin="round"/>
<path d="M70.52 8.8C72.464 8.8 74.04 7.27777 74.04 5.4C74.04 3.52223 72.464 2 70.52 2C68.576 2 67 3.52223 67 5.4C67 7.27777 68.576 8.8 70.52 8.8Z" stroke="white" stroke-opacity="0.6" stroke-width="2.157" stroke-miterlimit="10" stroke-linecap="round" stroke-linejoin="round"/>
</svg>
